<?xml version="1.0" encoding="UTF-8"?>
<svg id="Layer_1" xmlns="http://www.w3.org/2000/svg" version="1.1" viewBox="0 0 3840 2628.4">
  <!-- Generator: Adobe Illustrator 30.2.1, SVG Export Plug-In . SVG Version: 2.1.1 Build 1)  -->
  <defs>
    <style>
      .st0 {
        fill: #0b191f;
      }
    </style>
  </defs>
  <g id="Group_76">
    <rect id="Rectangle_20" class="st0" y="509.7" width="3840" height="2118.7"/>
    <g id="under_sea_elements">
      <path id="Path_53" class="st0" d="M3547.3,383.4c-15.9-.9-31.6-8.2-44.8-20.7-10-9.5-19.2-24-18.9-41,7.3-3.2,15,3.1,20.7,10.2s11.3,15.5,18.9,17.8c-8-4.3-13.4-14.6-17.8-24.9-12.5-30.3-19.3-62.7-20.1-95.5-.6-19.7,1.2-40.6,9.6-56.4,1.4-2.6,3.3-5.2,5.6-4.9,3.6.4,4.7,7,4.7,12,0,21.2-2.2,42.4-1.8,63.7.4,21.2,3.7,43.3,13.5,59.6-5-5.5-7.4-14.6-7.2-23.4.2-8.6,9-9.9,10.5-1.5l7.6,44.3c1.6,9.4,4.6,20.7,11.5,21.9,5.6-21.2,6.3-43.4,2-64.9-.9-3-1-6.1-.4-9.2.8-2.9,3.7-4.6,6.6-3.8.6.2,1.2.4,1.7.8,2.9,1.9,4.8,5.7,6.6,9.4,4.8-22.7,6.8-46,6-69.2-.8-23.3-4.4-46.8-2-69.9,6.8,3.2,11.1,12.3,14.3,21.3,18.2,52.1,11.6,114.8-2.9,169.1,22.9-16.4,39.3-49.3,42.3-85,.5-6.2,2.4-14.6,6.8-13.7,2.6.5,4.2,4.5,4.9,8.1,2.8,14.4-1,29.6-6.2,42.6s-11.8,25.1-15.3,39.1c30.8-36.6,48.8-93.4,47.3-149.9-.2-6.9.2-15.8,4.8-18.3,3-1.6,6.6.7,8.5,4.3,1.8,4,2.9,8.3,3.2,12.7,3.6,35.2-1.2,70.8-14.2,103.7-11.4,29.3-29.5,55.5-52.7,76.7-3.8,3.5-8,7-9.9,12.8,6.9,6,17.9-9.3,22.9-.5,3.1,5.4-.6,13.1-4.4,17.4-17.3,19.3-42.9,22.6-62,5.2"/>
      <path id="Path_54" class="st0" d="M3661.6,205.7c4.2-18.7,8.9-37.1,14.2-55.3.3-1,.7-2.1,1.5-2.2.4,0,.7.2,1,.4,3,2.4,4.8,7.2,5.3,12,.4,4.8,0,9.7-.9,14.4-1.2,6.9-2.8,13.6-4.9,20.3-1.1,4.2-2.9,8.2-5.5,11.7-2.9,3.4-6.6,4.8-10.6-1.3"/>
      <path id="Path_55" class="st0" d="M3576.4,196.7c2.7-15.2,3.9-30.7,3.8-46.2-.2-3,0-5.9.6-8.8.7-2.8,2.4-5.4,4.5-5.7,1.7,0,3.3.8,4.3,2.2,3.5,3.9,5.1,10.4,5,16.6-.2,6.1-1.2,12.2-3,18.1-2.7,10-6,20-15.2,23.8"/>
      <path id="Path_56" class="st0" d="M3586.9,160.8c4.2-2.3,7.2-7.4,9.7-12.6s4.8-10.7,8.2-14.7c.9-1.1,2.1-2.1,3.3-1.7.7.4,1.3,1,1.6,1.7,2.1,4.1.9,9.9-.8,14.4-2.2,6.1-5.1,11.9-9.2,15.6s-9.6,4.9-12.8-2.8"/>
      <path id="Path_57" class="st0" d="M3496.1,265c-5.8,2.9-12.8,1.3-16.8-3.7-4.3-4.7-6.7-11.9-8.8-18.9-2.3-7-3.8-14.2-4.4-21.5-.2-4.4.6-10,3.7-11.1,1.8-.7,3.7.6,5.3,2.1,3.3,3.4,5.8,7.5,7.2,12.1,1.7,5.3,2.2,11.2,3.7,16.6,2.4,9,7.4,16.5,10.2,24.4"/>
      <path id="Path_58" class="st0" d="M3497.3,209.7c6.1-9.1,10.1-19.5,11.6-30.4.4-4.3,1.2-8.5,2.4-12.6,1.5-3.9,4.4-7,7.5-6.3,2.5.6,4.3,3.4,5.5,6.5,1.8,5.1,2.3,10.5,1.3,15.8-1.6,7.1-5.2,13.7-10.5,18.8-4.7,4.8-9.8,8.9-17.8,8.3"/>
      <path id="Path_59" class="st0" d="M3640.4,273.6c12.5-5.1,19.2-24.1,29.7-34.9,1.4-1.6,3.2-2.9,5.2-3.5,2.1-.5,4.3.5,5.3,2.5,1.1,2.8,1.4,5.9.7,8.8-3,18.2-14.3,31-25.1,42.1-2.5,2.5-5.1,5.1-8.1,5.5-5,.7-9.6-4.8-7.7-20.6"/>
      <path id="Path_60" class="st0" d="M2041.8,148.5c1.5,2.6,3,5.1,4.5,7.7-12.6-7.3-25.3-15-35.3-25.7s-17.1-24.8-16.4-39.3c4.8.3,8.8,3.9,11.3,7.9s3.9,8.7,6.1,13c3.8,7.6,9.9,13.9,17.3,18-9.7-25.7-11.8-53.6-6.2-80.5,3.2-15.4,9.2-30.5,19.3-41.2,1.5-1.8,3.3-3.4,5.4-4.5,2.5,2.3,2.7,6.3,2.1,9.7-2.3,12.9-13,22.7-16.9,35.2-1.2,2.7-.7,5.8,1.3,7.9,7.7-7.6,14.3-16.1,20-25.3,1.1-1.8,3.1-3.8,4.8-2.7.8.7,1.2,1.8,1.2,2.8,0,5.2-1.5,10.3-4.3,14.6-4.5,8.2-11.4,14.9-19.7,19.3-1.9,17.7-3.6,36.3,4.2,53.1,6.7-15.4,13.4-30.8,20.1-46.1.9-2.2,2.5-4.7,4.9-4.4,1,.2,1.9.7,2.6,1.5,3.4,4,4.5,9.4,3.1,14.4,9.9-17.2,15.8-36.4,17.3-56.2.2-3.1,1.5-7.2,4.5-6.8,1.5.4,2.8,1.5,3.4,2.9,5.9,10.2,3.4,23.1-.6,34.1-7,19-17.8,36.4-31.9,50.9,1.3-1.6,2.9-2.8,4.8-3.7,1.9-.8,4.2,0,5.3,1.6,1.4,2.7-1.4,5.5-3.8,7.3-6,4.3-11.9,8.7-18.6,13.6-1,2.3-2,4.5-3,6.8,3.1-4.3,9.3-4.4,14.5-5,13.9-1.9,26-10.7,32.1-23.4,1.4-3,2.5-6.3,5.1-8.5s7.1-2.4,8.7.5c.7,1.8.8,3.7,0,5.5-1.3,5.2-4.1,9.9-7.9,13.5,20.5-10.1,34.8-29.5,38.5-52,.3-1.9,1.2-4.3,3.1-4.1.9.2,1.7.9,2.1,1.7,2.5,4.2,1.7,9.5.8,14.4-1.4,7.2-2.8,14.6-7,20.6-3.5,4.5-7.6,8.4-12.3,11.6-14.5,10.9-29.3,22-45.9,26.2,2.4.9,5,.8,7.3-.1,1.5-.6,3.2-1.7,4.7-1,1.4.8,2,2.5,1.4,4-.6,1.4-1.6,2.7-2.8,3.6l-8.2,7.4c-1.2,1.2-2.5,2.1-3.9,2.9-2.3.9-4.8,1.4-7.3,1.4-8.6.6-17.1,2.5-29.8-5.4"/>
      <path id="Path_61" class="st0" d="M3384.4,430c-3.4-5.6-6-11.7-8-18-2-6.7-2-13.9.1-20.6,1.4-3.6,3.6-6.6,5.2-10,3-6.5,4.2-13.8,3.3-20.9-1.8-15.4-12.3-28.2-10.6-43.6.7-6.2,3.2-11.5,4.9-17.3,2.1-7.7,2.7-15.8,1.6-23.8-.6-4.4-1.4-10,1.4-12.3,2.1-1.8,5,.1,6.1,3.1,1,3.2,1.2,6.7.5,10-1.9,14.3-7.9,28.6-4.9,42.6,1.4,4.9,3.1,9.8,5.1,14.5,4.3,12.6,4.8,26.1,1.6,39-2.2,8.4-6.1,17-4.4,25.6.8,3.8,2.6,7.1,3.4,10.9,1.5,7.4-.6,15-5.5,20.7"/>
      <path id="Path_62" class="st0" d="M3382.1,335.9c-4-6.6-5-16.8-10.4-21.2-4.8-4.1-11-1.7-16.6-2-2.2,0-4.3-.8-5.9-2.3-1.3-1.4-2.4-2.9-3.4-4.5-1.4-1.9-3.1-3.6-5.1-4.9-2-1.3-4.4-2.1-6.3-.6s-2.6,5.9-.7,7.5c1.5,1.3,3.6,0,5.3.8,2.1.8,3,4,4.3,6.4,3.2,5.5,9.1,6.2,14,4.8,2.9-.8,6.1-2.1,8.6,0,.9.9,1.7,1.9,2.3,3,3.1,5.7,8,10.2,13.9,12.8"/>
      <path id="Path_63" class="st0" d="M3382.6,397.1c.2-13.9,6.7-27.3,15.9-32.7,5.6-3.3,11.9-3.8,17.8-6,6.9-2.3,12.1-8,13.9-15.1.5-2.3.9-5.2,2.5-6.3,2.2-1.5,4.7,2.2,4.5,5.6-.4,3.1-1.9,5.9-4.1,8.1-4.7,5.4-10.4,9.8-16.8,13-3.5,1.7-7.2,2.8-10.7,4.6-10.2,5.4-18.5,17.5-22.9,28.7"/>
      <path id="Path_64" class="st0" d="M3381.7,299.7c1.5-5.8,5.3-10.8,10.5-13.7,4.5-2.1,9.7-1.9,13.3-6.3,2.6-3.2,3.7-8.2,5.7-12.2.2-.5.5-.9.9-1.2,1.2-.7,2.2,1.4,2.6,3.2.8,3.4.7,6.9-.5,10.2-.9,1.8-2.3,3.3-3.9,4.4-3.2,2.5-6.5,4.8-10,6.9-6,3.2-12.2,6.1-18.5,8.7"/>
      <path id="Path_65" class="st0" d="M3353.4,314.5c-3.6-2.4-5.7-8-6.3-13.5-.3-5.6,0-11.1,1.1-16.6.4-2.5,1.1-5.5,2.9-5.9,2-.4,3.4,3.1,3.1,5.8-.6,2.6-1.5,5.2-2.6,7.6-2.8,8.1-.3,17.8,1.9,22.5"/>
      <path id="Path_66" class="st0" d="M3396.1,286c2.1-8.1,1.3-17.1,1-25.7,0-.6,0-1.1.1-1.7.2-.8,1-1.4,1.9-1.4,1.7,0,3.1,1.8,3.8,4,.6,2.3.8,4.6.6,6.9-.3,6.9-1.6,14.3-7.4,17.9"/>
      <path id="Path_67" class="st0" d="M3388.7,338.5v1.6c5.3-3.6,9.3-10.6,10.7-18.6.5-2.6.9-5.7,2.7-6.7.2-.2.6-.2.8,0,.2.2.4.4.5.7.6,1.9.7,4,.2,6-.5,1.9-1.1,3.8-1.8,5.6-.7,2.2-1.2,4.5-2,6.6-1.4,4.2-4.1,7.8-7.7,10.3-.3.2-.7.4-1.1.5-1.3.1-2.2-1.8-2.2-5.9"/>
      <path id="Path_68" class="st0" d="M3406.5,363.2c5-7.7,6.9-17,5.4-26.1-.2-.9-.3-1.8-.2-2.7,0-.9.5-1.8,1.2-2,1.2-.4,2,1.8,2.2,3.5.9,8.4-.3,16.8-3.6,24.6-.4,1.2-1.1,2.2-2,3.1-.7.7-1.9.8-2.6,0-.1-.1-.2-.2-.3-.4"/>
      <path id="Path_69" class="st0" d="M3420.6,358.6c6,2.5,12.3,4.1,18.8,4.8,2.7.5,5.4.2,7.9-1.1,1.4-.8,2.4-2.2,2.8-3.8.4-1.8-.4-4.1-1.7-4.3-.8,0-1.5.3-2,.8-3.2,1.7-6.8,2.5-10.5,2.6-1.5.2-3.1.1-4.6-.3-1.3-.7-2.6-1.2-3.9-1.7-1.6-.3-3.4.7-6.6,2.9"/>
      <path id="Path_70" class="st0" d="M3840,319.3v192.4H0V137.5c2.9,1.5,5.8,3,8.8,4.5.9,11.8,2.4,23.6,4,35.4,1.6,12.2,3.3,24.7,8.6,35.8.7-.1,1.3-.3,1.9-.4,0,0,.1.1.2.2,5.3.3,7.1-1.3,7.6-3.1,2.7-.3,5.3-.8,8-1.5.4,0,.8-.2,1.1-.4,0,1.7-.1,3.5,0,5.2.6.6,1.2,1.1,1.8,1.6,0,.4.1.8.2,1.3.4-.2.8-.3,1.2-.5,1.3.6,2.8.1,3.6-1.1,0,0,0-.1.2-.2,1.6-.3,3.2-.9,4.6-1.7,1.3-1.3,2.1-3,2.4-4.7,1.3-4.3,2.3-8.6,2.9-13.1.1-1.3.2-2.5.3-3.8,2.3,7.1,3.9,14.4,5.6,21.6,8,34.7,19.6,68.9,50.5,99,9.4,1.2,18.8,2.8,28,4.8,0,.6.2,1.2.3,1.8.9,3.7,2.5,7.2,4.7,10.4,2.8,4.7,5.5,9.3,8.3,14.5.7,9.5,3.9,18.9,11.2,23.9,2-7.1,4.2-13.2,6.4-18.9,2.3-1.3,3.9-3.5,4.3-6.2.4-1.6.4-3.2.1-4.8,1.5-3.2,2.4-6.6,2.8-10.2h0c16.8,5.6,33.1,12.6,48.6,21.1,13,13,27.6,26.3,33.9,41.1-10.1,8.1-20.6,16.5-33.2,19.8s-27.8.4-34.9-10.4c-2.2-3.3-3.6-7.2-6.2-10.2-5.9-6.6-16.3-6.8-24.8-4.3-15.4,4.7-27.8,16.2-33.6,31.3-1.2,2.5-1.5,5.4-.6,8.1,2.5,5.7,10.8,4.3,16.9,2.9,34.7-8,68.2,16.2,103.6,20.3,26.9,3.1,54.2-5.5,81.1-2.3,54.1,6.5,100.4,59.7,153.5,47.3,29.3-6.8,52.5-33,82.5-34.8,3,6.1,6,12.2,41.8,3.2-16.1-6.8-33.9-8.4-51-4.7,2.4-4.7-1.8-9.9-5.7-13.5-18.7-17.3-39.1-35.4-64.4-38.5-4.1-.5-8.6-.8-11.5-3.7-5.2-5.2-1.1-14.4,4.9-18.7,4.1-2.8,8.6-4.7,13.4-5.9,4.5,2.2,8.8,4.5,12.9,6.9,22.1,12.9,41.9,28.8,85.9,27.3,14.2,8.4,31.3,11.5,49,11.2.9,1.5,1.5,3.2,1.9,4.9.7,3.2.5,6.8,2.2,9.6,2.1,3.3,7,4.7,12.5-.1,5.6-4.6,10.7-9.9,15.2-15.6.8-1.1,1.5-2.2,2.2-3.3,9.9-2.4,19.7-5.5,29.1-9.4,16.8-6.8,32.7-15.2,48.9-22.9.5,1.5,1.1,3,1.7,4.4-.5.7-1.1,1.5-1.6,2.2-1.3-1.5-2.6-2.9-3.9-4.3.8,2,1.7,4,2.7,5.9-3.5,4.9-7.3,9.9-11.3,15.2,4.7-1.7,9.5-5.8,13.9-10.8,1.8,2.7,3.7,5.3,5.7,7.8-2.4-1.8-5.2-3.2-8.1-4.1,2.1,2.7,4.5,2.5,8.1,4.1.5.2,1.1.5,1.6.8.8,10.4,1.3,21.1,1.7,33,3.7-6,4.4-15.7,4-25.4,0-1.7-.1-3.3-.3-5,1,0,1.9-.4,2.7-.9,1.5,3.2,3.5,6.1,6,8.6-1.1-3.9-2-7.7-3-11.4,1.7-2,3-4.4,3.7-6.9,1.2-4.2,1.3-8.6.3-12.8.4,5.6-1,11.1-4,15.8,1.6-4.8,2.1-10,1.4-15,.8-.4,1.6-.9,2.4-1.4,3.5-2.5,6.4-5.9,8.3-9.8-1,1.3-2.1,2.5-3.2,3.7-.2.2-.4.4-.7.7-.4.4-.9.8-1.4,1.2-.2.2-.5.4-.7.6s-.4.3-.6.5c-.6.4-1.2.8-1.8,1.2-.2.1-.3.2-.5.3-.2.1-.5.3-.7.4-.2.1-.4.2-.6.3-.1,0-.2.1-.4.2,0,0-.2,0-.3.1h0c-.2-.3-.1-.2-.3-.6,4.2-3,7.5-7,9.8-11.6,8-3,16.3-5.4,24.6-7.2,12-2.5,24.2-3.8,36.4-3.7,1.2,2.8,2.3,5.6,3.1,8.6,1.4-.9,3.2-.9,4.6,0,1.5.7,2.6,1.9,4,2.7,2.8,1.6,6.3,1.8,6.8-2.9,2.6-2.1,5.2-4.3,7.9-6.4,18.8,2.7,37.3,7.2,55.2,13.5,2.5,8.8,7.4,16.6,14.1,22.8,0,.6,0,1.2.1,1.8,0,.8.2,1.7.7,2.4.2.2.5.3.8.2,2.1.1,4.1.2,6.2.3h0c1.1.5,2.3.8,3.5,1.1-.4-.3-.9-.6-1.3-1,5.5.3,11.1.6,16.6.9,4,.5,8,.1,11.8-1.3,4.8-2.4,8.3-6.6,9.9-11.7,1-2.9,1.3-5.9.9-8.9,4.5-4.5,8.4-9.6,11.5-15.2,20.7-4.3,41.7-8,62.8-10.8,12.8-1.7,25.8-3.2,38.7-1.9,7.2.8,14.4,2.2,21.3,4.4h0c2.8,1.7,5.5,3.4,8.1,5.3,7.7,5.3,14.9,11.4,21.5,18,2.5,2.5,4.9,5.1,7.3,7.7,10,10.8,20,21.6,30,32.4-1.9,4.3-3.4,8.8-4.3,13.5-.3.8-.3,1.7,0,2.6.6,1.2,2.2,1.5,3.6,1.6,7.2.5,14.4,1.1,21.6,1.6,7.3,1.6,14.8-1.7,18.6-8.1,12.3-14.5,24.3-29.2,35.9-44.2,20.1-2.5,39.6-7.7,58.2-15.7,5.5-2.4,11-5.1,14.5-9.2,5-5.9,5.2-13.7,10.2-19.6s14.1-8.9,22.8-11.1c3.8-1,7.7-1.8,11.5-2.6,2.8,9.8,5,19.8,6.4,29.9,0,1-.2,2-.3,3.1-.6,5.5-1.6,10.8-1.8,16.3-.1,4.5,0,8.9.4,13.4,0,1.8.3,3.5,1.1,5.1.5.9,1.4,1.5,2.9,2.6,0,0,0,.2,0,.3.4,1.1,1,2.1,2.3,1.8.2.2.5.5.8.7.1-.4.2-.8.3-1.2.5-.3,1-.7,1.4-1.2.2-1.7.4-3.4.6-5.1.2.2.4.5.7.6,1.6,1.2,3.4,2.2,5.2,3,0,1.9,1.1,3.8,4.8,4.6,0,0,0-.1.1-.2.4.3.8.6,1.2.8,5-9.8,7.6-21.7,10.2-33.3.7-3.1,1.4-6.3,2.1-9.4.4.2.9.4,1.4.6,0,0,0,.2.1.3.8,1.4,2.4,2.1,3.9,1.7.4.2.8.4,1.3.7.2-.4.4-.8.6-1.2.9-.3,1.7-.7,2.5-1.2.5-1.7.8-3.4,1.2-5.1.4.2.8.5,1.2.6,2.9,1.2,5.9,2.1,9,2.9.1,1.9,1.8,3.8,8.1,4.5,0,0,.2-.1.2-.2.7.3,1.4.6,2.1.8,8.9-9.9,13.8-21.9,18.6-33.6.7-1.7,1.4-3.4,2.1-5,4.3,13.6,9.1,27,16.6,38.3.7-.4,1.3-.7,2-1.1l.2.2c5.9-1.3,7.4-3.9,7.5-6.4,2.9-1.2,5.7-2.7,8.3-4.3.4-.2.8-.5,1.1-.9.3,2.3.8,4.6,1.2,6.8.8.6,1.5,1.1,2.4,1.5.2.5.4,1.1.6,1.6.4-.3.8-.7,1.2-1,1.7.3,3.3-.8,3.6-2.5,0-.1,0-.2.1-.3,1.7-.9,3.3-2.2,4.5-3.7,1.1-2.2,1.5-4.5,1.4-6.9.3-6,.3-12-.1-18,11.1,1.3,22.3,2.7,33.5,4,5.6,6.4,11.6,12.3,18.1,17.8,7.7,6.8,14.5,4.8,17.4.2,2.4-3.9,2.2-8.9,3.1-13.4,0-.2,0-.4.1-.6,29.7,2.5,59.7,3.4,90,.2,31-8.7,46.9-34.2,58.7-58.8,2.1,2.6,4.6,4.9,7.3,6.9,8.9-10.3,20.1-18.3,32.8-23.3,9-3.6,19.3-6,25.2-13.7,7.3-9.6,3.4-25.5-7.5-30.7-3.3-1.5-6.9-2.2-10.2-3.7,6.8-4.1,14.2-6.9,22-8.5,9.9-2.1,20.3-2.1,30.2-3.9,32-6,52.7-29.1,76-47.2,3.1-2.4,6.2-4.7,9.4-6.9,2,1,3.9,1.9,5.9,2.9-.2,2.6,0,5.1.5,7.6,0,.5.2.9.5,1.3.5.5,1.4.3,2.1.1,3.7-1.1,7.5-2.3,11.2-3.4,4-.6,7.1-3.7,7.8-7.7,2.4-6.8,4.7-13.7,6.8-20.6,2.1-1,4.2-1.9,6.2-2.8,15.7-6.8,33.5-6.7,49.2.1,17.9,7.7,34.7,17.5,50.1,29.4,23.3,18.1,44,41.2,76,47.2,9.9,1.9,20.3,1.9,30.2,3.9,35.5,7.4,53.3,37.7,65.7,64.7s28.1,57.5,62.7,67.2c110.1,11.6,216.6-31.2,315.2-6.7,8.7,2.2,17.7,5.1,22.8,11.1,5,5.9,5.2,13.7,10.2,19.6,3.5,4.1,9,6.8,14.5,9.2,29.5,12.5,61.4,18.5,93.5,17.3,50.7,2.6,84.8-32,128.4-36.3,12.9-1.3,25.9.2,38.7,1.9,41,5.6,81.6,14,121.5,25.3,49.5-19.6,94.2-26.3,134-17.7,38,8.2,69.3,28.9,104.3,43.2,35,14.3,80.6,21.3,112.1,2.7,44.1,1.5,63.9-14.4,85.9-27.3s49.8-23.3,76.5-18c25,4.9,43.2,22.5,67.8,28.7,23.8,6,50.1.3,71.8-9.3s40.2-23.1,60.6-34.3c23.9-13.1,49.4-23,75.9-29.6"/>
      <path id="Path_71" class="st0" d="M54.5,183.8c1,2.4,1.9,4.8,2.7,7.2,0,1.3-.1,2.5-.3,3.8-.6,4.4-1.6,8.8-2.9,13.1-.3,1.8-1.2,3.4-2.4,4.7-1.4.8-3,1.4-4.6,1.7,0,0,0,.1-.2.2-.8,1.2-2.3,1.6-3.6,1.1-.4.1-.8.3-1.2.5,0-.4-.2-.8-.2-1.3-.7-.5-1.3-1-1.8-1.6,0-1.7,0-3.5,0-5.2-.3.2-.7.3-1.1.4-2.6.7-5.3,1.1-8,1.5-.5,1.8-2.3,3.4-7.6,3.1,0,0-.1-.1-.2-.2-.6.2-1.2.3-1.9.4-5.3-11.1-7-23.6-8.6-35.8-1.5-11.8-3.1-23.6-4-35.4,3.1,1.6,6.2,3.3,9.3,5.1.4.2.7.4,1.1.6l.9.5c2.5,1.5,4.9,3,7.3,4.6.2.1.4.3.6.4.3.2.6.4.9.6.2.1.4.3.6.4,1.6,1.1,3.2,2.3,4.7,3.5,2.3,1.8,4.6,3.8,6.7,5.8.1.1.2.2.3.3l.5.5c.6.6,1.2,1.3,1.8,1.9,1.1,1.1,2.1,2.3,3,3.5.2.2.3.4.5.6.8,1,1.5,2,2.2,3.1.8,1.2,1.6,2.4,2.3,3.7,1.2,2.1,2.2,4.2,3.2,6.4"/>
      <path id="Path_72" class="st0" d="M141.6,318.1c-.1-.6-.2-1.2-.3-1.8,4.4.9,8.8,2,13.1,3.1.7.2,1.3.3,2,.5,1.1.3,2.2.6,3.3.9,2.6.7,5.2,1.4,7.8,2.2.8.2,1.6.5,2.4.7.5.1,1,.3,1.5.5,2.7.8,5.3,1.7,8,2.6h0c-.4,3.6-1.3,7-2.8,10.2.3,1.6.2,3.2-.1,4.8-.4,2.6-2,4.9-4.3,6.2-2.2,5.7-4.4,11.8-6.4,18.9-7.3-5-10.5-14.4-11.2-23.9-2.8-5.2-5.5-9.8-8.3-14.5-2.1-3.2-3.7-6.7-4.7-10.4"/>
      <path id="Path_73" class="st0" d="M607.8,459.9c-35.8,9.1-38.8,2.9-41.8-3.2-30,1.8-53.2,28-82.5,34.8-53.1,12.3-99.4-40.9-153.5-47.3-26.9-3.2-54.2,5.5-81.1,2.3-35.3-4.1-68.9-28.3-103.6-20.3-6.1,1.4-14.4,2.8-16.9-2.9-.8-2.7-.6-5.6.6-8.1,5.8-15,18.2-26.6,33.6-31.3,8.5-2.5,18.9-2.3,24.8,4.3,2.7,3,4,6.9,6.2,10.2,7.2,10.8,22.4,13.8,34.9,10.4s23-11.7,33.2-19.8c-6.4-14.8-20.9-28.1-33.9-41.1l1.7,1c20.4,11.3,38.9,24.7,60.6,34.3s48,15.3,71.8,9.3c24.6-6.2,42.8-23.7,67.8-28.7,21.7-4.3,44.1,1.8,63.5,11.1-4.8,1.1-9.3,3.1-13.4,5.9-6,4.3-10.1,13.5-4.9,18.7,2.9,2.9,7.5,3.2,11.5,3.7,25.3,3.1,45.7,21.2,64.4,38.5,3.9,3.6,8.1,8.8,5.7,13.5,17.1-3.8,34.9-2.1,51,4.7"/>
      <path id="Path_74" class="st0" d="M641.3,420.4c11.5-.3,22.9-1.8,34-4.6-.7,1.1-1.4,2.2-2.2,3.3-4.5,5.7-9.6,11-15.2,15.6-5.5,4.9-10.4,3.5-12.5.1-1.7-2.8-1.5-6.4-2.2-9.6-.4-1.7-1-3.4-1.9-4.9"/>
      <path id="Path_75" class="st0" d="M752.5,399.9c2.9.9,5.7,2.3,8.1,4.1-3.6-1.6-5.9-1.4-8.1-4.1"/>
      <path id="Path_76" class="st0" d="M785.5,373.6c-1.9,3.9-4.8,7.3-8.3,9.8-.8.5-1.5,1-2.4,1.4.7,5,.2,10.2-1.4,15,3-4.7,4.4-10.2,4-15.8,1,4.2.9,8.6-.3,12.8-.7,2.5-2,4.9-3.7,6.9.9,3.7,1.9,7.5,3,11.4-2.5-2.4-4.6-5.4-6-8.6-.8.5-1.8.9-2.7.9,0,1.7.2,3.3.2,5,.3,9.7-.3,19.4-4,25.4-.4-12-.9-22.7-1.7-33.1-.5-.3-1.1-.6-1.6-.8-1.9-2.5-3.9-5.1-5.7-7.8-4.4,5-9.2,9.1-13.9,10.8,4-5.3,7.8-10.3,11.3-15.2-1-1.9-2-3.9-2.7-5.9,1.3,1.4,2.6,2.8,3.9,4.3.5-.7,1.1-1.5,1.6-2.2-.6-1.5-1.2-2.9-1.7-4.4.3-.2.7-.3,1-.5,0,0,.2,0,.3-.1.7-.3,1.4-.7,2.1-1,0,0,.2,0,.3-.1.4-.2.9-.4,1.3-.6s.2,0,.2-.1c.4-.2.9-.4,1.3-.6l.7-.3s0,0,0,0c.5-.2.9-.4,1.4-.6h.1c.1-.1.3-.2.4-.2.3-.1.6-.3.9-.4,0,0,.1,0,.2,0,1.2-.5,2.4-1.1,3.7-1.6.7-.3,1.3-.6,2-.9.5-.2.9-.4,1.4-.6l1.6-.7c.2,0,.4-.2.6-.3,1.8-.7,3.6-1.5,5.5-2.2,1.6-.6,3.3-1.3,4.9-1.9.3-.1.5-.2.8-.3-2.2,4.6-5.6,8.6-9.8,11.6,0,.2,0,.4.2.6,4.4-2,8.2-5.2,11-9.1"/>
      <path id="Path_77" class="st0" d="M845.1,359.7c8.8,0,17.7.7,26.4,1.9-2.6,2.1-5.2,4.3-7.9,6.4-.6,4.8-4.1,4.5-6.8,2.9-1.4-.8-2.6-2-4-2.7-1.4-.9-3.2-.8-4.6,0-.8-2.9-1.8-5.8-3.1-8.6"/>
      <path id="Path_78" class="st0" d="M1001.4,366.6c-3.1,5.6-6.9,10.7-11.5,15.2.4,3,.1,6.1-.9,8.9-1.5,5.1-5.1,9.4-9.9,11.7-3.8,1.4-7.8,1.8-11.8,1.3-5.5-.3-11.1-.6-16.6-.9.4.3.9.6,1.3,1-1.2-.3-2.4-.6-3.5-1.1h0c-2.1-.1-4.1-.2-6.2-.3-.3,0-.6,0-.8-.2-.5-.7-.7-1.5-.7-2.4,0-.6,0-1.2-.1-1.8-6.7-6.2-11.6-14-14.1-22.8l3.4,1.2c1.3.5,2.6.9,3.9,1.4.3.1.5.2.8.3,0,0,0,0,.1,0,1.5.6,3.1,1.2,4.6,1.8,0,0,0,0,.1,0l2.8,1.1c0,0,.2,0,.2,0,0,0,.2,0,.3,0,.1,0,.2,0,.4-.1.2,0,.5-.1.7-.2.4-.1.8-.2,1.1-.3h0s0,0,.1,0l.9-.2c.5-.1,1.1-.3,1.6-.4l.6-.2c.6-.2,1.1-.3,1.7-.5h.2c0,0,.1,0,.2-.1h.3c0,0,0,0,0,0,.2,0,.5-.1.7-.2.4-.1.7-.2,1.1-.3.1,0,.3,0,.4-.1.9-.2,1.7-.5,2.5-.7.1,0,.2,0,.4-.1,0,0,.2,0,.3,0,0,0,0,0,.1,0,.7-.2,1.4-.4,2.1-.6.1,0,.3,0,.4-.1l.9-.2h.5c0-.1,1.3-.5,1.3-.5h0s0,0,0,0c.2,0,.4-.1.6-.1,0,0,.2,0,.2,0,0,0,0,0,.1,0h0c.2,0,.4-.1.6-.2,0,0,.2,0,.3,0,.2,0,.3,0,.5-.1.5-.1,1.1-.3,1.6-.4.5-.1.9-.2,1.4-.4h0l1.9-.5s0,0,.1,0h.2c0,0,0,0,0,0,.3,0,.5-.1.8-.2.7-.2,1.4-.4,2.1-.5,0,0,.1,0,.2,0l1.5-.4h0c.3,0,.6-.2.9-.2,0,0,0,0,.1,0,.1,0,.3,0,.4-.1.2,0,.4-.1.6-.1l1.5-.4,2-.5h.5c0-.1.2-.2.3-.2.2,0,.4,0,.6-.1h0l1-.2c0,0,.2,0,.3,0,.4-.1.9-.2,1.3-.3,0,0,.2,0,.3,0l1.1-.2h0c.4-.1.8-.2,1.2-.3l2.3-.5h0l1.1-.2c0,0,.1,0,.2,0,1-.2,1.9-.4,2.9-.6.9-.2,1.8-.4,2.7-.6.8-.2,1.6-.3,2.3-.5,1.2-.3,2.4-.5,3.6-.8"/>
      <path id="Path_79" class="st0" d="M1266.6,388.5c-11.7,15-23.6,29.8-35.9,44.2-2.6,3-5.3,6.2-9,7.5-3.1.9-6.3,1.1-9.5.6-7.2-.5-14.4-1.1-21.6-1.6-1.4-.1-3-.4-3.6-1.6-.3-.8-.3-1.8,0-2.6.9-4.6,2.4-9.2,4.3-13.5-10-10.8-20-21.6-30-32.4-2.4-2.6-4.8-5.2-7.3-7.7-6.6-6.6-13.8-12.7-21.5-18-2.7-1.8-5.4-3.6-8.1-5.3,34.2,10.5,64.9,34.1,107.1,31.9,11.8.4,23.6-.1,35.3-1.6"/>
      <path id="Path_80" class="st0" d="M1525.2,331.4c.4,6,.5,12,.1,18,.1,2.4-.4,4.8-1.4,6.9-1.3,1.5-2.8,2.7-4.5,3.7,0,.1,0,.2-.1.3-.4,1.7-2,2.8-3.6,2.5-.4.3-.8.6-1.2,1-.2-.5-.4-1-.6-1.6-.8-.4-1.6-.9-2.4-1.5-.5-2.3-.9-4.5-1.2-6.8-.3.3-.7.6-1.1.9-2.7,1.6-5.4,3.1-8.3,4.3,0,2.5-1.6,5.1-7.5,6.4,0,0-.2-.1-.2-.2-.6.4-1.3.8-2,1.1-7.5-11.3-12.3-24.8-16.6-38.3-.7,1.7-1.4,3.4-2.1,5-4.8,11.7-9.7,23.6-18.6,33.6-.8-.3-1.5-.5-2.1-.8,0,0-.1.1-.2.2-6.3-.7-8-2.6-8.1-4.5-3-.8-6-1.8-9-2.9-.4-.1-.8-.4-1.2-.6-.3,1.7-.7,3.4-1.2,5.1-.8.5-1.6.9-2.5,1.2-.2.4-.4.8-.6,1.2-.4-.2-.9-.5-1.3-.7-1.6.4-3.2-.3-3.9-1.7,0,0,0-.2-.1-.2-.5-.2-1-.4-1.4-.6-.7,3.1-1.4,6.3-2.1,9.4-2.6,11.6-5.3,23.5-10.2,33.3-.4-.3-.9-.5-1.2-.8,0,0,0,.1-.1.2-3.6-.8-4.7-2.8-4.8-4.6-1.8-.9-3.6-1.9-5.2-3-.3-.2-.5-.4-.7-.6-.2,1.7-.3,3.4-.6,5.1-.4.4-.9.8-1.4,1.2,0,.4-.2.8-.3,1.2-.3-.3-.5-.5-.8-.7-1.2.3-1.9-.7-2.3-1.8,0,0,0-.2,0-.3-1.1-.7-2.1-1.6-2.9-2.6-.7-1.6-1.1-3.4-1.1-5.1-.4-4.5-.5-8.9-.4-13.4.3-5.5,1.3-10.9,1.8-16.3,0-1,.2-2,.3-3.1-1.4-10.1-3.5-20.1-6.4-29.9,1.4-.3,2.9-.5,4.3-.8.3,0,.5-.1.8-.1.6-.1,1.3-.2,1.9-.3,1.7-.3,3.5-.6,5.2-.8,0,0,.2,0,.2,0h0c.8-.1,1.7-.2,2.5-.3.7-.1,1.3-.2,2-.3l2.9-.4c1.6-.2,3.1-.3,4.7-.5.7,0,1.4-.1,2.2-.2,1.4-.1,2.8-.2,4.3-.4.3,0,.6,0,1,0l3.5-.2c.3,0,.5,0,.7,0h1.2c0,0,0,0,0,0,.2,0,.3,0,.5,0,1.8-.1,3.6-.2,5.4-.2.6,0,1.2,0,1.9,0,.8,0,1.6,0,2.4,0h2.4c2.3-.1,4.6-.1,7-.1h4.6c1,0,2.1,0,3.1,0,1.7,0,3.4,0,5.2.1,1,0,1.9,0,2.9.1.3,0,.6,0,.9,0,.6,0,1.1,0,1.7,0h.2c1.7,0,3.4.1,5.2.2h2.4c2.3.2,4.5.4,6.8.5.4,0,.8,0,1.2,0,1.6.1,3.3.2,4.9.4l5.9.5c.7,0,1.3.1,2,.2.3,0,.5,0,.8,0,.7,0,1.4.1,2.1.2h.1l4.6.4c.8,0,1.6.1,2.4.2.9,0,1.8.2,2.7.3.1,0,.2,0,.3,0,.9,0,1.7.2,2.6.3,1.8.2,3.6.4,5.5.6l1.7.2c1.6.2,3.1.3,4.7.5,1,.1,2,.2,3,.3.4,0,.9.1,1.3.2,1.8.2,3.7.4,5.5.6"/>
      <path id="Path_81" class="st0" d="M1558.7,335.4c12.9,1.5,25.8,2.9,38.8,4,0,.2,0,.4-.1.6-1,4.5-.7,9.5-3.1,13.4-2.9,4.6-9.7,6.6-17.4-.2-6.5-5.5-12.5-11.4-18.1-17.8"/>
      <path id="Path_82" class="st0" d="M1811.5,250.7c-5.9,7.7-16.2,10.2-25.2,13.7-12.7,5-23.9,13-32.8,23.3-2.7-2-5.2-4.3-7.3-6.9,1.4-2.8,2.7-5.6,3.9-8.4,9.5-20.7,22.3-43.4,43.7-56.1,3.2,1.5,6.9,2.2,10.2,3.7,10.9,5.1,14.8,21.1,7.5,30.7"/>
      <path id="Path_83" class="st0" d="M1966.2,130c-2.2,6.9-4.4,13.8-6.8,20.6-.7,4-3.8,7.1-7.8,7.7-3.7,1.1-7.5,2.3-11.2,3.4-.7.2-1.6.4-2.1-.1-.3-.4-.5-.8-.5-1.3-.4-2.5-.6-5.1-.5-7.6-2-1-3.9-1.9-5.9-2.9,11-7.6,22.7-14.2,34.8-19.8"/>
      <path id="Path_84" class="st0" d="M1345.3,263.6c-2.2,7.2-7.1,13.3-11.9,19.2l-29.6,36.4c-3.6,4.4-7.3,9.7-5.6,14.7l5.8,4c-12.1,17.2-24.6,34.1-37.5,50.7-11.7,15-23.6,29.8-35.9,44.2-2.6,3-5.3,6.2-9,7.5-3.1.9-6.3,1.1-9.5.6-7.2-.5-14.4-1.1-21.6-1.6-1.4-.1-3-.4-3.6-1.6-.3-.8-.3-1.8,0-2.6.9-4.6,2.4-9.2,4.3-13.5-10-10.8-20-21.6-30-32.4-2.4-2.6-4.8-5.2-7.3-7.7-6.6-6.6-13.8-12.7-21.5-18-2.7-1.8-5.4-3.6-8.1-5.3h0c-14.9-9-31-15.9-47.1-22.7-10.2-4.3-20.6-8.8-29.1-16s-14.7-17.8-14.1-28.9c3.6,3.7,8.6,5.8,13.8,5.8-13.2-16.4-29.7-29.8-48.4-39.5,1.9-2.9,6-3.4,9.2-2.2,3.1,1.4,5.9,3.6,8,6.2-2.4-4.1-2.4-9.2,0-13.2,6.7,7.6,13.4,15.1,20.1,22.7,1.9,2.2,6.1,3.9,6.9,1.2-1.2-3.2-2.4-6.5-3.6-9.7,3.3,1.8,6.6,3.7,9.9,5.5-11.2-6.7-20.4-16.3-26.5-27.9,5.8-3.6,12.6,2.8,16.4,8.5s10.6,12.1,16.4,8.4l8.8,7.8c0-6.3-4.6-11.5-7.2-17.2s-1.6-14.6,4.7-15.6c5.3-.9,9.3,5,10.4,10.2s.9,11.1,4.2,15.4c1.7-3.7,7.7-3.4,10.4-.2,2.7,3.1,2.9,7.6,2.8,11.8s-.2,8.5,4.1,12.6c.7,1.5,1.4,3,2.2,4.5,2.3-2.7,6.9-1.7,9.5.8s3.7,6,5.7,9,5.2,5.7,8.7,5c-.9-4.1-1.8-8.1-2.7-12.2-.5-2.7-1.3-5.3-2.5-7.7-2.2-4.1-6.2-6.8-9.7-9.8-7.3-6.2-13.3-14.8-13.3-24.4,0-2.2.7-4.8,2.8-5.4.9-.2,1.9,0,2.7.4,3.7,1.7,5.6,5.8,7.8,9.2s5.9,6.8,9.8,5.8c1.4-3.2-.2-7-2.3-9.8s-4.8-5.3-6-8.6-.1-7.8,3.2-8.9c4.4-1.3,7.8,4,8.8,8.5s2.4,10.1,6.9,11.1c.2-2.9.5-5.8.7-8.8,0-1.1.3-2.1,1.1-2.8.9-.5,1.9-.6,2.8-.1,5.5,2.1,5.8,9.8,9,14.8.7,1.2,2.1,2.4,3.4,1.9,1-.6,1.6-1.6,1.6-2.7.5-4.5-1.6-8.8-3.6-12.8s-4-8.5-3.1-12.9,6-8.2,10-6c3.4,1.9,3.9,6.5,6,9.7.8,1.5,2.4,2.4,4.1,2.2,3.5-1,1.1-6.6,2.9-9.8,2.7,2.4,5.4,4.7,9.6,8.2-1.5-8.4-6.4-15.7-13.5-20.4-2.3-1.3-4.5-2.8-6.5-4.5-2-1.8-2.9-4.6-2.3-7.2,5.5-.6,11,1,15.3,4.4,4.2,3.4,8,7.5,11.1,11.9,2.7-1.1,3.7-4.5,3.2-7.3-.8-2.8-2.1-5.4-3.7-7.8-1.2-2.3-2.1-5.4-.2-7.1,1.8-1.3,4.3-1,5.8.6,1.4,1.6,2.3,3.6,2.7,5.7l6.1,21.5c.3,1.6,1.1,3.2,2.3,4.3,2.5,1.9,6.4.1,7.7-2.7,1-3,1.1-6.2.3-9.2-.6-3.9-1.3-7.8-1.9-11.7-.4-2.5,0-6.2,2.6-6.2,1.1.1,2.2.7,2.8,1.6,6.2,6.8,5.8,17.1,7.3,26.2,1,6.2,4.5,13.4,10.8,13.7,2.8,0,5.5-.9,7.9-2.4,2.3-1.2,4.9-2.6,5.6-5.1,1.1-3.9-2.6-7.2-5.6-9.9-2.6-2.3-4.9-4.9-6.9-7.8-1.5-2.3-2.9-5.1-1.9-7.6,1.1-2.8,4.6-3.9,7.6-3.6,6.1.6,11.2,5.2,14.1,10.6s4,11.6,5.2,17.6c2.8-1.7,3.4-5.6,2.9-8.9s-1.7-6.5-1.1-9.8c1.1-4.6,4.9-8,9.5-8.6,4.9-.7,9.8,1.1,13,5-9.7,12.9-13,29.5-8.7,45.1,4.9-12.3,11.2-24,18.8-34.8,2.1-3,4.7-6.1,8.4-6.2,4.6-.1,7.7,5.2,7.3,9.7s-3.2,8.5-5.6,12.4c-8.7,14.2-13.2,30.5-12.9,47.1.7-15.4,11.3-28.5,26.2-32.5.7-.2,1.5-.3,2.3-.2,2.1.7,3.3,2.9,2.7,5-.6,2-1.8,3.9-3.3,5.3-5.2,5.8-10.3,11.5-15.5,17.3-.9.8-1.5,2-1.4,3.2.2.8.7,1.5,1.4,2,1.1,1,2.2,2,3.3,3,.6.6,1.3,1.1,2,1.3,1.9.4,3.4-1.6,4.4-3.3,2.5-4.2,5.6-8.1,9.2-11.6,2.3-2.2,6-4.2,8.4-2.1.7.7,1.2,1.6,2.1,2.1,1.3.5,2.8.3,4-.4,3.8-1.3,7.2-3.3,10.2-5.9,3-2.7,4.3-6.9,3.3-10.8-.6-1.6-1.6-3-2.2-4.7-.7-1.6-.2-3.5,1.2-4.6,1.7-.6,3.6-.1,4.8,1.2,5.7,5,6.7,13.7,4.5,21"/>
      <path id="Path_85" class="st0" d="M1974.2,79c-.9,2.9-1.8,6.3,0,8.5,1.2.3,2.5.6,3.7.9-3.5,14-7.4,27.8-11.7,41.6-2.2,6.9-4.4,13.8-6.8,20.6-.7,4-3.8,7.1-7.8,7.7-3.7,1.1-7.5,2.3-11.2,3.4-.7.2-1.6.4-2.1-.1-.3-.4-.5-.8-.5-1.3-.4-2.5-.6-5.1-.5-7.6-2-1-3.9-1.9-5.9-2.9-5.2-2.5-10.4-5.1-15.6-7.6-1.7-.8-3.4-1.7-5.2-2.5-4.6-2.1-9.4-3.7-14.4-4.9-10.9-2.6-22.2-3-33.4-3.4-6,.1-12-.7-17.8-2.4-5.7-2-10.9-6.1-12.7-11.8,2.6,1.2,5.5,1.3,8.1.3-9.9-5.7-20.8-9.3-32.1-10.5.6-1.8,2.3-3,4.2-2.9,1.8.1,3.7.7,5.3,1.6-2-1.6-3-4.2-2.5-6.7l14.6,7.6c1.4.7,3.8.8,3.7-.7-1.2-1.4-2.5-2.8-3.7-4.2,2,.3,4,.6,6.1.9-7-1.2-13.5-4.3-18.8-8.9,2.2-3,6.9-1,9.9,1.1s7.7,4,9.9,1.1c2,.7,4,1.5,5.9,2.2-1.2-3.2-4.6-4.9-7-7.3s-3.6-7.1-.7-8.8c2.5-1.5,5.7.7,7.2,3.1s2.6,5.5,5.1,6.9c.1-2.2,3.2-3.2,5.2-2.1,1.8,1.3,3.2,3.2,3.7,5.4.5,2.5,2.2,4.5,4.5,5.5l2,1.9c1-1.8,3.2-2.4,4.9-1.5,1.7,1,3.2,2.1,4.6,3.4,1.5,1.3,3.6,1.7,5.4.8-1.2-1.9-2.5-3.8-3.7-5.6-.8-1.3-1.7-2.4-2.8-3.4-2.1-1.4-4.4-2.5-6.8-3.1-4.9-1.7-9.6-4.9-11.5-9.7-.4-1.1-.6-2.6.4-3.2.4-.3.9-.4,1.5-.3,2.2.5,4.1,1.6,5.7,3.1,1.8,1.3,4.3,2.3,6.1,1-.2-1.9-1.3-3.6-3.1-4.5-1.7-.8-3.3-1.9-4.7-3.2-1.4-1.4-1.4-3.7,0-5.1,2-1.5,4.7.5,6.1,2.6s3.2,4.6,5.6,4.3c-.5-1.5-.9-3-1.4-4.6-.2-.5-.2-1.1,0-1.6.3-.4.8-.6,1.4-.6,3.2,0,4.8,3.8,7.4,5.7.6.5,1.5.8,2.1.3.4-.5.5-1.1.3-1.7-.9-2.3-2.4-4.3-4.4-5.8-2-1.5-3.4-3.6-4.1-5.9-.4-2.4,1.4-5.3,3.8-5,2.1.3,3.2,2.5,4.9,3.7.7.6,1.7.8,2.5.3,1.6-1.2-.7-3.6-.4-5.5,1.8.7,3.7,1.3,6.5,2.3-2.4-3.9-6.3-6.7-10.8-7.7-1.4-.2-2.8-.5-4.2-1-1.4-.5-2.4-1.7-2.6-3.2,2.7-1.4,5.8-1.7,8.6-.7,2.8.9,5.5,2.2,8,3.8,1.1-1.2,1.1-3,.2-4.3-1-1.2-2.1-2.3-3.4-3.2-1.1-.9-2.1-2.3-1.5-3.6.7-1,2-1.3,3-.8,1,.6,1.9,1.4,2.5,2.4,2.4,3.2,4.9,6.5,7.3,9.7.5.8,1.2,1.4,2,1.7,1.6.5,3.2-1.2,3.4-2.9,0-1.7-.6-3.3-1.6-4.7l-3.2-5.5c-.7-1.2-1.2-3.1,0-3.6.6-.2,1.2,0,1.7.3,4.4,2.3,6.3,7.5,8.8,11.8,1.7,2.9,4.9,5.9,8.1,4.8,1.4-.6,2.6-1.5,3.5-2.7,1.1-.9,1.8-2.3,1.8-3.7-.2-2.2-2.7-3.1-4.8-3.9-1.8-.7-3.4-1.5-5-2.6-1.3-.7-2.2-2-2.5-3.5.2-1.7,1.5-3,3.1-3.3,3.3-.7,6.8.3,9.2,2.6,2.4,2.3,4.4,5,6.1,7.9.9-1.6.8-3.6-.3-5.1-1.1-1.4-1.9-3-2.5-4.7-.3-2.5.9-5,3.1-6.2,2.3-1.3,5.2-1.3,7.5,0-2.4,8.4-.8,17.4,4.4,24.5,0-7.2,1-14.3,2.7-21.2.2-2,1.3-3.7,3-4.8,2.3-.9,4.9,1.1,5.6,3.5.4,2.5.3,5-.4,7.3-1.6,8.8-.7,18,2.7,26.3-2.6-7.9.1-16.6,6.9-21.5.3-.2.7-.4,1.1-.5,1.2,0,2.2.8,2.4,2,0,1.2-.1,2.3-.6,3.3l-4.4,11.8c-.3.6-.4,1.3,0,1.9.3.3.7.6,1.1.7.7.3,1.5.6,2.2.9.4.2.8.3,1.3.3,1.1-.2,1.4-1.5,1.6-2.5.4-2.6,1.2-5.2,2.4-7.6.7-1.6,2.2-3.3,3.8-2.7.5.3.9.5,1.5.7.8,0,1.5-.4,1.9-1,1.6-1.4,3-3.1,4-5,1-2,.8-4.3-.5-6.1-.6-.7-1.4-1.2-2-1.9-.7-.7-.8-1.7-.3-2.5.8-.6,1.8-.8,2.7-.3,3.8,1.8,6.3,5.5,6.4,9.7,0,4.1-.7,8.2-2.2,12-2.6,8-5.2,16.1-7.8,24.1"/>
      <path id="Path_86" class="st0" d="M27.2,158.7c0,2.9,0,5.7,0,8.6s0,6.3.2,9.5c.1,2.6.2,5.2.4,7.9.3,4.5.9,8.9,1.6,13.3.4,2.2.8,4.3,1.3,6.4.2.7.4,1.5.5,2.3,0,.4.1.8.1,1.2v.9c0,.4,0,.8-.2,1.1h0c-.5,1.9-2.3,3.5-7.6,3.2,0,0-.1-.1-.2-.2-3.9-5.2-4.4-12-4.7-18.5-.4-11-.3-22.1.4-33.1.2-2.9.4-5.8.6-8.7.1-1.4.2-2.8.4-4.2.6-6.6,1.5-13.2,2.5-19.7,2-12.8,4.9-25.9,12.8-36.2,1.1-1.7,2.7-3,4.6-3.8,2-.7,4.2.2,5.1,2.1,0,0,0,0,0,.1.2,1.6-.3,3.3-1.3,4.6-6.1,10.2-11.9,20.7-14.4,32.3-1.3,7.2-2,14.5-1.9,21.9v.7c0,.8,0,1.7,0,2.5,0,1.9,0,3.8-.1,5.7"/>
      <path id="Path_87" class="st0" d="M30.2,204.8v.6c0,.9-.1,1.8-.5,2.7-.2.4-.4.8-.6,1.2-.2.3-.5.6-.7.9-1.4,1.3-3.2,2.3-5.1,2.7-.6.2-1.2.3-1.9.4-5.3-11.1-7-23.6-8.6-35.8-1.5-11.8-3.1-23.6-4-35.4-1.2-13.3-1-26.7.5-39.9,2.3-19,8.3-37.4,13.5-55.9,1.2-4.2,2.2-9.3-.6-12.7-1.1-1.3-2.7-2.2-3.7-3.5s-1.3-3.7.2-4.6c1.1-.5,2.4-.4,3.5.1,2.8.7,5.4,2,7.6,4,2.1,2.7,3.3,6,3.3,9.4,1.6,18-4.3,35.7-8.5,53.2-4.5,18-6.7,36.4-6.4,55,.1,4.7.4,9.4,1,14.1,1,9.3,3,18.4,6,27.3.7,2.1,1.5,4.1,2.3,6.2,0,0,0,.2.1.2.2.6.5,1.2.7,1.8.5,1.2.9,2.4,1.3,3.6.5,1.4.7,2.9.8,4.3"/>
      <path id="Path_88" class="st0" d="M25.9,206.7c-2.1-13.8-.6-27.8,1.6-41.6,1-7.4,2.6-14.7,4.5-21.9,4.7-16.5,13.1-32.2,14.1-49.4.4-7.4-.5-14.9.2-22.4s3.5-15.2,9.6-19.4c2-1.4,5.3-2.1,6.5,0,.5,1.5.3,3.1-.6,4.4-2.9,6.3-5.2,12.8-6.8,19.6-3.5,15.1-2.6,30.8-4.1,46.2-1.2,12-3.8,23.8-7.8,35.2-4.9,13.9-12,28.1-9.1,42.5.4,1.3.5,2.6.4,4-.5,3.7-4.7,5.4-8.5,2.7"/>
      <path id="Path_89" class="st0" d="M89.1,75.5c-4.5.2-7.8,4.2-10.1,8.1-3.8,7.1-6.6,14.7-8.4,22.6-1.8,6.8-3.5,13.6-5,20.5,0,.3-.1.6-.2.9-1.8,8.1-3.4,16.2-4.9,24.4-.3,1.7-.6,3.4-.9,5.2-.2,1.3-.4,2.7-.7,4-.7,4.6-1.4,9.3-1.7,14,0,1-.1,2.1-.1,3.1,0,4.3.1,8.5,0,12.8,0,1.3-.1,2.5-.3,3.8-.6,4.4-1.6,8.8-2.9,13.1-.3,1.8-1.2,3.4-2.4,4.7-1.4.8-3,1.4-4.6,1.7-1,.3-2.3.7-3.7,1.3-.4.1-.8.3-1.2.5,0-.4-.2-.8-.2-1.3-.4-3-.4-6,0-9,0-.2,0-.4,0-.5h0c.4-2.7,1-5.5,1.5-8.2,0-.5.2-1,.3-1.4.6-3.1,1-6.2,1.3-9.4.1-1.2.2-2.4.4-3.5.4-4.3.7-8.6,1-12.8.2-2.3.4-4.5.6-6.8.2-2.1.5-4.2.8-6.3.3-2,.6-4,.9-6,0-.3,0-.6.2-.9,1.8-9.5,4-19,6.8-28.2,3.6-12.3,7.9-24.5,12.3-36.6,1.4-4.8,3.8-9.3,6.9-13.2,1.4-1.6,3.2-2.8,5.1-3.7,1.5-.8,3.2-.9,4.9-.4.3.1.7.3,1,.5,2.1,1.5,2.8,4.5,3.2,7.2"/>
      <path id="Path_90" class="st0" d="M111,97.8c-4.9,6.3-10.9,11.6-16.1,17.6-3.6,4.2-6.8,8.7-10,13.3-10.4,14.7-21,29.7-27.4,46.4-1,2.6-1.9,5.2-2.7,7.9,0,.3-.1.5-.2.8-1,3.6-1.8,7.3-2.6,10.9-.5,2.3-.9,4.7-1.4,7-.2,1-.4,1.9-.6,2.9-.2,1-.4,2.1-.7,3.1-.1.6-.2,1.1-.4,1.7-.3,1.7-.9,3.4-1.9,4.9,0,0,0,.1-.2.2-.8,1.2-2.3,1.6-3.6,1.1-.5-.2-1-.5-1.4-.8-.7-.5-1.3-1-1.8-1.6,0-1.7,0-3.5,0-5.2,0-.6,0-1.2,0-1.7,0-.3,0-.5,0-.8,0-.9.2-1.8.3-2.6h0c.3-2.7.8-5.4,1.4-8,.7-3,1.5-6,2.5-9,.3-1,.7-2,1-3,.9-2.5,1.8-4.9,2.9-7.3.3-.6.5-1.2.8-1.8,3.4-7.5,7.3-14.7,11.5-21.8,2.1-3.5,4.2-7,6.4-10.5,10.2-16.7,20.6-33.6,35.1-46.8,4.4-4,9.6-8.4,9.8-14.4-.2-1.5,0-3,.7-4.3.7-.9,1.8-1.3,2.9-1.1,1.3.1,2.5.5,3.6,1,.4,8-3.3,15.6-8.2,21.9"/>
      <path id="Path_91" class="st0" d="M27.2,196.5c-.4-19.6,4.9-38.9,15.2-55.6,4-6.5,8.8-12.6,13.2-18.9,7.5-10.8,13.9-22.3,20.2-33.7,7.8-14,15.8-28.9,15.3-43.3.7-1.4,1.8-2.6,3.2-3.4,1.4-.6,3.5,0,4,2.9-2.7,25.2-11.2,49.4-24.8,70.8-13.3,20.7-31.6,39.5-36.4,63.6-1.1,4.9-1.2,9.9-.3,14.8,1.1,4.3,2.9,8.5,5.4,12.2-4.3,1.2-8.7,2.3-13,3.5-.7.3-1.4.3-2.1,0-.5-.4-.8-.9-.9-1.5-.5-1.6,1.1-3,1-11.2"/>
      <path id="Path_92" class="st0" d="M47,206.7c-1.3-11.2-12-18.4-18.3-27.7-2.7-4.1-4.8-8.6-6.2-13.3-5.4-18.3-5-37.9,1.4-55.9,4.7-14,12.4-26.8,18.9-40.1,3.9-7.5,6.9-15.4,8.9-23.6,3.2-14.4,2-29.4-3.4-43.1,1-1.3,2.3-2.3,3.9-2.9,1.6-.3,3.1.7,3.4,2.3,0,.4,0,.7,0,1.1,8.9,15.7,11.3,34.3,6.8,51.8-3.9,14.4-12.3,27.1-19.9,39.9-7.7,12.8-14.9,26.5-15.8,41.4-.3,8.8.8,17.5,3.3,25.9,2,7.3,4.6,14.7,10.1,19.9,3.6,3.4,8.2,5.7,10.7,9.9,1.5,2.9,2.4,6.2,2.5,9.5.3,1.6.1,3.2-.4,4.6-.7,1.4-2.4,2.5-5.8.3"/>
      <path id="Path_93" class="st0" d="M30.6,206.7c-2.8-7.5-.6-15.9,2.1-23.5,6.3-17.2,15.2-33.4,26.4-47.9,10.4-13.5,22.7-25.4,33-39s18.8-29.3,20.6-46.6c2.9-.3,5.5,1.4,7.9,3.1,1.3.7,1.9,2.2,1.4,3.6-6.7,22.8-18.2,43.9-33.6,61.9-7,8.2-14.9,15.7-20.9,24.6-5.7,8.4-9.5,17.9-13.4,27.3-2.4,5.2-4.1,10.8-5.2,16.4-1.1,6.1,0,12.5,3.1,17.9-6.1.3-12.1,1.1-21.4,2.1"/>
      <path id="Path_94" class="st0" d="M75,71.9c-.2.9-.3,1.8-.5,2.7-1.9,9.4-4.1,18.7-6.7,27.9-3.7,13.3-8.2,26.5-13.4,39.3-.2.5-.4,1-.6,1.5-1.9,4.6-3.8,9.1-5.9,13.5-.4.8-.8,1.7-1.1,2.5-1.1,2.4-2.2,4.7-3.3,7.1-2.2,4.6-3.8,9.5-4.7,14.6-.1.9-.2,1.8-.3,2.6-.2,2.4,0,4.8.2,7.1.4,4,1.2,8,1.9,12h0c.1.8.2,1.6.4,2.3,0,.1,0,.2,0,.3v.7c.1.6,0,1.2-.4,1.7-.1.1-.3.2-.4.3-.3.2-.7.3-1.1.4-2.6.7-5.3,1.1-8,1.5-.9.1-1.8.2-2.7.2-.5,0-.9,0-1.4,0,0-.4,0-.7,0-1.1,0-.6,0-1.1,0-1.7.2-3.8.7-7.5.9-10.7.3-2.2.1-4.5-.5-6.6,0-.2-.1-.4-.2-.6-.9-2.5-1.6-5-2-7.6-.5-3.4-.7-6.8-.5-10.1.3-4.5,1-8.9,2.3-13.2.3-1.1.7-2.2,1.1-3.3.1-.4.3-.7.4-1.1,0,0,0-.2.1-.2.4-1.1.9-2.2,1.3-3.3,4.3-10.1,10.5-19.3,16.5-28.4,1.6-2.4,3.2-4.9,4.8-7.3,5.2-7.8,9.5-16.2,12.6-25,4.9-14.9,4.7-30.9,4-46.6,1-.4,2.2-.3,3,.4,1.9,0,3.8,0,5.7,0,1,9.5.5,19-1.6,28.3"/>
      <path id="Path_95" class="st0" d="M1472.8,279.3c0,1.3,0,2.7-.2,4,0,.2,0,.3,0,.5,0,1.5-.2,2.9-.3,4.4-.5,6.4-1.1,12.8-2,19.1-.2,1.7-.5,3.4-.8,5.1-.2,1.2-.4,2.4-.6,3.6-.6,3.3-1.2,6.6-1.9,9.9-1.6,7.6-3.4,15.1-5.6,22.7-1.8,6.3-4.1,12.9-9.8,17.2,0,0-.1.1-.2.2-6.3-.7-8-2.6-8.1-4.5h0c0-.5,0-.8,0-1.2,0-.3.1-.6.2-.9.1-.4.3-.8.4-1.2.3-.7.7-1.4,1.1-2.1,1.1-2,2.1-4,3-6,1.9-4.2,3.6-8.4,5.1-12.8.9-2.5,1.6-5.1,2.4-7.7.4-1.4.8-2.8,1.1-4.1.5-1.7.9-3.4,1.3-5.2.7-2.8,1.3-5.6,1.9-8.4.6-2.7,1.2-5.4,1.8-8.2,0-.2,0-.4.1-.7.7-3.2,1.4-6.5,1.9-9.7.7-4,1.1-8.1,1.1-12.2-.1-11.8-4.5-23.3-9.1-34.5-.9-1.4-1-3.2-.4-4.8,0,0,0,0,0-.1,1.7-1.8,4.3-2.2,6.4-1.1,1.3.6,2.5,1.6,3.3,2.8.4.6.8,1.2,1.2,1.8.3.5.5.9.8,1.4,1.6,3.1,2.9,6.4,3.8,9.8,1.7,7.5,2.4,15.1,1.9,22.8"/>
      <path id="Path_96" class="st0" d="M1500.8,187.3c-1.5,1.1-3.6,1.7-5.2,2.8-.8.5-1.4,1.1-2,1.9-2.2,2.9-2.1,6.9-1.8,10.5,1.2,13,2.8,26,3.1,39.1.2,6.1,0,12.3-.6,18.4-1.3,12.1-3.9,24-7.7,35.5-.4,1.4-.9,2.7-1.4,4.1-.1.4-.3.8-.4,1.2-.4,1.2-.8,2.4-1.3,3.7-.4,1.2-.8,2.3-1.3,3.5-.7,2-1.5,3.9-2.2,5.9-.6,1.5-1.2,3.1-1.8,4.6-1.1,2.7-2.2,5.5-3.3,8.2-.2.5-.4,1.1-.6,1.6-.7,1.7-1.4,3.4-2.1,5-4.8,11.7-9.7,23.6-18.6,33.6-.8-.3-1.5-.5-2.1-.8-2.1-.7-3.9-2-5.3-3.6-.2-.3-.4-.6-.6-1-.2-.4-.4-.9-.4-1.3-.2-.9-.2-1.8,0-2.7,0-.2.1-.4.2-.6.5-1.5,1.2-2.8,2-4.1.7-1.1,1.6-2.2,2.4-3.3.4-.5.9-1.1,1.3-1.6,0,0,.1-.1.2-.2,1.4-1.9,2.8-3.7,4.1-5.7,3.5-5,6.5-10.4,9.2-15.9,1.6-3.2,3-6.5,4.3-9.8.3-.8.6-1.7.9-2.5,1.9-5.4,3.5-10.8,4.8-16.3l.2-.8c.3-1.1.5-2.3.7-3.4,1.4-7.1,2.4-14.3,3-21.6.2-2.1.3-4.2.4-6.3.2-6,.2-12,0-17.9,0-2.4-.2-4.8-.4-7.2-.1-2.6-.3-5.2-.4-7.8-.6-11.7-.8-23.5,2.3-34.8.4-1.4.8-2.7,1.3-4.1.7-2.1,1.7-4.1,3-5.8.9-1.1,1.9-2.1,3.1-2.8.7-.4,1.4-.7,2.1-1,1-.4,2-.6,3.1-.8,1.5-.3,3-.5,4.6-.6,1.4-.3,2.8-.1,4.1.6,1.5,1.2.7,3.4-.8,4.5"/>
      <path id="Path_97" class="st0" d="M1450.1,359.4c5.7-13.2,7.3-27.2,8.1-41.2.5-7.4.5-14.9,0-22.3-1.5-17.1-7.6-34.1-4.7-51.2,1.3-7.4,4.2-14.6,5.1-22s-.4-15.5-6.6-20.9c-2-1.8-5.7-3-7.6-1.1-.9,1.3-1.1,3-.4,4.5,1.9,6.7,3,13.6,3.3,20.5.4,15.5-4.3,30.8-6.2,46.2-1.5,12-1.2,24.1.8,36,2.4,14.5,7.3,29.9.5,43.5-.7,1.2-1.2,2.5-1.4,3.8-.2,3.7,4.2,6.2,9.3,4.2"/>
      <path id="Path_98" class="st0" d="M1436.6,299.3c0,.3,0,.6,0,.9,0,2-.2,4-.3,6.1-.1,2.1-.3,4.3-.6,6.4-.5,4.2-1.1,8.4-1.7,12.6-.3,2.3-.7,4.6-1,7-.2,1.2-.3,2.4-.4,3.6-.4,3.1-.6,6.3-.7,9.4,0,.5,0,1,0,1.4,0,2.8,0,5.6-.2,8.3h0c0,.2,0,.4,0,.5-.2,3-.9,6-2,8.8-.2.4-.4.8-.6,1.2-.4-.2-.9-.5-1.3-.7-1.6-.8-2.9-1.5-4.1-2-.5-.2-1-.4-1.4-.6-1.3-.4-2.5-1.1-3.5-1.9-.5-.6-.9-1.2-1.1-1.9-.1-.3-.2-.7-.3-1-.1-.7-.2-1.4-.3-2.2,0-.9-.1-1.7-.2-2.6-.4-3.6-.4-7.2,0-10.8.6-4.2,1.5-8.3,2.7-12.4.3-1.2.6-2.4.9-3.6,0-.1,0-.2,0-.4.2-1,.4-2,.6-3.1.3-1.9.6-3.9.7-5.8.3-2.7.4-5.5.6-8.2,0-1.4.1-2.7.2-4.1,0-1.7.1-3.5.2-5.2,0-3,.2-6.1.2-9.1,0-5.3,0-10.5,0-15.8v-.9c-.2-7-.5-14-1-21,0-.3,0-.6,0-.9h0c-.3-7.8-1.7-15.5-4.3-22.9-1.2-3.5-3.5-6.6-6.6-8.6-1-.6-2.1-1-3.2-1.2.8-2.3,2.3-4.4,4.3-5.9.4-.2.7-.4,1.1-.6.4-.2.8-.3,1.3-.3,1.9-.2,3.9.3,5.6,1.3,2,1.1,3.7,2.7,5.1,4.6,1.1,1.6,2.1,3.4,2.7,5.2,1,2.9,1.8,6,2.2,9.1,0,.1,0,.3,0,.4,2.2,12.6,4.3,25.2,5.5,37.9,1,9.6,1.4,19.3,1.2,29"/>
      <path id="Path_99" class="st0" d="M1433.9,352.9h0c0,1-.2,1.8-.3,2.7,0,.3,0,.5,0,.8,0,.6-.2,1.2-.3,1.7-.3,1.7-.7,3.4-1.2,5.1-.8.5-1.6.9-2.5,1.2-.6.2-1.2.4-1.9.5-1.6.4-3.2-.3-3.9-1.7,0,0-.1-.2-.1-.3-.5-1-.8-2-.9-3.1,0-.7,0-1.4-.1-2,0-.6,0-1.2,0-1.8,0-1.1,0-2.1,0-3.2v-3c0-2.4,0-4.8,0-7.2h0c0-4,0-8-.5-12,0-.9-.2-1.9-.3-2.8,0-.7-.2-1.4-.3-2.1,0-.1,0-.3,0-.4-.2-1-.3-2-.5-2.9-.4-1.8-.8-3.7-1.3-5.5-1.6-6-3.7-12-6.1-17.7-.6-1.4-1.2-2.7-1.8-4.1-1.3-2.8-2.6-5.7-4-8.5-1.3-2.6-2.6-5.2-3.9-7.7-1.3-2.4-2.6-4.9-3.8-7.3-1.3-2.6-2.7-5.1-4.1-7.6-1.3-2.3-2.7-4.6-4.2-6.9,0-.1-.2-.2-.3-.4s-.2-.3-.3-.4c-1.5-2.2-3.1-4.3-4.7-6.5-.9-1.2-1.8-2.4-2.8-3.6-1.8-2.4-3.6-4.8-5.2-7.2-.6-.9-1.1-1.7-1.6-2.6-4.2-7.1-6.7-15.3-4.3-23.1,1.5-.3,3-.4,4.5-.3,1.2,0,2.4.6,3.1,1.7.8,1.3,0,2.9-.2,4.3-.2,1-.2,2-.1,3h0c.5,2.7,1.7,5.2,3.4,7.4,1.4,1.9,3.1,3.8,4.7,5.6,1.3,1.5,2.6,3.1,3.9,4.6,1.9,2.3,3.6,4.8,5.2,7.2,2.4,3.6,4.7,7.3,6.8,11.1,0,0,0,.1.1.2,2.1,3.8,4,7.6,5.9,11.5,2.8,5.9,5.4,11.9,8,17.8.5,1.2,1.1,2.4,1.6,3.7,1.1,2.6,2.3,5.3,3.4,7.9l.4.8c2.7,6.4,5.1,12.9,7,19.5.5,1.7,1,3.4,1.4,5.1,0,.3.1.6.2.8.6,2.3,1,4.6,1.4,6.9.2,1.1.3,2.1.5,3.2.4,3.1.7,6.2.7,9.3,0,2.7,0,5.4-.3,8.1"/>
      <path id="Path_100" class="st0" d="M1451,349.1c5.1-19.1,3.5-39.4-4.5-57.5-3.2-7.2-7.3-14-10.9-21.1-5.9-12-11.1-24.3-15.6-36.9-5.7-15.2-11.5-31.3-7.6-45.4-.5-1.6-1.5-3-2.9-3.9-1.8-1-4.1-.3-5.1,1.5,0,.2-.2.4-.3.6-2.8,25.4,1.4,51.1,12.2,74.2,10.5,22.9,27.5,44.7,27.3,69.3,0,5-1,10.1-3.2,14.6-2.4,4.2-5.5,7.9-9.2,11,4.8,2,9.6,3.9,14.4,5.9.8.4,1.6.5,2.5.4.6-.3,1.1-.7,1.4-1.3,1-1.5-.6-3.1,1.5-11.2"/>
      <path id="Path_101" class="st0" d="M1425.5,355.3c4.1-10.7,18.4-15.8,28-23.7,4-3.4,7.5-7.5,10.3-11.9,10.6-16.3,14.7-36,11.7-55.2-2.2-14.6-8.1-28.6-12.5-42.9-2.7-8-4.3-16.4-4.8-24.9-.1-15.1,4.9-29.8,14.2-41.7-.9-1.6-2.2-2.8-3.8-3.6-1.8-.8-3.9.1-4.6,1.9,0,.2-.2.5-.2.7-14.1,13.5-21.5,31.8-20.2,49.6,1.1,14.9,7.9,28.9,13.8,43s11,28.9,8.6,43.7c-1.8,8.8-5.2,17.2-10,24.8-4,6.8-8.8,13.6-16.5,17.7-4.9,2.6-11,4-14.9,7.7-2.4,2.5-4.2,5.6-5.2,8.9-.7,1.5-.9,3.1-.6,4.6.5,1.5,2.2,2.9,6.7,1.3"/>
      <path id="Path_102" class="st0" d="M1444.6,358.4c5.1-6.8,4.5-15.5,3.1-23.4-3.3-18.4-9.9-36-19.4-52-8.9-15.2-20.4-29.2-29.2-44.5s-14.9-32.3-13-49.6c-3.3-.8-6.8.4-9.9,1.6-1.2.5-2.7,1.3-2.5,3.2,2.5,24.1,11,47.1,24.6,67.1,6.3,9.3,13.6,18.2,18.5,28.1,4.6,9.3,6.9,19.4,9.1,29.3,1.5,5.6,2.3,11.3,2.2,17.1-.2,6.5-3.1,12.6-7.9,17,7,1.4,13.8,3.3,24.4,6.1"/>
      <path id="Path_103" class="st0" d="M1459.6,325.4s0,.2,0,.3c-.6,3.3-1.6,6.5-2.9,9.6h0c-1.1,2.5-2.5,4.9-4.2,7.1-.1.2-.3.4-.4.5-1.2,2-1.9,4.2-2.1,6.4-.5,3.1-.9,6.9-1.5,10.6l-.3,1.7c0,.4-.1.7-.2,1.1-.5-.1-1.1-.2-1.6-.3-1-.2-2-.5-3-.7-3-.8-6-1.8-9-2.9-.4-.1-.8-.4-1.2-.6-.2-.1-.3-.2-.4-.4-.3-.5-.4-1.1-.2-1.7,0-.2.1-.4.2-.6,0-.1,0-.2.1-.3.3-.7.6-1.4,1-2.1,0,0,0,0,0-.1,1.8-3.8,3.7-7.6,5.1-11.4.8-2.2,1.5-4.6,1.9-7,.1-.9.2-1.8.3-2.7.1-2.2,0-4.4-.2-6.5-.9-5.5-2.2-11-3.9-16.3-.3-.9-.5-1.8-.8-2.6-1.3-4.8-2.5-9.6-3.6-14.4l-.4-1.6-.4-1.7c-2.8-13-4.8-26.2-6-39.4-.6-7.4-1-14.7-1.1-22.1,0-2.2,0-4.4,0-6.6s0-1.9,0-2.8c.2-9.5,1-19.1,4.8-28.1,2.2.4,4.4.8,6.6,1.1,1.2-.5,2.5-.4,3.6.2-3.2,9.8-5.5,19.9-6.7,30.2-.2,2.2-.3,4.5-.4,6.7,0,3.2.2,6.4.6,9.6,1.6,9.3,4.5,18.4,8.7,26.9,1.2,2.7,2.5,5.4,3.8,8.1,4.9,10.1,9.9,20.3,12.6,31,.3,1.3.6,2.5.8,3.8,0,.4.1.8.2,1.2.2,1.2.3,2.3.5,3.5.5,4.5.3,9-.4,13.4"/>
      <path id="Path_104" class="st0" d="M1419.6,316.9c0,1.7,0,3.4,0,5.1,0,1.3,0,2.6,0,3.9,0,1.2,0,2.4,0,3.6-.2,5.5-.4,11-.8,16.5-.2,2.9-.4,5.8-.7,8.6,0,1.3-.2,2.5-.3,3.8-.9,9.6-2.1,19.2-3.5,28.7-1,6.3-2.2,12.9-5.4,17.1,0,0,0,.1-.1.2-3.6-.8-4.7-2.8-4.8-4.6h0c0-.5,0-.8,0-1.2,0-.3,0-.6,0-.9,0-.4.1-.8.2-1.2.2-.7.4-1.4.6-2.1.6-2,1.1-4,1.7-6,1.1-4.2,2-8.4,2.7-12.8.5-2.5.9-5.1,1.3-7.6.5-3.1.9-6.2,1.3-9.3.4-2.8.7-5.6,1-8.3.3-2.7.6-5.4.9-8.1,0-.2,0-.4,0-.7.6-5.1,1.1-10.2,1.3-15.4,0-2.1.1-4.3,0-6.4-.3-8.3-1.4-16.6-3.4-24.7-.7-3.3-1.5-6.6-2.4-9.9-.5-1.5-.6-3.2-.3-4.8,0,0,0,0,0-.1.2-.8.9-1.4,1.7-1.6.7-.1,1.4,0,2,.5,1.3,1.3,2.2,2.9,2.7,4.7.6,1.8,1.2,3.7,1.6,5.6,1.9,9,2.8,18.1,2.6,27.3"/>
      <path id="Path_105" class="st0" d="M1434.4,226.3c-.5.6-1,1.1-1.6,1.5-.5.4-.9.8-1.3,1.2-.8,1-1.3,2.1-1.6,3.4-.6,2.9-.7,5.9-.4,8.9.4,6.5.9,12.9,1.3,19.4.6,9.3,1.1,18.6,1.1,27.9v1.8c0,2.8,0,5.6-.2,8.3-.3,7-.9,13.8-1.7,20.6-.2,2-.5,4-.8,6-.3,2.4-.7,4.7-1.1,7.1-.3,2-.7,4-1.1,6-.3,1.9-.7,3.8-1.1,5.7-.6,3-1.2,5.9-1.8,8.9-.2.9-.4,1.8-.6,2.7-.3,1.3-.6,2.6-.9,3.9-.2.8-.4,1.7-.5,2.5-.7,3.1-1.4,6.3-2.1,9.4-2.6,11.6-5.3,23.5-10.2,33.3-.4-.3-.9-.5-1.2-.8-1.3-.9-2.4-2.2-3.1-3.7-.1-.3-.3-.7-.4-1-.1-.4-.2-.9-.3-1.3-.1-.9-.1-1.8,0-2.7,0-.2,0-.4,0-.6.2-1.4.6-2.7,1.1-4.1.4-1.1.9-2.2,1.4-3.3l.7-1.6c0,0,0-.1,0-.2.8-1.8,1.6-3.7,2.3-5.6,2.8-7.4,5.1-15,6.8-22.7.2-.9.4-1.9.6-2.8,1.8-8.8,3.1-17.7,3.9-26.7,0-.7.1-1.4.2-2.1.5-6.5.8-13.1.9-19.6,0-2.1,0-4.1,0-6.2,0-3.3,0-6.7-.1-10,0-1.3,0-2.7-.1-4-.2-4.2-.4-8.5-.6-12.7,0-.4,0-.8,0-1.2-.3-6.9-.6-13.8-.4-20.7h0c0-3.8.3-7.6.7-11.4.3-2.6.7-5.3,1.2-7.9.3-1.7.7-3.4,1.3-5,.4-1.3,1.2-2.5,2.1-3.5.2-.2.4-.4.7-.6,1.5-1,3.2-1.6,4.9-1.7.2,0,.4,0,.7,0,.6-.1,1.3.2,1.7.7.7,1.5.6,3.2-.4,4.5"/>
      <path id="Path_106" class="st0" d="M1407.6,397.7c3.1-13.1,3.8-27.1,4.1-41,.1-7.4.1-14.9-.4-22.3-1.1-17.1-4.9-34.2-3.4-51.2.6-7.4,2.2-14.5,2.7-21.9s-.5-15.5-4.1-21c-1.2-1.8-3.3-3.1-4.4-1.2-.5,1.4-.6,3-.2,4.4,1.2,6.8,1.9,13.6,2.2,20.5.5,15.5-2.1,30.7-2.9,46.1-.7,12-.4,24.1,1,36,1.6,14.6,4.6,30,.9,43.5-.4,1.2-.7,2.5-.8,3.8,0,3.7,2.5,6.3,5.4,4.3"/>
      <path id="Path_107" class="st0" d="M1399,337.4v.9c0,2,0,4.1,0,6.1,0,2.1-.1,4.2-.2,6.4-.3,6.5-.9,13-1.3,19.6,0,1.2-.1,2.4-.2,3.5-.2,3.1-.3,6.3-.3,9.4v1.4c0,2.8,0,5.5,0,8.3h0v.5c0,3-.4,5.9-1.1,8.8,0,.4-.2.8-.3,1.2-.3-.3-.5-.5-.8-.7-.9-.9-1.7-1.5-2.4-2-1.1-.7-2.1-1.6-2.9-2.6-.7-1.6-1.1-3.4-1.1-5.1-.4-4.5-.5-8.9-.4-13.4.3-5.5,1.3-10.9,1.8-16.3,0-1,.2-2,.3-3.1.4-4.6.5-9.3.6-14,0-1.4,0-2.7,0-4.1,0-1.7,0-3.5,0-5.2v-7.9c0-5.7-.1-11.3-.3-17,0-.3,0-.6,0-.9-.2-7-.5-14-.9-21-.2-8-1.2-16-2.9-23.8-1-4.3-2.8-8.8-5.8-9.9.6-2.5,1.4-5.4,3-6.4.2-.1.5-.2.7-.3.5-.1,1,0,1.5.2.7.3,1.2.7,1.7,1.2,1.3,1.4,2.3,2.9,3,4.6.2.5.4.9.5,1.4,1.3,4.2,2.2,8.6,2.5,13,1.4,12.7,2.8,25.5,3.8,38.3.5,6.5.8,13,1,19.5,0,3.2.1,6.4.1,9.5"/>
      <path id="Path_108" class="st0" d="M1398.2,390.9h0c0,.9,0,1.8-.1,2.7,0,.3,0,.5,0,.8,0,.6,0,1.2-.1,1.7-.2,1.7-.3,3.4-.6,5.1-.4.4-.9.8-1.4,1.2-.3.2-.7.4-1.1.5-1.2.3-1.9-.7-2.3-1.8,0,0,0-.2,0-.3-.5-1.7-.7-3.4-.7-5.2,0-.6,0-1.2,0-1.8,0-1.1,0-2.1,0-3.2s0-2,0-3c0-2.4,0-4.8,0-7.2,0-4-.2-8-.4-12-.2-2.8-.5-5.5-.8-8.3-1.4-10.1-3.5-20.1-6.4-29.9-2-7.1-4.2-14.1-6.4-21.1-1.6-5.1-3.2-10.2-5.1-15-2.8-7-6.2-13.4-8.7-20.6-2.8-7.4-3.8-15.3-2.8-23.1.8-.3,1.7-.4,2.6-.3.9.2,1.6.8,1.8,1.7.3,1.4.3,2.9,0,4.3-.6,5.9,2.3,11.2,4.8,16.1,8.2,15.8,13.1,34.5,18,52.9.4,1.4.7,2.7,1.1,4.1.7,2.5,1.3,5,2,7.6,2.1,8.4,4.1,16.9,5.4,25.6.4,2.6.8,5.2,1,7.8.1,1.1.2,2.1.3,3.2.3,3.1.5,6.2.6,9.3,0,2.7,0,5.4,0,8.1"/>
      <path id="Path_109" class="st0" d="M1408,387.4c2.7-19.2,1.5-38.8-3.4-57.5-1.9-7.2-4.4-14.1-6.6-21.2-3.7-12.1-6.6-24.6-9.5-37.1-3.5-15.3-7.1-31.5-5-45.5-.2-1.4-.8-2.8-1.7-4-.9-.9-2.4-.7-3.1,2-1.3,25.1,1.4,50.2,8,74.4,6.4,23,16.5,45.1,16.7,69.7.1,4.9-.4,9.8-1.7,14.5-1.2,3.8-2.9,7.5-5.1,10.8,2.8,2,5.6,4,8.4,6.1.5.3,1,.7,1.4.4.4-.3.7-.8.8-1.3.5-1.5-.4-3.1.7-11.2"/>
      <path id="Path_110" class="st0" d="M1393.3,393.3c2.2-10.7,10.4-15.5,15.8-23.3,2.4-3.7,4.4-7.6,5.8-11.8,6.1-16.5,7.8-36.2,5.9-55-1.5-14.7-5.1-28.7-7.8-43.1-1.7-8.2-2.8-16.6-3.1-24.9-.5-14.2,2.1-28.4,7.6-41.5-.4-1.4-1.2-2.6-2.2-3.6-1-.7-2.5,0-2.7,2.6-7.9,13.3-11.9,31.5-10.9,49.3.8,14.9,5,29,8.6,43.1s6.8,29,5.6,43.8c-.8,8.4-2.7,16.7-5.4,24.7-2.2,6.7-4.9,13.5-9.2,17.4-2.8,2.6-6.3,3.9-8.5,7.5-1.5,2.8-2.4,5.7-2.9,8.8-.4,1.5-.5,3.1-.3,4.6.3,1.5,1.3,2.9,3.9,1.4"/>
      <path id="Path_111" class="st0" d="M1404.4,396.7c2.8-6.8,2.4-15.5,1.4-23.4-2.1-17.8-6.1-35.3-11.9-52.3-5.4-15.3-12.2-29.5-17.5-44.9-5.3-15.4-9.1-32.5-8.2-49.8-1.9-.9-3.9.3-5.7,1.4-1.1.7-1.6,1.9-1.4,3.2,1.6,23.1,6.7,45.9,15.1,67.4,3.7,9.4,8.1,18.4,11.1,28.3,2.6,9.7,4.5,19.5,5.7,29.5,1,5.7,1.5,11.4,1.5,17.1,0,5.9-1.4,11.7-4.3,16.9,4.1,1.5,8,3.5,14.2,6.5"/>
      <path id="Path_112" class="st0" d="M1412.6,363.8c-.3,3.3-.8,6.6-1.6,9.8-.6,2.4-1.3,4.7-2.3,7,0,.2-.1.3-.2.5-.7,2.1-1.1,4.2-1.1,6.4-.3,3.1-.4,6.9-.7,10.6,0,.6,0,1.1-.2,1.7,0,.4,0,.7,0,1.1-.3-.1-.6-.2-.9-.4-.6-.2-1.2-.5-1.8-.8-1.8-.9-3.6-1.9-5.2-3-.3-.2-.5-.4-.7-.6,0-.1-.2-.2-.2-.4-.2-.8-.2-1.6,0-2.3,0-.1,0-.2,0-.3.2-.7.3-1.4.5-2.1,0,0,0-.1,0-.1,1-3.8,2-7.5,2.8-11.4.5-2.3.8-4.6,1-6.9,0-.9,0-1.8.1-2.6-.2-7.7-1.1-15.4-2.7-22.9-.2-.9-.3-1.8-.5-2.6-.8-4.8-1.6-9.6-2.3-14.5,0-.5-.2-1-.2-1.5v-.2c-1.9-13.6-3.3-27.3-4.2-41.1-.6-9.5-.9-19.1-1.1-28.7v-2.8c0-2.2,0-4.3,0-6.5,0-3.3.2-6.5.5-9.7.3-4,.9-7.9,1.8-11.8h0c1.3.4,2.5.8,3.8,1.2.7-.4,1.5-.3,2.1.3-.4,2.6-.8,5.2-1.2,7.8-.5,3.3-.9,6.5-1.3,9.8-.4,3.6-.7,7.1-.9,10.7-.1,2.2-.2,4.3-.2,6.5,0,3.9.1,7.7.5,11.6,1,9.1,2.8,18.2,5.4,27,.8,2.7,1.5,5.4,2.3,8.1,1.5,5.3,3.1,10.6,4.5,16,1.3,5,2.4,10.1,3.2,15.2.2,1.2.4,2.5.5,3.8,0,.4,0,.8.1,1.2.1,1.2.2,2.3.3,3.5.3,4.5.3,8.9,0,13.4"/>
      <path id="Path_113" class="st0" d="M1500.8,359h0c0,2.5-1.6,5.2-7.5,6.5,0,0-.2-.1-.2-.2-5.5-5.6-7.9-14.4-9.8-22.7-1.2-5.2-2.3-10.5-3.3-15.7-.6-2.8-1.1-5.7-1.6-8.5-1.1-6.4-2.2-12.7-3.1-19.1-.1-.9-.3-1.8-.4-2.7-.1-.9-.2-1.7-.4-2.6h0c-.3-2.1-.5-4.2-.8-6.3-.3-2.7-.6-5.5-.9-8.2-.8-7.6-1.4-15.2-1.9-22.8,0-.4,0-.8,0-1.1-.2-3.9-.4-7.8-.5-11.7-.3-13.6.6-27.2,5.3-39.5.7-2.5,2.1-4.7,4.1-6.4.3-.2.5-.3.8-.5,1.9-.9,4.2-.2,5.2,1.7,0,0,0,.1,0,.2.6,2.1.6,4.4-.2,6.4-3.2,11.2-5.6,22.7-7,34.3-.4,4.1-.6,8.2-.6,12.3,0,4.3.4,8.5.9,12.8.7,5.5,1.6,11,2.5,16.4,0,.3,0,.6.2.9.6,3.6,1.2,7.2,1.9,10.9.4,2.5.9,4.9,1.4,7.4.2,1.2.5,2.5.7,3.7.8,4.2,1.7,8.3,2.6,12.4.8,3.4,1.6,6.8,2.5,10.2,0,.3.1.5.2.8,1.5,5.5,3.1,10.9,5,16.2.9,2.7,2,5.3,3,8,.4.9.8,1.9,1.1,2.8.2.5.3,1,.5,1.6,0,.4.2.8.2,1.2,0,.5.1,1,0,1.6"/>
      <path id="Path_114" class="st0" d="M1498.9,357.1c0,.6-.2,1.2-.4,1.8-.1.5-.3.9-.6,1.4-1.1,2.1-2.8,3.8-4.9,5.1-.6.4-1.3.8-2,1.1-7.5-11.3-12.3-24.8-16.6-38.3l-.5-1.7c-.4-1.4-.9-2.8-1.3-4.2l-2.7-8.6c-.1-.4-.2-.7-.3-1.1-.2-.7-.4-1.3-.6-2-1.5-4.8-2.9-9.5-4.3-14.3-.3-.9-.5-1.8-.8-2.7-4.4-14.8-8.1-29.8-10.9-45-1.1-6.3-2.1-12.6-2.8-18.9-.2-1.6-.3-3.1-.5-4.7-.7-8.3-1.1-16.5-1.1-24.8,0-8.5.2-17,.5-25.6.3-8.9.8-17.9,1.2-26.8.2-5.9,0-12.8-3.9-16.4-1.5-1.4-3.5-2-5-3.5s-2.3-4.4-.9-6c1-.9,2.5-1.3,3.8-.9,3.3,0,6.5,1.1,9.2,2.9,3.2,2.5,4.8,7,6,11.3,1.7,6.4,2.9,13,3.6,19.7.5,4.7.8,9.4.9,14.2.4,12.7-.1,25.6-.2,38.3,0,5.9,0,11.9.3,17.9.2,6.2.6,12.4,1.1,18.6,1.2,15,3.6,29.9,7.2,44.6.6,2.4,1.2,4.8,1.9,7.2.2.6.3,1.2.5,1.8s.4,1.3.6,1.9c1.5,4.9,3.1,9.8,4.9,14.5,1.7,4.6,3.7,9.2,5.7,13.6.9,1.9,1.8,3.8,2.8,5.7,1.3,2.5,2.6,5,4,7.4,0,.1,0,.2.2.3.4.7.8,1.4,1.2,2.1h0c.8,1.4,1.6,2.9,2.4,4.4.9,1.7,1.5,3.5,2,5.4,0,.3.1.6.2.8.2,1.2.3,2.4.2,3.6"/>
      <path id="Path_115" class="st0" d="M1494.3,356.5c-5.8-17.4-7.7-36.2-8.9-54.9-.7-10-.9-20-.6-30,.9-23,6.1-46.1,2.9-68.8-1.4-9.9-4.4-19.4-5.5-29.3s0-20.9,5.5-28.3c1.8-2.4,5.3-4.3,7.1-1.9.9,1.9,1.1,4,.5,6-1.6,9.1-2.4,18.4-2.4,27.6,0,20.8,5,41.1,7.3,61.7,1.8,16.1,1.9,32.3.4,48.4-1.8,19.6-5.9,40.4.9,58.4.7,1.6,1.2,3.3,1.5,5.1.3,5-3.8,8.5-8.6,6"/>
      <path id="Path_116" class="st0" d="M1517.7,211.4c-.2,9.4-.3,18.8-.3,28.2v1.2c0,11.1.4,22.3.9,33.4,0,2.3.2,4.7.4,7l.3,5.5c.4,6.3.8,12.6,1.7,18.8.2,1.4.4,2.7.6,4.1,1.2,7.3,3.2,14.4,3.9,21.8.4,6,.5,12,.1,18,.1,2.4-.4,4.8-1.4,6.9-1.3,1.5-2.8,2.7-4.5,3.7-1.1.7-2.3,1.6-3.8,2.8-.4.3-.8.6-1.2,1-.2-.5-.4-1-.6-1.6-1.2-3.8-1.9-7.8-2.2-11.8,0-.2,0-.5,0-.7h0c-.3-3.7-.3-7.4-.5-11.2,0-.6,0-1.3,0-1.9,0-2.3-.2-4.6-.4-6.9-.2-1.9-.3-3.8-.5-5.7-.2-1.6-.3-3.2-.5-4.7-1-8.7-2.3-17.4-3.2-26.2-.3-2.8-.5-5.7-.7-8.5-.2-2.7-.4-5.4-.5-8.1,0-.4,0-.8,0-1.2-.6-13-.4-26,.3-39,.8-17.2,2.4-34.5,4.1-51.6.6-6.6,1.5-13.8,4.2-19.4,1.1-2.4,2.7-4.6,4.6-6.4,1.3-1.4,3.3-2.1,5.2-2,.4,0,.8.2,1.2.4,2.7,1.3,4.2,5.1,5.3,8.4-4.8,1.7-7.5,7.8-8.9,13.6-2.3,10.5-3.4,21.3-3.4,32.1"/>
      <path id="Path_117" class="st0" d="M1559.4,188.1c-3.7,9.7-8.9,18.5-13.1,28-2.9,6.6-5.2,13.5-7.6,20.4-7.6,22.4-15.3,45.2-18.1,69.1-.4,3.7-.7,7.4-.9,11.1-.2,4.7-.2,9.4-.1,14.1,0,.7,0,1.4,0,2.1,0,3.2.2,6.4.3,9.6,0,1.3,0,2.6,0,4,0,1.4,0,2.8,0,4.3v2.4c.1,2.4-.2,4.7-.8,7,0,.1,0,.2-.1.3-.4,1.7-2,2.8-3.6,2.5-.6-.1-1.2-.3-1.8-.6-.8-.4-1.6-.9-2.4-1.5-.5-2.3-.9-4.5-1.2-6.8-.1-.8-.2-1.5-.3-2.3,0-.3,0-.7-.1-1-.1-1.2-.3-2.3-.4-3.5h0c-.3-3.7-.5-7.3-.5-10.9,0-2.2,0-4.4,0-6.5,0-2,.2-4,.3-6,0-1.4.2-2.9.4-4.3.3-3.5.8-7,1.3-10.4,1.9-11.7,4.3-23.2,7.5-34.6,1.4-5.3,2.8-10.5,4.3-15.7,6.9-24.9,14-50.2,26.4-71.8,3.8-6.6,8.3-13.9,7-21.8-.6-1.9-.7-3.9-.3-5.8.4-1.3,1.6-2.2,2.9-2.4,1.4-.2,2.9-.1,4.2.2,2.5,10.3.4,21.4-3.4,31.1"/>
      <path id="Path_118" class="st0" d="M1493.2,342.7c-5.3-25.6-4.5-52.1,2.5-77.3,2.7-9.8,6.4-19.2,9.6-28.8,5.4-16.4,9.5-33.3,13.5-50.3,4.9-20.6,9.9-42.5,5.7-61.3.4-2,1.3-3.9,2.6-5.4,1.4-1.3,3.9-1.1,5.1,2.6,3.4,33.6.4,67.6-9.1,100.1-9.2,31.1-24.5,61.2-23.5,94.2,0,6.6,1.2,13.2,3.5,19.4,2.2,5.2,5.2,10,8.9,14.3-4.4,2.8-8.9,5.7-13.3,8.5-.6.6-1.5.8-2.3.6-.6-.4-1.1-1-1.3-1.7-1-2,.5-4.2-1.8-14.9"/>
      <path id="Path_119" class="st0" d="M1517.4,349.9c-4.2-14.2-17.8-20.4-27-30.6-4.1-4.7-7.4-9.9-10.1-15.6-10.8-21.9-14.7-48.2-12.7-73.5,1.6-19.7,6.7-38.8,10.4-58.1,2.3-11.1,3.6-22.3,3.7-33.6,0-19.4-5.1-38.4-14.7-55.3.7-1.9,1.9-3.7,3.5-4.9,1.6-1,4.1-.2,4.6,3.3,13.6,17.5,21.2,41.7,20.5,65.6-.6,20-6.5,39.2-11.6,58.2s-9.5,39.2-6.7,59c1.8,11.4,5.3,22.4,10.2,32.8,4,8.9,8.7,17.9,16,23,4.7,3.3,10.4,4.9,14.2,9.7,2.5,3.5,4.2,7.5,5.2,11.7.7,2,.9,4.1.7,6.2-.4,2.1-2,3.9-6.3,2.1"/>
      <path id="Path_120" class="st0" d="M1499.5,354.9c-5-9-4.7-20.6-3.6-31.3,2.4-24.2,8-47.9,16.6-70.7,7.9-20.8,18.3-40.1,26.1-61s13-44,10.6-67.1c3.1-1.3,6.4.2,9.4,1.6,1.7.7,2.7,2.4,2.4,4.2-1.4,31.4-8.5,62.3-21,91.2-5.6,12.8-12.2,25-16.5,38.5-4,12.7-5.9,26.3-7.7,39.8-1.3,7.6-1.8,15.3-1.5,23,.5,8.3,3,16.6,7.9,22.4-6.5,2.2-12.9,5.1-22.7,9.3"/>
      <path id="Path_121" class="st0" d="M1505,288.2c-1.8,10.2-3.9,20.5-3.2,30.8,0,1.2.2,2.4.3,3.6.3,2.2.7,4.4,1.2,6.5.2.9.5,1.9.7,2.8,1.4,5.1,3.4,10.1,5.1,15.1,0,0,0,.1,0,.2.3.9.7,1.9,1,2.8,0,.1,0,.3.1.4,0,.3.2.6.2.8.2.8.2,1.6-.1,2.3,0,.2-.2.4-.4.5-.3.3-.7.6-1.1.9-2.7,1.6-5.4,3.1-8.3,4.3-.9.4-1.9.8-2.8,1.1-.5.2-1,.3-1.5.5,0-.5-.2-.9-.2-1.4-.1-.7-.2-1.5-.3-2.2-.7-5-1.2-10.1-1.7-14.3h0c-.2-2.9-1-5.8-2.2-8.5-.1-.2-.2-.4-.4-.7-1.1-2-2.1-4-2.9-6.1-.4-1.1-.8-2.2-1.2-3.3h0c-1.4-4.3-2.5-8.7-3.1-13.1-.3-2.3-.6-4.6-.7-6.9-.2-3.7-.3-7.4,0-11.1,0-1.6.2-3.2.3-4.7,0-.5,0-1.1.2-1.6.2-1.7.4-3.4.6-5.1,2-13.9,6.2-27.2,10.3-40.4.2-.6.4-1.2.6-1.8,1.1-3.7,2.3-7.3,3.4-11,3.7-11.9,6.2-24.1,7.4-36.5,1.6-21-2.7-41.9-7.5-62.1.9-.8,2.3-1,3.4-.4,2-.6,4.1-1.2,6.1-1.8,3.8,11.9,4.9,24.7,5.4,37.5v3.7c.5,12.8.4,25.7,0,38.5-.7,18.6-2.2,37-4.7,55.4,0,.7-.2,1.4-.3,2.1-.9,6.5-1.9,13.1-3,19.6-.2,1.2-.4,2.4-.6,3.6"/>
      <path id="Path_122" class="st0" d="M900.3,343.1c-1,.6-2.2.7-3.3.1-1.6-.6-3.2-1.4-4.6-2.4-1.3-.8-2.5-1.9-3.4-3.2-.9-1.3-1.1-3-.5-4.5.2-.4.4-.8.7-1,.3-.2.7-.4,1-.5,1.5-.6,3.3-1.1,3.6,0,3.5,1.8,6,5,6.9,8.8.3.9.1,2-.5,2.7M849,304.9c-1.7-.6-1.9-3.4-2.2-3.8.8-2.2,2-4.2,3.4-6.1,1.2-1.2,2.5-2.3,3.9-3.2,1.1-.9,2.4-1.6,3.8-2,2.7-.5,5.3,1.3,5.8,3.9,0,.1,0,.3,0,.4,0,1.6-.7,3.1-1.7,4.2-2.6,3.4-6.4,5.8-10.7,6.6-.8.2-1.6.2-2.3,0M829,332.6c-.8,1.6-2,2.9-3.5,3.7-1.6.7-3.5.5-4.9-.5-1.2-1.3-1.7-3.2-1.1-4.9.3-1.5.6-3,1.1-4.4.5-2.3,2.1-4.2,4.3-5,2.6-.3,4.9,1.4,5.5,4,.4,2.5-.1,5-1.5,7.1M904.6,337.1c-1.4-6-7.6-10-13.7-10.1-6.2.2-12,3-16.2,7.6-5.1,5.2-8.3,11.9-13,17.4,4.7-10.5,9.6-21.7,8.4-33.2-.5-4.8-2.1-9.7-.7-14.4,1.4-4.7,5.6-8.7,5.2-13.5-.5-3.6-3-6.5-6.4-7.7-3.4-1.1-7-1-10.3.2-6.6,2.3-12.4,6.6-16.5,12.3-2.2,2.5-3.6,5.5-4.3,8.8-.7,3.3.6,6.7,3.2,8.8,2.4,1.6,5.7,1.8,7.5,4.1.8,1.1,1.3,2.4,1.4,3.8,2,9.8,2.4,19.8,1.1,29.7.3-6.2-1-12.3-3.8-17.9-2.3-3.7-5.1-7-8.3-9.9-2.1-2.5-4.9-4.4-8-5.5-6.6-1.6-12.8,4.7-14.4,11.2-1,3.5-.7,7.2.9,10.4,1.8,3.2,5.5,4.9,9.1,4,1.5-.5,3-1.6,4.5-1.2.8.2,1.5.6,2.1,1.2,5.5,4.4,9.9,10.1,12.8,16.5,1.2,2.8,2.3,5.6,3.1,8.6,1.4-.9,3.2-.9,4.6,0,1.5.7,2.6,1.9,4,2.7,2.8,1.6,6.3,1.8,6.8-2.9,2.6-2.1,5.2-4.3,7.9-6.4l11.3-9.2c1.8-1.7,4-2.9,6.5-3.4,1.9.1,3.8.3,5.7.7,6.1.3,11-6.6,9.6-12.6"/>
      <path id="Path_123" class="st0" d="M989,390.7c-1.5,5.1-5.1,9.4-9.9,11.7-3.8,1.4-7.8,1.8-11.8,1.3-5.5-.3-11.1-.6-16.6-.9h-2.2c-2.1-.2-4.1-.4-6.2-.5-.3,0-.6,0-.8-.2-.5-.7-.7-1.5-.7-2.4,0-.6,0-1.2-.1-1.8,0-1.4-.1-2.8,0-4.2,0-1.4,0-2.7.1-4.1,0-.2,0-.4,0-.5,0-.3,0-.6,0-.9.1-1.5.3-3,.5-4.6,0,0,.2-.1.2-.2h0c.5-.5,1-.9,1.5-1.3,0,0,.2-.1.2-.2l.4-.3c.2-.1.3-.2.5-.4.3-.3.7-.5,1-.8,0,0,0,0,0,0s0,0,.1-.1c.2-.2.5-.4.7-.5.5-.3.9-.7,1.4-1,.2-.1.4-.3.6-.4.5-.3.9-.6,1.4-.9h.2c0-.1,0-.2,0-.2.2-.1.3-.2.5-.3h0c.3-.2.6-.4,1-.5s.4-.2.6-.3c.2,0,.3-.2.5-.3.8-.4,1.6-.8,2.4-1.2.2,0,.3-.1.5-.2,0,0,.2,0,.3-.1h0c.8-.3,1.5-.6,2.3-.9,0,0,0,0,.1,0,.4-.1.8-.3,1.2-.4,0,0,.1,0,.2,0,.6-.2,1.2-.3,1.9-.5h0c.1,0,.3,0,.5-.1,0,0,.2,0,.3,0,.1,0,.3,0,.4,0,0,0,.2,0,.3,0,.3,0,.6-.1.9-.2h0c.1,0,.3,0,.4,0,.2,0,.4,0,.6,0,.7,0,1.4-.2,2.2-.2h0c.5,0,.9,0,1.4,0h1.1c.3,0,.6,0,1,0h.3c.7,0,1.4.1,2.1.2,0,0,.1,0,.2,0,.4,0,.8.1,1.3.2.3,0,.6.1.9.2h0c.1,0,.2,0,.3,0h.5c.4.2.8.3,1.2.4.6.1,1.1.3,1.7.5s.4.1.6.2c0,0,.2,0,.2.1s.2,0,.2,0h0c.2,0,.4.2.6.2,0,0,0,0,.1,0l.9.4c.2,0,.3.1.5.2s.4.2.6.3c0,0,.2.1.3.1s.2.1.3.2c.4.2.8.4,1.1.6.1,0,.3.1.4.2,0,0,.2.1.3.2.2.1.4.2.7.4h0c.3.2.7.4,1,.6.4.3.8.7,1.2,1.1.5.5.9,1.1,1.2,1.8,0,.2.2.4.2.6.2.4.3.8.3,1.3.4,3,.1,6.1-.9,8.9"/>
      <path id="Path_124" class="st0" d="M952,403.7c-1.2-.3-2.4-.6-3.5-1.1h0c-2.8-1.2-5.5-2.8-7.8-4.8-6.7-6.2-11.6-14-14.1-22.8-1-3.2-1.8-6.4-2.4-9.7-1.2-6.1-1.2-12.4,0-18.5,1.1,4.9,1.4,10.3,2.2,15.5.7,4.8,1.9,9.4,3.7,13.9,2.5,6.4,6,12.3,10.6,17.4,3,3.4,6.4,6.5,10,9.1.4.3.9.6,1.3,1"/>
      <path id="Path_125" class="st0" d="M951.8,395.8c-.6,2.2-2.4,1.4-3.6.3-5.4-5.4-11.1-11.1-14.2-20.6-.8-2.7-1.5-5.4-2.1-8.2-2.1-9.5-3.7-20-2.2-30.2.8,23.6,7.6,45.6,22.1,58.7"/>
      <path id="Path_126" class="st0" d="M951.8,393.2c-6.9-3.6-12.8-12.2-16.2-23.4-3.3-12.3-4-25.1-1.9-37.6-.6,5.4-.8,10.8-.6,16.2.4,8.8,2.4,17.5,5.8,25.7,3.1,7.1,7.4,13.5,12.8,19.1"/>
      <path id="Path_127" class="st0" d="M963.3,386c-1.1-11.1-1.3-22.3-.6-33.4.6-10.8,3.1-21.5,7.3-31.5-2.9,8.6-4.7,17.5-5.5,26.5-1.8,12.7-2.2,25.6-1.3,38.5"/>
      <path id="Path_128" class="st0" d="M974.4,386.7c4.6-9.5,8.4-19.4,11.4-29.5,3.2-10.9,5-22.2,5.2-33.6.6,7.1,0,14.3-1.5,21.2-3.2,15.9-8.2,30.8-15.1,41.9"/>
      <path id="Path_129" class="st0" d="M952.4,383.1c-3.8-7.6-6.3-15.9-7.4-24.4-1.2-9.4-1.7-18.9-1.3-28.3.8,19.4,3.3,39,8.6,52.7"/>
      <path id="Path_130" class="st0" d="M959.8,388c-4.7-10.2-7.6-21.1-8.6-32.3-1.2-12.2-.2-24.5,2.9-36.3-4.2,24.8-1.1,52.1,5.7,68.6"/>
      <path id="Path_131" class="st0" d="M947.5,389.8c-9.4-15.1-13.5-39.6-10.5-62.4,0,19.6,2.8,39.2,8.5,58,1,3,2.2,6.2,2.1,4.5"/>
      <path id="Path_132" class="st0" d="M952.4,389.9c-8.8-16.5-13-40.4-11.3-63.8,1.1,22.6,3.2,46,11.3,63.8"/>
      <path id="Path_133" class="st0" d="M961.6,385.9c2.1-5.5,4.1-10.9,6.2-16.4,3-7.8,5.6-15.8,7.7-23.9,2.2-8.6,3.1-17.5,2.7-26.3.8,12-.5,24-3.8,35.5-3.1,10.8-7.4,21.2-12.7,31.1"/>
      <path id="Path_134" class="st0" d="M976.4,385.5c1.9-1,3.4-2.6,4.5-4.4,7.8-10.8,14.4-22.4,19.6-34.6,3.1-6.8,4.8-14.2,4.8-21.6.4,6.6-.5,13.3-2.6,19.6-1,2.8-2.2,5.5-3.6,8.2-6.4,12.7-13.5,24.5-22.6,32.8"/>
      <path id="Path_135" class="st0" d="M1009.4,343.9c2.2-5,3.9-10.2,5.2-15.5-.5,3.5-1.2,7-2.1,10.4-2.5,9.7-6.2,19-11,27.7-3.1,5.6-6.9,10.7-11.5,15.2-2,2-4.3,3.7-6.7,5.2,2.2-2.2,4.2-4.6,6.1-7.1,3.1-4,5.9-8.2,8.5-12.6,4.4-7.5,8.2-15.4,11.6-23.4"/>
      <path id="Path_136" class="st0" d="M1015.1,325c-.2,1.2-.4,2.3-.6,3.4.3-2.2.4-4.5.4-6.7.4,1,.5,2.1.2,3.2"/>
      <path id="Path_137" class="st0" d="M982.4,383.2c11.5-14.7,20.6-31.1,26.9-48.7,1.5-3.9,2.6-8,3.1-12.2-1.2,10.8-5,20.4-9,29.3-5.7,12.9-12.1,25.6-21.1,31.6"/>
      <path id="Path_138" class="st0" d="M979.3,381.6c5.8-11.3,11-22.9,15.6-34.7,3.1-8.1,6.2-17,6.5-26.5.3,2.5,0,5-.6,7.3-4.5,20.4-11.5,39.3-21.4,53.9"/>
      <path id="Path_139" class="st0" d="M976.9,380.9c4.8-8.6,9.2-17.4,12.9-26.5,4.1-10.1,6.7-20.7,7.7-31.5.8,5-.5,10.6-1.9,15.5-4.7,16.6-10.4,33-18.7,42.5"/>
      <path id="Path_140" class="st0" d="M972.4,382.7c5.6-14.8,11.1-30.4,13.1-47.5.7-4.7.7-9.4,0-14.1,1.4,2.4,1.4,6.3,1.2,9.8-.4,5.3-1.2,10.5-2.3,15.7-2.5,13.1-5.8,26.1-12.1,36.2"/>
      <path id="Path_141" class="st0" d="M969.3,382.6c4.8-13.4,9.6-27.1,11.7-42.1,1-7,1.3-14.2,2.4-21.2.3,3.8.2,7.7-.4,11.5-1.3,9.4-3.3,18.6-6.1,27.7-2.3,8.1-4.8,16.1-7.6,24.2"/>
      <path id="Path_142" class="st0" d="M976.1,380.9c3.6-8.9,6.6-18.1,9.1-27.4,2.6-9.9,3.5-20.1,2.9-30.3,1.6,11.6-.8,24.1-3.5,35.5-2.1,8.4-4.4,16.9-8.4,22.1"/>
      <path id="Path_143" class="st0" d="M967.7,377.7c4.3-8.6,7.5-17.8,9.5-27.2,2.1-10.8,3.6-21.7,4.5-32.7-1.5,22.6-6.5,44.9-14,60"/>
      <path id="Path_144" class="st0" d="M961.6,379.6c3.4-11.6,6.8-23.2,9.5-35.3,1.9-7.5,2.8-15.2,2.6-22.9.7,4.3.8,8.7,0,13-1.7,15.6-5.8,30.8-12.2,45.2"/>
      <path id="Path_145" class="st0" d="M962.5,383.3c-3.8-5-6.1-13.1-6.8-21.5-.6-8.6-.4-17.3.8-25.9.6-5.4,1.5-10.7,2.8-15.9-1.7,10.2-2.5,20.4-2.6,30.7,0,11.1,2,22.1,5.8,32.6"/>
      <path id="Path_146" class="st0" d="M952.9,385.6c-6.8-18.7-8-43.8-3.2-65.7.5-2.6,1.3-5.1,2.5-7.5-1.8,11.5-2.8,23.2-2.9,34.9-.2,12.9,1,25.7,3.6,38.3"/>
      <path id="Path_147" class="st0" d="M961.1,381.7c-1.7-.6-2.5-3.9-2.9-6.9-1.5-14-.8-28.2,2.3-41.9,1.3-7,3.4-13.9,6.2-20.5-.2,3.2-.8,6.4-1.8,9.5-2.8,9.6-4.8,19.4-6,29.3-1.2,10.2-.5,20.6,2.1,30.5"/>
      <path id="Path_148" class="st0" d="M964.5,382.6c-.6-3-.9-6-.8-9,0-12.8,2.5-25.4,5.1-37.7,1.7-7.9,3.5-16.2,3.2-24.4.8,11.4-1.6,23.1-3.9,34.3-2.3,11.1-4.8,22.8-3.5,36.8"/>
      <path id="Path_149" class="st0" d="M972.9,380.2c.9-3.7,2-7.4,3.3-11,2.8-8.9,5.1-17.9,6.8-27.1,2-10.2,3.7-21.2,2-31.1,1,7.6,1,15.3-.1,22.9-1,7.5-2.6,14.8-4.7,22.1-2.6,9.6-5.7,18.9-7.2,24.2"/>
      <path id="Path_150" class="st0" d="M979.3,383.2c3.1-9.7,6.5-18.9,9.8-28.4,1.8-5.1,3.4-10.4,4.6-15.7,1.6-8.9,2.5-17.9,2.6-26.9,1.4,6.9.4,14.9-1,22.1-3.2,16.9-8.6,33.3-16,48.8"/>
      <path id="Path_151" class="st0" d="M981.1,384.4c8.2-16.2,16.6-32.7,21.7-52.3,2-7.1,3-14.4,2.9-21.7.6,6.7,0,13.5-1.8,19.9-4.3,19.2-12.1,37.6-22.8,54.1"/>
      <path id="Path_152" class="st0" d="M950.3,396.3c-1.8,0-3.6-.9-4.8-2.2-5.2-4.6-9.5-12-12.4-20.9-3-9.6-4.6-19.5-4.8-29.6-.4-6.6.3-13.3,1.9-19.8-3.7,12-4.3,24.6-1.7,36.9.6,2.6,1.3,5.1,2.1,7.6,1.8,5.9,4.1,11.5,7.1,16.9,2.8,5,7.2,8.9,12.5,11.1"/>
      <path id="Path_153" class="st0" d="M950.6,390.2c-1.9-2.2-3.4-4.6-4.4-7.3-4.2-9.8-6.6-21.8-7.9-34-.9-7.4-1.2-14.8-.9-22.3.2-7.4,1.5-14.7,3.9-21.7-3.2,14.1-4.1,28.7-2.7,43.1,1.5,14.7,5.6,29,12.1,42.2"/>
      <path id="Path_154" class="st0" d="M956.3,388.1c-3.1-1.8-5.2-6.4-7-11.1-5.6-16.4-8-33.8-7.1-51.2,0-7.8,1.5-15.6,4.2-22.9-3,14.7-4.1,29.7-3.2,44.7,1,14.8,4.1,29,13.1,40.5"/>
      <path id="Path_155" class="st0" d="M960.8,388.6c-1.7-2-3-4.5-3.6-7-3-9.6-4.5-19.6-4.6-29.6-.2-10.5.5-21,2-31.4,1.1-8.2,2.7-16.6,6.1-22.9-.4,3.1-1.1,6.2-2.2,9.1-3,10.1-4.9,20.5-5.5,31-.7,8.4-.5,16.8.3,25.2,1,8.9,3.6,17.6,7.5,25.7"/>
      <path id="Path_156" class="st0" d="M963,384.8c-3.1-13.5-2.1-29.2,0-43.9s5.4-29,6.6-43.9c-.3,13-1.4,25.9-3.3,38.8-1.3,9.1-2.9,18-3.9,27.2-1,9.1-1.4,18.5.5,21.8"/>
      <path id="Path_157" class="st0" d="M968.2,384.4c0-2.7.2-5.5.6-8.2,1.7-12.1,4.2-23.9,5.9-36,2-12.1,2.4-24.4,1.4-36.6.8,27.1-1.9,54.3-7.9,80.7"/>
      <path id="Path_158" class="st0" d="M970.8,386.5c.9-4.2,2-8.3,3.1-12.5,5.7-22.8,8.4-46.3,8.2-69.8,1.4,14.1.8,28.3-1.9,42.3-2.5,13.8-6.3,26.9-9.4,40"/>
      <path id="Path_159" class="st0" d="M976,386.9c.4-2.7,1.1-5.3,1.9-7.9,7-22.1,11.5-45,13.6-68.1.5-4.3.4-8.6-.3-12.8,2.2,12,1.2,25.7-1.3,38.2s-6.3,24.1-9.8,35.9c-1.6,5.5-3.2,11.3-4.2,14.7"/>
      <path id="Path_160" class="st0" d="M953.3,392.4c-2.4.8-4.6-2.1-6.3-5-4.8-7.8-8.6-16.2-11.5-24.9-3.2-10-4.9-20.5-5-31,0-9.6,1.2-19.2,3.3-28.6.8-3.8,1.8-7.6,2.9-11.2-5.3,18-6.5,37-3.6,55.5,2.7,16.2,8.6,29.6,20.1,45.2"/>
      <path id="Path_161" class="st0" d="M960.1,389c-2.6-1-4.6-4.4-6.2-8-5.7-12.4-8.7-28.5-8.8-45,0-16.2,2.6-32.4,7.7-47.8,0-.4.3-.7.5-1,.3-.2.6.2.5.6-3.7,11.4-5.8,23.3-6.2,35.3-.5,12.1,0,24.1,1.6,36.1,1.4,12,3.8,24.6,10.8,29.8"/>
      <path id="Path_162" class="st0" d="M965.1,394.5c-2.7-12.6-4.5-25.4-5.5-38.3-.6-16,.5-31.9,3.3-47.6,1.6-10,3.7-20.5,2.6-30.4,1.3,8.4,1.3,17,0,25.4-1,6.5-2.8,12.6-3.8,19-1.8,11.2-1.3,22.7-.7,34,.4,12.7,1.7,25.4,4.1,37.9"/>
      <path id="Path_163" class="st0" d="M972.1,385.2c-1.1.6-2.2-.1-3-1.4-.8-1.5-1.2-3.2-1.5-4.9-1.5-9.3-.3-19.6,1.5-29.2,2.6-13.4,6.4-26,9.5-39.1,3-13.1,5.3-27.2,4.4-40.8,1.4,13.2-.6,27.2-3.4,40.2s-6.6,25.5-8.9,38.8-3,27.9,1.4,36.6"/>
      <path id="Path_164" class="st0" d="M168.2,243.9c-3.2,7-4.8,14.6-4.7,22.2-.2,4.3,1,8.5,3.4,12.1,2.5,3,6.4,4.5,8.4,7.9.9,1.5,1.3,3.1,1.4,4.8,0,3.5-.9,6.9-2.4,10.1-2.2,4.7-5.1,9.3-5.1,14.5.1,3,.9,6,2.2,8.7,1.9,4.3,4.5,8.5,5.2,12.8.3,1.6.2,3.2-.1,4.8-.4,2.6-2,4.9-4.3,6.2-1,.5-2.1.7-3.2.7s-2.1-.2-3.2-.5c-.7-.2-1.5-.5-2.2-.9-1.8-.9-3.4-2.2-4.8-3.7-2.1-2.4-3.6-5.3-4.4-8.4-.2-.7-.4-1.4-.5-2.1-.7-4.6-.6-9.2.5-13.8.3-1.4.7-2.8,1.1-4.2.3-1,.6-2,.9-3,1.6-4.2,2.6-8.6,3.1-13.1.2-2.6,0-5.2-.8-7.8-1.7-6.3-5.6-12.1-7-18.6-2.2-10.2,1.9-20.8,7-29.8s11.6-17.3,14.7-27.2c.8-2.2,1.1-4.5,1-6.8-.6-2.8-1.4-5.6-2.4-8.3-2.6-10.2,4.2-20.2,10.7-28.3-2.2,5.5-4.4,11.4-3.3,17.2.8,4,3.1,7.5,4.3,11.4,2.2,7.6-.1,15.9-3.8,22.8s-8.5,13.1-11.8,20.2"/>
      <path id="Path_165" class="st0" d="M162,361.9c-3.8-5.6-3.8-13.1-3.1-19.9s2.2-13.8.9-20.5c-3.9-20.6-29.7-28.8-35.5-48.9-4.2-14.4,3.5-29.5,11.1-42.2,2.4-3.5,4-7.4,4.6-11.6.5-9-8-16.2-8.6-25.2-.3-5.1,2-9.9,6.1-12.9-2.5,5.2.9,11.5,5.1,15.3s9.5,6.3,12.6,11.1c3.9,6,3.6,14.1,1.4,20.9s-6,13-8.9,19.6c-3,6.3-4.6,13.2-4.5,20.2,0,7,2.9,13.7,7.9,18.5,4.3,3.7,10.1,5.6,13.1,10.5,1.3,2.6,2.2,5.4,2.5,8.2,2.2,9.9,3.4,20,3.6,30.1,0,10.1-2.2,20.5-8.5,26.8"/>
      <path id="Path_166" class="st0" d="M222.9,207.1c-2.9,7.9-9,14-13,21.4-4.9,9.1-6.7,19.5-5.2,29.7.9,6,3,12.2,1.6,18.1-2,8-9.6,12.6-15.6,17.8-6.5,5.7-12,13.8-12,22.8,0,3.3.8,6.6.6,10h0c-.4,3.6-1.3,7-2.8,10.2-.1.3-.2.6-.4.9-1.4,3.3-2.7,6.6-4,10.1-2.2,5.7-4.4,11.8-6.4,18.9-7.3-5-10.5-14.4-11.2-23.9-.2-2.4-.2-4.8-.1-7.2,0-.2,0-.3,0-.5.2-5.2.9-10.3,2-15.4.4-1.7.8-3.5,1.3-5.2.6-2,1.2-4,1.9-5.9.6-1.7,1.3-3.4,2.1-5,.9-2,2.1-3.9,3.4-5.6,1.3-1.8,3-3.3,4.8-4.4,2.1-1.1,4.4-2.1,6.7-2.8.7-.3,1.5-.6,2.2-.9,8.8-4.3,14.6-13.1,15.1-22.9.3-5.2-.9-10.3-1.3-15.4-1.2-15.8,4.4-31.4,15.6-42.7,6.5-6.4,15.5-12.6,15.1-22,2.1,6.6,1.9,13.6-.5,20.1"/>
      <path id="Path_167" class="st0" d="M165.7,348.3c-1.2,2.8-2.9,5.2-5.1,7.3-.6-1.4-1.3-2.8-1.9-4.2-1.4-3-2.8-5.7-4.2-8.3-2.8-5.2-5.5-9.8-8.3-14.5-2.1-3.2-3.7-6.7-4.7-10.4-.1-.6-.2-1.2-.3-1.8-.3-2.7-.2-5.5-.5-8.3-1.2-8.9-7.8-16-15.1-20.6-6.7-4.2-14.9-7.5-18-15.1-2.3-5.6-1.1-12-1-18.1.1-10.3-3.1-20.3-9.3-28.5-5-6.6-11.8-11.7-15.8-19.1-3.3-6.1-4.4-13-3.3-19.8,1,9.4,10.7,14.1,18,19.3,12.7,9.4,20.5,24,21.4,39.8.3,5.2,0,10.4.9,15.5.9,4.6,3,8.8,6.1,12.4,3.2,3.8,7.4,6.5,12.1,7.9,3.1.6,6.2,1.3,9.3,2.3,5.5,2.3,9.4,7.7,12.3,13.2.3.6.7,1.3,1,1.9.8,1.6,1.5,3.1,2.2,4.8,2.6,6.1,4.6,12.6,5.8,19.2h0c1.5,8.4,1.5,17.8-1.8,25.3"/>
      <path id="Path_168" class="st0" d="M1633.9,309.4c-.4,1.2-1.5,2-2.7,2.2-.9,0-1.8-.2-2.6-.7-3.4-2-5.1-6-6.2-9.9-.3-1-.5-2-.4-3,0-1,.6-2.1,2.5-3,2,.4,3.1,2.5,4.6,3.9.7.7,1.4,1.2,2.1,1.8,1.4,1.4,2.4,3.1,2.9,5,.3,1.2.3,2.5-.2,3.6M1558.3,297c-2.1,1.1-4.2,2.3-6.3,3.4-.3.2-.7.4-1.1.4-.8,0-1.5-.5-1.8-1.2-.4-.7-.2-1.3.5-2.5,2-3.2,5.5-5.2,9.3-5.4.6,0,1.2,0,1.7.4.9.8,1,2,.3,3-.7.9-1.6,1.6-2.6,2M1604,244.2c1.1-1,2.8-1.1,4.2-2.5,3.3.4,6.3,1.6,8.9,3.7,2.6,2.1,4.2,5.1,4.6,8.3.1,1,0,2-.4,3-.4.9-1.3,1.6-2.3,1.8-.6,0-1.3,0-1.8-.3-4.6-1.5-9.4-3.4-12.4-7.1-.8-.9-1.4-2.1-1.7-3.3-.3-1.2.1-2.6,1-3.5M1627.6,291.6c-3.2-1.9-7.8-3.1-10.3-.4-2.1,2.2-1.7,5.8-3.3,8.3-1.9,3-6,3.6-9.5,4.2s-7.6,2.1-8.4,5.6c2.3-18.1,11.5-34.5,25.6-46,2.4-2,5.2-4.2,5.4-7.3,0-1.6-.4-3.2-1.2-4.6-4.5-9-14.4-16.1-24.2-14-8.2,1.8-13.9,9.4-17.3,17-9.8,21.5-8.4,46.1-6.8,69.6-1.6-8.2-10-13.7-11.9-21.8-.9-4-.3-8.8-3-11.9-3-3.5-9-2.9-12.4.2-3.2,3.4-4.8,8-4.6,12.6-.2,10.1,4,19.9,10,28.1,1,1.3,2,2.7,3.1,3.9,5.6,6.4,11.6,12.3,18.1,17.8,7.7,6.8,14.5,4.8,17.4.2,2.4-3.9,2.2-8.9,3.1-13.4,0-.2,0-.4.1-.6,3.3-13.7,18.6-22,32.8-22.2,2.4,0,5.1,0,6.8-1.7.9-.9,1.4-2,1.7-3.3,2-8.2-4-16.4-11.2-20.7"/>
      <path id="Path_169" class="st0" d="M676.5,397.2c-.3,0-.6-.1-.8-.3-1.5-.8-3-1.6-4.5-2.4-.7-.3-1.4-.8-1.8-1.4-.5-.7-.4-1.6.2-2.1.4-.2.8-.3,1.2-.2,2.7.1,5.2,1.6,6.7,3.9.5.9.6,1.3.4,1.8-.2.5-.7.8-1.3.8M625.2,397.4c-.5,2.8-2.1,5.4-4.5,7.1-.5.4-1.2.6-1.9.5-.9-.1-1.6-.7-2-1.6-.3-.8-.3-1.8,0-2.6.3-1.4,1-2.6,2-3.6.5-.5,1-.9,1.5-1.3,1.1-1,1.9-2.5,3.3-2.8,1.4.7,1.7,1.4,1.8,2.2,0,.7,0,1.5-.3,2.2M639.1,359.1c-.2.9-.6,1.7-1.2,2.4-2.4,2.5-5.5,4.3-8.9,5.1-.4.2-.9.2-1.3.2-.7-.1-1.3-.6-1.6-1.3-.3-.7-.4-1.4-.3-2.1.3-2.3,1.5-4.5,3.3-6,1.8-1.5,4-2.4,6.4-2.7,1,1,2.2,1.1,3,1.8.6.7.9,1.6.7,2.5M676.9,390c-2.4-2.4-6.3-2.5-8.9-.2-2,2.2-1.5,5.6-2.2,8.5-1.3,5.8-7.3,9.8-8.5,15.7,1.1-16.9,2.1-34.5-4.9-49.9-2.5-5.5-6.5-10.9-12.4-12.2-7-1.5-14.1,3.6-17.3,10-.6,1-.9,2.1-.9,3.3.1,2.2,2.1,3.8,3.9,5.2,10.1,8.2,16.7,20,18.4,33-.6-2.5-3.5-3.6-6-4s-5.4-.9-6.8-3c-1.2-1.8-.9-4.4-2.4-6-1.9-1.9-5.1-1.1-7.4.3-5.2,3.1-9.5,9-8.1,14.8.2.9.6,1.7,1.2,2.3,1.4,1,3.2,1.4,4.9,1.2,8.6.1,17.6,4.3,21.7,11.5.9,1.5,1.5,3.2,1.9,4.9.7,3.2.5,6.8,2.2,9.6,2.1,3.3,7,4.7,12.5-.1,5.6-4.6,10.7-9.9,15.2-15.6.8-1.1,1.5-2.2,2.2-3.3,3.2-5,4.9-10.9,5-16.9.1-3.3-1-6.6-3.3-9"/>
      <path id="Path_170" class="st0" d="M773.5,403.8c.9,3.7,1.9,7.5,3,11.4-2.5-2.4-4.6-5.4-6-8.6-1.1-2.3-2-4.6-2.9-7,0,0,0,0,0,0-.3-.9-.6-1.9-.9-2.8-.5-1.5-.9-3.1-1.3-4.7s-.8-3.2-1.2-4.8c0-.3-.1-.6-.2-.9,0-.4-.2-.8-.3-1.2-.4-1.9-.8-3.8-1.1-5.7,0-.5-.2-1-.3-1.5-.2-.9-.3-1.9-.5-2.9-.3-1.7-.5-3.4-.7-5.1-.1-1.2-.3-2.3-.4-3.5-.3-3-.6-6-.7-9.1-.5-7.9-.4-15.8,0-23.7,0-.5,0-.9,0-1.4.6-7.4,1.6-14.7,2.6-21.9,1.3-8.6,2.8-17.2,3.8-25.9.4-3.3.7-6.5,1-9.8,0-.1,0-.3,0-.4.6-8,.7-16.1.7-24.2v-8.6c0-5.2,0-10.4.2-15.6.2-5.7.6-11.5,1.4-17.2.2-1.8.5-3.6.8-5.3,1.2-7.8,3.5-15.3,7-22.3-2.6,6.7-4.3,13.8-5.1,21-.3,2.4-.5,4.8-.7,7.2-.4,5.7-.5,11.5-.4,17.2,0,5.4.3,10.8.5,16.2,0,2.2.1,4.3.2,6.5.2,7.5.3,14.9-.2,22.3,0,.8,0,1.5-.2,2.3-.3,3.8-.8,7.5-1.3,11.2-1.5,9.9-3.6,19.7-5.3,29.5-1.2,6.7-2.1,13.5-2.6,20.2-.3,4.4-.3,8.9,0,13.3.4,5.9,1.2,11.8,2.3,17.7.2,1.2.5,2.5.7,3.7.2,1,.4,2,.6,2.9,0,.3.1.6.2.9.1.6.3,1.3.4,1.9,0,.1,0,.3,0,.4.1.6.3,1.2.4,1.9.1.6.2,1.2.4,1.7.3,1.4.6,2.7.9,4.1,0,.5.2.9.3,1.4.2.7.3,1.4.5,2.1.8,3.3,1.6,6.6,2.4,10.1.1.5.3,1.1.4,1.6.2.8.4,1.6.6,2.4,0,.2,0,.4.1.6.2.8.4,1.6.6,2.4"/>
      <path id="Path_171" class="st0" d="M771.6,204.5c-.3-1.1-1.1-1.8-1.8-1.4,0-6,0-12.1.3-18.1,0,5.8,0,11.7-.3,17.5l-3.5-17.6c.9,5.6,1.5,11.2,1.8,16.9-1.2-5.1-2.7-10.1-4.6-15.1.9,5.1,2.1,10.1,3.6,15.1-1.8-2.4-3.2-5.1-4.2-7.9.8,3.6,2,7.2,3.4,10.6.3.8.7,1.5,1.2,2.2.6.8,1.3,1.4,2.2,1.7,6,2.7,12.8-1.6,16.4-10.3-2.3,3.6-5.4,6.7-9.1,9,2.8-4.4,5.2-9,7.3-13.7-2.3,4-5.2,7.7-8.5,11,1.7-4,3.3-8.1,4.8-12.3-2.2,3.4-4.5,6.7-6.7,10.1.5-1.2.7-2.6.8-3.9-.3,1.5-1.1,2.9-2.3,3.9-.7-1-1.8-.9-.8,2.5"/>
      <path id="Path_172" class="st0" d="M770.2,249.1c-1.4,1.2-3.5,1-4.7-.4-3.2-2.7-5.5-8.6-5.7-14.8.8,4.3,2.6,8.3,5.2,11.7-1.8-4-2.5-8.4-2.1-12.7.8,3.9,2.3,7.7,4.5,11.1-1.3-2.8-1.9-5.8-1.8-8.8.8,2.7,2.1,5.2,3.6,7.6-.2-1.5-.4-3-.6-4.5,1.3,1.3,2.2,3.1,2.2,4.9,2.5-1.5,4.4-3.8,5.2-6.6-.1,2-.7,3.9-1.6,5.6,2.4-3,4.6-6.2,6.5-9.6,0,2.1-.6,4.2-1.5,6.1l-2,4.9c1.9-2.1,3.8-4.2,5.7-6.4-2.4,7.2-6.8,12.2-12.9,11.9"/>
      <path id="Path_173" class="st0" d="M768.3,284.5c-3.3.2-6.6-2.2-8.8-6.4-2.3-4.9-3.3-10.3-2.9-15.7.8,6.1,2.4,12.1,4.7,17.8-1.5-4.6-2-9.4-1.6-14.2,1,5.2,2.8,10.2,5.6,14.7-3.3-6.2-4.7-13.3-4.2-20.3,1.4,5,2.8,10,4.2,15-1.7-4.5-2.2-9.4-1.4-14.2,1.3,4.7,2.6,9.5,3.9,14.2-.2-1.2.2-2.5.9-3.5.5-.5,1.4-.6,1.9,0,.1.1.2.2.3.4,1.4-1.1,2.9-2.1,4.4-3.1l-2,5.9c3.7-3,6.5-7,8-11.5.2,2.7-.5,5.3-1.8,7.7-1.1,2.1-2.5,3.8-3.5,6,1.6-1.7,3.3-3.4,4.9-5.1-1,2.9-2.2,5.6-3.8,8.2.6.1,1.3.2,1.9.3-1.7,4.3-5.2,4.6-10.7,3.9"/>
      <path id="Path_174" class="st0" d="M761.5,334.2c-3.2-1.4-5.8-4-6.9-7.4-1.2-3-1.9-6.2-2.3-9.5-.5-4.1-.7-8.2-.4-12.4.9,6.6,2.6,13.1,5.2,19.3-2.9-7.6-3.4-16-1.3-23.9.3,7.5,1.2,14.9,2.8,22.2-.7-7.8-.9-16.6,2-22.6-.4,6.7-.5,13.4,0,20.1,0-3.5.7-6.9,2.2-10.1.1,2.3.3,4.5.4,6.8.7-1,1.4-2.1,2.1-3.1.1,1.3.3,2.7.4,4,4.2-2.4,7.5-8,10.7-13.5-1.6,4.9-3.6,9.5-6.1,14,3-3.3,5.9-6.7,8.9-10l-8.3,17.3c2-.7,4-1.4,6-2.2.5-.2,1.2-.2,1.4.6.1.7,0,1.4-.3,2-1.5,3.6-4.2,6.6-7.7,8.4-2.8,1.1-5.9,1.2-8.7,0"/>
      <path id="Path_175" class="st0" d="M766.5,385.4c-2,2.8-4.9,2.1-7.4.8-2.9-1.5-5.4-3.8-7.2-6.6-2.3-3.7-3.7-7.9-4-12.2,2,7.7,6.2,13.5,10.9,15.4-.7.8-1.6,0-2.2-1-4-5.4-6.2-11.9-6.3-18.6,1.7,7.2,4.9,13.9,9.3,19.8-3.8-5.9-5.8-15.3-5.1-24.1,1.7,7.1,4.2,14,7.4,20.6-2.5-8.4-3.1-17.2-1.5-25.8,1.5,8,2.9,16,4.4,24-.2-3.6-.1-7.3.2-11,.5,2.2.8,4.5,1,6.7,2.5-6.5,4-13.3,4.4-20.2,1.2,7.7-.6,15.8-2.3,23.3,2.2-5.3,4.5-10.4,6.9-15.4-.8,7-2.6,13.9-5.4,20.5,1.8-2.5,4-4.6,6.6-6.3-1.7,4.3-5.3,3.7-9.8,9.9"/>
      <path id="Path_176" class="st0" d="M763.9,438c-.4-12-.9-22.7-1.7-33.1-.2-3.4-.5-6.9-.8-10.3-.1-1.3-.2-2.6-.4-3.9l-.2-1.9c0-.6-.1-1.3-.2-1.9-.2-1.9-.4-3.9-.7-5.8,0-.2,0-.4,0-.6-.1-.8-.2-1.7-.4-2.5,0-.3,0-.7-.2-1-.3-2.1-.8-4.2-1.2-6.3,0-.5-.2-.9-.3-1.4-1-4.3-2.3-8.5-3.9-12.7-2.4-6.4-5.2-12.6-8.3-18.6-4.5-8.9-9.3-17.6-13.6-26.7-1.6-3.4-3.1-6.8-4.5-10.3-.3-.7-.6-1.4-.8-2.2-2.6-7-4.7-14.1-6.7-21.3-.6-2.1-1.1-4.2-1.7-6.3-1.4-5.2-2.7-10.5-4.2-15.7-1.6-5.5-3.3-11-5.3-16.3-.9-2.3-1.8-4.6-2.7-6.7-2.8-6.7-6.5-12.9-10.9-18.6,5.4,5.7,9.8,12.2,13.2,19.3.8,1.6,1.6,3.2,2.3,4.9,2.3,5.2,4.4,10.6,6.3,16.1,1.7,4.9,3.2,9.9,4.7,14.9.8,2.8,1.7,5.5,2.5,8.3,2.4,7.8,4.8,15.5,7.7,23,0,.1,0,.2.1.4,1.2,3.1,2.5,6.2,3.8,9.2,3.5,8,7.4,15.8,11.1,23.6,3.1,6.6,6.2,13.3,8.9,20.3.2.4.3.9.5,1.3,1.2,3.3,2.4,6.7,3.5,10,.3.9.6,1.9.9,2.8l.6,2c.7,2.3,1.3,4.7,1.9,7,0,.3.1.6.2.9,0,.4.2.8.3,1.2.4,1.6.7,3.2,1.1,4.9.2.9.4,1.9.6,2.8,0,0,0,.1,0,.2.6,3.3,1.1,6.6,1.6,9.9.5,3.6.8,7.3,1.1,10.8,0,1.7.2,3.3.3,5,.3,9.7-.3,19.4-4,25.4"/>
      <path id="Path_177" class="st0" d="M707.7,234.7c0-1.2.6-2,1.3-1.8-1.8-5.8-3.6-11.5-5.5-17.3,1.6,5.6,3.4,11.2,5.4,16.6l-1.7-17.8c.8,5.6,1.8,11.2,3.2,16.7-.3-5.2-.3-10.5,0-15.7.6,5.1.9,10.3,1,15.5,1-2.8,1.6-5.8,1.7-8.8.3,3.7.2,7.4-.2,11.1,0,.8-.2,1.6-.5,2.4-.3.9-.9,1.7-1.7,2.3-5,4.3-12.7,2.1-18.7-5.1,3.3,2.8,7.1,4.8,11.3,6-3.9-3.4-7.6-7.1-10.9-11.1,3.4,3.2,7.2,5.9,11.3,8.1-2.8-3.3-5.5-6.8-8.2-10.4,3.1,2.6,6.2,5.1,9.4,7.7-.8-1.1-1.4-2.2-1.9-3.5.7,1.4,1.9,2.4,3.3,3.1.3-1.2,1.5-1.3,1.5,2.1"/>
      <path id="Path_178" class="st0" d="M721.9,277c1.8.9,3.4-.1,4.4-1.7,2.3-3.5,2.8-9.8,1.2-15.9.5,4.3,0,8.7-1.6,12.7.6-4.3,0-8.8-1.6-12.8.4,4,0,8-1.1,11.9.5-3,.2-6.1-.8-8.9,0,2.8-.5,5.6-1.3,8.3-.3-1.5-.5-3-.8-4.5-.9,1.6-1.2,3.6-.7,5.4-2.8-.7-5.3-2.4-6.9-4.8.7,1.9,1.8,3.5,3.2,4.9-3.2-2.2-6.2-4.6-9-7.3.7,2,1.8,3.8,3.2,5.4,1.1,1.4,2.2,2.8,3.3,4.1-2.4-1.5-4.9-3-7.3-4.5,4.3,6.2,10,9.7,15.8,7.6"/>
      <path id="Path_179" class="st0" d="M734,310.5c3.2-.8,5.6-4,6.5-8.7.8-5.4.2-10.9-1.7-15.9.9,6.1,1.2,12.2.6,18.4,0-4.8-.8-9.6-2.6-14.1.6,5.2.2,10.5-1.1,15.7,1.3-6.9.7-14.1-1.9-20.6,0,5.2.2,10.4.3,15.6.4-4.8-.6-9.7-2.7-14,.1,4.9.3,9.8.4,14.7-.2-1.2-.9-2.3-1.9-3.1-.6-.4-1.5-.1-1.8.5,0,.1-.1.3-.2.5-1.7-.7-3.4-1.2-5.1-1.7,1.2,1.7,2.4,3.4,3.7,5.1-4.4-1.8-8.3-4.8-11-8.7.6,2.6,2,5,3.9,6.8,1.7,1.7,3.5,2.9,5.1,4.8-2.1-1.1-4.1-2.3-6.2-3.4,1.7,2.5,3.8,4.7,6,6.7-.6.3-1.2.6-1.7.9,2.8,3.6,6.4,2.9,11.4.6"/>
      <path id="Path_180" class="st0" d="M754.9,356.1c2.7-2.2,4.3-5.5,4.4-9.1.2-3.3,0-6.5-.6-9.8-.7-4.1-1.8-8.1-3.2-12,1.1,6.6,1.3,13.4.6,20,.6-8.2-1.4-16.3-5.6-23.3,1.9,7.2,3.2,14.6,3.8,22.1-1.6-7.6-3.9-16.1-8.5-21,2.3,6.3,4.3,12.7,5.9,19.2-1-3.4-2.7-6.4-5-9,.5,2.2,1.1,4.4,1.6,6.6-1-.8-1.9-1.6-2.9-2.4.2,1.3.5,2.6.7,3.9-4.7-1.1-9.5-5.5-14.1-9.8,2.9,4.2,6.2,8.1,9.9,11.7-3.8-2.3-7.6-4.7-11.4-7,4.3,4.7,8.6,9.4,12.9,14.2-2.1-.1-4.3-.2-6.4-.3-.5,0-1.2.1-1.1.9,0,.7.4,1.3.9,1.8,2.5,3.1,5.9,5.1,9.8,5.8,3,.3,6-.6,8.3-2.4"/>
      <path id="Path_181" class="st0" d="M752.5,399.9c2.9.9,5.7,2.3,8.1,4.1-3.6-1.6-5.9-1.4-8.1-4.1"/>
      <path id="Path_182" class="st0" d="M777.1,396.9c-.7,2.5-2,4.9-3.7,6.9-.4.5-.9,1-1.3,1.5-.5.5-1.1,1-1.7,1.4-.8.5-1.8.9-2.7.9-1,0-2.1-.3-2.9-1-.8-.6-1.7-1.2-2.5-1.7-.5-.3-1.1-.6-1.6-.8-1.9-2.5-3.9-5.1-5.7-7.8-.9-1.4-1.8-2.8-2.6-4.4-1-1.9-2-3.9-2.7-5.9,1.3,1.4,2.6,2.8,3.9,4.3,1.1,1.2,2.2,2.5,3.3,3.8,1.3,1.5,2.6,3.1,3.9,4.6-1-1.8-2.1-3.7-3.1-5.6-.9-1.7-1.7-3.3-2.5-5.1-.6-1.5-1.2-2.9-1.7-4.4-.4-1.1-.7-2.2-.9-3.3-.3-1.1-.5-2.2-.6-3.3.7,1.8,1.4,3.5,2.2,5.2h0c.1.3.3.6.4.8.6,1.2,1.2,2.3,1.8,3.4.9,1.7,1.9,3.2,2.9,4.7.8,1.2,1.6,2.3,2.4,3.3.1.2.3.4.4.5-.4-2.1-.8-4.2-.9-6.3,0-.1,0-.3,0-.4,0,.1,0,.2.1.3,1.3,3.3,2.4,6.7,3.3,10.1-.4-3.8-.8-7.6-1.3-11.5v-1.2c-.2-.2-.2-.4-.2-.6l-.7-5.9c0-.4,0-.8-.1-1.3-.1-1.2-.3-2.5-.4-3.7l.2.4c.4.7.7,1.4,1,2,0,.2.2.5.3.7.2.4.3.7.5,1.1.5,1.3,1,2.7,1.4,4.1.3,1.1.6,2.1.9,3.2,0,.2,0,.4.1.6.9,4.2,1.4,8.5,1.5,12.7h0c.7-4.2,1.1-8.5,1.2-12.9,0-.7,0-1.5,0-2.2v-.9h0v-.9c0-1.3,0-2.6,0-3.9v-.3c0-.2,0-.5,0-.7l.2.5v.3c.5,1,.8,1.9,1.1,2.9,0,0,0,0,0,0h0s.2.9.2.9c0,0,0,.1,0,.2,0,.3.2.7.3,1,0,.2,0,.4.1.6.1.6.3,1.3.4,1.9.7,3.4.9,7,.7,10.4-.1,2-.4,3.9-1,5.8.5-1.4,1-2.8,1.4-4.2,1.1-4.3,1.7-8.6,1.8-13.1,0-.8,0-1.5,0-2.3v-.6c0-.5,0-1.1,0-1.6.1.4.3.9.4,1.3s0,.4.2.6c.2.7.3,1.4.4,2.1.7,5,.2,10.2-1.4,15,3-4.7,4.4-10.2,4-15.8,1,4.2.9,8.6-.3,12.8"/>
      <path id="Path_183" class="st0" d="M826.5,212.8c-.4,1.7-.8,3.5-1.3,5.3-1.4,5.5-3.2,11-5.2,16.4-1.8,4.9-3.7,9.7-5.7,14.5-1.1,2.7-2.2,5.3-3.3,8-3.1,7.5-6,15-8.5,22.7,0,.1,0,.2-.1.4-1,3.2-1.9,6.3-2.8,9.5-2.3,8.4-4.2,16.9-6.2,25.4-1.7,7.1-3.6,14.2-5.9,21.3-.1.4-.3.9-.4,1.3-2.5,7.5-5.5,14.9-8.9,22.1-1.3,2.6-2.6,5.3-4,7.8-1.6,3-3.3,6-5.1,8.9-.5.9-1.1,1.7-1.6,2.6-.8,1.3-1.7,2.7-2.6,4-.2.3-.4.6-.6.9l-.8,1.2c-.2.3-.3.5-.5.7,0,.1-.2.2-.3.4-.3.4-.5.8-.8,1.1-.3.5-.7.9-1,1.4,0,0,0,0,0,.1,0,0,0,0,0,0-.2.3-.5.7-.7,1-.4.5-.7,1-1.1,1.5-.5.6-1,1.2-1.5,1.8-.2.3-.5.6-.8.9-.6.7-1.2,1.4-1.8,2.1-4.4,5-9.2,9.1-13.9,10.8,4-5.3,7.8-10.3,11.3-15.2.4-.5.8-1.1,1.1-1.6.5-.7,1.1-1.5,1.6-2.2.4-.5.7-1,1.1-1.5s.7-1,1-1.5l1.3-1.9.2-.4c0-.2.2-.3.3-.5,0,0,0,0,0,0,.3-.4.5-.8.8-1.2.2-.3.4-.6.6-.8,0,0,0,0,0,0,.3-.5.6-.9,1-1.4,0,0,0-.1.1-.2l.2-.4c0-.1.2-.3.3-.4.2-.3.4-.5.6-.8,0,0,0-.1,0-.2.5-.7.9-1.4,1.4-2.1.2-.2.3-.5.5-.7.4-.6.8-1.2,1.2-1.8,0,0,.1-.2.2-.3,0-.1.1-.2.2-.3.3-.5.6-.9.9-1.4.4-.6.8-1.2,1.2-1.9.6-1,1.3-2,1.9-3,3.3-5,6.3-10.3,9-15.7,1.9-4,3.5-8.1,4.9-12.3,2.1-6.5,3.8-13.1,5.2-19.7,2.1-9.7,3.8-19.6,6.2-29.3.9-3.6,1.9-7.3,3-10.9.2-.7.5-1.5.7-2.2,2.3-7,5.2-13.9,8.2-20.8.9-2,1.8-4,2.7-6,2.2-4.9,4.5-9.9,6.6-14.8,2.2-5.2,4.3-10.6,6.1-16,.8-2.3,1.5-4.6,2.1-7,2-6.9,3.1-14.1,3.2-21.4.6,7.8,0,15.7-1.9,23.3"/>
      <path id="Path_184" class="st0" d="M825.2,213.8c.7-1,1.7-1.2,2.2-.6,2.3-5.6,4.5-11.2,6.6-16.9-2.3,5.4-4.4,10.8-6.3,16.3l9.9-15c-3,4.8-5.6,9.8-8,15,3-4.3,6.4-8.4,9.9-12.2-2.8,4.4-5.8,8.6-9,12.6,2.6-1.6,4.9-3.5,6.9-5.8-2.1,3-4.5,5.9-7.2,8.5-.6.6-1.2,1.1-1.9,1.6-.8.5-1.8.7-2.7.7-6.6.2-11.3-6.3-11.3-15.8.8,4.2,2.5,8.2,5,11.7-.9-5.1-1.4-10.3-1.5-15.5.6,4.6,1.9,9.1,3.7,13.4,0-4.4,0-8.8.2-13.3.8,4,1.6,7.9,2.4,11.9,0-1.3.3-2.6.8-3.9-.3,1.5,0,3.1.6,4.4,1-.7,2,0-.2,2.6"/>
      <path id="Path_185" class="st0" d="M809.6,255.6c.8,1.8,2.7,2,4.5,1.5,4-1.3,8.4-5.9,10.9-11.6-2.3,3.6-5.5,6.7-9.3,8.9,3.2-3,5.5-6.8,6.8-11-2.2,3.4-5.1,6.2-8.4,8.5,2.2-2.1,4-4.6,5-7.5-1.8,2.2-3.9,4.1-6.2,5.6.7-1.3,1.5-2.6,2.2-3.9-1.7.7-3.2,2-3.9,3.7-1.8-2.3-2.6-5.2-2.3-8.1-.6,1.9-.9,3.8-.6,5.8-1.1-3.7-1.9-7.5-2.4-11.3-.7,2-1,4.1-.9,6.2,0,1.8,0,3.5,0,5.3-1-2.7-1.9-5.4-2.9-8-.5,7.5,1.7,13.8,7.5,15.9"/>
      <path id="Path_186" class="st0" d="M798,289.1c3,1.4,6.9.4,10.5-2.6,4-3.6,7-8.3,8.7-13.5-3.1,5.3-6.8,10.2-11.1,14.7,3.1-3.7,5.4-8,6.9-12.6-2.9,4.4-6.5,8.3-10.7,11.5,5.4-4.5,9.4-10.5,11.5-17.2l-9.5,12.3c3.3-3.5,5.6-7.9,6.7-12.6-3,3.9-6,7.8-9,11.7.6-1.1.8-2.4.5-3.6-.3-.7-1.1-1-1.8-.8-.2,0-.3.1-.4.2-.9-1.6-1.8-3.1-2.9-4.5-.1,2.1-.2,4.2-.3,6.2-2.3-4.2-3.4-8.9-3.1-13.7-1.2,2.4-1.6,5.1-1.2,7.8.3,2.4.9,4.4,1,6.9l-2.7-6.6c-.2,3,0,6,.4,9-.6-.1-1.3-.3-1.9-.4,0,4.6,3.1,6.3,8.4,7.6"/>
      <path id="Path_187" class="st0" d="M785.5,337.7c3.5,0,6.9-1.6,9.1-4.3,2.2-2.4,4.2-5,5.7-7.9,2-3.6,3.7-7.4,5.1-11.3-3.3,5.8-7.4,11.2-12.1,16,5.6-6,9.2-13.5,10.3-21.7-3.1,6.8-6.7,13.4-11,19.5,3.6-6.9,7.1-15,6.7-21.7-2.2,6.4-4.7,12.6-7.5,18.7,1.3-3.2,2-6.7,1.8-10.2-1,2-2,4.1-2.9,6.1-.2-1.2-.5-2.5-.7-3.7l-1.9,3.5c-3-3.8-3.9-10.3-4.8-16.5-.4,5.1-.2,10.2.3,15.3-1.5-4.2-3-8.4-4.5-12.7.4,6.4.8,12.7,1.1,19.1-1.6-1.4-3.2-2.9-4.8-4.3-.4-.4-1-.6-1.5,0-.4.6-.5,1.3-.4,1.9,0,3.9,1.4,7.7,4,10.6,2.1,2.1,5,3.3,8,3.3"/>
      <path id="Path_188" class="st0" d="M785.5,373.6c-1.9,3.9-4.8,7.3-8.3,9.8-.8.5-1.5,1-2.4,1.4s-.6.3-.9.4c-.9.4-1.9.7-2.9,1-.6.2-1.1.3-1.7.4-.2,0-.3,0-.5,0-.3,0-.5,0-.8.1-.7,0-1.3,0-2,0-.3,0-.5,0-.8-.1,0,0-.2,0-.2,0-.4,0-.8-.2-1.1-.4-.3-.1-.5-.3-.8-.5-.1,0-.2-.2-.3-.3-.7-.6-1.1-1.4-1.3-2.3-.2-1-.5-1.9-.9-2.9h0c-.3-.8-.6-1.5-1-2.2-1.7-3.1-3.4-4.5-3.4-7.7,1.4,2.1,2.5,4.3,3.2,6.7.2.5.3,1,.5,1.6,0-1.1,0-2.2,0-3.4,0-1.4.1-2.8.2-4.2,0-1.1.2-2.2.3-3.2,0-.5.1-1,.2-1.5.3-1.9.6-3.8,1.1-5.7.3-1,.5-2,.9-3,.2,3.5.4,7,.5,10.6,0,2.1,0,4.2.1,6.3l.5-3c.3-2,.7-4,1.2-6.1.9-4.7,2.6-9.2,5-13.4-2.1,6.4-3.3,13-3.5,19.7v.7c.2-.4.5-.9.7-1.3.8-1.6,1.8-3.1,2.8-4.5-.8,2.9-1.8,5.6-3.1,8.3-.3.6-.6,1.3-.8,1.9.3-.5.6-1,.9-1.4.9-1.4,1.7-2.7,2.6-4.1,1.3-2,2.6-4.1,3.9-6.1.6-.9,1.2-1.8,1.8-2.8,1.3-2.1,2.6-4.1,3.9-6.2-.2,1.1-.5,2.3-.8,3.4-1.1,4.1-2.8,8-4.9,11.7-.9,1.5-1.8,3-2.7,4.4-.6.9-1.2,1.7-1.8,2.6,0,0,0,.1-.1.2-.3.4-.5.7-.8,1.1.3-.2.6-.5.8-.7,0,0,.2-.1.2-.2,1-.9,2.1-1.9,3.1-3,.3-.3.6-.6.8-.9,3.5-3.6,6.7-7.5,9.6-11.6-1,3.3-2.5,6.4-4.2,9.4-.7,1.1-1.4,2.2-2.2,3.3-.6.9-1.3,1.7-1.9,2.5-1.2,1.5-2.6,2.8-4.1,4.1-.4.4-.9.7-1.4,1,0,0,0,0-.2.1,0,0,0,0,.2-.1.5-.3.9-.6,1.4-.9,5-3.2,9.3-7.3,13-11.9.5-.6,1-1.3,1.5-2-.2.6-.4,1.1-.7,1.7-2.2,4.6-5.6,8.6-9.8,11.6-.1,0-.2.2-.4.3-.5.4-1,.7-1.5,1,.5-.1,1-.3,1.5-.5.2,0,.3-.1.5-.2,4.4-2,8.2-5.2,11-9.1"/>
      <path id="Path_189" class="st0" d="M1790.6,188.5c-6.2,7.5-7.5,20.3.3,26.1.9.7,1.9,1.2,2.9,1.7,3.2,1.5,6.9,2.2,10.2,3.7,10.9,5.1,14.8,21.1,7.5,30.7-5.9,7.7-16.2,10.2-25.2,13.7-12.7,5-23.9,13-32.8,23.3-2.7-2-5.2-4.3-7.3-6.9-4.5-5.6-6.6-12.7-3.1-22-20.4-5.8-41.5-8.6-62.7-8.4-12.7.1-26.4,1.1-37.1-5.9-2.6-1.7-5.2-4.7-4-7.6.7-1.3,1.7-2.4,2.9-3.1,5.7-4.1,11.8-7.7,18.1-10.7-3.8-3.9-.9-11.1,4-13.4s10.7-1.3,16.1-.2c-3.9-4.9,2.6-11.9,8.8-12.7s12.9,1.4,18.7-1.2c-5.4-5.3-7.7-13-6-20.3,5.5,3.1,11.6,5,18,5.3-.3-4-.5-8.2,1.5-11.7s7.1-5.4,10.1-2.8c2.6,2.3,2.8,6.9,6,8.1,6.7,2.3,6.1-12.5,12.9-14.5,6.6-2,13.4,10.2,18.4,5.5,2.8-2.6,1-8.2,4-10.5,3.8-2.9,8.7,3.1,13.4,2.7,2.6-.2,4.6-2.3,6.4-4.3,7.3-8.1,15.7-15.8,26-19.5s23-2.4,30.6,5.5c-8.8,13.5-20.7,24.8-34.6,32.9-8.4,4.9-17.8,8.9-24,16.4"/>
      <path id="Path_190" class="st0" d="M607.8,459.9c-35.8,9.1-38.8,2.9-41.8-3.2-30,1.8-53.2,28-82.5,34.8-53.1,12.3-99.4-40.9-153.5-47.3-26.9-3.2-54.2,5.5-81.1,2.3-35.3-4.1-68.9-28.3-103.6-20.3-6.1,1.4-14.4,2.8-16.9-2.9-.8-2.7-.6-5.6.6-8.1,5.8-15,18.2-26.6,33.6-31.3,8.5-2.5,18.9-2.3,24.8,4.3,2.7,3,4,6.9,6.2,10.2,7.2,10.8,22.4,13.8,34.9,10.4s23-11.7,33.2-19.8c-6.4-14.8-20.9-28.1-33.9-41.1-16.6-16.6-30.6-32.6-21.6-50.3,8.1-15.9,35.6.2,53.5.3,4.5-12,14.8-26.4,26.7-21.7,3.9,1.6,6.8,5,10.7,6.5,9.1,3.6,18.3-4.3,26.5-9.7s22.8-6.1,30.8,9.3c10.2-3.8,21.1-7.7,31.9-5.6s20.6,12.7,17.7,23.2c8.2-6.8,17.3-14,28-14.2s21.8,10.8,17.3,20.5c10.7-3.8,19.2-12,29.6-16.5s25-3.6,30,6.5c4.8,9.8-2.3,21.1-9,29.7,15.9.4,36.6,5.2,37.6,21,.7,12-11.7,20.6-23.3,23.6-6.8,1.8-14,2.6-20.8,4.4-4.8,1.1-9.3,3.1-13.4,5.9-6,4.3-10.1,13.5-4.9,18.7,2.9,2.9,7.5,3.2,11.5,3.7,25.3,3.1,45.7,21.2,64.4,38.5,3.9,3.6,8.1,8.8,5.7,13.5,17.1-3.8,34.9-2.1,51,4.7"/>
      <path id="Path_191" class="st0" d="M2803.8,421.6l30-32.4c2.4-2.6,4.8-5.2,7.3-7.7,6.6-6.6,13.8-12.7,21.5-18,17-11.8,36.2-19.9,55.2-28,10.2-4.3,20.6-8.8,29-16s14.7-17.8,14-28.9c-3.6,3.7-8.6,5.8-13.8,5.9,13.2-16.4,29.7-29.8,48.3-39.5-1.9-2.9-6-3.4-9.2-2.2-3.1,1.4-5.8,3.6-8,6.2,2.4-4.1,2.4-9.2-.1-13.2-6.7,7.6-13.4,15.1-20.1,22.7-1.9,2.2-6.1,3.9-6.9,1.2l3.6-9.7c-3.3,1.8-6.6,3.7-9.9,5.5,11.2-6.7,20.4-16.3,26.4-27.9-5.8-3.6-12.6,2.8-16.4,8.5s-10.6,12.1-16.4,8.4c-2.9,2.6-5.8,5.2-8.7,7.8-.1-6.3,4.6-11.5,7.2-17.2,2.6-5.7,1.5-14.6-4.7-15.6-5.3-.9-9.3,4.9-10.4,10.2s-.9,11.2-4.2,15.4c-1.7-3.7-7.7-3.4-10.4-.2-2.7,3.1-2.9,7.6-2.8,11.8s.2,8.5-4.1,12.6l-2.2,4.5c-2.3-2.7-6.9-1.7-9.5.8s-3.7,6-5.6,9-5.2,5.7-8.7,5c.9-4.1,1.8-8.1,2.7-12.2.5-2.7,1.3-5.3,2.5-7.7,2.2-4.1,6.2-6.8,9.7-9.8,7.3-6.2,13.3-14.8,13.3-24.4,0-2.2-.7-4.8-2.8-5.3-.9-.2-1.9,0-2.7.4-3.7,1.7-5.6,5.8-7.8,9.2s-5.9,6.8-9.8,5.8c-1.4-3.2.2-7,2.3-9.8s4.8-5.3,6-8.7.1-7.8-3.2-8.8c-4.4-1.3-7.8,4-8.8,8.5s-2.4,10.1-6.9,11.1c-.2-2.9-.5-5.8-.7-8.8,0-1.1-.3-2.1-1.1-2.8-.9-.5-1.9-.6-2.8-.1-5.5,2.1-5.8,9.8-9,14.8-.7,1.2-2.1,2.4-3.4,1.9-1-.6-1.6-1.6-1.6-2.7-.5-4.5,1.6-8.8,3.6-12.8s4-8.5,3.1-12.9-6-8.2-9.9-6c-3.4,1.8-3.9,6.5-6,9.7-.8,1.5-2.4,2.4-4.1,2.2-3.5-1-1.1-6.6-2.9-9.8-2.7,2.4-5.4,4.7-9.6,8.2,1.5-8.4,6.4-15.7,13.5-20.4,2.3-1.3,4.5-2.8,6.5-4.5,2-1.8,2.9-4.6,2.3-7.2-5.5-.6-11,.9-15.3,4.4-4.2,3.5-8,7.5-11.1,11.9-2.7-1.1-3.7-4.5-3.1-7.3.8-2.8,2.1-5.4,3.7-7.8,1.2-2.3,2.1-5.4.2-7.1-1.8-1.3-4.3-1-5.8.6-1.4,1.6-2.3,3.6-2.7,5.7l-6.1,21.5c-.3,1.6-1.1,3.2-2.3,4.3-2.5,1.9-6.4.1-7.7-2.7-1-3-1.1-6.2-.3-9.2.6-3.9,1.3-7.8,1.9-11.7.4-2.5,0-6.2-2.6-6.2-1.1.1-2.2.7-2.8,1.6-6.1,6.8-5.8,17.1-7.3,26.2-1,6.2-4.5,13.4-10.8,13.7-2.8,0-5.5-.9-7.9-2.4-2.3-1.2-4.9-2.6-5.6-5.1-1.1-3.9,2.6-7.2,5.6-9.9,2.6-2.3,4.9-4.9,6.9-7.8,1.5-2.3,2.9-5.1,1.9-7.6-1.1-2.8-4.6-3.9-7.6-3.6-6.1.6-11.2,5.2-14.1,10.7-2.9,5.4-4,11.6-5.2,17.6-2.8-1.7-3.4-5.6-2.9-8.9s1.7-6.5,1.1-9.8c-1.1-4.6-4.9-8-9.5-8.6-4.9-.8-9.8,1.1-12.9,5,9.7,12.9,12.9,29.5,8.7,45.1-4.9-12.3-11.2-24-18.8-34.8-2.1-3-4.7-6.1-8.4-6.2-4.6-.1-7.7,5.2-7.3,9.7s3.2,8.5,5.6,12.4c8.7,14.2,13.2,30.5,12.9,47.1-.7-15.4-11.3-28.5-26.2-32.5-.7-.2-1.5-.3-2.3-.2-2.1.7-3.3,2.9-2.7,5,.6,2,1.7,3.9,3.3,5.3,5.2,5.8,10.3,11.5,15.5,17.3,1.4.8,1.9,2.7,1.1,4.1-.3.5-.6.8-1.1,1.1-1.1,1-2.2,2-3.3,3-.6.6-1.3,1.1-2,1.3-1.9.4-3.4-1.6-4.4-3.3-2.5-4.2-5.6-8.1-9.1-11.6-2.3-2.2-6-4.2-8.4-2.1-.7.7-1.2,1.6-2.1,2.1-1.3.5-2.8.3-4-.4-3.7-1.3-7.2-3.3-10.2-5.9-3-2.7-4.3-6.9-3.3-10.8.6-1.6,1.6-3,2.2-4.7.7-1.6.2-3.5-1.2-4.6-1.7-.6-3.6-.1-4.8,1.2-5.7,5-6.7,13.7-4.5,21s7.1,13.3,11.8,19.2l29.5,36.4c3.6,4.4,7.3,9.7,5.6,14.7-1.9,1.3-3.9,2.6-5.8,4,23,32.7,47.5,64.4,73.4,94.9,2.6,3,5.3,6.1,9,7.5,3.1.9,6.3,1.1,9.5.6,7.2-.5,14.4-1.1,21.6-1.6,1.4-.1,3-.4,3.6-1.6.3-.8.3-1.8,0-2.6-.9-4.6-2.4-9.2-4.3-13.5"/>
      <path id="Path_192" class="st0" d="M2543.9,366.1c-5.9-4.3-8.2-11.1-10-17.4-6.1-21.3-9.9-43.2-11.1-65.3-.7-12.9-.4-26.4,6.3-37.9,1-2,2.6-3.6,4.5-4.6,2.1-1.1,4.8-.6,6.4,1.1.7,1.6.6,3.4-.3,4.9-4.6,11.1-9,22.6-9.1,34.5.2,7.4,1.2,14.7,3,21.9,3.8,18,7.7,36.3,16.8,53,1.1,1.6,1.7,3.4,1.8,5.4-.1,1.9-1.8,3.8-8.1,4.6"/>
      <path id="Path_193" class="st0" d="M2541.5,366.7c-8.9-9.9-13.8-21.9-18.6-33.6-9.8-23.9-19.6-48.2-22-73.3-1.8-19.1.8-38.3,2.5-57.4.4-4.4.4-9.6-3.7-12.3-1.6-1.1-3.6-1.6-5.2-2.8s-2.3-3.4-.8-4.5c1.2-.7,2.7-.9,4.1-.6,3.4.1,6.7,1,9.8,2.5,3,2.1,5.1,5.1,6.1,8.6,6.1,17.4,3.5,35.8,2.8,53.9-1.4,34.8,4.9,71.1,27.7,100.4,2.4,2.7,4.3,5.7,5.7,9,1,3.3.3,7.2-8.3,10"/>
      <path id="Path_194" class="st0" d="M2545.2,359.4c-5.7-13.2-7.3-27.2-8.1-41.2-.5-7.4-.5-14.9,0-22.3,1.5-17.1,7.6-34.1,4.7-51.2-1.3-7.4-4.2-14.6-5.1-22-.9-7.4.4-15.5,6.6-20.9,2-1.8,5.7-3,7.6-1.1.9,1.3,1.1,3,.4,4.5-1.9,6.7-3,13.6-3.3,20.5-.4,15.5,4.3,30.8,6.2,46.2,1.5,12,1.2,24.1-.8,36-2.4,14.5-7.3,29.9-.5,43.5.7,1.2,1.2,2.5,1.4,3.8.2,3.7-4.2,6.2-9.3,4.2"/>
      <path id="Path_195" class="st0" d="M2566.4,365.6c-3.3-6.3-2.7-13.5-2.9-20.3-.3-10.9-2.7-21.7-3.9-32.6-3-26.9,1.3-53.9,5.9-80.6,1.2-7,3-14.9,10-18.9,1.7-1,3.6-1.5,5.6-1.3,3.6.5,5.4,3.9,6.7,6.8-5.2,1.1-8.1,5.6-9.8,9.8-2.7,7.6-4.2,15.7-4.4,23.8-1.3,18.7-1.5,37.4-.5,56.1.2,5.8.8,11.5,1.9,17.1,1.5,5.4,2.7,10.9,3.6,16.4.3,4.5.2,9-.3,13.4,0,1.9-.6,3.7-1.7,5.1-1.3,1.4-4.2,1.9-10.3,5.2"/>
      <path id="Path_196" class="st0" d="M2563.3,363.2c-3.4-12.7-2.5-26,.6-38.7s8.4-24.9,13.7-37.1c7.9-18.3,16.1-36.9,29.8-52.5,4.2-4.8,9.2-10.1,8-16-.3-1.5-1-3-.2-4.3,1.2-2.1,4.9-1.9,7.6-1.3,2.4,7.7-.1,16-4.3,23.1s-10,13.5-14.6,20.4c-3.1,4.8-6,9.8-8.6,14.9-10,18.9-20.1,38.3-22.1,59-.9,9-.2,18.1-.5,27.1,0,1.9-.3,3.7-1.1,5.4-1,1.7-3,3-8.3,0"/>
      <path id="Path_197" class="st0" d="M2544.4,349.1c-5.1-19.1-3.5-39.4,4.5-57.5,3.2-7.2,7.3-14,10.9-21.1,5.9-12,11.1-24.3,15.6-36.9,5.7-15.2,11.5-31.3,7.6-45.4.5-1.6,1.5-3,2.9-3.9,1.8-1,4.1-.3,5.1,1.5.1.2.2.4.3.6,2.8,25.4-1.4,51.1-12.1,74.2-10.5,22.9-27.5,44.7-27.3,69.3-.1,5,1,10.1,3.2,14.6,2.4,4.2,5.5,7.9,9.1,11-4.8,2-9.6,3.9-14.4,5.9-.8.4-1.6.5-2.5.4-.6-.3-1.1-.7-1.4-1.3-1-1.5.6-3.1-1.5-11.2"/>
      <path id="Path_198" class="st0" d="M2569.8,355.3c-4.1-10.7-18.4-15.8-27.9-23.7-4-3.5-7.5-7.5-10.3-11.9-10.5-16.3-14.7-36-11.7-55.2,2.2-14.6,8.1-28.6,12.5-42.9,2.7-8,4.3-16.4,4.8-24.9.1-15.1-4.9-29.8-14.2-41.7.9-1.6,2.2-2.8,3.8-3.6,1.8-.8,3.9.1,4.6,1.9.1.2.2.5.2.7,14.1,13.5,21.5,31.8,20.2,49.6-1.1,14.9-7.9,28.9-13.8,43-5.9,14-11,28.9-8.6,43.7,1.8,8.8,5.2,17.2,10,24.8,4,6.8,8.8,13.6,16.4,17.7,4.9,2.6,11,4,14.9,7.7,2.4,2.5,4.2,5.6,5.2,8.9.7,1.5.9,3.1.6,4.6-.5,1.5-2.2,2.9-6.7,1.3"/>
      <path id="Path_199" class="st0" d="M2550.7,358.4c-5.1-6.8-4.5-15.5-3.1-23.4,3.3-18.4,9.9-36,19.4-52,8.9-15.2,20.4-29.2,29.2-44.5s14.9-32.3,12.9-49.6c3.3-.8,6.8.4,9.9,1.6,1.2.5,2.7,1.3,2.5,3.2-2.5,24.1-10.9,47.1-24.5,67.1-6.3,9.3-13.6,18.2-18.5,28.1-4.6,9.3-6.9,19.4-9.1,29.3-1.5,5.6-2.3,11.3-2.2,17.1.2,6.5,3.1,12.6,7.9,17-7,1.4-13.8,3.3-24.4,6.1"/>
      <path id="Path_200" class="st0" d="M2543.2,342.8c-8-10.4-9.5-23.4-7.2-35.5,2.2-12.1,7.9-23.5,13.3-34.8,5.5-11.3,10.9-22.8,12.6-35,2.2-15.5-1.8-31.3-6.4-46.5,1.1-.6,2.4-.6,3.6-.2,2.2-.4,4.4-.8,6.6-1.1,4.2,9.9,4.8,20.5,4.9,30.9.2,29.9-4,59.7-12.2,88.4-2.4,8.4-5.2,16.9-3.9,25.5,1.1,7.2,5,13.8,8,20.6.5.8.6,1.8.1,2.6-.4.5-1,.8-1.6,1-4.4,1.7-8.9,3.1-13.6,4-1.7-8-1.6-16.5-4.1-19.8"/>
      <path id="Path_201" class="st0" d="M2586.8,404.4c-3.3-4.3-4.6-10.9-5.5-17.3-3.3-21.6-5.1-43.3-5.5-65.1-.2-12.9.1-26.4,4.2-38,.5-1.8,1.4-3.4,2.7-4.7.9-.8,2.4-.8,3.2.2.2.2.4.5.5.9.4,1.6.3,3.3-.3,4.9-2.8,11.2-5.5,22.7-5.7,34.6,0,7.3.5,14.6,1.4,21.8,1.9,18,3.9,36.2,8.9,52.8.6,1.7,1,3.5,1,5.3-.1,1.9-1.1,3.8-4.8,4.7"/>
      <path id="Path_202" class="st0" d="M2585.4,405c-5-9.8-7.6-21.7-10.2-33.3-5.3-23.8-10.6-47.9-11.6-73-.8-19.1,1-38.3,2.2-57.5.3-4.4.4-9.6-2-12.3-.9-1.1-2.1-1.6-2.9-2.7-1-1.3-1.2-3-.4-4.5.6-.7,1.5-.9,2.4-.6,2.1.1,4,.9,5.6,2.3,1.9,2.5,3,5.4,3.4,8.5,3.3,17.3,1.5,35.8.8,53.8-1.3,34.8,1.8,71,14.6,100,1.4,2.8,2.5,5.9,3.2,9,.9,4.1-1.1,8.3-4.9,10.1"/>
      <path id="Path_203" class="st0" d="M2587.7,397.7c-3.1-13.1-3.8-27.1-4.1-41-.1-7.4-.1-14.9.4-22.3,1.1-17.1,4.9-34.2,3.4-51.2-.6-7.4-2.2-14.5-2.6-21.9s.5-15.5,4.1-21c1.2-1.8,3.3-3.1,4.4-1.2.5,1.4.6,3,.2,4.4-1.2,6.8-1.9,13.6-2.2,20.5-.5,15.5,2,30.7,2.9,46.1.7,12,.4,24.1-.9,36-1.6,14.6-4.6,30-.9,43.5.4,1.2.7,2.5.8,3.8,0,3.7-2.5,6.3-5.4,4.3"/>
      <path id="Path_204" class="st0" d="M2599.8,403.6c-1.8-6.3-1.4-13.4-1.4-20.3,0-10.9-1.2-21.7-1.8-32.5-1.3-26.9,1.5-53.9,4.5-80.7.8-7.1,2-14.9,6-19,.8-1,2-1.5,3.2-1.4,2.1.5,3.1,3.8,3.8,6.7-3,1.1-4.8,5.7-5.8,9.9-1.7,7.8-2.6,15.8-2.9,23.8-1,18.7-1.4,37.4-1.1,56.1.1,5.7.3,11.5.9,17.1.6,5.4,1.6,10.8,1.8,16.3.1,4.5,0,8.9-.4,13.4,0,1.8-.3,3.5-1,5.1-.8,1.4-2.5,1.9-6,5.4"/>
      <path id="Path_205" class="st0" d="M2598,401.2c-1.6-12.9-1.3-25.9.9-38.7,2.2-12.5,5-25,8.4-37.2,4.8-18.4,9.8-37.1,17.9-52.9,2.5-4.8,5.4-10.2,4.8-16.1-.3-1.4-.4-2.9,0-4.3.7-2.1,2.8-2,4.4-1.4,1,7.8,0,15.8-2.8,23.1-2.5,7.2-5.9,13.6-8.7,20.6-1.9,4.9-3.5,9.9-5.1,15-6,19.1-12.1,38.6-13.6,59.3-.6,9-.4,18.1-.7,27.1,0,1.8-.2,3.7-.7,5.4-.6,1.7-1.8,3-4.8.1"/>
      <path id="Path_206" class="st0" d="M2587.3,387.4c-2.6-19.2-1.5-38.8,3.4-57.5,1.9-7.2,4.4-14.1,6.6-21.2,3.7-12.1,6.6-24.6,9.5-37.1,3.5-15.3,7.1-31.5,5-45.5.2-1.4.8-2.8,1.7-4,.9-.9,2.4-.7,3.1,2,1.3,25.1-1.4,50.2-8,74.4-6.4,23-16.5,45.1-16.7,69.7-.1,4.9.4,9.8,1.7,14.5,1.2,3.8,2.9,7.5,5.1,10.8-2.8,2-5.6,4-8.4,6.1-.4.3-1,.7-1.4.4-.4-.3-.7-.8-.8-1.3-.5-1.5.4-3.1-.7-11.2"/>
      <path id="Path_207" class="st0" d="M2601.9,393.3c-2.2-10.7-10.4-15.5-15.8-23.3-2.4-3.7-4.4-7.6-5.8-11.8-6.1-16.5-7.8-36.2-5.9-55,1.5-14.7,5.1-28.7,7.8-43.1,1.7-8.2,2.8-16.6,3.1-24.9.5-14.2-2.1-28.4-7.6-41.5.4-1.4,1.2-2.6,2.2-3.6,1-.7,2.5,0,2.7,2.6,7.9,13.3,11.9,31.5,10.9,49.3-.8,14.9-4.9,29-8.5,43.1s-6.8,29-5.6,43.8c.8,8.4,2.6,16.7,5.4,24.7,2.2,6.7,4.9,13.5,9.2,17.4,2.8,2.6,6.3,3.9,8.5,7.5,1.5,2.8,2.4,5.7,2.9,8.8.4,1.5.5,3.1.3,4.6-.3,1.5-1.3,2.9-3.9,1.4"/>
      <path id="Path_208" class="st0" d="M2590.9,396.7c-2.8-6.8-2.4-15.5-1.4-23.4,2.1-17.8,6-35.3,11.9-52.3,5.4-15.3,12.2-29.5,17.4-44.9s9.1-32.5,8.2-49.8c1.9-.9,3.9.3,5.7,1.4,1.1.7,1.6,1.9,1.4,3.2-1.6,23.1-6.7,45.9-15.1,67.4-3.7,9.4-8.1,18.4-11.1,28.3-2.6,9.7-4.5,19.5-5.7,29.5-1,5.7-1.5,11.4-1.5,17.1,0,5.9,1.4,11.7,4.3,16.9-4,1.5-8,3.5-14.1,6.5"/>
      <path id="Path_209" class="st0" d="M2586.8,381.1c-4.4-10.2-5.1-23.3-3.7-35.4,1.8-11.9,4.5-23.6,8.2-35,3.7-11.5,6.3-23.2,7.7-35.2,1.5-15.6-.6-31.2-3.1-46.4.5-.6,1.4-.7,2.1-.3,1.3-.4,2.5-.8,3.8-1.2,2,10.1,2.8,20.5,2.4,30.8-.3,29.7-3.1,59.3-8.3,88.6-1.5,8.4-3.2,17-2.6,25.5.5,7.2,2.7,13.8,4.3,20.5.3.9.3,1.8,0,2.6-.2.4-.5.8-.9,1-2.4,1.7-5.1,3.1-7.9,4.2-.9-7.9-.7-16.5-2.1-19.8"/>
      <path id="Path_210" class="st0" d="M2502.1,365.5c5.7-5.6,8.1-14.5,10-22.9,6.5-28.7,10.6-57.8,12.5-87.2,1.1-17.3,1.2-35.4-4.8-51.2-.7-2.5-2.1-4.7-4.1-6.4-1.8-1.4-4.3-1.1-5.7.7-.1.2-.3.4-.4.6-.7,2.1-.6,4.5.2,6.6,4,15.2,7.7,30.7,7.5,46.6-.4,9.8-1.6,19.6-3.5,29.2-4.1,24-8.4,48.4-17.4,70.4-1.1,2.2-1.7,4.6-1.9,7.1,0,2.5,1.6,5.2,7.5,6.5"/>
      <path id="Path_211" class="st0" d="M2504.3,366.4c8.6-12.9,13.6-28.7,18.5-44.2,9.9-31.7,19.9-63.7,22.9-97.4,2.3-25.6.5-51.5-.6-77.2-.2-5.9,0-12.8,3.9-16.4,1.5-1.4,3.5-2,5-3.5s2.3-4.4.9-6c-1-.9-2.5-1.3-3.8-.9-3.3,0-6.5,1.1-9.2,2.9-3.2,2.5-4.8,7-6,11.3-6.3,23-4.4,47.9-4.3,72.2.3,46.8-6.8,95.2-29.1,133.5-2.4,3.7-4.3,7.7-5.6,11.9-1.1,4.4-.5,9.7,7.5,13.8"/>
      <path id="Path_212" class="st0" d="M2501.1,356.5c5.8-17.4,7.7-36.2,8.8-54.9.7-10,.9-20,.6-30-.9-23-6.1-46.1-2.9-68.8,1.4-9.9,4.4-19.4,5.5-29.3s0-20.9-5.5-28.3c-1.8-2.4-5.3-4.3-7.1-1.9-.9,1.9-1.1,4-.5,6,1.6,9.1,2.4,18.4,2.4,27.6,0,20.8-5,41.1-7.3,61.7-1.8,16.1-1.9,32.3-.4,48.4,1.8,19.6,5.9,40.4-.9,58.4-.7,1.6-1.2,3.3-1.5,5.1-.3,5,3.8,8.5,8.6,6"/>
      <path id="Path_213" class="st0" d="M2481,363.8c3.3-8.3,3-17.9,3.4-27.1.6-14.6,3.2-29,4.6-43.6,3.6-36,.4-72.4-3.1-108.5-.9-9.5-2.4-20.1-8.8-25.8-1.4-1.4-3.3-2.1-5.2-2-3.4.6-5.2,5-6.5,8.8,4.8,1.7,7.5,7.8,8.9,13.6,2.3,10.5,3.4,21.3,3.4,32.1.7,25.1.2,50.2-1.3,75.3-.4,7.7-1.1,15.3-2.3,22.9-1.2,7.3-3.2,14.4-3.9,21.8-.4,6-.5,12-.1,18-.1,2.4.4,4.8,1.4,6.9,1.2,1.9,3.9,2.7,9.5,7.5"/>
      <path id="Path_214" class="st0" d="M2484,360.8c3.6-16.9,3.2-34.7.6-51.9-2.6-17.2-7.2-33.8-11.7-50.3-6.9-24.9-13.9-50.2-26.4-71.8-3.8-6.6-8.3-13.9-7-21.8.6-1.9.7-3.9.3-5.8-1.1-2.9-4.5-2.7-7.1-2.1-2.5,10.3-.4,21.4,3.3,31.1,3.7,9.7,8.9,18.5,13.1,28,2.9,6.6,5.2,13.5,7.6,20.4,8.8,25.8,17.7,52.3,19,80.2.6,12.1-.3,24.2-.4,36.4-.1,2.5.2,5,.9,7.3.9,2.3,2.8,4.1,7.8.4"/>
      <path id="Path_215" class="st0" d="M2502.2,342.7c5.3-25.6,4.5-52.1-2.5-77.3-2.7-9.8-6.4-19.2-9.6-28.8-5.4-16.4-9.5-33.3-13.5-50.3-4.9-20.6-9.8-42.5-5.7-61.3-.4-2-1.2-3.9-2.6-5.4-1.4-1.3-3.9-1.1-5.1,2.6-3.4,33.6-.4,67.6,9.1,100.1,9.2,31.1,24.4,61.2,23.5,94.2,0,6.6-1.2,13.2-3.5,19.4-2.2,5.2-5.2,10-8.9,14.3,4.4,2.8,8.9,5.7,13.3,8.5.6.6,1.5.8,2.3.6.6-.4,1.1-1,1.3-1.7,1-2-.5-4.2,1.8-14.9"/>
      <path id="Path_216" class="st0" d="M2478,349.9c4.2-14.2,17.8-20.4,27-30.6,4.1-4.7,7.4-9.9,10.1-15.6,10.8-21.9,14.7-48.2,12.7-73.5-1.6-19.7-6.7-38.8-10.4-58.1-2.3-11.1-3.6-22.3-3.7-33.6.1-19.4,5.1-38.4,14.6-55.3-.6-1.9-1.9-3.7-3.5-4.9-1.6-1-4.1-.2-4.6,3.3-13.6,17.5-21.1,41.7-20.5,65.6.5,20,6.5,39.2,11.6,58.2s9.5,39.2,6.7,59c-1.8,11.4-5.3,22.4-10.2,32.8-4,8.9-8.7,17.9-16,23-4.7,3.3-10.4,4.9-14.2,9.7-2.5,3.5-4.2,7.5-5.1,11.7-.7,2-.9,4.1-.7,6.2.4,2.1,2,3.9,6.3,2.1"/>
      <path id="Path_217" class="st0" d="M2495.9,354.9c5-9,4.7-20.6,3.6-31.3-2.4-24.2-8-47.9-16.6-70.7-7.9-20.8-18.2-40.1-26-61s-13-44-10.6-67.1c-3.1-1.3-6.4.2-9.4,1.6-1.7.7-2.7,2.4-2.4,4.2,1.4,31.4,8.5,62.3,20.9,91.2,5.6,12.8,12.2,25,16.5,38.5,4,12.7,5.9,26.3,7.6,39.8,1.3,7.6,1.8,15.3,1.5,23-.5,8.3-3,16.6-7.9,22.4,6.5,2.2,12.9,5.1,22.7,9.3"/>
      <path id="Path_218" class="st0" d="M2503.4,334.3c7.8-13.5,9.6-31,7.9-47.3s-6.7-31.9-11.5-47.3-9.5-31.1-10.7-47.5c-1.5-21,2.7-41.9,7.5-62.1-.9-.8-2.3-1-3.4-.4-2-.6-4.1-1.2-6.1-1.8-4.2,13-5.1,27.2-5.5,41.2-1.1,39.9,1.8,79.8,8.7,119.2,2,11.3,4.3,22.9,2.8,34.3-1.3,9.6-5.1,18.3-8.1,27.3-.5,1.1-.6,2.4-.2,3.5.4.6.9,1.1,1.5,1.4,4,2.5,8.2,4.5,12.6,6,1.8-10.6,2-22,4.5-26.4"/>
      <path id="Path_219" class="st0" d="M3100.8,331.5c-3.5,1.8-6,5-6.9,8.8-.3.9-.1,2,.5,2.7.8.8,2.2.5,3.3.1,1.6-.6,3.2-1.4,4.6-2.4,1.4-.8,2.5-1.9,3.4-3.2.9-1.3,1.1-3,.5-4.5-.1-.4-.4-.8-.7-1-.3-.2-.7-.4-1-.5-1.5-.6-3.3-1.1-3.6,0M3174,335.8c1.2-1.3,1.6-3.2,1.1-4.9-.3-1.5-.6-3-1.1-4.4-.8-2.2-2.1-4.5-4.3-5-2.6-.3-4.9,1.4-5.4,4-.4,2.5.1,5,1.5,7.1.8,1.6,2,2.9,3.5,3.7,1.6.7,3.5.5,4.9-.5M3143.2,305c.8.2,1.6.2,2.3,0,1.7-.6,1.9-3.4,2.2-3.8-.8-2.2-2-4.2-3.4-6.1-1.2-1.2-2.5-2.3-3.9-3.2-1.1-.9-2.4-1.6-3.8-2-2.7-.5-5.3,1.3-5.8,3.9,0,.1,0,.3,0,.4,0,1.6.7,3.1,1.7,4.3,2.6,3.4,6.4,5.8,10.7,6.6M3090.1,337.1c1.4-6,7.6-10,13.7-10.1,6.2.2,12,3,16.2,7.6,5.1,5.2,8.3,11.9,13,17.4-4.7-10.5-9.6-21.7-8.4-33.2.5-4.8,2.1-9.7.7-14.4-1.3-4.7-5.6-8.7-5.2-13.5.5-3.5,2.9-6.5,6.3-7.7,3.4-1.1,7-1,10.3.2,6.6,2.4,12.4,6.6,16.5,12.3,2.2,2.5,3.6,5.5,4.3,8.8.6,3.3-.6,6.7-3.2,8.8-2.4,1.6-5.7,1.8-7.5,4.1-.8,1.1-1.3,2.4-1.4,3.8-2,9.8-2.4,19.8-1.1,29.7-.3-6.2,1-12.3,3.8-17.9,2.3-3.7,5.1-7,8.3-9.9,2.1-2.5,4.9-4.4,8-5.5,6.6-1.6,12.7,4.7,14.4,11.2,1,3.5.7,7.2-.9,10.4-1.8,3.2-5.5,4.9-9.1,4-1.5-.5-3-1.6-4.5-1.2-.8.2-1.5.6-2.1,1.2-7.9,6.4-13.4,15.2-15.8,25.1-1.4-.9-3.2-.9-4.6,0-1.5.7-2.6,1.9-4,2.7-2.7,1.6-6.3,1.8-6.8-2.9l-19.1-15.6c-1.8-1.7-4-2.9-6.5-3.4-1.9.1-3.8.3-5.7.7-6.1.3-11-6.6-9.6-12.6"/>
      <path id="Path_220" class="st0" d="M3731.7,390.4c-13.9-12.8-30.3-15.5-44.4-7.1-1.7.9-3,2.3-3.6,4.1-.9,3.4-.7,6.9.6,10.2,1.5,5.1,5.1,9.4,9.8,11.7,3.8,1.4,7.8,1.8,11.8,1.3,8.3-.5,16.6-.9,24.9-1.4.3,0,.6,0,.8-.2.5-.7.7-1.5.7-2.4.4-5.4.2-10.8-.5-16.1"/>
      <path id="Path_221" class="st0" d="M3721.1,410.6c12.6-2.7,24.1-17.3,27.7-38.4,1.2-6.1,1.2-12.4,0-18.5-1.1,4.9-1.4,10.4-2.2,15.5-2.2,16.8-11.6,31.8-25.6,41.4"/>
      <path id="Path_222" class="st0" d="M3721.3,402.7c.6,2.2,2.4,1.4,3.6.3,5.4-5.4,11.1-11.1,14.2-20.6.9-2.7,1.6-5.4,2.1-8.2,2.1-9.5,3.7-20,2.2-30.2-.8,23.6-7.6,45.6-22.1,58.7"/>
      <path id="Path_223" class="st0" d="M3721.3,400.1c6.9-3.6,12.8-12.2,16.1-23.4,3.4-12.3,4-25.1,1.9-37.6.6,5.4.8,10.8.6,16.2-.4,8.8-2.4,17.5-5.8,25.7-3.1,7.1-7.4,13.5-12.8,19.1"/>
      <path id="Path_224" class="st0" d="M3709.8,392.8c1.1-11.1,1.3-22.3.6-33.4-.6-10.8-3.1-21.5-7.3-31.5,2.9,8.6,4.7,17.5,5.5,26.5,1.8,12.7,2.2,25.6,1.2,38.5"/>
      <path id="Path_225" class="st0" d="M3698.8,393.5c-4.6-9.5-8.4-19.4-11.4-29.5-3.2-10.9-5-22.2-5.2-33.6-.6,7.1-.1,14.3,1.5,21.2,3.2,15.9,8.2,30.8,15.1,41.9"/>
      <path id="Path_226" class="st0" d="M3720.7,390c3.8-7.6,6.3-15.9,7.3-24.4,1.2-9.4,1.6-18.9,1.3-28.3-.8,19.4-3.3,39-8.6,52.7"/>
      <path id="Path_227" class="st0" d="M3713.3,394.9c4.7-10.2,7.6-21.1,8.6-32.3,1.2-12.2.2-24.5-2.9-36.3,4.2,24.8,1.1,52.1-5.7,68.6"/>
      <path id="Path_228" class="st0" d="M3725.6,396.7c9.4-15.1,13.5-39.6,10.5-62.4,0,19.6-2.8,39.2-8.4,58-1,3-2.2,6.2-2.1,4.5"/>
      <path id="Path_229" class="st0" d="M3720.7,396.8c8.8-16.5,13-40.4,11.2-63.8-1.1,22.6-3.2,46-11.2,63.8"/>
      <path id="Path_230" class="st0" d="M3711.5,392.8c-2.1-5.5-4.1-10.9-6.2-16.4-3.1-7.8-5.6-15.8-7.7-23.9-2.2-8.6-3.1-17.5-2.7-26.3-.8,12,.5,24,3.8,35.5,3.1,10.8,7.4,21.2,12.7,31.1"/>
      <path id="Path_231" class="st0" d="M3696.8,392.3c-1.9-1-3.4-2.6-4.5-4.4-7.8-10.8-14.4-22.4-19.6-34.6-3.1-6.8-4.7-14.2-4.8-21.6-.4,6.6.5,13.3,2.6,19.6,1,2.8,2.2,5.5,3.6,8.2,6.4,12.7,13.4,24.5,22.6,32.8"/>
      <path id="Path_232" class="st0" d="M3689.9,393.9c-10.3-10.7-19-26.1-26.1-43.1-2.7-6-4.7-12.4-5.8-18.9-.3-1.1-.2-2.2.2-3.2,0,5.8.9,11.5,2.5,17.1,5.8,21.9,16.6,40.6,29.1,48.2"/>
      <path id="Path_233" class="st0" d="M3690.8,390.1c-11.5-14.7-20.6-31.1-26.9-48.7-1.5-3.9-2.6-8-3.1-12.2,1.2,10.8,5,20.4,9,29.3,5.7,12.9,12.1,25.6,21.1,31.6"/>
      <path id="Path_234" class="st0" d="M3693.8,388.5c-5.8-11.3-11-22.9-15.6-34.7-3.1-8.1-6.1-17-6.5-26.5-.3,2.5,0,5,.6,7.3,4.5,20.4,11.5,39.3,21.4,53.9"/>
      <path id="Path_235" class="st0" d="M3696.2,387.8c-4.8-8.6-9.1-17.4-12.9-26.5-4.1-10.1-6.7-20.7-7.7-31.5-.8,5,.5,10.6,1.9,15.5,4.7,16.6,10.4,33,18.7,42.5"/>
      <path id="Path_236" class="st0" d="M3700.8,389.5c-5.6-14.8-11.1-30.4-13.1-47.5-.7-4.7-.7-9.4,0-14.1-1.4,2.4-1.4,6.3-1.2,9.8.4,5.3,1.2,10.5,2.3,15.7,2.5,13.1,5.8,26.1,12.1,36.2"/>
      <path id="Path_237" class="st0" d="M3703.8,389.4c-4.8-13.4-9.6-27.1-11.7-42.1-1-7-1.3-14.2-2.4-21.2-.3,3.8-.2,7.7.4,11.5,1.3,9.4,3.3,18.6,6.1,27.7,2.3,8.1,4.8,16.1,7.6,24.2"/>
      <path id="Path_238" class="st0" d="M3697,387.8c-3.6-8.9-6.6-18.1-9.1-27.4-2.6-9.9-3.6-20.1-2.9-30.3-1.6,11.6.8,24.1,3.5,35.5,2,8.4,4.4,16.9,8.4,22.1"/>
      <path id="Path_239" class="st0" d="M3705.4,384.6c-4.3-8.6-7.5-17.8-9.5-27.2-2.1-10.8-3.6-21.7-4.5-32.7,1.5,22.6,6.5,44.9,14,60"/>
      <path id="Path_240" class="st0" d="M3711.5,386.5c-3.4-11.6-6.8-23.2-9.5-35.3-1.9-7.5-2.8-15.2-2.6-22.9-.7,4.3-.8,8.7,0,13,1.7,15.6,5.8,30.8,12.2,45.2"/>
      <path id="Path_241" class="st0" d="M3710.6,390.2c3.8-5,6-13.1,6.8-21.5.6-8.6.4-17.3-.8-25.9-.6-5.4-1.5-10.7-2.8-15.9,1.6,10.2,2.5,20.4,2.6,30.7,0,11.1-2,22.1-5.8,32.6"/>
      <path id="Path_242" class="st0" d="M3720.2,392.4c6.8-18.7,8-43.8,3.2-65.7-.5-2.6-1.3-5.1-2.5-7.5,1.8,11.5,2.8,23.2,2.9,34.9.2,12.9-1,25.7-3.6,38.3"/>
      <path id="Path_243" class="st0" d="M3712.1,388.5c1.7-.6,2.5-3.9,2.9-6.9,1.6-14,.8-28.2-2.3-41.9-1.3-7-3.4-13.9-6.2-20.5.2,3.2.8,6.4,1.8,9.5,2.8,9.6,4.8,19.4,6,29.3,1.2,10.2.5,20.6-2.1,30.5"/>
      <path id="Path_244" class="st0" d="M3708.6,389.4c.6-3,.9-6,.8-9,0-12.8-2.5-25.4-5.1-37.7-1.7-7.9-3.5-16.2-3.2-24.4-.8,11.4,1.6,23.1,3.9,34.3s4.8,22.8,3.5,36.8"/>
      <path id="Path_245" class="st0" d="M3700.3,387c-.9-3.7-2-7.4-3.3-11-2.9-8.9-5.1-17.9-6.8-27.1-2-10.2-3.7-21.2-2-31.1-1,7.6-.9,15.3.1,22.9,1.1,7.5,2.6,14.8,4.7,22.1,2.6,9.6,5.7,18.9,7.2,24.2"/>
      <path id="Path_246" class="st0" d="M3693.8,390c-3.1-9.7-6.5-18.9-9.8-28.4-1.9-5.1-3.4-10.4-4.5-15.7-1.6-8.9-2.5-17.9-2.6-26.9-1.4,6.9-.4,14.9,1,22.1,3.2,16.9,8.6,33.3,16,48.8"/>
      <path id="Path_247" class="st0" d="M3692.1,391.2c-8.2-16.2-16.6-32.7-21.7-52.3-2-7.1-3-14.4-2.9-21.8-.6,6.7,0,13.5,1.8,19.9,4.3,19.2,12.1,37.6,22.8,54.1"/>
      <path id="Path_248" class="st0" d="M3722.8,403.2c1.9,0,3.6-.9,4.8-2.2,5.2-4.6,9.5-12,12.4-20.9,3-9.6,4.6-19.5,4.8-29.6.4-6.6-.3-13.3-1.9-19.8,3.7,12,4.3,24.6,1.7,36.9-.6,2.6-1.3,5.1-2.1,7.6-1.8,5.9-4.1,11.5-7.1,16.9-2.8,5-7.2,8.9-12.5,11.1"/>
      <path id="Path_249" class="st0" d="M3722.5,397c1.9-2.2,3.4-4.6,4.4-7.3,4.2-9.8,6.6-21.8,7.9-34,.9-7.4,1.2-14.8.9-22.3-.2-7.4-1.5-14.7-3.9-21.7,3.2,14.1,4.1,28.7,2.7,43.1-1.5,14.7-5.6,29-12.1,42.2"/>
      <path id="Path_250" class="st0" d="M3716.8,395c3.1-1.8,5.2-6.4,7-11.1,5.6-16.4,8-33.8,7.1-51.2-.1-7.8-1.5-15.6-4.2-22.9,3,14.7,4.1,29.7,3.2,44.7-.9,14.8-4.1,29-13.1,40.5"/>
      <path id="Path_251" class="st0" d="M3712.3,395.4c1.7-2,2.9-4.5,3.6-7,2.9-9.6,4.5-19.6,4.6-29.6.2-10.5-.5-21-2-31.4-1.1-8.2-2.7-16.6-6.1-22.9.4,3.1,1.1,6.2,2.2,9.1,5.3,18.2,7,37.3,5.2,56.2-1,8.9-3.6,17.6-7.5,25.7"/>
      <path id="Path_252" class="st0" d="M3710.1,391.6c3.1-13.5,2.1-29.2-.1-43.9-2.2-14.6-5.4-29-6.6-43.9.3,13,1.4,25.9,3.3,38.8,1.3,9.1,2.9,18,3.9,27.2,1,9.1,1.4,18.5-.5,21.8"/>
      <path id="Path_253" class="st0" d="M3705,391.2c0-2.7-.2-5.5-.6-8.2-1.7-12.1-4.1-23.9-5.9-36-2-12.1-2.4-24.4-1.4-36.6-.8,27.1,1.9,54.3,7.9,80.7"/>
      <path id="Path_254" class="st0" d="M3702.4,393.4c-.9-4.2-2-8.3-3.1-12.5-5.7-22.8-8.4-46.3-8.2-69.8-1.4,14.1-.8,28.3,1.9,42.3,2.5,13.8,6.3,26.9,9.4,40"/>
      <path id="Path_255" class="st0" d="M3697.2,393.8c-.4-2.7-1.1-5.3-1.9-7.9-7-22.1-11.5-45-13.6-68.1-.5-4.3-.4-8.6.3-12.8-2.2,12-1.2,25.7,1.3,38.2s6.3,24.1,9.8,35.9c1.6,5.5,3.2,11.3,4.2,14.7"/>
      <path id="Path_256" class="st0" d="M3719.8,399.2c2.4.8,4.6-2.1,6.3-5,4.8-7.8,8.6-16.2,11.4-24.9,3.2-10,4.9-20.5,5-31,0-9.6-1.2-19.2-3.3-28.6-.8-3.8-1.8-7.6-2.8-11.2,5.3,18,6.5,37,3.6,55.5-2.7,16.2-8.6,29.6-20.1,45.2"/>
      <path id="Path_257" class="st0" d="M3713,395.8c2.6-1,4.6-4.4,6.2-8,5.7-12.4,8.7-28.5,8.8-45,0-16.2-2.6-32.4-7.7-47.8,0-.4-.3-.7-.5-1-.3-.2-.6.2-.5.6,3.7,11.4,5.8,23.3,6.2,35.3.5,12.1,0,24.1-1.6,36.1-1.4,12-3.8,24.6-10.8,29.8"/>
      <path id="Path_258" class="st0" d="M3708,401.4c2.7-12.6,4.5-25.4,5.5-38.3.6-16-.5-31.9-3.3-47.6-1.6-10-3.7-20.5-2.6-30.4-1.3,8.4-1.3,17,0,25.4,1,6.5,2.7,12.6,3.8,19,1.8,11.2,1.3,22.7.7,34-.4,12.7-1.7,25.4-4,37.9"/>
      <path id="Path_259" class="st0" d="M3701,392c1.1.6,2.2-.1,3-1.4.8-1.5,1.2-3.2,1.5-4.9,1.5-9.3.3-19.6-1.5-29.2-2.6-13.4-6.4-26-9.5-39.1s-5.3-27.2-4.4-40.8c-1.4,13.2.6,27.2,3.4,40.2s6.6,25.5,8.9,38.8c2.3,13.3,3,27.9-1.4,36.6"/>
    </g>
  </g>
</svg>