<?xml version="1.0" encoding="UTF-8"?>
<svg id="Layer_1" data-name="Layer 1" xmlns="http://www.w3.org/2000/svg" viewBox="0 0 369.77 369.79">
  <defs>
    <style>
      .cls-1 {
        fill: #fff;
      }
    </style>
  </defs>
  <path class="cls-1" d="M369.7,189.4c-3.11,115.85-109.35,199.17-221.11,176.72C37.57,343.82-27.95,227.64,11.6,120.65,50.42,15.61,174.46-32.09,274.57,23.3c59.36,32.84,96.99,96.89,95.13,166.11ZM196.1,250.59l70.78-84.94c3.86-4.64,4.38-10.61,1.65-15.87-2.15-4.13-6.71-7.55-12.59-7.55H113.91c-6.15,0-10.84,3.71-12.89,8.14-2.4,5.2-1.76,10.81,1.96,15.27l71,85.18c5.81,6.97,16.08,7.01,22.12-.24Z"/>
  <polygon class="cls-1" points="225.43 170.79 184.93 219.58 144.27 170.73 225.43 170.79"/>
</svg>