<?xml version="1.0" encoding="UTF-8"?>
<svg id="Layer_1" data-name="Layer 1" xmlns="http://www.w3.org/2000/svg" viewBox="0 0 370.67 371.62">
  <defs>
    <style>
      .cls-1 {
        fill: #fff;
      }
    </style>
  </defs>
  <path class="cls-1" d="M273.54,76.61c-15.14-2.41-29.79-3.61-44.89-3.73-10.41.41-20.1,1.8-29.65,5.53-18.02,6.97-31.3,21.21-36.79,39.77-2.62,8.78-3.66,17.46-3.96,26.71v40.62s-41.9.04-41.9.04l-.02,52.45,41.92.04v133.53c-43.94-7.41-80.67-26.28-110.35-59.1-23.28-25.75-38.49-56.8-44.7-91.06C-3.51,184.41.25,146.41,15.36,111.88,35.14,66.68,71.81,30.81,117.79,12.76c43.78-17.19,92.86-17.01,136.5.54,44.04,17.71,79.37,51.83,99.32,94.86,15.95,34.4,20.72,72.89,14.29,110.26-11.53,75.31-72.27,137.77-146.77,153.19v-133.57s36.37-.03,36.37-.03l8.26-52.45-55.11-.07v-36.89c.55-8.15,3.73-15.61,9.97-20.71,5.48-3.74,11.81-4.92,18.49-5.36l34.41-.04.03-45.9Z"/>
</svg>