<?xml version="1.0" encoding="UTF-8"?>
<svg id="Layer_1" data-name="Layer 1" xmlns="http://www.w3.org/2000/svg" viewBox="0 0 500 500">
  <defs>
    <style>
      .cls-1 {
        fill: #7a8583;
      }

      .cls-2 {
        fill: #040404;
      }

      .cls-3 {
        fill: #b0b8b6;
      }
    </style>
  </defs>
  <g id="lighthouse">
    <g id="Layer_6" data-name="Layer 6">
      <g id="Group_56" data-name="Group 56">
        <g>
          <path id="Path_7009" data-name="Path 7009" class="cls-3" d="M2.15,212.89l3.81.83,3.64-.33.5.99,3.97,1.66,6.29-.66,3.81-2.81,2.48,2.65h4.14l1.82-.83,3.81,2.65,4.3-.5,1.32-.83,1.16,3.64,2.48,2.15,2.48-.66,1.99.66,2.98,1.16h3.81l2.65-1.99,3.14-2.98,1.82,2.65h3.14l4.14-1.32,2.48-1.16,4.3,1.66,5.13,1.82h2.81l5.79-2.48,3.31.5,3.97,1.99,4.14.66,4.63-.66,2.15-2.15.83-2.32,7.12,3.64,6.79,1.66,4.14-.83,3.31-1.99,2.32.33,5.79-.83,3.97-.5,5.46-.66h3.64l-2.81-1.32s-3.48-1.16-3.64-1.16-3.31-.5-3.64-.5h-2.48l-.5-1.99-1.99-2.48h-1.99l-3.48.99-1.99-.66-.5-2.48c-.5-1.32-.99-2.65-1.49-3.97-.17-.17-5.13-3.31-5.13-3.31h-3.64c0-.17-1.82-6.45-1.82-6.45l-4.63-3.14-7.78.83-3.31,2.32-1.82-3.97-5.63-5.79-6.95-1.99-6.45,1.82-4.47,3.31-2.65,6.62-2.48-3.48-3.64-4.97-6.12-1.16-3.64.83-2.98,2.32-1.16-5.96-3.31-5.13-4.8-3.14-7.12-.66-7.94,4.47-2.32,5.96-1.99,8.28h-5.13c0,.17-3.31,2.48-3.31,2.48l-1.99,3.97v2.48l-3.14.83-3.97,1.82-2.81,4.63h-3.48l-2.48,1.82L0,212.23l1.16,1.49.83-.33h0l.17-.5Z"/>
          <path id="Path_7000" data-name="Path 7000" class="cls-3" d="M498.34,241.69c-.33,0-5.96-1.16-5.96-1.16-.33-.66-.83-1.16-1.49-1.32-1.49-.17-2.98-.33-4.47-.33l-1.99-.83-.83-2.65-3.14-3.64-2.81-1.49-4.14-.5-1.82.33-.83-4.97-2.65-2.15-1.99-1.99s-4.8.17-4.97.33-3.14,1.99-3.14,1.99c0,0-.99.66-1.16.33s-1.49-5.13-1.49-5.13l-2.32-3.81-3.81-2.48s-3.14-1.16-3.31-1.16-3.97-.33-3.97-.33l-3.31,1.66-2.48,2.65-1.66,2.65-1.16,2.65-.99,2.98-.17,2.15-3.64-1.32-3.64,1.16-1.99,2.65-.66,1.99v2.15l-2.32.33-2.48,4.47-2.48-2.65-3.64-1.16s-3.14.5-3.31.66-2.15,1.32-2.15,1.32l-1.66-1.66-1.99-.99-2.32-2.32-2.98-2.15h-2.32c0-.17-2.65.66-2.65.66,0,0-2.15,1.66-2.15,1.49l-.83-.83-3.97-2.48-3.81-.66s-2.81.33-2.98.33c-.99,0-2.15.33-3.14.66,0,.17-1.16,2.98-1.16,2.98l-.5,1.66h0l-1.49.99-2.15-2.15-4.47.83c-.83.5-1.49.83-2.32,1.49,0,.33-1.49,2.32-1.49,2.32l.83,4.63-.5.33h-2.48c0-.17-1.66.66-1.66.66l-1.16,1.82s-1.49.17-1.66.17h-1.82l-1.82,1.82c-.17.17-1.66.66-1.66.66h-1.99s-1.16,1.99-.83,2.15c.83.33,1.66.83,2.48,1.16.5,0,4.63.5,4.97.5h12.58l9.27-1.16h3.48l-.66,3.31h-2.15l-1.16,1.32.66,1.49,2.15,1.16h2.65l2.65-.66,1.66-.99.83-.66v.33c.17,0,1.82.66,1.82.66l1.82-.5.99-.83.99.66,2.15.5,2.65-.83,1.99-.5,1.16-.33,2.48,1.16,3.64.66,2.48-.5,2.32-.99,1.82-.83,4.3,1.66h2.81c0-.17,1.49-1.16,1.49-1.16l2.32-1.82,2.81.83s2.81.66,2.98.66,3.81-.5,3.81-.5l1.49-1.16,5.46-.33s.83-.99-4.8-1.49h-.99v-.66h.83l1.82-1.16,2.98.99s5.13-.33,5.3-.5,2.81-1.66,2.81-1.66l5.13,2.65h4.3l2.81-.99,3.97-1.49s6.45,2.15,6.62,1.99,3.31-.5,3.31-.5l3.97-1.16,1.66-1.49s2.98.33,3.14.5,5.13,0,5.13,0l1.16-1.32.83-.99h1.49l2.32.17h2.48l2.48-.33-.5-.5h0v-.17Z"/>
          <path id="Path_6959" data-name="Path 6959" class="cls-3" d="M150.61,127.66l-1.49,2.81-4.47,1.99c-1.32,0-2.65-.33-3.97-.5-.17-.17-.33-1.16-.83-1.16s-3.31.5-3.31.5l-2.81-2.15.66-2.32,1.32-1.82,1.49-.83s.5-2.48.66-2.48.99-1.99,1.49-1.99,4.14-.33,4.14-.33l.66-4.3s1.99-4.47,2.15-4.63,4.8-1.32,4.8-1.32l1.99-.33.99-1.32v-2.98l1.82-4.14s2.48-3.48,2.65-3.48,5.13-2.65,5.13-2.65l4.47-.5,4.97,1.32,2.32,2.48,1.32,3.14.99,2.48.66,3.81,1.99-.5,2.48,1.82,2.65-2.48,3.97-.83,2.81,2.98.83,2.81,4.14.83h3.48c0-.17,8.77-1.32,8.77-1.32,0,0,5.3,2.65,5.13,2.15s-2.98-6.62-2.98-6.62l.66-9.76,2.65-8.11,4.63-6.95,8.61-6.95,10.26-2.15s8.11.33,8.61.83,9.76,5.79,9.76,5.79l.99-1.99,1.32-8.44,4.8-8.77,9.1-4.14,7.94.99,5.13,1.99,3.48-2.98-.66-5.96,4.47-9.93,6.62-3.48h8.44l6.45,3.31,3.81,3.81,1.32-6.45,5.96-8.44,5.96-2.98,9.43-3.48,8.77-.66,9.1,1.99,10.1,6.45,7.12,6.95,3.64,7.28,1.32,6.79-.66,5.96,4.14-.66,6.62,1.99,3.48,4.8.99,1.99,8.28-4.3h7.78l5.63,4.63,1.49,3.48.5,8.77,5.13-1.32,7.94,2.98,1.32,5.13.33,2.81,4.8-1.82,5.96,2.15,1.99,6.29,5.79-2.81,5.46.33,3.48,2.48.99,3.97,3.48-.66h2.98l4.97,3.64,2.15,1.16,2.81,1.32.66,2.48-1.99,1.82-2.32.33-.66-1.99-1.82,1.16c-.66.5-1.49.99-2.32,1.49-.33,0-4.47.17-4.63.17s-4.97.33-4.97.33l-3.81-1.16s-.66-1.32-1.66-1.32h-7.45l-4.63-.66-3.81-.99-7.28,2.98-4.8-.33-3.14-.33-7.12,1.82-6.12-1.66-4.3-3.14-4.63,3.48-11.09.66s-10.76.33-15.89-1.82c-5.13-1.99,5.13,2.98,5.13,2.98l3.81,6.62.66,5.13,5.96-1.66,5.79,1.32,3.64,2.98,2.48,2.32,1.99,4.63v5.46l3.31-1.16,2.65,1.16,2.65,2.65,1.82,1.32,1.32-.66,2.48-5.63,2.48-2.65,2.81-.66,2.98-2.98,2.32-2.32,3.31-.33h3.64l2.65,2.48,1.82,4.14s.66,3.97.66,4.14v.99l2.81-1.32h3.31c0-.17,3.48,2.98,3.48,2.98l2.48.5,3.97.66,3.64,4.8,3.14.99c.33.5.66,1.16,1.16,1.66h3.48l2.48,1.16-2.15.5h-4.14l-3.97,1.99s-4.8-.66-5.96-.66-5.63-.33-5.63-.33l-2.32.66-4.47,1.66-3.81-.33-6.29-1.66-1.16-.66s-3.31.99-3.48.99h-3.14l-4.3-1.32-1.32,1.99-2.48.83c-1.49-.33-3.14-.66-4.63-.99-.33,0-1.82-.66-1.82-.66l-2.15,2.15s-4.14,1.32-4.63,1.32-4.3-1.16-4.3-1.16l-3.64-1.49-2.98.99-4.63-.66-3.31,2.32-4.63,2.98s-8.11.5-8.28.5-5.3-.99-5.46-1.16-6.79-2.81-6.62-2.81-8.28,2.32-8.28,2.32l-5.79-.5-2.65-.83-6.95,3.81-8.77,3.48-12.58,1.16-7.61-.66-9.43-3.48-11.92,2.48-15.06,2.98-13.41.99-10.26-.66-8.61-1.82-17.54,3.97-16.39.99-15.06-2.48-6.12-1.49-6.95,1.82-6.29-2.98-2.98,2.81-5.96,2.48-2.81.17s-6.29-3.48-6.45-3.48-5.13-.33-5.13-.33l-4.47-4.47v-4.3c-.17,0,2.81-2.32,2.81-2.32l4.3-1.49,2.15-6.62,3.81-3.48h5.13l3.48,1.32.5-4.63,3.48-6.95-1.32-1.82-4.47,3.48-4.3.33-2.15-1.66-1.82-1.99-4.47-1.16h.83Z"/>
        </g>
        <g>
          <path class="cls-1" d="M353.36,155.46c1.32,0,2.81-.17,4.14-.66.83-.33,1.66-.66,2.32-.99,1.49-.33,2.98-.83,4.3-1.49,1.82,1.32,3.81,2.15,5.79,2.65,3.97,1.49,8.11,1.82,12.25,1.32,4.14-.66,8.11-2.32,11.59-4.63.17.17.5.33.83.33s.83-.33,1.16-.66h3.81c.66,0,1.49,0,2.15-.17h.17c.83.66,1.82,1.32,2.81,1.82,2.48.83,5.3.33,7.61-1.16.66-.33,1.32-.83,1.82-1.32,0,0,.17.17.33.17.83.33,1.49.5,2.32.5.99,0,1.82.17,2.81.17h1.82s.33,0,.33-.33h.5c.33,0,.66,0,.99-.17.5-.17.99-.5,1.49-.99,0,0,0-.17.17-.33,0,0,0-.33.17-.5v-.83s0,.33.33.33c.66.66,1.32.99,2.15,1.16.5.17.83.33,1.32.5.33.33.66.5,1.16.33.33,0,.66,0,.99-.17.33,0,.83,0,1.16-.17h3.14c.5,0,.66,0,1.16.17.5,0,.83.33,1.32.5s.99.33,1.66.5c.17.17.33.5.66.5,2.98.83,6.29.66,9.27-.33.83-.33,1.66-.66,2.48-.99.33,0,.5-.5.5-.66v-.83c.33-.17.66-.33.99-.5,0,.33,0,.66.33.83.66.66,1.49.83,2.32.99.66,0,1.49,0,2.15-.33h1.32c.5,0,.99.17,1.66.33.66,0,1.32.17,1.99.17,1.16,0,2.48,0,3.64-.33.66,0,1.16-.33,1.82-.66.33,0,.5-.33.66-.5,0-.33.17-.66,0-.99l-2.65-1.66c0-.33-.33-.66-.5-.66-.33,0-.66-.33-.99,0-.83.33-1.82.66-2.81.83h-2.81c-.83,0-1.82-.33-2.65-.5h-1.32c-.5,0-.83,0-1.32.17h-1.16s-.17-.17-.33-.33c.33-.17.66-.33.83-.66.33-.33.5-1.16.17-1.49-.33-.5-.83-.66-1.32-.5-.83,0-1.66.5-2.32.99-.33.33-.66.5-.99.83,0,0-.33.17-.5.33l-.17.17c-.17.17-.5.33-.66.5,0,0-.17,0-.33.17h-.33c-.17,0-.33,0-.5.17-.5.17-.99.33-1.49.5-.99.33-1.82.33-2.65.5h-2.32c-.5,0-.99-.17-1.32-.33-.17,0-.5,0-.66-.17h-.5c-.66-.33-1.16-.5-1.82-.83,0-.66-.5-1.16-1.16-1.16-1.32,0-2.81,0-4.14-.33-.66,0-1.32-.17-1.99-.33-.17,0-.5-.33-.66-.33-.33-.33-.66-.66-.99-.99-.83-.99-1.32-2.15-2.15-3.14-.83-.99-1.99-1.82-3.14-2.32-.83-.17-1.66-.33-2.32,0-.66.17-.99.83-.83,1.49s.83.99,1.49.83h.66c.17,0,.33,0,.66.17.33,0,.66.33.83.5.33.33.66.66.99.99l1.49,1.99c-.33,0-.66.33-.83.66-.17.5,0,1.32.5,1.49,0,0-.17,0-.33.17-.33.33-.33.66-.33,1.16,0-.33-.33-.5-.5-.66-.33,0-.66-.17-.99,0-.33,0-.66.33-.66.5v.66c-.33,0-.66.17-.83.17h-3.97c-.33,0-.5,0-.83-.17,0-.33-.5-.5-.66-.5h-.66c-.33-.5-.99-.66-1.49-.33-.5.33-1.16.83-1.82.99h-.17c-.17,0-.33,0-.5.17-.33,0-.66.17-.99.33-.33,0-.66,0-.99.17h-3.64c-.33,0-.83-.17-1.16-.33-.17,0-.5,0-.66-.17,0,0,0-.17-.17-.33,0,0-.17-.17-.33-.17-.33,0-.5-.17-.83-.17h-.33c-.17,0-.33.17-.5.33-.5-.33-.99-.5-1.49-.66-.24,0-.53,0-.77.08.74-.81,1.36-1.66,1.76-2.73.66-1.66.5-3.64-1.16-4.8-.66-.33-1.32,0-1.66.5-1.49,2.15-2.81,4.3-4.47,6.29,0,.17-.33.33-.5.5-.66.33-1.32.83-1.82,1.16-.99.5-1.82.99-2.81,1.49-.5.17-.99.5-1.49.66h-.5c-.33,0-.5.17-.83.33-.99.33-1.99.66-2.98.83-.5,0-.99.17-1.49.33h-5.3c-1.66-.66-3.31-1.32-4.97-1.99l-.99-.99c.33-.33.66-.66.99-.83.33-.33.5-.99.17-1.32.5-.33.83-1.16.5-1.66-.33-.66-1.16-.83-1.66-.5-2.98,1.49-5.79,2.65-8.94,3.81-.99.17-1.99.17-3.14.17h-2.98c0-.83-.83-1.49-1.66-1.16-1.82.5-3.48.99-5.3,1.49-4.3.66-8.61,1.82-12.74,3.14-.5,0-1.16.17-1.66.33-4.14.66-8.44.99-12.74.99-3.64-.66-7.28-1.49-10.92-2.15-2.15-.5-4.3-.83-6.62-1.32-2.15-.5-4.3-.99-6.45-.99-1.16,0-2.32.33-3.48.99-.5,0-.83,0-1.32.17-2.33,0-4.55.12-6.75.92-.12.01-.24.02-.35.04-.08.02-.16.03-.24.05l.39-.02c-.39.15-.78.31-1.17.5-.5.33-1.16.5-1.66.99,0,0-.33.17-.33.33-.02,0-.04,0-.07,0-.13-.07-.26-.15-.4-.19-.24-.07-.47-.07-.71-.08-.5-.02-1.01.02-1.51,0-.61-.02-1.12-.32-1.72-.36-.57-.03-1.16,0-1.73,0-.57,0-1.04-.13-1.59-.18-.5-.05-1.04,0-1.54,0-1.31,0-2.63,0-3.94,0-.33,0-.63-.05-.94-.11l7.57-.41h-7.46c-.88,0-1.78.04-2.67.02-.53-.14-.99-.32-1.5-.55-.43-.19-.75-.17-1.22-.16-1.03,0-2.06,0-3.09,0-1.22,0-2.55-.12-3.79.04-.47-.09-.95-.19-1.41-.25-1.07-.14-2.14-.32-3.21-.44-.68-.08-1.27-.03-1.94-.17-.54-.11-1.13-.04-1.68-.04-1.14,0-2.22-.07-3.32.22-.54.14-1.05.16-1.59.34-.55.19-1.08.42-1.63.6-1.08.35-2.2.32-3.28.69-1.01.35-1.99.68-3.01.95-.64.17-1.42.28-2.07.3-.63.02-1.07.13-1.67.3-.55.15-1.04.2-1.6.21-.64,0-1.09.34-1.73.35-.57.01-1.15-.06-1.71.03-.48.08-.89.14-1.39.13-.26,0-1.03-.08-1.71-.06-.22-.17-.5-.24-.78-.24,0-.17,0-.5-.33-.66-.5-.5-1.32-.5-1.82,0-.17.17-.5.5-.66.66,0,0-.17,0-.33.17-4.63.66-9.27,1.16-14.07,1.66-1.82,0-3.48.17-5.3.33h-2.32c-3.64-.17-7.45-.5-11.09-1.16-3.64-.5-7.45-1.16-10.92-.17-2.15.5-4.14,1.66-5.63,3.31,0,0-.33.17-.5.33-.5.33-.99.5-1.49.83h-.33c-.33,0-.5.17-.83.33-1.16.33-2.15.66-3.31.99-.5,0-1.16.17-1.66.33h-4.97c-.33,0-.83-.17-1.16-.33h-.33c-.38-.13-.86-.15-1.22,0-.52-.08-1.05-.07-1.6-.05-.76-.17-1.49-.39-2.15-.61-.5-.17-1.16-.33-1.66-.66h-.33c-.33,0-.5-.17-.83-.33-.5-.33-.99-.5-1.49-.83-.5-.33-1.32,0-1.66.5-.29.58-.07,1.17.33,1.52-.07.4.03.82.33,1.12,1.49,1.32,3.31,2.15,5.46,2.32.99,0,1.82,0,2.81-.17h.27c.32.05.64.09.96.13.3.17.66.4.92.53.5.33.99.5,1.66.83,1.66,1.16,3.81,1.66,5.79,1.82,1.49,0,2.98-.17,4.3-.5,1.16-.33,2.15-.66,3.31-1.32.5-.83.99-1.49,1.66-2.15l-.66.33c.2-.6.47-1.19.79-1.72,1.57,1.48,3.3,2.83,5.5,3.38,1.49.33,2.98.17,4.47,0,.95-.24,1.9-.65,2.85-1.04.7-.1,1.46-.35,2.12-.62h.66c.66.17,1.32.5,1.99.66,1.32.5,2.65.83,3.97,1.16,2.81.66,5.63.99,8.44,1.32,3.14.33,6.29.5,9.43.5.48,0,.96-.35,1.19-.8.08.08.16.16.25.22.18.12.37.12.55.29.12.11.17.25.3.36.61.48,1.66.42,2.39.42.79,0,1.58.09,2.33-.17.75-.27,1.55-.23,2.31-.42.76-.2,1.53-.44,2.23-.79.33-.17.68-.18,1.03-.29.31-.1.58-.19.9-.22.79-.07,1.46-.5,2.2-.74.69-.23,1.39-.39,2.07-.68.64-.27,1.36-.6,2.07-.66.38-.03.66-.05,1.04-.13.35-.07.7.03,1.04-.03.36-.06.67-.28,1.03-.36.33-.07.71-.1,1.03-.2.7-.23,1.35-.73,2.08-.84,1.73-.24,3.39-1.18,5.17-1.2.69,0,1.38,0,2.06,0,.45,0,.63.21,1.03.32.37.1.67,0,1.03.19.73.38,1.31.76,2.13.96.73.17,1.24.67,1.92.96.73.31,1.51.34,2.29.34.34,0,.69.02,1.03,0,.35-.01.66-.16,1-.19,1.4-.13,2.9,0,4.31,0,.25,0,.53.04.78-.03.18-.05.34-.23.52-.29.28-.09.61-.03.91-.03.34,0,.69.02,1.03,0,.38-.02.73-.17,1.12-.19.43-.02.87.02,1.3,0,.44,0,.63-.21,1.03-.32.6-.16,1.37-.03,1.98-.03.71,0,1.5.1,2.2-.04.32-.06.57-.14.91-.13.46.01.55-.07.96-.24.42-.18.8-.04,1.24-.09.36-.04.66-.18,1.03-.19.32,0,.67.06.99-.03.32-.09.61-.26.96-.34.57-.12,1.09-.25,1.63-.39.15-.07.31-.12.4-.18.3-.2.56-.36.9-.48.08.02.17.03.25.05.12-.08.25-.15.38-.22,0,0,0,0,0,0,1.16,0,2.48.17,3.64.17v.5c.17.66.83.99,1.49.83h.66c4.47,0,8.77-1.32,12.58-3.64h2.48c5.63,2.48,11.75,4.97,18.04,4.8,1.66,0,3.31-.33,4.97-.66,5.79-.33,11.59-1.49,17.05-3.64,2.32-.99,4.47-1.99,6.62-3.14.17.17.5.33.83.33h2.15c1.16.33,2.32.5,3.64.66ZM211.23,162.74c-.22-.19-.51-.32-.87-.32h-1.32c1.32,0,2.48-.33,3.64-.66h.27c-.63.22-1.21.56-1.72.98ZM220.13,156.29c.5-.33.83-.5,1.49-.5.23,0,.42-.11.56-.27.16-.01.32-.02.46-.02.6,0,1.2,0,1.8,0-.54-.03-.95.17-1.46.3-.32.08-.63.2-.95.29-.26.08-.54.06-.8.13-.23.06-1.19.67-.71.94.24.14,1.15-.43,1.45-.46.56-.05,1.07-.27,1.63-.34.65-.08,1.31-.14,1.95-.3.58-.14,1.18-.28,1.76-.38.48-.08,1.77-.21,2.16.15-.09.38-.65.33-.96.39-.59.12-1.13.36-1.73.44-1.06.15-2.04.4-3.07.72-1,.32-2,.75-2.99,1.13-.17.07-.45.16-.74.27,0,0,0-.01,0-.02.83-.5.5-1.82-.33-2.15,0,0,.33-.17.5-.33ZM229.51,158.22c-.24.08-.51.16-.73.26-.33.14-.44.25-.8.31-.44.07-.81.18-1.23.31-1,.3-2.06.24-2.94.86-.37.26-.72.41-1.17.52-.34.08-.55.24-.87.34-.41.14-.83.19-1.23.38-.14.07-.27.14-.4.22-.08.03-.17.05-.25.09-.23.1-.43.24-.63.38-.71.33-1.43.59-2.14.89.03,0,.05.03.08.05-.19.11-.42.23-.65.36,0,0,0,0,0,0-.14.06-.28.13-.41.2-.03.02-.07.03-.1.05-.13.06-.26.1-.41.14-.15.03-.26.02-.36-.01-.05.03-.11.06-.16.1-.35.03-.73.03-1.02-.06.14-.18.69-.37.91-.49.29-.15.59-.26.88-.42.32-.18.6-.46.92-.62.33-.17.94-.15,1.01-.61-.27-.2-.93-.07-1.26-.07-.38,0-.76,0-1.14,0,1.28-.3,2.51-.66,3.73-1.11.42-.11.77-.41.89-.79.34-.07.69-.13,1.04-.18.4-.05.8-.12,1.2-.21.66-.15,1.3-.22,1.96-.34.54-.09.9-.46,1.4-.62.39-.13.91-.28,1.3-.35.61-.11,1.28-.02,1.9-.03.56,0,1.15-.04,1.62.32-.29.1-.62.06-.93.15ZM280.77,155.68c-.78,0-1.56,0-2.35,0-1.24,0-2.42-.05-3.63-.17-.19.18-.34.4-.45.68-.37.95.35,1.35,1.18,1.56.45.11.99.19,1.34.52.06.06.1.11.13.17l-2.7.13c-.21.46-.78.73-1.24.73-.66,0-1.26.17-1.93.17-.96,0-1.92,0-2.88,0-2.52,0-5.04-.03-7.56,0,.3-.09.61-.19.91-.29l-1.9.09c-.61.21-1.14.56-1.77.76-.79.25-1.72.48-2.54.47-.91,0-1.9-.06-2.76-.38-.32-.12-.61-.3-.9-.47l-3.24.16c-.62-.44.23-1.2.64-1.35.15-.05.28-.09.4-.12-.14-.02-.28-.05-.42-.06-.53-.06-1.05,0-1.58-.04-.38-.03-.74-.09-1.12-.13-.44.21-1.1.15-1.57.15-.69,0-1.38,0-2.07,0-1.25,0-2.51-.02-3.77,0,.03-.04.06-.09.07-.14,0,0,0,0,0,0,.34-.11.68-.25.99-.33.39-.11,2.15-.24,2.2-.74-.64-.39-1.76-.16-2.45-.16-.88,0-1.77,0-2.65,0-1.04,0-2.07-.13-3.1-.18-.75-.04-1.49-.09-2.21-.31.48-.21,1.21-.22,1.74-.3,1.03-.14,2.05-.34,3.09-.44,1.69-.17,3.33-.38,5.03-.34-.52,0-1.02-.17-1.54-.18-.67-.02-1.35,0-2.02,0h-4.53c-1.55,0-3.17.12-4.71-.01-.74-.06-1.43-.32-2.15-.46-.43-.08-.85-.11-1.19-.35,0,0-.02,0-.03,0-.68.19-1.4.26-2.07.47-.32.1-.69.18-1.05.28.07-.25.09-.53.02-.78v-.17c-.03-.11-.07-.18-.12-.26l6.27-.34c-.52.14-1.03.29-1.55.42.43,0,.85,0,1.28,0h3.03c1.28,0,2.55.02,3.81.16.51.06.91.18,1.44.18.51,0,1.02,0,1.54,0h6.3c1.17,0,2.29-.06,3.45-.16.88-.07,1.79-.08,2.69-.08-.13-.26-.2-.53-.09-.85.19-.59,1.11-.56,1.63-.64.36-.06.73-.12,1.09-.19.28-.05.54-.16.81-.24l5.58-.3c.42.08.84.1,1.26.25.58.21,1.16.32,1.74.52,1.17.41,2.33.94,3.42,1.51,1.96,0,4.04.18,5.97-.13.91-.15,1.77-.39,2.71-.39.62,0,1.24.01,1.86,0,.22,0,.76-.11.93.07.48.51-.72.59-.9.66-.46.16-.9.57-1.33.82,0,0,0,0-.01,0,.3,0,.61,0,.91,0,1.24,0,2.53-.06,3.73-.41.29.3.72.43,1.15.22-.19.19-.26.44-.26.71Z"/>
          <path class="cls-1" d="M259.85,78.01c.66.33,1.16,0,1.49-.5.17-.17.33-.5.66-.83.33-.33.66-.66.99-.99.5-.5,1.16-1.16,1.66-1.49.83-.66,1.82-1.32,2.81-1.82h.5c1.66-.33,3.48-.83,4.97-1.82.66,0,1.49-.33,2.15-.5.17,0,.33,0,.5-.17,1.16-.33,2.15-.5,3.31-.83.66,0,1.16-.33,1.82-.33h.83v.33c0,.66.5,1.16,1.32,1.32h1.49c2.48.33,4.97.99,7.28,1.99,1.16.5,2.48,1.16,3.48,1.82l.33.33c1.16,1.16,2.32,2.48,3.31,3.64,0,0,.17.33.33.33.33.5.83.99,1.16,1.49-.33.5-.5,1.16,0,1.66.17,0,.33.33.5.5.5,3.48.99,7.12,1.49,10.59,0,.66.83.99,1.32.83.33,0,.66-.17.83-.5.5,0,.99-.33,1.16-.99.17-.66.33-1.32.33-2.15h.33c1.16,0,1.99-.5,3.14-.99.99-.33,1.99-.66,2.98-.83h.17c2.15,0,4.3,0,6.45-.33h.33c.33,0,.5,0,.83.17.33,0,.66.17.83.33h.17s.33,0,.5.17c.66.33,1.16.66,1.82.99.66.33,1.32,0,1.66-.5.33,0,.66-.17.83-.5h.33c.5,0,.83-.33.99-.66.17-.33.17-.83,0-1.32,0,0,0-.17-.17-.33,0,0,.17-.17.33-.33,1.99-.66,3.97-1.32,5.96-2.15,2.15-.83,4.14-1.49,6.45-1.99,1.32-.33,2.65-.5,3.97-.66h7.78c1.99.33,3.97.83,5.96,1.49.99.5,1.99,1.16,2.98,1.82.17.17.5.33.66.5,0,0,.17.17.33.33.5.33.99.66,1.32,1.16,0,0,.33.33.5.33-.33.33-.5.99-.17,1.49,1.66,2.65,3.31,5.13,5.3,7.45v2.15c-.5,0-.83.33-.99.83v.83s-.33.33-.33.5c0,.5,0,.99.5,1.32,0,0-.17.33-.33.5-.66,0-1.16.5-1.16,1.16v.5c0,.66.5,1.32,1.32,1.32.33,0,.5,0,.83-.33h.17c6.12,1.49,12.58,2.32,18.87,2.48h4.8c.83,0,1.49.17,2.32.33,2.32.33,4.63.66,6.79-.17,1.99-.66,3.81-1.99,5.46-3.14,0,0,0,.17.33.17,1.16.66,2.48.99,3.64,1.32,1.49.99,3.31,1.66,5.13,1.99,1.32.17,2.81.33,4.14.17.83,0,1.66-.17,2.32-.5.83-.33,1.49-.66,1.99-1.16.33-.33.66-.5.99-.83,0,.33.33.66.83.66,3.14.5,6.45,0,9.43-1.16,1.32-.33,2.48-.99,3.48-1.82,0,.33.33.83.83.83.99,0,1.99.33,2.81.33,4.47.66,9.1,1.16,13.57,1.82.66,0,1.49.17,2.15.33.5.33,1.16.83,1.66,1.16.5.33,1.32,0,1.66-.33,0,0,.17-.33.17-.5,2.81.17,5.63.33,8.44,0,.83,0,1.82-.33,2.65-.5h3.48c.99,0,1.49-.99,1.16-1.82.5-.33.66-.66.66-1.16l.5-.17c0-.5-.33-.99-.83-.99l-1.82-.33c-.5,0-.99,0-1.32.5-.17.33-.33.66-.17,1.16,0,0-.33,0-.5.17-.33,0-.66.17-.99.33h-13.9c.66,0,.99-.99.83-1.49-.17-.66-.83-.99-1.49-.83-1.32.33-2.65.5-4.14.66-2.48-.66-5.13-.83-7.61-.99-1.66,0-3.31-.17-4.97-.33.33-.5,0-1.16-.33-1.49-.5-.33-1.16-.33-1.66,0-.5.5-.99.83-1.49,1.32h-.99c-3.14,0-6.45.5-9.6.83-.33-.33-.99-.5-1.49-.17-.17,0-.5.33-.66.5h-2.81c-1.49,0-3.14,0-4.63-.33-1.66-.33-3.14-.66-4.63-.99-.33,0-.83,0-1.16-.17,0-.5,0-.99-.33-1.32-.5-.5-1.16-.66-1.82-.33-.66.17-.99.66-1.49.99,0,0-.33.33-.5.33h-.17s-.17,0-.33.17c-2.48.33-4.8,1.16-7.12,1.66,1.16-.66,2.32-1.32,3.31-2.15.17,0,.5-.33.66-.5.83-.66,1.66-1.32,2.15-2.15.17-.33.17-.66,0-.99,0-.33-.33-.66-.5-.66-.33,0-.66-.17-.99,0-.33,0-.5.33-.66.5-.5,0-.83.17-1.16.66v.17l-.17.17c0,.17-.33.33-.5.5-.66.33-1.16.66-1.82,1.16-.83.5-1.82.99-2.65,1.66h-.33c-.5,0-.99.33-1.49.33-.17-.33-.5-.5-.99-.5h-1.16c-1.16-.99-2.65-1.32-4.14-1.49-1.99-.33-3.97-.66-5.96-1.49-.5-.17-.99-.33-1.49-.5h-.5c-.17,0-.5-.17-.66-.33-.99-.5-1.82-.99-2.65-1.49-.5-.33-.83-.5-1.32-.83-.17,0-.5-.33-.66-.5,0,0-.17,0-.33-.17,0,0-.17,0-.33-.17-.17-.17-.5-.33-.66-.5-.33-.33-.83-.66-1.16-.99-.83-.83-1.66-1.66-2.32-2.48,0,0-.17-.17-.33-.33v-.17s0-.17-.17-.33c-.33-.5-.66-.99-.99-1.49,0-.17-.33-.33-.66-.5-.17,0-.33-.33-.66-.5-.83-1.16-1.66-2.15-2.65-3.14v-.33c-.99-1.49-2.48-2.65-4.14-3.48-1.82-.83-3.97-1.16-5.96-1.32-1.99,0-3.97-.17-5.96-.33-3.31-.5-6.79-.66-10.1-.83-3.81,0-7.78,0-11.42.99-3.64.99-7.12,2.65-10.1,4.97h-.5c-1.49,0-2.65-.33-4.14-.5-1.49-.33-2.98-.66-4.3-1.16-1.49-.5-2.98-.99-4.47-1.66-3.48-4.14-7.78-7.78-12.58-10.43-.83-.5-1.82-.99-2.81-1.32-2.48-1.49-4.97-2.81-7.94-2.81-1.66,0-3.14.33-4.8.66-1.49.33-3.14.66-4.8.99-3.48.5-7.12.83-10.76.66-.5,0-.99.33-1.16.83-.17.5,0,.99.33,1.32.17,0,.5.33.66.5-.83,2.48-1.66,4.97-2.48,7.45-.17.66.17,1.16.66,1.49Z"/>
          <path class="cls-1" d="M137.7,130.64c.99.33,1.99.17,2.81.17h.5v.83c0,.17.33.33.5.5.33.17.66.33.99.5.33,0,.83,0,1.16.17h.83c.33,0,.83,0,1.16-.17h.5c.17,0,.5-.17.66-.33,0,0,.33-.17.33-.33,0,0,.17-.33.17-.5.99-.5,1.99-.99,2.65-1.82.83-.83,1.32-1.66,1.99-2.65h1.32c0,.33,0,.5.33.66,0,0,.17,0,.33.17.17,0,.33.17.66.17h.33s.17.17.33.17h.33c.17,0,.33.17.5.33.33.5.83.83,1.32,1.16,0,.17.33.5.5.66,0,0,.33,0,.5.17.66.5,1.32,1.16,2.15,1.32.83.33,1.82,0,2.65-.33.66-.33,1.16-.83,1.49-1.32,1.49-.5,2.98-1.16,4.3-1.82,1.82-.83,3.48-1.66,5.46-2.32.83-.33,1.82-.66,2.81-.83.99-.17,1.66-.33,2.65-.33h2.65c.99.17,2.15.5,2.81.83.83.33,1.82,0,1.82-.99,0-2.48,1.32-5.13,2.81-7.12.83-1.16,1.99-2.15,2.98-2.98.99-.99,2.15-1.66,3.31-2.48.5-.33.83-1.16.5-1.66v.5c-.33-.66-.99-.83-1.66-.5-.33,0-.66.33-.83.5,0-.5-.33-.99-.83-1.49v-.17c-.17-.17-.5-.33-.66-.33-.33,0-.66,0-.99.17-.66.33-1.32.83-1.82,1.49s-.99,1.49-1.49,2.15c-.99,1.32-2.32,2.32-3.48,3.31-.99.66-1.82,1.49-2.81,2.15-.83.5-1.66.83-2.48,1.32-2.48,1.16-5.13,2.15-7.94,2.81-2.98.66-5.79,1.16-8.77,1.16-2.32,0-4.63-.17-6.79-.66-.66-.17-1.32-.33-1.99-.5-.5,0-.83-.17-1.32-.33-.33,0-.66,0-.99.17-.83,0-1.49.17-2.15.5-1.16.5-1.99.99-2.81,1.82l-.99.99s-.33.33-.5.5c-.17,0-.33,0-.66.17-1.32.33-2.32.5-3.64.5-.66,0-1.66-.17-2.32-.5h-.17c0-.5-.66-.99-1.16-.99-1.99,0-2.98,2.48-1.99,3.97.5.83,1.32,1.32,2.15,1.49Z"/>
          <path class="cls-1" d="M47.67,209.09c.5-.5.83-.66,1.49-1.16.33-.17.5-.33.83-.5,0,0,.33,0,.5-.17h.33c.33,0,.66-.17.99-.33h3.31c1.49,0,3.14-.33,4.14-1.49.5-.66.83-1.49.99-2.32,0-.5,0-.83.17-1.32v-.83c0-.33,0-.66.17-.99v-.66c.33-.66.5-1.16.99-1.66,0,0,.17-.33.33-.33v-.17c.17-.33.5-.5.66-.83l.66-.66.17-.17s.33-.17.5-.33c.33-.17.5-.33.83-.5,0,0,.33,0,.5-.17h.17c.66-.33,1.32-.5,2.15-.5h3.31c.83.83,1.99,1.32,3.14.99.5-.17.83-.5.83-.99s0-.99-.66-1.16l1.32.17c-.33-.17-.83-.33-1.16-.5-.17-.99-.5-1.82-1.16-2.65,0,0-.17-.17-.33-.33v-.33c0-.66-.5-1.32-1.32-1.32-2.48.17-4.8,1.32-6.95,2.65-1.99,1.16-3.97,2.32-5.63,3.97-.83.83-1.66,1.82-2.32,2.81s-1.16,1.99-1.82,2.98c0,0,0,.17-.17.33-.17.17-.33.5-.66.66-.17.17-.33.33-.66.5,0,0-.17.17-.33.33-.33.17-.66.5-.99.66-.99.33-1.99.5-2.98.83-1.99.5-3.97,1.32-5.79,2.48-.83.5-1.49,1.16-2.32,1.66-.33.17-.66.5-1.16.66h-.99s-.04,0-.03,0h-2.95c-1.16,0-2.32,0-3.31.5-.99.5-1.66.83-2.81.99h-1.49c-.33,0-.66,0-.83-.17-1.99-.5-3.97-1.32-6.12-1.32-1.16,0-2.32.17-3.31.5-1.16.17-1.99.5-2.98.5h-.66c-.33,0-.66,0-.99-.17-.5,0-1.16-.33-1.66-.5-.99-.33-2.15-.83-3.31-.99-1.99-.33-4.3,0-5.79,1.32h-.83c-.5.33-.66.83-.5,1.32,0,0-.17.17-.33.33-.33.66,0,1.32.5,1.66,1.49.99,3.31.99,4.97.83h2.48c.83.17,1.32.5,2.15.83.83.5,1.49.83,2.32,1.16.83.33,1.66.5,2.48.5,1.66.17,3.31,0,4.8-.83.66-.33,1.32-.83,1.99-1.16.33-.17.66-.5.99-.66h1.66c.5.33,1.16.66,1.66.99,1.32.66,2.65,1.16,4.14.66.33,0,.83-.33,1.16-.5,0,0,.33-.17.5-.33h.5s.33.33.5.33c.66.66,1.32,1.32,2.32,1.49.99.33,1.99.33,2.81,0,.33,0,.66,0,.99-.33.33,0,.66,0,.99-.17,1.32-.33,2.48-1.32,3.14-2.48,1.16-.66,2.15-1.32,3.31-1.99.5-.33.83-.99.5-1.66Z"/>
          <path class="cls-1" d="M151.77,214.55h-.66c-2.65-.5-5.13-.66-7.78-.17h-1.66c.66-.33,1.16-.99,1.16-1.82,0-.5-.5-1.16-.99-1.16-.83,0-1.49-.33-2.32-.5v-.17c0-.17-.17-.33-.33-.5-.33-.33-.83-.5-1.32-.5-.66,0-1.16.33-1.82.66h-.17c-.83,0-1.66.17-2.65.33h-.33c-.5-.66-1.66-.66-1.99,0-.33.66-.66,1.32-1.16,1.82-.66.83-1.32,1.49-2.15,2.15-.17,0-.33.33-.5.33-1.82-.17-3.48-.66-5.3-1.32-1.66-.5-2.98-1.16-4.47-1.99-1.49-.66-3.14-1.49-4.97-1.49s-3.14.66-4.47,1.66c-.17.17-.5.33-.66.66,0,0-.33.17-.33.33l-.17.17s-.09,0-.07,0h-.1l-.33.17s-.33,0-.33.17h-3.48c-.5,0-.83,0-1.32-.33-1.66-.33-3.48-.66-5.13-.66-3.48-.17-6.95,0-10.59.17-3.48,0-6.95,0-10.26-.5-3.48-.66-6.95-1.49-10.43-.66-1.66.33-3.14,1.16-4.47,1.82-.66.33-1.32.83-2.15,1.16,0,0-.33,0-.33.17-.33,0-.83.17-1.16.33h-4.3c-.5,0-.83-.17-1.32-.33-.17,0-.5,0-.66-.17h-.33c-.5-.17-.83-.33-1.16-.66.33-.33.33-.99,0-1.32-.33-.5-.83-.66-1.32-.5-.99.33-1.49.99-1.99,1.82-.17.17-.33.33-.5.66,0,0-.17.33-.33.5-1.49,1.49-.5,3.97,1.16,4.8.99.5,2.15.5,3.31.5h.99c.17,0,.5,0,.66.17,0,0,.33,0,.33.17.83.5,1.82.99,2.81,1.16.99.17,2.15,0,3.14-.17.33,0,.5-.17.83-.33h.17c.17,0,.33,0,.66-.17h.33c.33,0,.5-.33.83-.5.33-.33.66-.66,1.16-.99.17-.17.5-.5.66-.66h.33c.33,0,.5-.33.66-.5s.33-.5.5-.66v-.17c.33-.33.66-.66.99-.83.33.83.5,1.49,1.16,2.15.83.66,1.66.83,2.65.83s1.99-.33,2.81-.83c.33-.17.83-.5,1.16-.66.17,0,.5-.17.66-.33h.5c.17,0,.5,0,.66-.17h1.32c.83,0,1.66.33,2.48.66,1.66.66,3.14,1.49,5.13,1.82,2.15.5,4.14,0,6.29-.33.99-.17,1.99-.5,2.81-.66h2.65c1.99.33,3.81,1.32,5.79,1.99,1.66.5,3.64.66,5.46.17.33,0,.66-.33.99-.33h.33c.17,0,.5,0,.66-.33.33,0,.5-.33.66-.5.33-.17.66-.5.99-.83.5-.5.99-.99,1.32-1.49,0,0,.17-.33.33-.33,0-.17.17-.5.33-.66v-.66h1.66c.17,0,.33,0,.66.17h.5c.5.17.83.5,1.32.83.83.66,1.66,1.16,2.65,1.82,3.64,2.15,7.78,1.99,11.75,1.32,1.99-.33,3.97-.66,5.96-1.16,1.32-.33,2.81-.99,3.81-1.99h.99c0,.33.5.66.83.66,1.99.5,4.14.33,5.96-.66.5,0,.99.17,1.49.33.5.17,1.16,0,1.32-.66h.83c.66,0,1.32-.17,1.49-.83,0-.66-.17-1.32-.83-1.49Z"/>
          <path class="cls-1" d="M382.32,245.33h.99s.17,0,.33-.17c0,0,.33-.33.33-.5v-.99c0-.33-.33-.66-.33-.99s-.17-.66-.17-.99v-.17h.33s.17-.17.33-.33v-.5s.17,0,.33-.17h.66c.83-.17,1.49-.33,2.15-.83.17,0,.33-.33.5-.5h.5s.33,0,.5-.17l.33-.33v-1.32c0-.17-.33-.33-.5-.5,0,0-.33,0-.5-.17v-.66c.66-1.32,1.16-2.81,1.16-4.47,0,0,.33-.33.33-.5.5-.5.5-1.32,0-1.82h0c-.5-.5-1.32-.5-1.82,0v.17s-.33,0-.33.33c-.99.66-1.49,1.82-1.99,2.98-.33.99-.66,1.99-.99,2.98,0,.33-.33.66-.5.99l-.99.99c-.5.5-.83.99-1.16,1.49-.33.66-.83,1.16-1.16,1.82-1.32,1.16-2.65,1.99-4.14,2.81h-.17c-.17,0-.33,0-.5.17-.33,0-.66.17-1.16.33-.5.17-.66,0-1.16.17h-.99c-1.49,0-3.14.17-4.63.17h-4.8c-1.49,0-3.31,0-4.63-.33-1.82-.33-3.64-.83-5.3,0-.5.17-.83.33-1.32.66,0,0-.33.17-.5.17h-2.15c-.66,0-1.16,0-1.49.66-.17.5,0,1.32.5,1.49h.33c.66.17,1.16.33,1.82.17,5.13.66,10.26.99,15.56.99,2.81,0,5.63,0,8.44-.17,2.15,0,4.63-.5,6.45-1.66.5-.33.99-.83,1.49-1.32Z"/>
          <path class="cls-1" d="M498.01,241.36c-.33,0-.83-.17-1.16-.33-.5,0-.99,0-1.49-.33-.5-.17-.99-.33-1.49-.66h-.99v-.17c0-.17-.17-.33-.33-.5,0,0-.17,0-.33-.17-.33,0-.5-.17-.83,0-.33,0-.66.17-1.16.33-4.3.17-8.61.33-12.91.5-5.79-1.16-11.59-.99-17.54-.5-2.98.33-5.96.5-8.94.83l-4.47.5c-.66,0-1.49,0-2.15.17h-1.99c-1.49-.33-2.98-.83-4.47-1.16-.83-.17-1.49-.33-2.32-.33-1.66-.5-3.31-.66-4.97-1.16-.5,0-.83-.33-1.32-.5h-.5c-.33,0-.5-.33-.83-.33-.33-.17-.83-.5-1.16-.66-.5-.33-.66-.5-1.16-.83l-1.99-1.99c-.83-.83-2.15-1.49-3.31-.83-.66.33-.99.99-.99,1.66,0,.33,0,.66.17.99h-.66c-.66,0-1.32.66-1.32,1.32s.5,1.16,1.32,1.32c1.49,0,3.14.5,4.47,1.16,0,0,.33,0,.33.17.33.33.66.5.99.83l.17.17v.33c-.5.66.17,1.99.99,1.82,1.99-.17,4.14-.17,6.12,0,.5,0,.83.17,1.32.33v.17c.33.66.5,1.32.83,1.99-.5-.33-1.16-.17-1.49.17-.17.17-.33.5-.5.83h-3.48c.66-.33.83-1.16.5-1.66-.33-.66-.99-.83-1.66-.5-1.99.99-3.97,1.82-5.79,2.81-.83-.17-1.49-.17-2.32,0-.33,0-.66,0-.99.17h-4.97c-2.81.17-5.46,1.16-8.11,1.49h-4.97c-.66,0-1.32-.33-1.99-.33-1.49,0-2.98.17-4.47.5-.5,0-.99,0-1.32.17-.99,0-1.99,0-2.98.33h-4.14c-1.66,0-3.48,0-5.13.33-.83,0-1.66.5-2.32.99h-.33c-.66-.33-1.32-.17-1.66.5-.33.5-.17,1.49.5,1.66.17,0,.5.17.66.33,0,.33.5.66.83.66,2.15.66,4.47.33,6.62-.33.33,0,.5,0,.83-.17.99-.33,1.99-.5,2.98-.83,1.32.17,2.65,0,3.97-.17.33,0,.83,0,1.16-.17h2.48c.5,0,1.16-.33,1.66-.5h1.82c.33,0,.66,0,.83.17.5,0,1.16.33,1.66.5,1.16.33,2.32.5,3.64.33h1.82c.33,0,.66-.33.99-.5.17,0,.5-.17.66-.33.17,0,.33-.17.66-.33.17,0,.33,0,.5-.17h.66s.17,0,.33-.17c.33,0,.5,0,.83-.17h.99c.33,0,.83.17,1.16.33,0,.33.33.83.66.99.33.17.83.17,1.32,0h.17c.83.33,1.66.5,2.48.17.83-.17,1.49-.66,2.15-.99,1.16-.5,2.65-.83,3.97-.83.83,0,1.32,0,1.99.17.83.17,1.66.5,2.32.5.83,0,1.66-.5,2.15-1.32h2.98c.83.17,1.99.17,2.81,0,.66,0,1.32-.5,1.32-1.32,0-.66-.5-1.16-1.32-1.32h-2.65c0-.17.33-.5.33-.66v-.5s.33.17.5.17c.5,0,.99-.17,1.16-.66,2.48,1.16,5.13,1.32,7.78.33.5-.17.99-.33,1.32-.5.17,0,.5,0,.66-.17h1.16c.33,0,.5,0,.83.17,1.66,1.32,3.64,1.82,5.63,1.99,2.32,0,4.63-.66,6.79-1.49.5,0,.83-.33,1.32-.5h4.47c0,.17.33.33.66.5,3.64,1.32,7.78.66,10.76-1.66,0,0,.17,0,.33-.17.33-.17.33-.5.33-.83h.83c.5.17,1.16.33,1.66.5.83.17,1.66.33,2.48.33,1.32,0,2.65-.17,3.97-.5,1.16-.99,2.65-1.66,4.63-1.66l.66.17h1.16c.5,0,.83.17,1.32.33h.5c.66,0,1.16-.33,1.82-.33.33-.33.83-.5,1.32-.66v-.33h-.83Z"/>
          <path class="cls-1" d="M302.22,133.62v.66c0,.33.17.5.5.66.33.33.99.33,1.32,0h1.66c.33,0,.83.33,1.16.33.17,0,.33,0,.5.17,0,0,.17,0,.33.17.66.5,1.16.99,1.49,1.66.33.5.83,1.16.99,1.66.17.33.33.66.66.99.33.33.99.66,1.66.66.33,0,.66,0,.83-.33q.17-.33.33-.5c1.82.66,3.81.99,5.79,1.16h1.66c.66,0,1.32-.66,1.32-1.32s-.5-1.16-1.32-1.32l-.5-.66c-1.16,0-2.15,0-3.31-.17h-1.32c-.5,0-.99-.33-1.49-.5h-.66s-.33,0-.33-.17c-.17,0-.5-.17-.66-.33,0,0-.17,0-.33-.17-.83-.66-1.49-1.32-2.32-1.99-.5-.33-.99-.66-1.49-.99-.83-.5-1.66-.83-2.48-.99v-1.99c0-.5,0-1.16-.33-1.66-.33-.99-.99-1.99-1.66-2.81-1.66-1.82-3.97-2.65-6.29-2.81-2.48-.33-4.8,0-7.28,0h-1.66c-.33,0-.5,0-.83-.17h-.5c-.99-.5-1.99-1.16-2.98-1.66-1.16-.5-2.48-.83-3.81-.83h-1.99c-.33,0-.66,0-.83.17h-.66s-.09,0-.07,0h-.1c-.17-.17-.33-.33-.5-.66v-.17s0-.17-.17-.33c-.17-.33-.33-.5-.5-.83-.66-.99-1.16-1.99-1.66-2.81-1.32-1.99-3.14-3.64-5.63-3.81-.5,0-1.16,0-1.66.17-.66.17-.99.83-.83,1.49s.83.99,1.49.83h.83c.17,0,.5,0,.66.17h.5c.17,0,.5.33.66.5,0,0,.17.17.33.33.33.33.66.83.99.99.66.99,1.16,1.99,1.82,2.81.17.33.33.66.66.99,0,0-.33.17-.33.33v.99c0,.5.33,1.16.5,1.66v.5s0,.17.17.33c0,0,.17,0,.33.17h1.66c.33,0,.66,0,.99-.17h.17s.33,0,.33-.33c0,0,.17-.17.33-.33v-.5c.33,0,.66,0,.99-.17h2.48v.33c0,.33.33.66.5.66.33.17.83.5,1.16.83.66.5,1.16.99,1.66,1.66,0,0,0-.06-.04-.14.11.1.27.2.37.3.17.17.33.33.66.33h1.82c.66-.33,1.32-.5,1.99-.66.33,0,.5-.33.66-.5,1.82,0,3.64-.17,5.46,0h1.66c0,.33.33.5.5.66,0,0,.17.17.33.33.99.66,1.82,1.49,2.65,2.48.33.5.66.99.83,1.49,0,.5.33.83.33,1.32v.99c0,.33,0,.5-.17.83Z"/>
          <path class="cls-1" d="M344.26,129.64c-1.49-3.48-5.13-5.63-8.61-6.45-1.99-.5-4.14-.66-6.29-.5-1.32-3.81-4.63-6.79-8.61-7.45-.66,0-1.32.17-1.49.83,0,.66.17,1.32.83,1.49.5,0,.99.17,1.49.33h.5c.17,0,.33,0,.5.33.5.17.83.5,1.32.83l.17.17c.17,0,.33.33.5.5.33.33.66.66.99.99,0,0,0,.17.17.33,0,.17.33.33.33.66.17.33.5.83.66,1.16v.5c0,.17,0,.5.17.83,0,.5.66.99,1.16.99h5.63c.99.17,1.82.5,2.81.83h.17c.17,0,.33.17.5.33.33.17.66.33,1.16.66,0,0,.33.17.5.33,0,0,.17,0,.33.17.33.33.66.5.99.83.33.33.5.5.66.83v.17c0,.17.33.33.33.66,0,0,0,.33.17.5v.33c0,.33.33.66.33,1.16v2.98c0,.17,0,.33-.17.5v.33c-.17.33-.33.66-.66.99,0,0,0,.17-.17.33,0,0-.33.33-.5.5-.33.33-.33.66-.33.99s.33.66.66.83l.17.17v.33c0,.17,0,.33.17.66v1.32s0,.17-.17.33c-.33.5,0,1.32.5,1.66.66.33,1.32,0,1.66-.5.66-.99.83-2.32.66-3.48,0-.66-.5-1.32-.83-1.82l.66.5c1.99-2.48,2.15-6.12.99-8.94Z"/>
          <path class="cls-1" d="M276.86,150.98c.45-.09.78-.14,1.24-.13,1.33,0,2.68.09,4.01,0,.65-.04,1.36-.21,2.02-.35l-9.36.51h.06c.66,0,1.39.09,2.04-.04Z"/>
          <path class="cls-1" d="M226.51,153.95c-.27,0-1.07-.16-1.24.06.09.14.19.24.3.32.49-.14.99-.26,1.48-.38-.18,0-.36,0-.54,0Z"/>
          <path class="cls-1" d="M215.15,163.49s.07.03.11.05c.14-.08.27-.16.41-.24.42-.24.83-.27,1.26-.46.06-.03.12-.05.19-.08-.56-.18-1.56.52-1.96.73Z"/>
          <path class="cls-1" d="M255.38,159.49l-.95.05c.34.02.68.02.95-.05Z"/>
          <path class="cls-1" d="M272.63,157.22c-.76-.03-1.68-.1-2.43.02-.32.05-.59.24-.89.34-.17.06-.36.11-.56.16-.91-.01-1.8-.03-2.68.24-.67-.02-1.34-.06-1.98-.06-.74,0-1.49.03-2.23,0-.39-.01-.75-.16-1.14-.19-.48-.03-.99,0-1.48,0-1.17,0-2.35-.01-3.52,0-1.31.02-2.44-.67-3.67-1-.13-.03-.25-.05-.38-.07-.06.6-.68.85-1.09,1.21-.38.33-.68.37-1.06.47,1.21.17,2.4.48,3.61.68.13.02.26.04.39.06.29.02.56.03.79.03-.2,0-.4,0-.59,0,.28.05.57.1.85.14.38.05.78-.04,1.14.07-.08.07-.21.12-.34.15l4.32-.21c.17-.06.34-.11.52-.14.94-.15,1.88-.25,2.83-.34-.03,0-.06.02-.09.02-.45.07-.91.22-1.36.37l12.7-.61c.06-.13.1-.28.08-.45-.07-.72-1.2-.88-1.74-.91Z"/>
          <path class="cls-1" d="M253.5,159.47c-.59,0-1.11-.01-1.67-.21.28-.15.67-.18,1.08-.18-.23-.03-.47-.06-.7-.12-.34-.09-1.68-.45-1.92-.1.25.42.68.42,1.08.61.12.06.24.13.36.2l2.7-.13c-.36-.02-.71-.06-.93-.06Z"/>
          <path class="cls-1" d="M253.72,159.12c-.06-.01-.13-.02-.19-.03-.21-.01-.41-.02-.62-.02.27.03.54.04.81.05Z"/>
          <path class="cls-1" d="M277.29,160.09c-.14.06-.25.14-.27.24.44.36,1.51.46,2.05.5.4.03,1.26.17,1.59-.05-.12-.57-1.32-1.17-1.79-1.3-.01,0-.02,0-.03,0-.31.19-.63.38-.98.46-.2.05-.38.1-.57.14Z"/>
          <path class="cls-1" d="M272.54,155.72c-.35-.11-.78-.14-1.17-.26-.43-.13-.79-.13-1.24-.12-.14,0-.29,0-.43,0,.84.31,2.08.91,2.85.38Z"/>
          <path class="cls-1" d="M270.49,155.15c1.18.32,2.43.17,3.64.31.23.03.44.03.66.05.13-.13.27-.24.45-.35-1.58,0-3.17.03-4.75-.01Z"/>
          <path class="cls-1" d="M246.12,158.08c.1,0,.2.02.29.03.03-.01.06-.02.09-.03-.13,0-.25,0-.38,0Z"/>
          <path class="cls-1" d="M246.69,155.16c-.67,0-1.35-.04-2.01-.01-.28.01-.56,0-.79.19.15.51,3.37.07,3.95.21.31.07.56.24.83.4.35.2.73.3,1.1.43.61.21,1.27.2,1.9.31,0-.03.01-.05.01-.08,0-.28-.15-.63-.27-.87-.09-.18-.17-.38-.25-.57-.31,0-.62.01-.93.01-1.18,0-2.37,0-3.55,0Z"/>
          <path class="cls-1" d="M244.45,158.09c.56,0,1.11,0,1.67,0,0,0-.01,0-.02,0-.55-.02-1.1,0-1.65,0Z"/>
          <path class="cls-1" d="M251.17,155.15c1.95-.03,3.9-.16,5.85-.16h5.59c.77,0,1.54-.02,2.3,0,.45.01.87.17,1.32.18.42.01.85-.06,1.27-.02.42.04.76.19,1.19.18.34,0,.67,0,1.01,0-.09-.03-.19-.07-.27-.09-.97-.3-2.02-.38-2.93-.87-.16-.09-.33-.16-.49-.24-.04,0-.08,0-.12,0h-11.59c-1.23,0-2.48-.05-3.73-.06.13.27.33.53.46.79.05.09.09.19.13.29Z"/>
          <g>
            <path class="cls-1" d="M219.66,157.26c.96-.01,1.87.32,2.82.35.87.03,1.76,0,2.63,0h2.27c.31,0,.63,0,.94,0,.49,0,.91-.13,1.39-.16-.09-.41-.74-.5-1.08-.57-.71-.15-1.38-.41-2.09-.57-1.42-.31-2.78-.99-4.27-.94,1.58,0,3.16,0,4.74,0,.8,0,3.43.41,3.81-.69-.49-.81-1.9-.52-2.68-.52h-2.51c2.06,0,4.2.15,6.25-.03.91-.08,1.8-.25,2.71-.31.73-.05,1.39-.35,2.11-.48.62-.11,1.21-.33,1.83-.43s1.2-.29,1.82-.43c.87-.19,1.78-.2,2.66-.39s1.85-.22,2.76-.3c1.72-.15,3.5-.04,5.23-.04,1.55,0,3.11,0,4.66,0,1.1,0,2.14-.17,3.23-.17,1.67,0,3.34,0,5.01,0,.67,0,1.27.19,1.93.17.8-.02,1.49.45,2.27.69.33.1.67.25,1.01.31.4.07.74,0,1.12.19.72.36,1.35,1.02,2.2,1.06,1.44.05,2.89,0,4.33,0,.48,0,1.03-.07,1.5.03.18.04.36.14.54.19.35.09.7.05,1.05.13.49.11.87.38.54.86-.2.3-.7.57-.99.78-.86.62-2.3.7-3.31.86-.67.11-1.31.04-1.99.07-.23.01-1.29.09-1.43.25.49.62,1.39.77,2.1.97.96.28,1.91.68,2.86,1.01.83.29,1.79.51,2.65.68.55.11,1.77.47,2.25.1.18-.14.24-.43.4-.59.19-.19.45-.29.68-.42.47-.28.83-.62,1.26-.95.55-.41,1.2-.8,1.8-1.12.33-.18.62-.38.94-.57.25-.16.54-.18.79-.32-.37.18-.63.51-.97.74-.27.18-.6.29-.9.42s-.62.25-.91.42c-.32.19-.55.49-.85.68-.61.4-1.37.33-2.04.46-.72.14-1.32.66-2.02.82-.2.04-.45,0-.66.06-.17.05-.35.2-.51.27-.25.11-.51.16-.78.21-.75.15-1.4.51-2.07.87-.53.28-1.24.55-1.81.69-.64.16-1.32.07-1.94.25-.3.09-.58.24-.9.27-.36.04-.73-.06-1.09,0-.69.13-1.3.16-2.01.16h-8.63c-.66,0-1.32,0-1.98,0-.33,0-.7.04-1.03,0-.36-.04-.66-.18-1.03-.19-.35,0-.74.07-1.07-.02-.52-.14-1-.49-1.52-.67-.93-.32-2.15-.53-3.14-.51-.42,0-.84.01-1.26,0-.51,0-.83-.28-1.32-.34-.32-.04-.57-.11-.88-.17-.33-.06-.98.12-1.03-.37.29-.32.97-.16,1.35-.16.35,0,.71,0,1.06,0h3.08c.74,0,1.39,0,2.1.13.83.16,1.8.03,2.64.04.92,0,1.79-.18,2.71-.17s1.86,0,2.79,0c.64,0,1.13-.28,1.75-.35.5-.06,1.56.27,1.81-.34-.67-.44-1.99-.33-2.75-.35-1.25-.03-2.5,0-3.74,0h-5.89c-1.9,0-3.8,0-5.71,0-1.02,0-1.91-.14-2.87-.52-1.08-.42-2.24-.73-3.3-1.21-.66-.29-1.12-.84-1.86-.87-.66-.02-1.32.03-1.98,0,1.48.21,2.89.3,4.35-.1,1.35-.37,2.74-.38,4.12-.63,1.57-.29,3.25-.13,4.85-.13h3.45c4.04,0,8.06.17,12.1.17.65,0,1.39-.11,2.03,0,.36.06.72.26,1.09.35.58.14,1.1.18,1.7.17.35,0,.95-.14,1.21.15-.09.49-.75.65-1.15.8-.67.25-1.38.49-2.07.66-1.32.33-2.78.36-4.13.46-2.37.18-4.62.98-7,1.04-3.14.08-6.3-.01-9.45,0-1.77,0-3.47-.1-5.22-.31-.41-.05-1.78-.07-1.99-.56.29-.34,1.09-.41,1.5-.48.81-.14,1.7-.03,2.52-.03h14.66c1.99,0,4.04.14,6.02-.01.82-.06,1.61-.33,2.43-.34.61,0,1.21,0,1.82,0,.5,0,1.09-.19,1.37.26.34.54.03,1.01-.37,1.37-.65.58-1.25.8-2.05,1.04-.54.16-1,.36-1.58.44,1-.03,1.99.06,2.95-.25.28-.09.44-.23.68-.4.31-.22.6-.28.95-.39.22-.07,1.34-.37,1.29-.61-.37-.14-.78-.12-1.17-.18-.67-.1-1.36-.27-2.02-.42-.81-.19-1.59-.48-2.39-.7-.64-.17-1.55-.1-2.07-.59-.36-.34-.42-.81-.43-1.29-.02-.51.08-.84.35-1.26.12-.19.8-.92.68-1.18-.16-.37-1.95-.16-2.32-.16-.42,0-.87-.03-1.29,0-.46.03-.88.17-1.34.19s-.92-.02-1.38,0c-.5.02-.84.17-1.29.35-1.35.55-2.99.66-4.44.69-2.13.05-4.27,0-6.4,0-2.25,0-4.5,0-6.75,0-.38,0-.84-.09-1.17.11-.23.14-.34.4-.55.58-.19.17-.42.32-.62.48-.71.57-1.71.72-2.58.94s-1.73.48-2.59.69c-.35.09-.67.28-1.03.31-.42.05-.86-.04-1.28-.02-1.03.06-2.08.47-3.09.66-.5.09-1.01-.04-1.51.07-.57.13-.99.32-1.6.31-.99-.01-1.92.14-2.88.39-.59.15-1.11.26-1.69.47-.21.08-.43.12-.63.2-.28.11-.55.38-.83.46-.18.05-.31,0-.49.02-.45.02-.82.18-1.25.32-.46.15-.92.2-1.37.38s-.87.38-1.34.48c-.41.09-1.16.14-1.37.56.23.65,1.98.36,2.53.35.78-.01,1.48-.3,2.26-.36s1.46-.17,2.17-.38c.43-.13.81-.32,1.19-.56.57-.35,1.21-.55,1.78-.9.73-.46,1.41-1.02,2.28-1.23.34-.08.7-.1,1.04-.15.23-.04.9-.28,1.16-.17-1.21,1.17-2.92,1.68-4.32,2.59-.24.17-.48.33-.73.48-.21.09-.43.15-.65.19-.32.14-.71.35-.99.57.03.77,3.2.43,3.84.43,1.36,0,2.84.17,4.19,0,.4-.05.69-.18,1.12-.18.49,0,.71-.19,1.16-.31.33-.09.55-.03.87-.2.34-.18.53-.39.94-.49.65-.15,1.28-.31,1.94-.4.33-.04.64-.18.95-.29.38-.13.83-.11,1.18-.25.13-.09.27-.18.4-.27.25-.07.51-.12.76-.17.27-.07.52-.19.8-.22.8-.11,1.47.07,2.24-.21,1.3-.47,2.85.02,4.1.34.28.07.6.14.86.25.42.17.7.44,1.16.5.4.05.72-.01,1.13.11s.7.22,1.14.22c.54,0,.99.07,1.52.13.67.08,1.35-.02,2.02.07,1.04.14,1.96.33,3.03.28.99-.04,1.95-.15,2.94-.14"/>
            <path class="cls-1" d="M219.66,158.76c.82.03,1.6.25,2.42.32.86.08,1.73.03,2.6.03,1.69-.01,3.36.02,5.04-.16,1.12-.12,1.88-1.18,1.3-2.26-.67-1.25-2.41-1.39-3.64-1.73-1.67-.45-3.34-1.07-5.09-1.1v3c2,0,4,0,6.01.07,1.37.05,3.16-.09,3.84-1.5.32-.66.22-1.26-.23-1.82-.68-.83-1.74-1.02-2.76-1-1.17.02-2.33.05-3.5.05-1.93,0-1.93,2.99,0,3,2.55.01,5.06.12,7.6-.2,2.25-.28,4.41-.79,6.61-1.31,4.82-1.14,9.73-.9,14.65-.9,2.38,0,4.75-.17,7.13-.17,1.16,0,2.29,0,3.43.11,1.03.1,1.83.41,2.81.75.91.31,1.68.36,2.51.85.98.59,1.88.71,3.01.72,1.25.01,2.49-.02,3.74-.04.39,0,2.12.09,2.29.3l-.44-1.06c.24-.41.21-.47-.09-.21l-.25.17c-.29.17-.56.28-.89.37-.72.19-1.52.3-2.26.34-1.15.07-2.52-.14-3.57.47-.84.48-.98,1.67-.3,2.36,1.21,1.23,3.23,1.49,4.8,2.07s3.32,1.11,5.02,1.26c.71.06,1.43,0,2.01-.45.28-.22.41-.6.65-.82-.31.27.65-.32.61-.3,1.47-.99,2.82-2.02,4.45-2.75l-1.51-2.59c-.74.49-1.37.92-2.18,1.28-.74.33-1.25.98-2.04,1.14-1.62.32-3.11.87-4.66,1.42-.86.31-1.66.5-2.49.93s-1.61.69-2.56.79c-.76.08-1.47.34-2.21.39-.93.06-1.85.17-2.78.17-4,.01-8.14.3-12.1-.13-.34-.04-.74.05-1.08-.02-.49-.1-.99-.49-1.47-.67-.88-.31-1.84-.47-2.76-.54s-1.74.02-2.61-.23c-.39-.11-.82-.19-1.23-.24-.21-.04-.42-.06-.63-.07-.54-.04-.37.09.5.39l-.54,2.05c.27-.18,1.77.04,2.09.04.88,0,1.76,0,2.64,0,1.98,0,3.88.28,5.87.11,1.85-.16,3.84.15,5.64-.31,1.38-.35,2.63.15,3.58-1.23.44-.65.14-1.7-.54-2.05-1.81-.94-4.35-.57-6.31-.55-2.75.02-5.5,0-8.26,0-1.27,0-2.54,0-3.8,0s-2.34-.25-3.56-.69c-1.13-.41-2.18-.77-3.22-1.36-1.18-.66-2.4-.51-3.7-.54-1.99-.05-1.85,2.76,0,3,2.86.38,5.59-.3,8.41-.71,2.96-.43,6.09-.16,9.08-.14s6.13.12,9.19.16c1.32.02,2.89-.24,4.17.05.67.15,1.27.39,1.97.45.27.02,1.28-.04,1.3-.02l-.54-2.05c-.07.16-.87.33-1.07.4-.63.21-1.27.4-1.92.51-1.23.21-2.49.19-3.73.33-2.56.3-4.98.96-7.58.99-2.74.03-5.47-.02-8.21-.03-1.27,0-2.53-.05-3.8-.16-.57-.05-1.14-.11-1.71-.17-.14-.02-.31-.06-.45-.05-.39.03-.49-.43.03.26l-.23,1.82c.09-.08.86-.09,1.06-.11.63-.04,1.27.02,1.9.03,1.4.02,2.8,0,4.2,0h9.21c2.74,0,5.57.29,8.28-.15.63-.1,1.23-.2,1.88-.21.33,0,1.63.21,1.83-.02.32.02.26-.13-.18-.45-.12-.46-.29-.57-.51-.32-.24.04-.58.32-.83.41-.63.23-1.3.43-1.96.56-1.68.31-1.27,2.97.4,2.95.84-.01,1.69,0,2.52-.12s1.3-.45,2-.8c.86-.43,2.21-.44,2.65-1.47.36-.85.14-1.95-.9-2.2-2.26-.55-4.58-.92-6.83-1.5-.19-.05-.25-.15-.13.07-.06-.11-.04-.47-.02-.56.08-.31.39-.54.56-.8.5-.78.71-1.81-.06-2.52-.63-.57-1.54-.59-2.34-.56-1.03.03-2.07.01-3.1.16-1.1.16-2.17-.03-3.24.34-1.18.42-2.29.68-3.56.74-2.88.14-5.77.02-8.66.02-1.29,0-2.57,0-3.86,0-1.05,0-2.42-.25-3.37.31-.41.24-.66.64-1.01.94-.49.42-1,.57-1.61.73-1.24.32-2.47.65-3.7.98-1.06.29-2.2.16-3.3.41-1.24.29-2.44.37-3.68.61-1.35.27-2.72.27-4.07.6-.68.16-1.35.35-2.01.57-.23.08-.46.15-.67.25-.06.03-.94.46-.31.28-.59.17-1.28.18-1.9.36-.69.2-1.35.4-2.03.65-.93.34-2.04.33-2.71,1.16-.42.52-.6,1.21-.23,1.82,1.32,2.17,5.44.9,7.36.59,1.64-.26,3.2-1.06,4.62-1.9.58-.34,1.1-.81,1.75-1.03.26-.09,1.54-.38,1.57-.38l-.66-2.51c-.93.83-2.1,1.29-3.18,1.87-.52.28-1,.7-1.53.93-.58.26-1.13.43-1.67.8s-.86,1.02-.69,1.69c.35,1.36,1.83,1.57,3.01,1.6,1.38.04,2.76-.06,4.14-.01,1.84.06,3.54-.2,5.3-.65.8-.2,1.47-.63,2.28-.81s1.67-.39,2.51-.6c.92-.23,1.79-.68,2.74-.8.89-.11,1.76-.22,2.65-.34.97-.14,1.98.21,2.91.46.71.19,1.32.6,2.03.75,1.75.38,3.61.5,5.4.55.99.03,1.96.26,2.95.31,1.27.07,2.55-.12,3.82-.13,1.93-.01,1.93-3.01,0-3-1.13,0-2.26.17-3.39.15-.87-.01-1.72-.21-2.58-.29-.92-.09-1.85-.08-2.78-.16-.78-.07-1.51-.25-2.28-.34s-1.35-.45-2.09-.66-1.54-.42-2.32-.54c-1.02-.16-1.87-.09-2.87.13-.81.17-1.63.08-2.44.26-.88.2-1.7.54-2.55.77-.77.22-1.53.38-2.32.55-1.44.31-2.66,1.01-4.12,1.23-1.7.25-3.36.06-5.07.12-.51.02-1.02.06-1.53.06-.24,0-.54-.06-.78-.02-.55.1-.01-.46.26.62l-.69,1.69c.52-.36,1.08-.47,1.63-.76.66-.34,1.25-.81,1.91-1.15,1.23-.63,2.41-1.23,3.44-2.16.77-.69.46-2.36-.66-2.51-2.59-.35-4.7,1.24-6.88,2.33-.68.34-1.26.69-2,.85-.8.18-1.62.22-2.43.37-.52.09-1.02.17-1.55.2-.25.02-.55,0-.79.03-.52.09-.29-.4.15.32l-.23,1.82c.13-.15,1.21-.32,1.55-.45.84-.33,1.79-.69,2.68-.84.38-.06.72-.02,1.1-.15.31-.11.55-.3.84-.43.84-.38,1.84-.58,2.73-.77,1.69-.36,3.47-.36,5.17-.61.9-.13,1.75-.49,2.65-.6.99-.12,1.82-.03,2.78-.33,1.68-.53,3.64-.68,5.2-1.52.7-.38,1.19-.93,1.76-1.43-.1.09-.49.11-.14.14.15.01.3.01.45.02.64.01,1.29,0,1.93,0,4.13,0,8.33.24,12.44-.05,1.02-.07,2.07-.19,3.05-.5.4-.12.79-.34,1.2-.44.54-.13,1.09-.02,1.64-.05.93-.05,1.83-.16,2.77-.18.32,0,.64-.05.96-.05.68-.02.57.22.16-.22l-.44-1.06c.01-.6.15-.35-.1-.08-.14.15-.27.33-.38.5-.31.5-.5,1.08-.54,1.67-.09,1.29.37,2.55,1.55,3.18.99.52,2.36.6,3.44.92,1.39.42,2.81.54,4.2.88l-.9-2.2c.4-.31.48-.4.22-.27-.16.05-.31.1-.47.15-.39.13-.78.22-1.15.41-.54.28-.85.52-1.48.59-.56.07-1.14.02-1.7.03l.4,2.95c1.53-.28,3.3-.84,4.41-1.98,1.05-1.08,1.19-2.96-.25-3.81-.6-.36-1.27-.29-1.93-.27-.88.02-1.75-.04-2.63.07-1.88.24-3.66.35-5.55.3-4.02-.09-8.05-.03-12.07-.03-1.84,0-3.67.02-5.51-.02-1.47-.03-3.06.02-4.24.98-.46.37-.6,1.33-.23,1.82.69.9,1.55,1.12,2.64,1.24,1.4.15,2.8.28,4.2.33,3.36.12,6.76.1,10.12.05,3.03-.04,5.91-.92,8.91-1.12,1.59-.11,3.14-.26,4.66-.75,1.11-.36,2.54-.69,3.07-1.85.35-.78.19-1.56-.54-2.05-.97-.66-2.18-.2-3.26-.48-.64-.16-1.21-.41-1.88-.45s-1.41.05-2.12.05c-3.31,0-6.61-.13-9.92-.16-1.63-.02-3.27,0-4.9,0-1.48,0-2.97-.12-4.44.03-3.07.32-6.03,1.23-9.12.82v3c.56.01,1.4-.16,1.93,0,.41.12.77.47,1.15.66,1.03.51,2.17.82,3.25,1.2,2.31.83,4.58.72,7,.72,2.59,0,5.19,0,7.78,0,1.26,0,2.51-.02,3.77-.02.72,0,1.81-.19,2.46.15l-.54-2.05c.6-.29.67-.41.21-.37l-.27-.02c-.36,0-.68,0-1.04.08-.83.16-1.47.26-2.33.27-1.89,0-3.77.2-5.66.21-1.72.01-3.44-.21-5.17-.21-1.32,0-3.33-.39-4.48.37-.74.49-.87,1.27-.54,2.05.4.93,1.22,1,2.09,1.1.99.11,1.85.49,2.86.52s1.88,0,2.83.23c1.04.26,1.91.94,3.01.99,4.29.21,8.64.16,12.96.15,1.07,0,2.13-.11,3.19-.16.84-.04,1.59-.33,2.42-.42,1.97-.23,3.59-1.23,5.45-1.8,1.32-.4,2.83-1.09,4.61-1.41,1.05-.19,1.61-.84,2.5-1.32.39-.21.84-.31,1.23-.52.46-.25.82-.61,1.26-.9,1.65-1.08.23-3.36-1.51-2.59-1.22.54-2.44,1.22-3.52,2.02-.54.4-1.06.77-1.61,1.14-.31.21-.67.44-.86.77-.23.38.17.08-.01,0-.43-.21-1.15-.23-1.62-.33-.81-.18-1.61-.41-2.4-.69-.68-.24-1.35-.52-2.04-.74-.6-.19-1.39-.25-1.85-.71l-.3,2.36c.23-.13,1.42-.03,1.86-.05.96-.03,1.96-.19,2.9-.38,1.56-.32,4.11-1.54,3.75-3.5-.15-.86-.88-1.43-1.71-1.63-.92-.22-1.97-.44-2.92-.42-1.23.02-2.46.05-3.69.05-.48,0-.99.06-1.44-.13-.55-.23-.99-.68-1.56-.89-.88-.31-1.81-.37-2.7-.72-1.1-.43-2.09-.51-3.25-.64-2.31-.25-4.86-.16-7.17,0-5.04.36-10.1-.27-15.11.54-1.36.22-2.68.45-4.03.73s-2.66.74-4,.92c-2.92.41-5.79.34-8.73.32v3c.88,0,1.76.02,2.63,0,.4-.01,1.28-.19,1.5.08l-.23-1.82c.1-.2.2.01-.08-.02-.18-.02-.45.04-.64.04-.49,0-.98-.04-1.47-.06-1.69-.07-3.39-.02-5.07-.01-1.93,0-1.93,2.97,0,3,1.27.02,2.44.52,3.66.84.56.14,1.12.3,1.67.46.24.07.5.16.75.19.48.06.29.28.07-.14l1.3-2.26c-1.68.18-3.35.15-5.04.16-.86,0-1.74.07-2.6-.03-.81-.09-1.59-.29-2.41-.32-1.93-.07-1.93,2.93,0,3h0Z"/>
          </g>
          <g>
            <path class="cls-1" d="M309.86,159.68c-.53,0-1.06,0-1.59,0-.63,0-1.19-.13-1.81-.17-1.17-.08-2.39-.53-3.19-1.38-.4-.43-.84-.62-1.34-.95-.34-.23-.71-.42-.96-.74-.23-.29-.22-.32-.54-.55-.33-.24-.55-.49-.85-.77s-.62-.41-.94-.62c-.55-.35-.64-1.01-1.19-1.38"/>
            <path class="cls-1" d="M309.86,158.18c-1.28,0-2.65.03-3.88-.25s-1.91-1.18-2.93-1.82c-.26-.16-.55-.31-.79-.5-.11-.09-.06-.06-.16-.15-.09-.1-.09-.1,0,0l-.23-.3c-.32-.35-.73-.63-1.07-.96-.28-.26-.57-.5-.9-.7-.11-.07-.22-.12-.32-.19-.06-.03-.21-.18-.1-.06-.06-.07-.24-.38-.35-.53-.26-.36-.55-.62-.91-.89-.65-.49-1.68-.1-2.05.54-.45.77-.11,1.56.54,2.05-.16-.12.14.28.2.36.25.37.5.65.86.91.46.33.84.57,1.25.95.17.15.34.28.52.42.16.12.16.05.09.07.09.1.1.1.02,0-.12-.17-.06-.09.19.24.08.09.15.19.23.28.53.53,1.23.84,1.83,1.26.52.36.93.84,1.48,1.17.59.35,1.26.61,1.93.76,1.5.32,3.06.34,4.58.34,1.93,0,1.93-3,0-3h0Z"/>
          </g>
          <g>
            <path class="cls-1" d="M295.72,150.02c-1.08,0-2.16,0-3.23,0-.58,0-1.1.18-1.68.17-.73-.01-1.15.14-1.8.45-.51.24-1.02.46-1.55.61-.3.08-.61.1-.9.18-.33.09-.58.26-.93.31-.57.08-1.01.2-1.53.41-.32.13-.57.09-.91.1s-.59.11-.91.16c-.26.04-.51,0-.77,0-.43,0-.59.21-.96.32-.47.15-1.14.03-1.63.03-.29,0-.62-.04-.91,0-.27.03-.51.16-.78.19-.58.06-1.23,0-1.81,0-.25,0-.52-.04-.77-.01-.34.03-.53.23-.83.33-.51.16-1.23.03-1.76.03h-3.36c-1.29,0-2.58-.01-3.88,0-.69,0-1.3-.18-1.99-.17-.62,0-1.48.15-2.08-.03,1.12-1.19,2.82-.81,4.16-1.52.4-.21.47-.34.94-.35.34-.01.69-.01,1.03,0,.39.01.71.14,1.09.19.32.04.67,0,.99,0,.69,0,1.38,0,2.07,0,.65,0,1.49-.15,2.12.03.41.12.54.3.98.32.34.01.69,0,1.04,0h5.95c1.36,0,2.79.13,4.13,0,.36-.03.68-.17,1.03-.19.34-.02.71.07,1.04.02.39-.06.65-.31,1.03-.37.32-.05.71.01,1.03.01.93,0,1.81,0,2.73-.13,1.06-.15,2.2-.04,3.27-.04"/>
            <path class="cls-1" d="M295.72,148.52c-1.65,0-3.27.04-4.92.17-1.53.13-2.74.85-4.21,1.2-1.25.3-2.46.76-3.73.89s-2.43.56-3.64.5c-.71-.03-1.31.04-2.01.13-.86.11-1.71-.05-2.57.02-.55.04-1,.35-1.51.41-.8.09-1.71-.05-2.52-.05-1.69,0-3.38,0-5.07,0-.79,0-1.53-.1-2.31-.15-.68-.04-1.41.14-2.08.01l.66,2.51c.88-.81,2.46-.65,3.54-1.14.58-.26.62-.35,1.35-.3.65.05,1.26.19,1.92.19,1.26,0,2.73-.25,3.97-.05.65.1,1.18.38,1.87.39.79.02,1.6,0,2.39,0,1.57,0,3.14-.02,4.71,0s3.16-.05,4.77-.19c.62-.05,1.13.04,1.74-.14.77-.23,1.41-.18,2.23-.2,1.71-.04,3.37-.19,5.08-.17,1.93.02,1.93-2.98,0-3s-3.69.17-5.54.17c-.69,0-1.39-.1-2.07.1s-1.2.21-1.9.3c-3.43.43-7.02.11-10.48.12-1.39,0-2.62-.41-4.04-.36s-2.86-.02-4.3-.14c-.61-.05-1.31-.09-1.9.06s-1.04.52-1.62.67c-1.45.38-2.69.49-3.85,1.56-.8.73-.44,2.29.66,2.51.73.14,1.41.12,2.15.09s1.4.12,2.11.15c1.75.09,3.53,0,5.28,0,1.6,0,3.14.14,4.68-.23.59-.14,1.13-.08,1.75-.08.88,0,1.71-.22,2.59-.2.63.01,1.26.11,1.88-.05.28-.07.54-.26.82-.32.32-.06.72,0,1.06-.05,1.24-.2,2.45-.39,3.67-.76.76-.23,1.55-.4,2.3-.68.6-.23,1.18-.6,1.81-.72,1.7-.33,3.56-.18,5.28-.19,1.93,0,1.93-3,0-3h0Z"/>
          </g>
          <g>
            <path class="cls-1" d="M211.73,155.54c.53,0,1.06.02,1.59,0,.64-.02,1.34-.21,1.96-.37s1.17-.45,1.79-.5c.39-.03.56-.21.91-.32.32-.1.71-.03,1.03-.03.66,0,1.22-.1,1.86-.18s1.37.12,2.02-.03c.6-.14,1.19-.43,1.81-.49.35-.03.63.05.98-.09s.58-.35.96-.4c.57-.09,1.23-.02,1.81-.01.72.01,1.22-.35,1.94-.35.59,0,1.23.07,1.81-.04.32-.06.57-.14.91-.14s.72.05,1.06,0,.56-.29.88-.35c.27-.05.63.01.91.01.65,0,1.29,0,1.94,0,.33,0,.71.05,1.03,0,.27-.03.51-.16.78-.19.66-.07,1.43.17,2.07-.02.4-.12.59-.31,1.03-.32.34,0,.69,0,1.03,0h2.07c.73,0,1.47,0,2.2,0,.69,0,1.7.05,2.07.69"/>
            <path class="cls-1" d="M211.73,157.04c1.81.01,3.29-.29,5.02-.76,1.48-.4,2.98-.61,4.53-.65.84-.02,1.55.06,2.38-.16.76-.2,1.52-.25,2.26-.44.35-.09.65-.3,1-.39.5-.13,1.03,0,1.53-.01.82-.03,1.57-.32,2.39-.33.77-.02,1.5-.13,2.27-.19.35-.03.7.04,1.06,0,.39-.05.69-.23,1.06-.31.73-.15,1.67-.04,2.43-.03.86,0,1.62-.14,2.46-.19s1.55,0,2.41-.2c.71-.17,1.42-.13,2.15-.13.85,0,1.71,0,2.56,0,.5,0,1.54-.2,1.89.25,1.19,1.52,3.3-.62,2.12-2.12-1-1.28-2.79-1.13-4.23-1.13-1.76,0-3.58-.17-5.29.23-.8.19-1.59.03-2.41.15-.96.14-1.88.14-2.87.13-.71,0-1.41-.08-2.09.14-.73.24-1.47.22-2.24.33-.9.12-1.81-.02-2.71.18s-1.82.11-2.76.23c-.81.1-1.52.43-2.34.55-.76.11-1.44.47-2.22.49-1.76.04-3.49.05-5.17.51s-3.36.86-5.19.85c-1.93-.01-1.93,2.99,0,3h0Z"/>
          </g>
          <g>
            <path class="cls-1" d="M209.66,163.13c.25-.32.86-.17,1.21-.17.47,0,.96-.05,1.42-.01.8.06.66.37.31.92-.16.25-.33.59-.55.79s-.56.22-.76.43c.49.28,1.63.2,2.17.04.46-.13.88-.35,1.34-.48.42-.12.85-.27,1.26-.4.75-.25,1.66-.46,2.27-.93.3-.23.59-.45.95-.57.43-.14.94-.08,1.25-.47"/>
            <path class="cls-1" d="M210.72,164.19c-.14.14-.31.22-.49.23.09,0,.18,0,.27,0,.19.01.38.02.57.02.27,0,.54-.02.82-.02.13,0,.27,0,.4.01-.33,0-.49-.25-.49-.74-.39-.29-.49-.6-.31-.91-.04.07-.08.14-.12.2-.1.17-.24.34-.32.52-.16.21-.12.19.12-.07.14-.04.12-.03-.05.03-.35.18-.59.29-.9.54-.73.58-.5,1.96.3,2.36,1.86.93,3.86,0,5.66-.6.92-.31,1.95-.53,2.77-1.08.36-.24.61-.5,1.01-.58.63-.13,1.16-.31,1.62-.78,1.36-1.38-.76-3.5-2.12-2.12.05-.03.1-.05.15-.08-.1.02-.2.04-.3.06-.15.03-.3.05-.45.1-.5.15-.89.43-1.31.72-.58.41-1.21.55-2,.81s-1.61.59-2.43.83c-.14.04-.28.07-.42.1.34-.07-.15,0-.22.01-.17,0-.34,0-.51,0,.37.02-.38-.18.05.03l.3,2.36c-.34.18-.39.22-.15.12.17-.06.33-.13.49-.22.19-.12.38-.27.53-.43.3-.32.52-.72.75-1.09.48-.8.62-1.77-.11-2.48s-1.85-.58-2.78-.57-1.73-.09-2.47.61c-.59.56-.56,1.56,0,2.12s1.53.56,2.12,0h0Z"/>
          </g>
          <g>
            <path class="cls-1" d="M241.39,156.92l.08.21c-.36.42-.84.77-1.37.91-.44.12-.94-.04-1.35.1.37.46,1.21.65,1.74.88.3.13.57.31.9.4.4.11.83.1,1.23.2.58.16,1.01.49,1.53.75.61.3,1.28.51,1.9.79.31.14.6.16.9.27s.53.36.81.5c.57.28,1.29.16,1.9.16h3.35c4.91,0,9.83,0,14.74,0,.34,0,.71.04,1.05-.01s.57-.16.91-.16c.69-.01,1.2-.02,1.85-.22s1.28-.2,1.9-.38c.68-.19,1.18-.27,1.9-.27"/>
            <path class="cls-1" d="M239.94,157.32l.08.21.39-1.46c-.63.66-1.21.47-2.06.63-1.11.21-1.44,1.77-.66,2.51.91.86,2.49,1.5,3.7,1.74,1.43.29,2.71,1.05,4.08,1.59s2.34,1.08,3.82,1.06c1.9-.02,3.8-.01,5.7,0,3.77,0,7.53,0,11.3,0,1.54,0,3.02-.07,4.54-.24s3-.76,4.53-.8c1.93-.04,1.93-3.04,0-3-1.41.03-2.82.4-4.19.7-1.26.27-2.62.34-3.9.34-3.6-.01-7.21,0-10.81,0-1.79,0-3.57,0-5.36,0-.73,0-1.49.08-2.21.02-.66-.05-1.2-.5-1.85-.72-1.24-.41-2.33-1.04-3.52-1.53-1.12-.46-2.78-.4-3.72-1.28l-.66,2.51c.64-.12,1.22-.02,1.84-.29s1.1-.64,1.54-1.11c.35-.36.57-.96.39-1.46l-.08-.21c-.67-1.79-3.57-1.02-2.89.8h0Z"/>
          </g>
          <g>
            <path class="cls-1" d="M299.34,156.4c.32.41.91.69,1.36.95.4.23.7.53,1.08.77.45.28.87.37,1.35.56s.97.44,1.47.65c.89.37,1.76.85,2.67,1.18.39.14.84.15,1.25.2.51.07.99.42,1.51.35"/>
            <path class="cls-1" d="M298.28,157.46c.33.38.77.68,1.21.93.46.26.82.49,1.14.74.87.66,1.96.94,2.95,1.38,1.06.47,2.12,1.02,3.22,1.41.27.1.54.14.82.18.19.03.37.04.56.07.03,0,.26.05.12.02.59.15,1.11.4,1.74.37.81-.04,1.5-.66,1.5-1.5,0-.78-.69-1.54-1.5-1.5-.19,0-.23,0-.11,0-.11-.03-.22-.07-.33-.11-.22-.08-.43-.15-.67-.2-.59-.11-.91-.08-1.43-.27-.88-.33-1.74-.77-2.59-1.16-.9-.41-1.89-.66-2.63-1.19.14.1-.44-.34-.53-.4-.17-.12-.36-.22-.54-.33s-.36-.21-.54-.32c-.15-.1-.17-.12-.06-.04-.07-.07-.14-.14-.2-.21-.53-.61-1.58-.54-2.12,0-.61.61-.53,1.51,0,2.12h0Z"/>
          </g>
        </g>
        <g id="Group_53" data-name="Group 53">
          <path id="Path_7001" data-name="Path 7001" class="cls-2" d="M387.79,251.79h0c1.32,0,2.32-.66,3.14-1.66.17-.17.33-.5.17-.66h0c-.66.33-3.31,1.82-3.48,2.32h.17Z"/>
          <path id="Path_7002" data-name="Path 7002" class="cls-2" d="M492.06,240.2c-.5,0-.83,0-1.32.17,2.65.33,4.97,1.32,7.61,1.66-2.81.17-5.63,0-8.44-.33-.33.99-.99,1.82-1.82,2.15-.5,0-.83.33-1.32.33-1.49,0-2.98,0-4.47-.33-.99-.33-1.82-.66-2.81-.83-1.66-.33-3.31-.5-5.13-.83,1.32.99,3.31,1.32,4.97,1.82-1.99,1.82-4.63,2.81-7.28,2.65-3.14-.17-6.29-1.32-8.94-3.14-.66,0-1.16.17-1.82.5.5.17,1.16.17,1.66,0,.33.33.66.66.83.99-3.31,2.15-7.45,2.81-11.25,2.15-1.66-.5-3.14-1.32-4.47-2.48-2.65,1.66-5.96,2.32-8.94,1.49-.66-.17-1.32-.33-2.15-.66-.83.5-1.49.99-2.15,1.82.33-1.16.33-2.32-.33-3.31-.83-1.16-1.99-2.15-3.48-2.48-1.82-.33-3.64,0-5.3.99,0-1.66-.5-3.14-1.66-4.3-.99-.83-2.32-1.32-3.64-1.16-.83,0-1.66.33-2.48.5.33-1.99,1.32-3.64,2.98-4.8.17-.17.5-.33.83-.17.33,0,.66.33.83.5.99-.83-.99-1.82,2.81-3.48-.33,0-.66,0-.99.33-.66.5-1.32.83-1.82,1.32,0-1.66.5-3.31,1.66-4.47.99-1.16,2.32-1.82,3.81-1.99,2.65,0,5.46,2.32,7.61,3.48-.99-.99-1.99-1.82-3.14-2.48v-.33c.33-1.16.33-2.32.5-3.48.66-3.64,2.98-6.95,6.12-8.94,2.32-1.32,5.13-1.82,7.78-1.16,2.81.83,5.3,2.81,6.62,5.3,1.16,2.15,1.99,4.47,2.48,6.95-.5.5-.99,1.16-1.49,1.82.83-.66,1.66-1.32,2.48-1.82,2.15-1.32,5.3-2.48,7.78-1.99,1.66.33,2.98,1.32,3.97,2.65,1.16,1.49,1.66,3.31,1.32,5.3-.17.83-.83,2.15-.5,2.98.33,0,.66,0,.83-.33.33-.5.5-.99.66-1.49,2.32-.83,4.8-.83,6.95.33,2.15.83,3.81,2.65,4.8,4.63.33.66.5,1.49.17,2.32-.33.66-.99,1.32-.99,1.99,0,.17.5.33.66.33,1.66,0,3.31,0,4.97-.33h0l-.17-.33c-.17,0-.33-.33-.5-.5,0-.22.11-.39.33-.5,1.32-.66,2.81.5,3.81,0h0c0-.17,0,0,0,0v-.33c0-.33-.5-.5-.83-.5h-3.14c-.99,0-1.99-.33-2.98-.5,0-1.82-1.32-3.97-2.48-5.3-1.82-2.15-4.63-3.48-7.45-3.64-.99,0-1.99,0-2.98.33.17-2.65-.66-5.13-2.48-6.95-1.32-1.49-3.31-2.15-5.3-2.15-2.65,0-5.3.99-7.28,2.81-.33-3.81-1.99-7.45-4.97-10.1-2.48-1.99-5.63-2.98-8.94-2.65-3.14.33-5.96,1.99-7.78,4.3-2.15,2.81-3.48,6.12-3.81,9.76-1.66-.83-2.98-1.32-4.97-.66s-3.81,2.32-4.63,4.14c-.5,1.16-.83,2.48-.66,3.81-1.32,0-2.48.83-3.31,1.82-.5.83-.99,1.82-.99,2.81-.83-1.66-2.15-2.81-3.97-3.31-1.82-.5-3.81-.17-5.46.83-.33.17-.66.5-.99.66-.83-.99-1.99-1.66-3.31-1.99-.66-1.82-1.99-3.31-3.64-4.3,0,0-.17,0-.33-.17h-5.13c-1.32.5-2.48,1.16-3.48,2.32-.99-1.99-2.81-3.64-4.97-4.47-2.32-.83-4.97-.83-7.28.33-1.82.83-3.31,2.48-3.97,4.47-.17.66-.5,1.32-.66,2.15-1.99-1.49-4.47-2.15-6.95-1.82-1.66.33-3.14,1.32-4.14,2.65-.83,1.49-1.16,3.31-.66,4.97,0,.66.33,1.16.66,1.82-.99-.5-2.15-.66-3.31-.33-1.32.5-1.82,2.81-2.32,2.98-.66,0-1.49-.17-2.32,0-1.32,0-2.48.83-3.31,1.99h0c-1.32,0-3.14,0-4.14,1.32-.33.33-.5.99-.33,1.49,0,.5.5.99.83,1.32,3.48,2.48,18.04,1.66,22.51,1.32,3.31-.33,6.62-.83,9.93-1.16,0,.83-.17,1.66-.17,2.32-.99-.17-2.15,0-3.14.5-.33.17-.5.66-.66.99,0,.66.17,1.16.66,1.66,1.16,1.16,2.65,1.66,4.3,1.66,2.15,0,4.3-.99,5.79-2.81h0c-.5,0-.83.33-1.16.5-1.82.99-3.31,1.66-5.3,1.32-1.16,0-2.32-.66-2.98-1.49-.17-.33-.33-.66,0-.99.99-1.16,2.48-.33,3.14-.83v-.99c0-.5.33-.99.66-1.32s-.17-.66,0-.99c.17-.5.5-.83.99-.99,1.99-.83,4.8,1.32,6.45,1.99h.17c-.5.33-.99.5-1.49.83l.5.5h.5c.83,0,1.16-.66,1.66-1.16-1.32-.5-2.65-1.49-3.48-2.65-.83-.83-1.16-2.15-1.16-3.31,0-.66.66-1.32,1.16-1.82,1.66-1.16,3.81-.83,5.63-.5-.66-1.49-1.99-2.81-2.48-4.3-.33-1.49,0-3.14.66-4.47.99-1.66,2.48-2.81,4.3-3.14,2.65-.5,5.3.33,7.12,2.32.5.66.99,1.99,1.82,2.48,0-.17.33-.33.5-.33.33,0,.83.17.99.5.99.66,1.66,1.82,1.66,2.98.5-.99,1.32-1.66,2.15-2.32,1.49-.83,3.31-.99,4.97-.5,2.15.66,3.48,2.15,4.47,4.14-.66.66-1.32,1.32-1.82,2.15-.5.83-.83,1.66-.83,2.65.83-.33,1.82-2.15,2.48-2.98.83-.83,1.82-1.32,2.98-1.32,1.32,0,2.48.33,3.48,1.32.66.83.99,1.82.83,2.81,0,.33,0,.66-.5.99h-.33c-.17-.83-.66-1.66-1.16-2.48-.5-.66-1.32-.99-2.15-1.16-1.99,0-3.48.99-4.8,2.32.99-.5,2.15-.83,3.31-.99,4.3-.66,3.31,1.99,4.8,2.98h1.16c1.32,0,2.65.66,3.64,1.66-1.99.83-3.97,1.49-6.12,2.15,1.49,0,5.79-.5,6.79-1.32.17,0,.33-.33.33-.5,0-.5-.17-.99-.5-1.32-.83-.99-1.82-1.49-2.98-1.66h-.33c.66-.33,1.32-.5,2.15-.5,1.66,0,3.64,0,4.97,1.16,1.16.99,1.16,2.48,1.32,3.81-.99.17-2.15.33-3.14.33,1.49.33,2.98.5,4.47.33h0c-.33-.5-.83,0-1.16-.33v-.33c.83,0,1.82-.66,2.48-.83.83.17,1.49.5,2.32.66,3.14.83,5.96-.33,8.61-1.82,1.32.99,2.65,1.82,4.3,2.32,4.14,1.16,8.61,0,12.25-1.99,2.48,1.49,5.3,2.15,8.28,2.15s5.79-1.32,7.78-3.48c2.15.66,5.13,1.16,7.28.5,1.16-.33,1.99-1.16,2.48-2.15v-.5h.33c.66,0,1.16.17,1.66.33,1.49,0,6.95.33,7.78-.99-2.48-.83-5.13-1.32-7.78-1.66h0l-.17-1.16ZM387.62,233.58c-.66,1.82-.66,3.81.17,5.46-.5,0-1.16.33-1.66.5-1.49.5-2.65,1.49-3.31,2.81-.5,1.16-.33,2.32,0,3.31-.5,0-.99,0-1.32.33-.83.33-1.49.83-1.99,1.66-2.81,0-5.46.5-8.28.66-6.29.5-12.58.5-18.87,0-1.16,0-3.64-.17-4.47-1.16v-.5c.33-.33.66-.66,1.16-.83.66,0,1.32,0,1.82.33h.33v-.66q0-.33.33-.5h1.49v-.17c0-.33,0-.83.33-1.16,0-.33.33-.5.66-.5.99,0,1.82.5,2.65,1.16.17-.5.5-.99.66-1.49.33-.99.99-1.66,1.99-1.99.5,0,1.16,0,1.66.33.33.33.83.5,1.32.5.33-.17.5-.5.66-.83.33-1.32-.99-2.98-.5-5.3.33-1.16,1.16-1.99,2.15-2.48,3.64-1.99,5.3.33,8.44,1.32q.33,0,.33-.33c.66-1.32.66-2.65,1.82-4.14,1.16-1.66,3.14-2.65,5.13-2.81,3.48-.33,6.62,1.32,9.1,3.48-.99.99-1.66,2.15-2.15,3.48h0l.33-.5Z"/>
          <path id="Path_7003" data-name="Path 7003" class="cls-2" d="M411.45,236.07c-.83-.33-1.66-.5-2.65-.33-.5.17-.99.5-1.32.83h0c0,.17.33.33.33.33.66-.5,1.49-.83,2.48-.66.99.33,1.99.83,2.81,1.66l1.16,1.16c-.33-1.32-1.16-2.48-2.32-3.14h0l-.5.17Z"/>
          <path id="Path_7004" data-name="Path 7004" class="cls-2" d="M465.74,233.25c-.5.17-1.99.33-2.15.66h0c.99.33,2.15.17,3.14-.33.83-.5,1.32-1.32,1.49-2.32.33-1.49,0-2.98-.66-4.14-.5-.66-1.16-1.16-1.99-1.16h-.66c1.32.5,2.32.66,2.98,1.99.5.99.5,2.32,0,3.31-.33.99-1.16,1.82-2.15,2.15h0v-.17Z"/>
          <path id="Path_7005" data-name="Path 7005" class="cls-2" d="M392.25,233.25c.66-.83,1.66-1.32,2.81-1.49,2.15,0,3.64,1.16,5.13,2.48-.83-1.49-1.82-2.98-3.64-3.31-.66,0-1.32-.17-1.99,0-1.49.33-2.65,1.32-3.31,2.65v5.3c0,.5.33.83.5,1.32-.5-2.15-.66-4.14.66-5.96h0l-.17-.99Z"/>
          <path id="Path_7006" data-name="Path 7006" class="cls-2" d="M445.71,214.22h-1.82c-1.82.17-3.48,1.16-4.63,2.65-.83,1.16-1.32,2.48-1.49,3.97.83-2.15,1.99-3.97,4.3-4.8,1.66-.66,3.48-.66,5.13,0,2.32.99,4.3,2.81,5.46,5.13h0c0-.66-.83-2.32-1.32-2.81-1.16-1.99-3.31-3.48-5.63-4.14h0Z"/>
          <path id="Path_7007" data-name="Path 7007" class="cls-2" d="M477.16,240.2c1.16.17,2.81.5,3.97,0,.33-.33.66-.66.83-1.16,0-1.16-.33-2.32-.99-3.31,0,0,0-.17-.17-.33s0,0-.17-.17l-.17-.17-.17-.17-.17-.17s-.17,0-.33-.17-.17,0-.33-.17-.17,0-.33-.17h-.66c0-.17-.17-.17-.33-.33h-3.14c-1.49,0-2.98.66-3.97,1.82,0,0-.17.33-.17.5h0c.5-.17.99-.5,1.49-.83,1.32-.66,2.98-.83,4.47-.33,1.16.5,2.15.99,3.14,1.82-.99-.33-2.15-.5-3.14-.5h-.33v.5c.99.33,1.99.66,2.98,1.16.5.5,1.32,1.16,1.32,1.82,0,.33,0,.66-.33.83-.66.66-2.32.5-3.14.5h0l-.17-.99Z"/>
          <path id="Path_7008" data-name="Path 7008" class="cls-2" d="M387.62,254.27c1.16.33,2.32-.83,3.14-1.49.5.5,1.16.83,1.82.99,2.48.83,4.97-.33,7.28-1.49.83.83,1.99,1.32,3.14,1.66,3.31.5,6.45-.33,9.27-2.15,1.66,1.32,3.81,2.15,5.96,2.15,2.15-.17,4.14-1.32,5.46-2.98,1.16.66,2.32,1.32,3.64,1.49,2.48.5,5.13,0,7.12-1.49h2.48c1.16,0,2.32-.33,3.14-.99h0c-.5-.33-.99-.33-1.49,0-1.49.17-2.98.17-4.3,0-.5.33-.83.5-1.32.66-3.14,1.49-6.29.33-9.27-.83-.99.99-2.15,1.99-3.48,2.65-2.65,1.16-5.13,0-7.61-.99-1.49.99-3.14,1.66-4.8,1.99-2.65.5-5.3,0-7.45-1.82-3.64.83-4.8,2.15-8.77,1.16,1.16-.5,2.15-1.32,2.98-2.32-1.32.5-2.81,1.16-3.97,1.82-.66.33-1.32.83-2.15,1.16l-2.15-.5c.33.66.83,1.16,1.32,1.32h0Z"/>
          <g id="Group_55" data-name="Group 55">
            <path id="Path_7010" data-name="Path 7010" class="cls-2" d="M142.17,213.56c0-1.49-.83-2.81-1.99-3.81-1.32-.83-2.81-.99-4.14-.66-1.16.17-2.81.99-3.81.66-.17-3.64,0-5.79-3.14-8.44-2.32-2.15-5.3-3.14-8.28-2.98-.5-2.81-1.16-5.63-3.64-7.28-2.15-1.49-4.97-1.99-7.45-1.32-2.32.5-4.63,1.49-6.62,2.98-1.16-4.3-4.14-7.78-8.11-9.76-3.48-1.82-7.45-2.15-11.09-.99-.17,0-.33,0-.66.17h-.66c-.17.33-.33.5-.5.5s-.33.17-.5.33-.33.17-.5.33-.33.17-.5.33c0,0-.33.17-.5.33,0,0-.33.33-.5.33s-.33.33-.5.5-.33.33-.5.5-.33.33-.33.5l-.33.5c0,.17-.17.33-.33.5l-.33.5c0,.17-.17.33-.33.5,0,.17-.17.33-.33.5-.66,1.32-.99,2.65-1.32,4.14-1.49-3.81-3.48-6.62-7.28-8.28-2.48-1.16-5.3-1.32-7.78-.5-1.16.5-2.32,1.32-3.14,2.32-.66-4.47-2.98-9.43-6.79-12.25,0,0-.33-.17-.5-.33,0,0-.33-.17-.5-.33s-.33-.17-.5-.33c-.17,0-.33-.17-.5-.33-.17,0-.33,0-.5-.17s-.33,0-.5-.17h-.5c-.17-.33-.33-.33-.5-.33h-3.97c-4.14.5-7.94,2.65-10.43,5.96-2.98,3.97-3.31,8.28-4.3,12.91-1.99-.5-3.97-.33-5.63.66-2.15,1.16-3.64,2.98-4.3,5.3-.33,1.32-.5,2.65-.33,3.97-2.48,0-5.13.83-6.95,2.65-1.16,1.16-1.82,2.65-2.15,4.3-1.49-.17-3.48-.66-4.8.33-.66.5-3.48,3.97-3.48,4.63,0,.33,0,.83.17,1.16.83,1.16,3.14,1.32,4.47,1.49,1.82,0,3.48,0,5.13-.66,2.81,1.99,5.46,3.14,8.94,2.48,2.32-.33,4.3-1.49,5.96-2.98,1.16,1.32,2.15,2.48,4.14,2.48,1.49,0,2.98-.33,4.47-.83.99,1.32,2.48,2.32,4.14,2.48,1.66,0,3.31-.17,4.63-.83.17,1.66.66,3.31,1.99,4.3.99.66,2.15.99,3.31.66.66,0,1.16-.33,1.82-.5,1.16,1.32,2.81,1.99,4.63,1.99,2.98,0,5.96-1.16,8.11-3.31.5-.66.99-1.32,1.49-1.99,1.16,1.82,2.32,2.98,4.63,3.31,1.16.17,2.48-.17,3.31-.99,1.32-.99,2.48-2.48,4.47-2.32,2.98.33,4.97,3.14,7.94,3.64,4.3.66,6.29-2.32,9.93-2.65,1.99,0,4.14,1.32,5.96,1.99,2.98,1.16,6.95,1.32,9.6-.5,1.16-.83,2.15-1.99,2.65-3.31.99.66,1.99,1.32,2.98,1.82,4.14,1.99,9.6,3.97,14.07,2.48,1.32-.5,2.65-1.32,3.81-2.15.99.33,1.82.5,2.81.5,1.49-.17,3.14-.5,4.63-.99,2.48-.66,5.13-.99,7.78-1.32,3.14-.17,6.29,0,9.43.17-3.48-2.48-10.43-4.3-14.73-3.97h0l-.5-.5ZM41.71,215.05c-4.97,3.81-7.94-1.82-8.44-1.99-1.49-.17-2.65,2.15-4.63,1.82-2.15-.33-3.64-2.48-4.8-4.14-1.32,2.65-2.81,3.64-5.46,4.63-.99.17-1.99.33-2.81.33-1.66,0-4.14-.66-5.3-1.99,0-.5.17-.66.5-1.16-.33-.17-7.28,1.32-9.6-.17-.33-.17-.5-.5-.5-.83.66-.66,1.32-1.49,1.82-2.48h0c2.32-1.16,4.3-.33,5.96-.83h.17c.33,0,.83.5,1.16.66h.17v-.33c-.5-.5-.99-.99-1.49-1.32,0-.33.17-.66.33-.99.83-1.82,2.32-3.14,4.14-3.81,3.31-1.16,6.29,0,9.27,1.16-.99-1.16-2.15-2.15-3.31-2.98-.17-2.15-.33-4.3,1.16-6.12,1.49-1.82,3.64-2.32,5.79-2.65-1.49.83-2.65,1.82-3.81,2.98,1.16-.33,3.48-2.15,5.3-2.81,1.32,1.16,2.48,2.65,3.64,3.97-.5-1.49-1.66-2.98-1.99-4.63-.66-3.64.99-8.44,2.98-11.59,2.15-3.48,5.63-5.96,9.76-6.79,2.81-.33,5.79.17,8.11,1.66,4.8,3.14,5.79,9.6,6.79,14.73.66-.66,1.32-1.16,2.15-1.49,2.15-.83,4.8,0,6.79.83,2.15.99,3.81,2.65,4.63,4.97-2.98-.17-5.96.83-8.11,2.98-2.65,2.48-2.81,5.3-2.81,8.77-.99.33-1.82.66-2.65,1.16h-.17c-.99,0-1.82-.5-2.81-.66-1.66-.17-5.3,1.49-6.29,2.81-.5.66-.66,2.15-1.16,2.81-.5.33-1.16.5-1.66.83-.99.66-1.66,1.66-2.65,2.32h0l-.17.33ZM139.36,216.37c-1.99,1.99-4.97,2.15-7.61,2.15-.99.83-2.15,1.49-3.48,1.99-3.81,1.16-9.43-.83-12.91-2.65-1.49-.83-2.65-1.82-4.14-2.65h0c-.33.66-.5,1.49-.99,2.32-2.15,4.14-7.12,4.3-10.92,2.81-1.82-.66-3.97-2.32-5.96-2.32s-4.3,1.66-6.45,2.32c-3.64.99-5.96-1.16-8.77-2.81-5.13-2.81-5.79,1.16-9.27,2.15-1.16.17-2.32,0-3.14-.5-1.32-.83-1.66-1.99-1.99-3.31v-.66c1.16-.5,2.48-.83,3.64-1.16h0c-2.15-.5-4.14-1.49-6.29-2.15.83.66,1.66,1.32,2.48,1.82l-1.99.99c.33.33.83.5,1.16.83.33.66.33,1.32,0,1.99-.83,1.99-2.32,3.48-4.3,4.14-1.99.83-4.47,1.32-6.45.5-.99-.5-1.82-1.32-2.15-2.32,0-.33-.17-.5-.33-.66,0,.33-.33.66-.5,1.16q0,.33-.17.5c-.66.33-1.49.5-2.15.33-.99,0-1.82-.66-2.32-1.32,0,0,0-.17-.17-.33,0,0,0-.33-.17-.33v-2.81c.17-1.16.83-1.99,1.82-2.65,1.99-1.16,2.81,1.32,4.3,1.82,0-1.32-1.66-2.15-1.32-3.81.33-.99.99-1.82,1.82-2.32,1.99-1.16,4.3-1.49,6.45-.83l-.99.99h1.49c.5,0,.66-.5.99-.83,1.49-1.99,2.65-.5,4.63-.83,0-.66-1.16-1.49-1.49-2.15-.5-.83-.66-1.82-.33-2.81.5-2.48,2.15-4.63,4.3-5.96,3.14-1.99,5.79-1.49,9.27-.83l-3.31-1.32c-.83-2.65-2.65-4.97-5.13-6.29-2.65-1.32-4.97-1.16-7.61-.17h-.17v-.66c.66-1.16,1.66-1.99,2.98-2.32,2.15-.5,5.3.33,7.12,1.32,3.97,2.32,5.3,5.96,6.45,10.1-2.48-.66-5.13-.33-7.45.99-1.16.66-1.99,1.66-2.32,2.81h0c.99-1.32,2.48-2.32,3.97-2.81,1.99-.66,4.14-.5,6.12.5l.5.33c.99.33,1.99-1.49,2.98-1.82,1.49-.66,3.31,0,4.63.83h0l-.17-.5c-.66-.99-1.66-1.66-2.98-1.99-1.49,0-2.81.5-3.97,1.32,0-2.65.66-5.13,2.15-7.28,2.15-2.98,5.46-4.97,9.1-5.46h.17c3.97-.5,7.94.83,10.92,3.31,3.14,2.65,3.81,5.96,4.14,9.76,1.16-1.82,2.98-3.14,4.97-3.97,2.48-.99,5.96-1.66,8.44-.5,2.15.99,3.48,3.31,3.14,5.79,0,.66-.33,1.16,0,1.82,0,.17.17.5,0,.66,0,.5-4.8,3.14-5.63,3.64l2.48-.99c3.14-1.32,6.29-2.65,9.76-1.32,1.99.83,3.64,2.48,4.47,4.47.66,1.99.5,4.3-.5,6.12-.99,1.99-1.99,2.32-3.97,2.98l.33.33c.33.33.66.33,1.16.17,1.99-.33,3.64-3.31,4.47-4.97.5.17.83.5,1.32.66,1.49.99,1.82,2.65,1.99,4.3h.17c1.16-.83,1.99-1.82,2.81-3.14-.5.66-1.16,1.16-1.99,1.66-.33-.33-.33-.83-.33-1.32-.17-.83-.5-1.49-.83-2.32.66-.33,1.32-.5,1.99-.66.99,0,1.99.17,2.65.83,0,0,.17,0,.17.17,0,0,0,.17.17.33v.33c.33,0,.33.17.33.33v1.32c0,.99-.5,1.99-1.16,2.65h0l-.17.17ZM148.13,216.87c-2.48.5-4.97.66-7.45.66.83-1.32,1.32-2.32,2.81-3.14,2.98-.17,5.79,1.16,8.44,2.15-1.32,0-2.48.17-3.81.33h0Z"/>
            <path id="Path_7011" data-name="Path 7011" class="cls-2" d="M23.17,205.94c-.66-.66-1.99-.66-2.81-.66h-1.49q0,.33.33.66c.99.66,2.65.33,3.81.66v-.5h.17v-.17Z"/>
            <path id="Path_7012" data-name="Path 7012" class="cls-2" d="M20.69,206.77h-.17c.17.17.33.5.5.66-.5,0-.99,0-1.49.17q.33.33.83.5h1.49v1.32c.17.5.66.83,1.16.99,2.15.5,4.3.5,6.45.17.66-.17,1.32-.5,1.99-.66-1.32,0-7.94-.17-8.61-.99-.66-.83-.66-1.66-1.99-1.99h0l-.17-.17Z"/>
            <path id="Path_7013" data-name="Path 7013" class="cls-2" d="M52.63,182.61c-1.16-2.65-2.48-4.63-5.3-5.79-1.49-.5-3.14-.83-4.8-.5-3.14.66-5.79,2.48-7.45,5.13-.83,1.32-1.49,2.81-1.99,4.3h0c1.66-3.48,3.48-5.63,7.12-7.12,2.65-.99,5.63-.66,8.28.66,1.49.83,2.98,1.99,4.14,3.48h0v-.17Z"/>
            <path id="Path_7014" data-name="Path 7014" class="cls-2" d="M127.61,210.41c0-1.99,0-3.97-1.32-5.46-1.49-1.49-3.64-1.82-5.79-1.82h-1.82c-2.15.33-4.63.5-6.45,1.82,4.14-.83,9.1-1.49,13.08.5,1.82,1.32,1.99,2.65,2.48,4.8l-.17.17Z"/>
            <path id="Path_7015" data-name="Path 7015" class="cls-2" d="M96.49,188.4c-2.15-1.66-4.63-2.48-7.28-2.48-2.15.17-4.8.5-6.45,2.15-.99,1.49-1.66,3.14-1.99,4.97,1.32-2.32,2.65-4.3,5.46-5.13,1.49-.33,2.98-.5,4.47-.33,2.98.5,5.79,1.99,7.78,4.14h.17c-.33-1.32-1.16-2.65-2.32-3.48h0l.17.17Z"/>
          </g>
          <g id="Group_51" data-name="Group 51">
            <path id="Path_6960" data-name="Path 6960" class="cls-2" d="M428,90.09h0c1.16-.99,1.99-2.32,1.99-3.81,0-.66-.17-1.32-.66-1.82-.66-.5-1.32-.83-2.15-.66h-.5c0,.17.17.33.17.33.83.17,1.32.33,1.82,1.16.33.99.33,2.15-.17,3.14-.17.5-.5.99-.66,1.49h0l.17.17Z"/>
            <path id="Path_6961" data-name="Path 6961" class="cls-2" d="M314.47,42.09c.83.33,1.82.5,2.65.66h0c-.33-.99-1.49-1.32-2.15-1.66-1.66-.66-3.48-.99-5.3-.83-3.81.33-7.45,1.82-10.59,4.3,2.48-.83,4.63-2.48,7.28-3.14,2.65-.5,5.46-.33,8.11.66h0Z"/>
            <path id="Path_6962" data-name="Path 6962" class="cls-2" d="M279.54,60.3h-.5s0,.17.17.33v-.33h.33Z"/>
            <path id="Path_6963" data-name="Path 6963" class="cls-2" d="M275.9,60.13c-3.97.66-7.61,2.81-9.76,6.29-1.16,1.49-1.99,3.14-2.32,5.13v.33c.99-.33,1.32-1.82,1.66-2.48,2.65-4.3,5.79-7.61,10.92-8.77h2.81v-.33h-3.14l-.17-.17Z"/>
            <path id="Path_6964" data-name="Path 6964" class="cls-2" d="M405.66,68.41c1.99.83,3.48,1.66,4.47,3.81,1.99,4.47-.99,7.61-.83,9.27.33,0,.5-.33.66-.5,1.66-1.82,2.32-4.14,2.32-6.45-.17-1.82-.99-3.31-2.32-4.47-1.16-.99-2.65-1.49-4.14-1.66h-.17Z"/>
            <path id="Path_6965" data-name="Path 6965" class="cls-2" d="M413.6,77.51c.17-.17.5-.33.66-.5,1.32-1.99,1.99-4.47,1.49-6.79-.33-1.82-1.32-3.48-2.81-4.47-.66-.5-1.49-.66-2.32-.66,2.32,2.15,3.81,3.97,3.81,7.28v2.15c0,.83-.83,1.99-.66,2.81h0l-.17.17Z"/>
            <path id="Path_6966" data-name="Path 6966" class="cls-2" d="M383.15,63.28c1.66.66,2.98,1.82,3.97,3.31l1.32,2.48h.17c.17-1.82-.33-3.64-1.49-4.97v-.33c-.33,0-.5-.17-.5-.33l-.33-.33s-.17-.17-.33-.33-.17,0-.33-.17c0,0-.17,0-.33-.17,0,0-.17,0-.33-.17h-.33c0-.33-.17-.33-.33-.33h-4.47c-1.49.17-2.81,1.16-3.64,2.48,2.32-.99,4.47-1.66,6.95-.66h0v-.5Z"/>
            <path id="Path_6967" data-name="Path 6967" class="cls-2" d="M399.87,103.49c2.81-1.16,5.13-3.48,6.45-6.29.33-.66.5-1.32.5-1.99-1.99,3.64-5.3,6.29-9.27,7.45-.5,0-1.16.33-1.66.33s-1.16.17-1.66.17h-3.31c-.99,0-4.3-1.32-5.13-1.16l.5.33c4.3,1.82,9.43,2.65,13.9.99h0l-.33.17Z"/>
            <path id="Path_6968" data-name="Path 6968" class="cls-2" d="M386.46,106.47c5.63,1.99,10.76,2.48,16.39,0,2.65-1.32,9.93-6.79,10.76-9.43h0c-6.12,6.45-11.09,9.76-20.36,10.1-2.48,0-4.97-.33-7.45-.83,0,.17.33.33.66.5h0v-.33Z"/>
            <path id="Path_6969" data-name="Path 6969" class="cls-2" d="M326.22,55c-3.14-2.81-7.12-3.48-11.25-3.48-5.13.33-10.26,1.66-13.9,5.63-.83.83-1.49,1.82-2.15,2.81,2.32-2.48,5.13-4.3,8.11-5.46,6.45-2.15,12.91-2.48,19.03.5h.17Z"/>
            <path id="Path_6970" data-name="Path 6970" class="cls-2" d="M347.24,32.33c-3.64.33-6.95,1.49-9.93,3.48,8.28-3.14,16.05-3.31,24.16.17,1.32.66,2.65,1.32,3.81,2.15.99.83,1.99,1.82,2.98,2.81.66.99,1.32,2.15,1.66,3.31h0c-.83-3.64-2.98-6.79-6.12-8.77-4.63-2.98-11.25-4.14-16.55-3.48h0v.33Z"/>
            <path id="Path_6971" data-name="Path 6971" class="cls-2" d="M293.45,60.46h0c.33-.99.66-1.99.99-2.81.83-2.15,2.15-4.3,3.81-5.96,4.97-4.3,12.58-5.96,19.03-5.46.99,0,5.3,1.16,5.96.99h-.33c-3.48-1.49-7.12-2.15-10.92-2.32-5.46.17-11.09,1.99-14.9,6.12-2.32,2.65-3.64,5.96-3.64,9.43h0Z"/>
            <path id="Path_6972" data-name="Path 6972" class="cls-2" d="M377.69,53.01c.17,1.49.17,3.81.83,5.13.83-6.95-.33-13.24-4.8-18.87-4.14-5.13-10.1-8.61-16.72-9.43-1.49-.17-3.14-.17-4.63,0h0c6.62.33,13.41,3.64,17.87,8.44,3.81,4.14,6.45,9.27,7.12,14.73h.33Z"/>
            <path id="Path_6973" data-name="Path 6973" class="cls-2" d="M479.64,101.34c-1.16-.99-2.48-1.32-3.97-1.32h-.99c-1.16-2.15-2.48-4.3-5.13-4.97-2.65-.83-3.97.99-6.29,1.16-.33-2.32-.83-3.81-2.65-5.3,0,0-.33-.17-.33-.33,0,0-.33-.17-.5-.33,0,0-.33-.17-.5-.33h-.5c0-.33-.33-.33-.5-.5,0,0-.33,0-.5-.17h-1.99s-.33,0-.5-.17h-2.48c-2.15.33-3.97,1.32-5.46,2.98v-.5s-.17-.33-.17-.5v-.5s0-.33-.17-.5,0-.33-.17-.5,0-.33-.17-.5v-.5c-.33,0-.5-.33-.5-.5,0,0-.17-.33-.33-.33s-.17-.33-.33-.33c0,0-.17-.33-.33-.33,0,0-.17-.17-.33-.33,0,0-.17-.17-.33-.33s-.33-.17-.33-.33-.33-.17-.33-.33c0,0-.33-.17-.5-.33h-.33c0-.33-.33-.33-.33-.5s-.33,0-.33-.17-.33,0-.5-.17h-.99c0-.17-.33-.17-.5-.33h-.5s-.33,0-.5-.17h-3.14c-.66,0-1.32.33-1.99.66,0-2.81-.33-5.3-2.32-7.28-1.99-1.99-4.8-2.98-7.45-2.98-1.66,0-3.14.33-4.63.83.66-4.14.17-8.44-2.32-11.92-1.99-2.65-4.97-4.47-8.28-4.8-5.13-.83-9.43,1.16-13.57,4.14-.5-2.48-1.82-4.8-3.97-6.12-2.98-1.82-6.62-2.48-9.93-1.66.5-8.77-1.82-16.88-7.78-23.5-6.45-6.95-16.55-11.25-25.98-11.59h-4.47c-7.78.66-15.39,3.97-20.52,10.1-2.48,3.14-4.3,6.95-4.97,11.09-3.81-3.81-8.11-6.45-13.57-6.45h-4.14c-.33,0-.5,0-.83.17s-.5,0-.83.17c-.33,0-.5.17-.66.33-.17,0-.5.17-.66.33s-.5.17-.66.33c-.17,0-.5.33-.66.33s-.5.33-.66.5-.5.33-.66.5l-.66.5c-.17,0-.33.33-.66.5s-.33.33-.66.5c-.17.17-.33.33-.5.5-.17.17-.33.33-.5.66,0,.17-.33.33-.5.66s-.33.5-.5.66c0,.17-.33.5-.5.66l-.33.66c0,.17-.17.5-.33.66,0,.17-.17.5-.33.66s-.17.5-.33.66,0,.5-.17.66,0,.5-.17.83,0,.5,0,.83v3.31c0,1.49.17,2.98.5,4.3-1.16.66-2.15,1.49-3.14,2.48-5.46-2.65-10.59-3.97-16.55-1.99-4.47,1.49-7.28,4.8-9.43,9.1-1.82,3.97-2.81,8.11-2.81,12.41-5.3-4.8-12.25-7.12-19.36-6.62-7.78.66-15.06,4.47-20.03,10.59-5.3,5.96-7.94,13.9-7.45,21.85.17,2.65.83,5.3,1.99,7.61-4.8-1.32-10.1-.99-14.73.99-1.16-.5-2.48-.83-3.64-.83-.5-2.15-1.32-4.14-3.31-5.3-1.16-.83-2.65-.99-3.97-.66-1.66.5-2.98,1.66-3.81,3.14-1.16-.83-2.65-1.32-4.14-1.32-.5-4.14-1.99-8.11-5.3-10.76-2.32-1.82-5.3-2.65-8.28-2.15h-.66c-.17,0-.5.17-.66.17h-1.32c-.17.33-.5.33-.66.5s-.33,0-.66.33c-.17,0-.33.17-.66.33l-.66.33q-.33.17-.5.33c-.17,0-.33.17-.5.33s-.33.33-.5.33-.33.33-.5.5c0,0-.33.33-.5.5,0,0-.33.33-.5.5,0,0-.33.33-.5.5s-.33.33-.33.5c-1.99,2.81-2.98,6.12-2.98,9.6-4.97-.83-9.6,2.48-10.43,7.45v3.64c-1.49-.33-2.98,0-4.14.83-1.49,1.16-1.82,2.98-2.15,4.63-1.16.5-2.15,1.49-2.48,2.81-.33.99-.33,1.99.17,2.98.5.83,1.49,1.49,2.48,1.82.99.17,2.15.17,3.14,0h0c.99,1.32,2.48,1.99,4.14,1.99,2.32,0,4.3-1.16,5.79-2.81.5-.5.99-1.16,1.32-1.66,1.66.66,3.31,1.16,4.97,1.49.5.99,1.66,1.82,2.81,2.15,2.32.5,4.8,0,6.79-1.32.83-.5,1.49-1.16,2.32-1.66-2.32,4.3-3.81,5.96-3.81,11.09-1.99-1.16-4.47-1.49-6.79-.83-2.81,1.16-5.13,3.31-6.29,5.96-.66,1.49-1.16,3.14-1.32,4.8-2.32,0-4.14.17-5.79,1.82-1.16,1.32-1.82,3.14-1.82,4.97,0,1.99.83,3.81,2.15,5.13,1.82,1.49,4.3,2.32,6.62,1.99.66,0,1.16,0,1.82-.17,1.66,2.32,4.3,3.64,7.12,3.97,3.14.33,6.45-.83,8.77-2.81.99-.83,1.66-1.82,2.32-2.81,1.99,1.82,4.8,2.81,7.61,2.48,2.15,0,4.3-.66,6.12-1.49,2.15.99,4.63,1.66,6.95,2.15,12.08,2.98,21.19,3.14,33.43.5,2.98-.66,5.96-1.49,8.94-2.32,1.82-.66,3.64-.99,5.46-1.32,2.48-.17,5.46,1.32,7.78,1.82,2.98.5,5.79.66,8.77.66,9.93,0,19.7-1.16,29.29-3.14,4.47-.99,8.61-2.48,13.08-3.31,10.26,4.97,22.01,5.79,32.94,1.99,4.63-1.49,9.1-3.64,13.24-6.29,4.3,1.99,9.27,2.32,13.74.5.99-.33,1.99-.83,2.81-1.32,5.13,3.64,11.42,5.13,17.54,3.97,4.3-.83,7.78-3.14,11.25-5.79,2.48.66,5.3.5,7.78-.5,2.32,1.82,4.8,3.31,7.94,2.98,2.98-.33,4.63-2.15,6.95-3.81,1.82,1.16,3.97,2.32,6.29,1.66,1.49-.5,2.65-1.49,3.48-2.65,2.81,1.16,5.79,1.82,8.77.5.5-.33.99-.5,1.49-.83,2.15,2.15,4.97,2.65,7.78,2.65,2.15,0,4.47-.33,6.45-.99.83-.33,1.49-.66,2.32-.83.5,0,6.29-.33,7.12-.33.5,0,.99,0,1.49.33,1.49.33,4.14.66,5.46,0,.5-.17.83-.5,1.32-.83,1.82-1.16,6.95-1.16,9.1-.99-1.49-1.49-3.48-2.32-5.63-2.32h-1.82c-.17-.33-.33-.66-.5-1.16-.17-.66-.83-1.32-1.49-1.66-.83-.33-1.82-.5-2.65-.5-.83-2.15-2.15-4.14-4.3-4.97-1.49-.5-3.31-.5-4.8,0-1.16-1.99-3.14-3.31-5.3-3.81-1.32-.33-2.65,0-3.64.83-.5.5-.99.99-1.32,1.49.5-3.31-.33-6.79-2.32-9.43-1.16-1.82-3.14-2.98-5.3-3.31-2.48-.33-4.97.5-6.95,2.15-1.32,1.16-2.32,2.48-3.14,4.14-1.99,0-3.97.66-5.46,2.15-1.99,1.99-2.48,4.47-2.65,7.12h-1.82c-.99-1.99-1.99-3.64-4.14-4.47-1.66-.5-3.48-.5-5.13,0,.33-4.3-.99-8.61-3.81-11.75-2.48-2.98-6.12-4.63-10.1-4.8-2.15,0-4.3.33-6.29,1.32.66-2.65.17-5.63-1.49-7.94-2.48-3.31-5.96-5.46-10.1-5.96-1.99-.33-4.14-.33-6.12.17,1.49-3.97,2.32-7.45.83-11.59-2.65-5.79-7.61-10.43-13.57-12.74-6.79-2.48-14.4-2.32-21.02.5-3.97,1.82-8.28,4.63-10.43,8.44-2.15-1.99-4.97-3.14-7.94-2.98-4.97.17-9.6,2.32-13.08,5.96v.33c-.17-6.79-1.99-12.91-6.79-17.71-4.63-4.63-10.92-7.12-17.38-7.12-2.65,0-5.3.5-7.78,1.32,1.32-3.14,3.64-4.97,6.62-6.62-2.98.83-5.46,2.81-6.95,5.46-.33.5-.5,1.16-.66,1.66-4.14,1.66-7.78,4.3-10.59,7.61.17-5.96,2.48-13.57,6.95-17.87,3.14-2.81,7.45-4.3,11.75-3.97,3.48.17,6.29,1.49,9.27,3.14.5-.66,1.16-1.32,1.66-1.99.66-.5,2.81-.66,2.81-1.49,0-.99-.83-1.66-.99-2.65-.17-4.47.66-8.28,3.64-11.75,2.48-2.81,6.12-4.47,9.93-4.63,3.97-.17,7.78.99,10.76,3.48.5.33,3.97,3.48,4.3,3.31,0,0,.17,0,.33-.17.5-.83.83-4.14,1.49-5.79,3.14-7.45,10.92-12.08,18.37-14.07.33,0,.5,0,.83-.17h.83c.33-.33.5-.33.83-.33h.83c.33-.17.5-.17.83-.33s.5,0,.83,0h10.76c.33.17.5.33.83.33h.83c.33.33.5.33.83.33s.5,0,.83.17.5,0,.83.17c.33,0,.5.17.83.33.33,0,.5.17.83.33.17,0,.5.17.66.33.17,0,.5.17.66.33l.66.33c.17,0,.5.17.66.33.17,0,.5.17.66.33.17,0,.5.33.66.33,6.62,3.81,13.08,11.25,15.23,18.7.83,2.48.99,5.13.99,7.78-.17,1.32-.33,2.65-.33,4.14,0,.5,0,.83.33.99v-.33c.33-.5.83-.83,1.32-1.16,3.14-.33,6.79,0,9.43,2.15,1.49,1.16,2.48,2.81,2.81,4.8v3.97c4.14-3.64,8.44-6.79,14.4-6.45,2.98.17,5.79,1.66,7.78,3.97,1.99,2.32,2.98,5.3,2.81,8.44-.17,2.15-.83,4.14-1.82,6.12h.17c1.16-.66,2.15-1.49,3.31-1.99,2.15-.99,4.8-.99,6.95-.17,1.99.5,3.64,1.82,4.63,3.64.83,1.82.99,3.81.33,5.63-.5,1.32-1.32,2.65-1.66,4.14,2.81-1.49,6.12-1.49,9.1-.33,1.32.5,2.65,1.16,3.81,2.15.5.5,1.32,2.15,1.82,2.15.33,0,.5,0,.66-.17h.17c.17.17.33.5.33.83s0,.66.5.99c.17,0,.33.17.5.33.17,0,.33-.33.33-.66,1.32.17,2.81,2.65,3.97,3.48h0c-.99-2.48-1.99-3.97-4.47-4.97,1.32-1.66,3.31-2.81,5.46-2.98,2.48-.17,4.8.5,6.62,2.15,1.32,1.16,1.32,4.47,1.82,4.63h1.16c.83,0,1.49.33,1.99.83.66.83,1.16,3.81,1.82,3.97.5,0,.99.33,1.32.66,0,0,0,.33.17.33v.33h-.83v.5c.17.33.17.83,0,1.32-.83.99-1.99,1.66-3.31,1.66-2.48,0-4.97-.66-7.12-2.15.66-.33,1.32-.66,1.99-1.16,1.32.5,2.98,1.32,4.47.66.17,0,.5-.33.66-.5-.66,0-1.16,0-1.82.17h-.17c-1.16-.5-2.32-1.66-3.64-1.32l-.83.66c-4.97.66-11.92,1.82-16.72,0v-.33c.5-1.32.33-4.14,1.32-4.97.99-.66,4.14-.99,5.46-1.16h0c.66.5,1.16,1.16,1.49,1.82h.17c-.33-.99-.83-1.99-1.49-2.81-3.81,0-5.79,1.99-8.77,2.32h-2.32c1.32.5,2.65.83,3.97.66-1.32,2.65-2.48,4.63-5.63,5.63-3.14.99-6.45.99-9.43,0,.5-.83,1.49-2.15,1.32-3.14h-.83l.66-.83h0c-1.82,1.16-3.97,2.15-6.29,2.48,1.82,0,3.64-.33,5.13-1.32-1.82,2.48-4.63,4.14-7.61,4.47h-3.97c-.33,0-.66,0-.99-.17-.33,0-.66,0-.83-.33-.33,0-.66-.17-.83-.33s-.66-.17-.83-.33c-.5-.17-2.98-1.82-3.31-1.82s0,0-.17,0c0,.83.33,1.49.83,1.99,2.32,2.32,6.45,3.31,9.6,3.14,2.32,0,4.63-.83,6.45-2.32,5.13,1.32,9.93,1.66,14.73-1.16.5-.33.83-.5,1.32-.83,4.47,2.32,10.43,1.82,15.23,1.16,2.32,2.15,5.3,3.14,8.44,2.98,1.16,0,2.32-.33,3.64-.33,3.31-.17,4.14,0,6.45-2.65v.17c-.17.5,0,.99,0,1.49.17.33.66.66.99.66,1.16,0,2.81-.83,3.64-1.66.99-.83,1.49-1.99,1.49-3.14,0-.66-.33-1.32-.83-1.82h0l.66-.99ZM466.07,146.69c.33-.5.99-.5,1.49-.5.99,0,1.99.17,2.98.5v.33c-.5,0-1.16.17-1.66.17-.83.17-1.82.33-2.65.17v-.83h0l-.17.17ZM162.2,131.63c-1.66.33-3.31,0-4.63-.83-.33-.33-.66-.66-.66-1.16l.33-.33c-.83-.66-2.98-.99-4.14-1.66-.99-.83-1.82-1.82-2.32-2.98-1.16,1.32-.99,3.14-1.66,4.63-.99,1.49-2.48,2.65-4.14,3.14-3.14.99-3.31-1.82-4.47-1.82-1.49,0-2.65.99-4.14,0-.99-.66-1.66-1.66-1.82-2.81.17-.5.33-.99.66-1.49.17-.5.66-.99,1.32-1.16.33,0,.66.17.83.5-.17.5-.17.99-.17,1.49,0,.33,0,.17.17.33.5-.99.5-1.32,1.49-1.82,0-.99-.99-1.49-.83-2.65.17-.83.66-1.66,1.49-2.15,3.97-2.65,4.3,2.15,7.12,2.65.66,0,1.49-.17,1.99-.66h-1.16c-.83-.66-1.49-1.49-1.99-2.48-.83-1.99-.83-4.3,0-6.45v-.33s0-.17.17-.33c0,0,0-.17.17-.33v-.33c.33,0,.33-.17.33-.33,0,0,0-.17.17-.33,0,0,0-.17.17-.33s0-.17.33-.33c0,0,.17,0,.33-.17,0,0,.17,0,.33-.17,0,0,.17,0,.33-.17s.17,0,.33-.17c0,0,.17,0,.33-.17h.99c4.14-1.49,3.31,1.32,6.45,2.65l.33-.33c-.99-.99-1.49-2.32-1.66-3.81-.33-2.81.5-5.79,2.15-8.11,2.15-2.98,5.3-4.97,8.94-5.63,2.48-.33,4.97,0,6.95,1.32,2.98,2.15,4.8,5.46,5.13,9.1,0,.83-.66,1.32-.5,2.15.83,0,1.66-.17,2.48-.5,1.16.5,2.32,1.16,3.31,1.99.33-.83.99-1.66,1.49-2.32.83-.83,1.99-1.32,3.31-1.32.99,0,1.99.5,2.65,1.32.99,1.32,1.32,3.14.99,4.8,1.32-.33,2.81-.5,4.14-.17-.99.83-2.32,1.32-3.31,1.99-4.3,2.98-6.62,7.45-7.61,12.41,0,0-.17,0-.33-.17-4.3-2.65-9.76-2.15-13.41,1.16-.66.66-1.66,1.99-2.65,2.15l-.33-.66h-.17c-.33,0-3.48,3.14-6.12,3.64h0l.5-.5ZM420.39,132.29c.83-.99,1.99-1.66,3.14-1.66,1.32,0,1.99,1.16,2.98,1.99h.17c0-.99-.5-1.99-1.16-2.48.5-.83.99-1.49,1.49-2.32,1.49-1.82,3.64-2.98,6.12-3.14,1.82,0,3.48.66,4.63,1.82,2.98,2.81,3.14,6.79,3.31,10.59,1.32-1.16,3.14-1.82,5.13-1.99h2.32s.17,0,.33.17c0,0,.17,0,.33.17,0,0,.17,0,.33.17,0,0,.17,0,.33.17,0,0,.17,0,.33.17l.33.33s0,.17.17.33,0,.17.17.33c0,0,0,.17.17.33.33.66.66,1.32,1.16,1.99v-.33c.5-.17.66-.33.99-.5,1.49-.5,2.98-.33,4.3.5,1.82,1.16,2.48,3.14,2.98,5.13.83-.33,1.82-.33,2.81-.33.5,0,.99.33,1.32.83.33.83.33,1.66,0,2.32-.33.33-.66.66-.99.83-1.82.5-3.97.5-5.79-.33,0-.33-.33-.66-.66-.83l-1.32.99c-1.82,0-3.48-.17-5.3,0,.99-1.49,1.82-3.14,2.65-4.97-.66.99-1.32,1.82-1.99,2.65-1.66,1.99-3.81,3.31-6.29,3.81-3.97.83-8.28.33-11.75-1.82-3.31,1.32-6.95,1.32-10.26,0,.5-1.49.5-3.31,0-4.8-.99-2.32-3.31-3.64-5.46-4.63.66-2.15,1.82-4.3,3.14-5.96h0l-.17.5ZM259.52,80.16c1.32-.99,2.15-2.48,3.48-3.48,4.47-3.64,9.93-5.46,15.72-5.46s11.75,2.65,16.05,6.95c3.81,3.97,5.79,9.27,5.79,14.56-.17.99-.17,2.15,0,3.14.17.17.5.33.83.33.99-.66,1.66-1.99,2.65-2.81,3.64-3.14,8.61-4.47,13.41-3.97,2.15.33,4.3,1.49,5.63,3.31.5.83,1.32,2.65,2.32,2.98.33-.5.5-1.16.33-1.82-.33-1.32-.83-2.65-1.49-3.81.17-.17.33-.33.66-.5.17,0,.33-.33.66-.5l.66-.5c.17,0,.5-.33.66-.5.17,0,.5-.33.66-.5s.5-.33.66-.5.5-.33.66-.5c.17,0,.5-.33.66-.33s.5-.33.66-.33.5-.33.66-.33.5-.17.66-.33.5-.17.66-.33.5-.17.66-.33c.17,0,.5-.17.66-.33s.5-.17.66-.33c.17,0,.5-.17.66-.33s.5,0,.66-.17c.33,0,.5,0,.83-.17.33,0,.5,0,.83-.17s.5,0,.83-.17c.33,0,.5,0,.83-.17h3.31c.33,0,.5,0,.83-.17h4.97c6.29.33,12.25,3.14,16.55,7.78,2.32,2.65,3.48,6.12,3.14,9.6,0,1.32-.33,2.81-.83,3.97-.5,1.49-2.32,4.8-1.82,6.29q.33,0,.66-.5c.83-1.16,1.49-2.32,2.15-3.48,4.47,0,9.1.66,12.58,3.97,0,0,.17.17.33.33,0,0,.17.17.33.33s.17.17.33.33c0,0,.17.17.33.33,0,0,.17.17.33.33s0,.33.17.33c0,0,0,.33.17.33,0,0,0,.33.17.33,0,0,0,.33.17.5v3.48c0,2.98-1.49,7.61-3.48,9.76-.99,1.16-2.32,1.99-3.81,2.48v-.5c-.66.66-1.32,1.32-1.99,1.99,3.64-1.99,7.12-3.48,11.25-2.32,1.99.5,3.81,1.82,4.8,3.64,1.32,2.32,1.66,5.13.83,7.78-.66,1.99-1.66,3.81-2.81,5.3,2.48-2.15,4.47-4.3,4.8-7.78.33-2.32-.33-4.63-1.66-6.45-1.99-2.15-4.63-3.31-7.45-3.48-1.32,0-2.65,0-3.97.17,2.98-3.31,5.96-6.95,10.76-7.28,3.48-.17,6.95.99,9.76,3.31,2.65,2.48,4.3,5.96,4.47,9.76,0,1.82-.33,3.64-.5,5.46v-.33h.17c1.16-1.32,2.15-2.48,3.97-2.65,1.16,0,2.48,0,3.31.83,0,0,.17.17.33.33,0,0,.17.17.33.33,0,0,0,.17.17.33,0,0,0,.17.17.33v1.32c0,1.49-.5,2.98-1.32,4.14,1.16-1.32,2.15-2.65,3.97-2.81,1.32,0,2.81.33,3.81,1.32,1.16.83,1.99,2.32,2.15,3.81,0,1.32-.33,2.65-1.32,3.64-.83.83-1.99,1.49-3.31,1.49-1.16,0-2.32-.33-3.31-.99-.33-.33-.5-.66-.66-.99-.66-.17-1.16,0-1.82,0-.33.17-.66.83-.99,1.16-1.66,1.49-3.81,2.32-5.96,2.15-3.64-.17-7.12-2.48-9.93-4.63.5.66,1.49,1.32,1.49,2.15,0,.33-.17.33-.33.66-1.32.33-2.65.5-3.97.33,2.81-3.14,5.96-6.45,5.79-11.09,0-.66-.17-1.49-.5-2.15-.66,5.46-4.47,9.27-8.44,12.58-4.8,4.14-11.25,5.96-17.54,5.13-3.31-.33-6.29-1.32-9.1-3.14,2.32-1.66,4.3-3.64,6.12-5.79-4.14,2.15-8.77,4.63-13.41,5.46-1.99.33-3.81.33-5.79.66,4.3.33,8.61,0,12.91-.99-4.47,2.32-9.6,3.14-14.56,2.15-.33,0-.66-.17-.99-.33h0c0-.17.5-.5.5-.5-3.31.5-7.61,3.31-10.92,4.63-10.76,4.14-26.98,6.12-37.24-.33.5-.33.99-.66,1.66-.83,10.59,4.3,24.99,3.97,35.42-.5,1.66-.66,3.31-1.49,4.97-2.48-10.59,3.97-20.03,5.96-31.28,4.63-3.14-.33-6.79-1.82-9.76-1.82-2.48,0-5.3.83-7.78,1.16-4.14.5-8.28.66-12.25,1.16,4.3.5,8.61,0,12.74-.5-14.07,4.8-33.27,7.61-47.67,3.81,3.14-1.16,6.45-2.15,9.6-3.31-3.14.33-6.29.99-9.27,1.82l-16.88,3.81c-11.42,2.48-21.68,2.98-33.1.5-2.48-.5-5.46-1.16-7.61-2.48-.33-.17-.5-.5-.83-.66l-.17-.17c-2.98,1.66-6.79,3.14-10.26,2.15-1.49-.5-2.81-1.49-3.48-2.98-.5-.83-.66-2.32-1.32-2.98-.33.17-.17,0-.5.33-.33.83-1.16,1.49-1.99,1.82-1.82.33-3.64-.5-5.13-1.32v.99c.33.66.99,1.16,1.82,1.32,1.66.5,3.48.5,4.97-.33h.33c-1.32,2.81-2.48,4.8-5.46,5.96-2.48.83-5.13.66-7.45-.5-1.49-.66-2.81-1.82-3.64-3.48-3.14,1.99-7.45.99-9.43-2.15h0c-.5-1.16-.66-2.32-.17-3.48.5-1.49,1.66-2.65,2.98-3.31.83-.33,1.66-.5,2.48-.66,0,1.82.66,3.81,1.82,5.3-.33-4.3-.99-8.77,1.99-12.25,1.49-1.82,3.81-2.98,6.12-3.31,1.49,0,3.14.33,4.3,1.32,1.66,1.49,2.48,6.29,4.14,6.95h.17c-.33-1.32-.99-2.48-1.32-3.64-1.49-4.3-.99-8.94,1.32-12.91,1.99-3.14,5.46-6.29,9.1-7.28,2.15-.5,4.47-.17,6.29.99.83.5,1.49,1.32,2.48,1.32h.17c0-4.14,1.49-8.11,4.3-10.92,3.81-3.97,8.94-6.29,14.56-6.45,3.31,0,6.79.5,9.76,1.82.5.17.99.5,1.32,0,0-1.32-2.15-2.98-2.65-4.3-3.81-9.6.33-22.84,7.94-29.63.33-.33.66-.66.99-.83s.66-.5.99-.83c.33-.33.66-.5,1.16-.83s.83-.5,1.16-.66c.33-.17.83-.5,1.16-.66s.83-.33,1.16-.66.83-.33,1.32-.5c.5,0,.83-.33,1.32-.5s.83-.33,1.32-.33.83-.17,1.32-.33c.5,0,.83-.17,1.32-.33.5,0,.83,0,1.32-.17h5.3c6.62.5,10.76,2.81,15.72,6.95.66.66,1.32,1.32,2.15.66h0l.99-.33ZM444.22,90.58c-.5-.33-.99-.66-1.49-.99-3.14-1.66-6.79-1.82-10.1-.66.83-1.49,2.32-2.65,4.14-3.14,1.99-.17,3.81.17,5.46,1.16,2.32,1.49,3.97,3.81,4.3,6.45-.66-.99-1.49-1.99-2.32-2.81h0ZM473.35,104.49c-.5.5-.83.99-1.32,1.32-.17,0,0,0-.33.33-.83.5-1.82.83-2.81.66-.5-.83.33-1.99.5-2.81-.5-.99-1.16-1.82-2.15-2.32-.33-1.66-.83-3.31-1.82-4.8h.99c1.99,0,3.97.66,5.46,1.99,1.49,1.66,1.49,3.64,1.49,5.63h0ZM477.82,105.48c-.5.33-.99.5-1.66.66-.17,0-.33,0-.5-.33-.5-.83-.33-3.14-.33-4.14.83,0,1.66,0,2.48.5.5.33.66.83.83,1.32,0,.66-.33,1.49-.83,1.99h0Z"/>
            <path id="Path_6974" data-name="Path 6974" class="cls-2" d="M173.62,101.34c.17.17.33.5.5.66-.5-1.82-1.82-3.48-3.48-4.3-1.66-.66-3.31-.99-4.97-.83-2.15.33-4.8.99-6.12,2.81-.5.83-.83,1.82-.83,2.81v.17c.5-.66.83-1.32,1.32-1.82,1.66-1.82,3.97-2.48,6.45-2.65,2.81,0,5.3,1.32,7.12,3.31h0v-.17Z"/>
            <path id="Path_6975" data-name="Path 6975" class="cls-2" d="M403.67,148.35c1.32-.33,2.32-1.16,2.98-2.15,0-.17.17-.5.33-.66-1.32,1.49-3.31,2.32-5.3,2.48-1.49,0-2.81-.33-3.97-.99h0l.17.33c1.82,1.16,3.97,1.66,6.12.99h-.33Z"/>
            <path id="Path_6976" data-name="Path 6976" class="cls-2" d="M376.37,112.93l.5.66h.17c0-.17,0-.5-.17-.66s-.17-.33-.33-.66c0-.17-.17-.33-.33-.5,0-.17-.17-.33-.33-.5,0-.17-.33-.33-.5-.5,0,0-.33-.33-.5-.5,0,0-.33-.33-.5-.33s-.33-.17-.5-.33c-1.82-1.16-3.97-1.49-5.96-.99,2.98.83,6.62,1.49,8.44,4.3h0Z"/>
            <path id="Path_6977" data-name="Path 6977" class="cls-2" d="M172.46,144.37c-.83,1.32-1.16,2.98-.99,4.63h.17c.5-2.65,1.82-4.8,3.64-6.45.83-.66,1.66-1.16,2.48-1.82h-.33c-2.15.5-3.97,1.82-5.13,3.64h.17Z"/>
            <path id="Path_6978" data-name="Path 6978" class="cls-2" d="M179.41,133.95c-3.48,1.32-6.95,2.81-8.61,6.45-.5.99-.83,2.15-.99,3.14v.33h.33c1.82-4.47,5.13-7.61,9.6-9.93h-.33Z"/>
            <path id="Path_6981" data-name="Path 6981" class="cls-2" d="M367.43,150.83c2.98.83,5.13,1.32,7.94-.5,1.82-.99,5.46-4.63,5.96-6.62h0c-2.65,2.81-5.96,6.45-10.26,6.79-.83,0-3.64-.17-4.14,0h.5v.33Z"/>
            <path id="Path_6982" data-name="Path 6982" class="cls-2" d="M235.35,81.98c-5.3.5-10.26,3.14-13.74,7.28-.83,1.16-2.81,3.81-2.81,5.3v.33-.17c.99-2.81,2.81-5.3,4.97-7.12.33-.17.5-.5.83-.66.33-.17.5-.33.83-.66.33-.17.66-.33.83-.5s.66-.33.83-.5.66-.33.99-.5c.33,0,.66-.33.99-.5s.66-.33.99-.33.66-.17.99-.33c.33,0,.66-.17.99-.33s.66,0,.99-.17.66,0,.99-.17h4.97c1.99.17,4.14.66,5.96,1.32,0,0,.5.33.66.17-2.32-1.82-7.94-2.81-10.76-2.32h0l.5-.17Z"/>
            <path id="Path_6983" data-name="Path 6983" class="cls-2" d="M361.63,103.16h.17c0,.17,0,0,0,0,.83-3.64,0-7.28-1.99-10.43-1.16-1.66-3.14-3.81-5.13-4.3h-.17c4.63,3.48,6.29,9.1,7.12,14.56h0v.17Z"/>
            <path id="Path_6984" data-name="Path 6984" class="cls-2" d="M203.24,121.04c1.82-.83,3.81-1.32,5.63-1.99h0c-4.3,0-8.28,1.82-11.25,4.8-2.32,2.48-3.48,5.79-3.31,9.1,0,.99.33,1.99.5,3.14v-.17c.33-.99.17-2.65.33-3.81.66-4.8,3.64-8.77,7.94-10.92h0l.17-.17Z"/>
            <path id="Path_6985" data-name="Path 6985" class="cls-2" d="M171.3,134.61c-1.49,1.99-2.48,4.47-2.65,6.95.66-1.49,1.49-2.98,2.48-4.47,2.15-2.81,4.97-5.3,8.61-5.79,2.32-.33,4.3.33,6.62.33-2.15-1.16-4.47-1.82-6.95-1.66-3.14.33-6.12,1.99-8.11,4.63h0Z"/>
            <path id="Path_6986" data-name="Path 6986" class="cls-2" d="M377.03,118.39c-.5-2.48-1.82-4.63-3.97-5.96-2.32-1.66-5.3-2.15-7.94-1.66-.5,0-.99.33-1.49.5,1.82-.17,3.64,0,5.3.33,2.48.83,4.63,2.48,5.79,4.8,1.66,3.14,1.49,7.94.33,11.25,1.66-2.81,2.48-6.12,1.99-9.43h0v.17Z"/>
            <path id="Path_6987" data-name="Path 6987" class="cls-2" d="M300.07,104.65c.33,0,.5-.33.66-.66,1.82-2.48,1.82-3.48,4.47-5.13,2.15-1.32,4.8-1.82,7.28-1.16,1.99.66,3.31,1.99,4.8,3.31-.66-1.99-1.49-3.81-3.64-4.8-1.49-.5-2.98-.66-4.63-.5-2.98.5-5.63,2.32-7.45,4.8-.5.66-1.82,2.98-1.66,3.97h0l.17.17Z"/>
            <path id="Path_6989" data-name="Path 6989" class="cls-2" d="M218.64,90.92c2.48-5.96,7.28-9.43,13.24-11.92,2.81-1.16,5.79-1.82,8.77-2.15-.99-.17-1.82-.33-2.81,0-6.62.83-13.41,3.31-17.54,8.61-1.66,1.99-2.65,4.63-2.48,7.28v.33c.5-.66.83-1.32.99-2.15h-.17Z"/>
            <path id="Path_6990" data-name="Path 6990" class="cls-2" d="M216.65,136.26c-.83,0-1.66-.17-2.65,0-4.8.99-4.8,3.81-6.12,4.3-.66,0-1.32,0-2.15-.17-2.48-.17-4.97.99-6.12,3.14-.83.99-1.16,2.32-.83,3.64.17.99.83,1.66,1.66,2.15,1.49.83,2.81.5,4.3.17-1.32-.17-3.48-.17-4.3-1.49-.33-.66-.5-1.32-.33-1.99,0-.5.17-.99.33-1.49.99-1.49,2.48-2.65,4.14-2.98,1.32-.33,2.81,0,3.97.83.66-2.15,1.99-3.81,3.97-4.63s3.97-.83,5.96,0c1.32.66,2.65,1.49,3.64,2.65-1.16-2.15-3.14-3.48-5.46-4.14h0Z"/>
            <path id="Path_6991" data-name="Path 6991" class="cls-2" d="M346.57,102.5c2.81,2.65,4.8,6.12,5.46,9.93.17,1.16.33,2.15.5,3.31.66-4.47.33-8.61-2.48-12.41-1.99-2.65-4.8-4.47-8.11-4.97-1.32,0-2.65-.17-3.81,0-1.16.33-2.48.66-3.64.99,4.47-.33,8.61.17,12.25,3.31h0l-.17-.17Z"/>
            <path id="Path_6992" data-name="Path 6992" class="cls-2" d="M191.33,131.96c.5-4.47,1.99-8.28,5.63-11.09,4.47-3.64,9.93-4.47,15.56-3.97-2.32-.66-4.63-.83-7.12-.66-8.94.5-15.72,7.94-15.39,16.88h0c0,1.32.5,3.48,1.32,4.47h.33v-.17h0c-.33-1.99-.5-3.64-.5-5.46h.17Z"/>
            <path id="Path_6993" data-name="Path 6993" class="cls-2" d="M355.01,96.21c2.32,3.14,3.81,6.95,4.3,10.76.17,1.32-.17,2.98.5,4.3.99-5.3,0-10.92-2.81-15.56-2.48-3.81-6.45-6.45-10.92-7.45-1.82-.33-3.64-.5-5.46-.17h-.17c.99.33,2.15.33,3.14.5,4.63.99,8.77,3.81,11.42,7.78h0v-.17Z"/>
            <path id="Path_6994" data-name="Path 6994" class="cls-2" d="M293.61,87.27c1.66,1.99,3.14,4.14,4.3,6.45-.99-4.8-3.97-9.1-8.11-11.75-3.31-2.32-7.28-3.48-11.42-3.14-2.48,0-4.8.66-7.12,1.82-.66.33-1.16.66-1.82.99,1.16,0,3.81-1.16,5.13-1.32,7.12-1.16,14.07,2.32,19.03,7.12h0v-.17Z"/>
            <path id="Path_6995" data-name="Path 6995" class="cls-2" d="M238.66,95.22c-1.99-.66-4.14-.99-6.29-.83-3.97.83-7.45,3.31-9.6,6.95-2.65,4.14-4.63,10.1-3.81,15.06,0,.66.33,1.16.83,1.66.17-.33.33-.66.33-1.16v-3.64c.83-5.63,2.98-11.92,7.78-15.56,3.81-2.81,6.12-2.65,10.76-2.48h0Z"/>
            <path id="Path_6996" data-name="Path 6996" class="cls-2" d="M271.93,84.63c5.63-.83,11.42.66,15.89,4.14.99.83,1.82,1.66,2.65,2.48-1.49-3.31-4.3-5.96-7.61-7.12-2.65-.99-5.46-1.32-8.11-1.32-5.3.33-9.93,2.15-13.41,6.29-1.32,1.49-2.32,3.14-3.14,5.13,4.3-5.13,6.79-8.44,13.9-9.6h-.17Z"/>
            <path id="Path_6997" data-name="Path 6997" class="cls-2" d="M262.16,145.86c-.99-.83-2.15-1.32-3.48-1.16-.66,0-1.32.33-1.82.5-.33-.99-.99-1.66-1.82-1.99-.5,0-1.16-.17-1.66-.33-.33-.33-.66-.66-.99-1.16-1.66-2.32-2.65-3.31-5.63-2.98-1.66.33-3.31,1.16-4.63,2.32-.5.5-.99.99-1.49,1.32-.99.5-4.8-2.32-7.78,2.65-.99,1.49-1.16,3.31-.83,5.13.33.83.66,1.49,1.16,1.99-.83-1.82-.83-3.81,0-5.63.66-1.49,1.82-2.65,3.31-3.14.99-.33,2.15-.33,3.31,0,.33.17.66.5.99.83,1.16-1.99,2.98-3.31,5.3-3.64,1.49-.17,2.98.17,3.97,1.16,1.16,1.16,1.16,2.48,1.16,3.97.83-.66,1.66-1.49,2.81-1.32.66,0,1.16.5,1.49.99.33.5.5,1.16.66,1.82,1.16-.83,2.65-1.32,3.97-.99.66.17,1.32.66,1.66,1.16.17.33.33.66.5,1.16h.17c.33,0,.5-.5.5-.83,0-.66-.33-1.32-.99-1.66h0l.17-.17Z"/>
            <path id="Path_6998" data-name="Path 6998" class="cls-2" d="M316.95,116.73c2.65-.17,5.3.66,7.28,2.48,1.66,1.66,2.48,3.97,2.32,6.29v.33c4.47-.33,8.77-.5,12.41,2.48,1.66,1.49,2.81,3.48,2.98,5.79,0,1.16-.33,2.15-.99,3.14-.83.83-2.65.83-3.31,1.66.99,1.32,4.47.66,4.14,3.14,0,.66-.33,1.16-.66,1.82h-.17c-.5.5-.83.83-.99,1.32.17.33,0,.33.33.33.66,0,1.49-.33,1.99-.83.66-.66,1.16-1.49,1.16-2.48,0-1.16-.33-2.32-1.16-3.31l-.5-.5h.17-.33c1.32-1.82,1.99-4.14,1.66-6.29-.5-2.48-2.15-4.63-4.3-6.12-2.81-1.82-6.29-2.48-9.76-1.82-.33,0-.83.17-1.16.33,0-2.32-.99-4.3-2.48-5.96-1.66-1.49-3.64-2.48-5.96-2.48-.83,0-1.66.17-2.48.5h0l-.17.17Z"/>
            <path id="Path_6999" data-name="Path 6999" class="cls-2" d="M291.29,124.02c-1.66.5-3.14,1.16-4.8,1.66-1.16-1.99-2.15-4.3-4.63-4.97-1.66-.33-3.48,0-4.97.83-.66.33-1.16.83-1.66,1.32-.33-2.98-.99-5.96-3.48-7.94-2.48-1.66-5.46-2.32-8.44-1.82-2.65.33-4.97,1.66-6.79,3.48-3.14-3.14-6.12-5.79-10.92-5.63h-.5c-4.14.33-8.11,2.48-10.76,5.79-1.99,2.48-4.63,7.12-4.3,10.43h.17c1.32-4.8,3.64-9.27,8.11-11.75,3.14-1.82,6.79-2.32,10.26-1.49,3.14.83,5.79,2.81,7.78,5.46,1.16-1.99,3.14-3.48,5.46-3.97,2.81-.66,5.79-.33,8.28,1.16,3.81,2.48,2.65,7.61,4.3,9.1,1.99-.5,2.81-3.64,6.62-3.48.66,0,1.32,0,1.99.5,1.49.83,2.98,4.97,4.14,4.47.66-.33,1.16-.66,1.82-.99,1.99-1.16,4.97-1.82,7.12-.83,2.15,1.16,3.81,2.98,4.63,5.3.33.66.83,3.97,1.32,4.3,1.99.83,4.97-3.14,7.78,2.32.5,1.66.33,3.31-.33,4.97,2.65-1.82,5.3-3.31,8.77-2.48,2.32.5,4.14,1.82,5.46,3.81.66,1.16.99,2.98,1.99,3.81.33,0,.33-.17.5-.5.66-1.16.66-2.48.17-3.81-.99-2.32-2.81-4.14-4.97-4.97-.17,0-.33,0-.5-.17s-.33,0-.5,0h-.5c-.17-.17-.33-.17-.5-.33h-3.97c-.17,0-.33.17-.5.17h-.5c-.17,0-.33,0-.5.17s-.33,0-.5.17c-.33,0-.66.33-.83.33,0-1.99-1.16-3.64-2.65-4.8-1.49-.99-3.48-1.32-5.3-.83-.33,0-.66,0-.83.17-.83-3.14-1.66-6.95-4.8-8.77-1.99-.99-4.47-1.16-6.62-.5h0l-1.16.33Z"/>
          </g>
        </g>
      </g>
    </g>
  </g>
</svg>