<?xml version="1.0" encoding="UTF-8"?>
<svg id="Layer_1" data-name="Layer 1" xmlns="http://www.w3.org/2000/svg" viewBox="0 0 500 500">
  <defs>
    <style>
      .cls-1 {
        fill: none;
      }

      .cls-2 {
        fill: #6b7274;
      }

      .cls-3 {
        fill: #d1a455;
      }
    </style>
  </defs>
  <g id="lighthouse">
    <g id="Layer_3" data-name="Layer 3">
      <g id="Group_66" data-name="Group 66">
        <g id="Group_62" data-name="Group 62">
          <path id="Path_7169" data-name="Path 7169" d="M281.53,65.43c0,.66,0,1.32-.33,1.82-.83,1.32-1.49,2.65-2.15,3.97-.66,1.32-1.66,2.65-2.32,4.14-.99,1.66-2.15,3.31-2.98,4.97-.5.99-1.16,1.82-1.82,2.65-.66,1.16-1.49,2.15-2.15,3.31-.33-.17-.66-.33-.99-.5,2.48-3.31,4.63-6.62,6.62-10.1,2.15-3.31,3.97-6.79,5.63-10.26h.83-.33Z"/>
          <path id="Path_7170" data-name="Path 7170" d="M210.03,118.06c0,.33.33.5.5.83l-.5.5c-3.48,0-6.95-.17-10.26-.17s-6.79.33-10.26,0c0,0-.17-.33-.33-.66,0,0,.33-.17.5-.33v-.17h1.16c5.46,0,10.92.33,16.39.33.99,0,2.15,0,3.14-.17h0l-.33-.17Z"/>
          <path id="Path_7171" data-name="Path 7171" d="M212.68,105.15c0,.33,0,.83-.5.83h0c-.5-.17-1.16-.5-1.82-.83-1.99-.83-3.97-1.66-5.96-2.48-1.16-.5-2.15-.99-3.14-1.49-2.32-.99-4.47-1.99-6.79-2.81-.99-.33-1.99-.83-2.98-1.16v-.83h.33c.5,0,.99,0,1.49.5,1.16.66,2.48.83,3.64,1.49.99.5,1.99.83,2.98,1.32,1.16.5,2.48.99,3.64,1.49,1.16.5,2.48,1.16,3.64,1.66,1.32.66,2.81,1.32,4.3,1.82.5.17.99.33,1.49.66h0l-.33-.17Z"/>
          <path id="Path_7172" data-name="Path 7172" d="M203.91,80.16c0-.5.5-.5.99-.5,4.63,4.97,9.43,9.6,14.73,13.9,0,.5,0,.66-.5.99-1.16-.99-2.15-1.99-3.31-2.81-1.16-.99-2.32-2.15-3.48-3.14-.99-.83-1.66-1.82-2.65-2.65-1.99-1.66-3.64-3.64-5.46-5.46v-.17h0l-.33-.17Z"/>
          <path id="Path_7173" data-name="Path 7173" d="M285.83,107.63c0-.33-.17-.5-.33-.66,0,0,.33-.17.5-.33,1.16-.33,2.15-.66,3.14-1.16.99-.33,1.99-.99,3.14-1.32.99-.5,1.99-.83,2.98-1.32.33,0,.83-.33,1.16-.66,1.49-.66,2.98-1.32,4.47-1.99,1.16-.5,2.48-.83,3.64-1.49h.99v.83c-.66.33-1.16.66-1.99.99-.66.17-1.32.5-2.15.83-.66.17-1.32.66-1.99.83-2.32.83-4.3,1.82-6.62,2.81-1.99.83-4.14,1.66-6.12,2.48h-.83v.17Z"/>
          <path id="Path_7174" data-name="Path 7174" d="M212.68,132.62c0,.33.33.66.5.99-2.98,1.32-5.96,2.65-8.77,3.81s-5.96,2.48-8.94,3.48l-.33-.33c0-.17.17-.33.33-.5,1.82-.66,3.64-1.49,5.3-2.15,1.49-.5,2.98-1.32,4.47-1.82,1.32-.5,2.65-1.32,4.14-1.82,1.16-.5,2.32-.99,3.48-1.49h0l-.17-.17Z"/>
          <path id="Path_7175" data-name="Path 7175" d="M244.29,80.49c-.33,0-.5.17-.66.33,0,0-.17-.17-.17-.33-.66-5.3-1.32-10.26-2.32-15.56,0-.33.5-.5.99-.33.17.99.33,2.15.5,3.14,0,1.16.33,2.32.66,3.31,0,.83.17,1.49.17,2.32,0,.5.17.83.17,1.32s0,.99.17,1.49c0,.5,0,.83.17,1.32,0,.99.33,1.99.33,2.98h0Z"/>
          <path id="Path_7176" data-name="Path 7176" d="M277.56,144.37c.33-.33.66-.5.83-.66,3.81,3.31,7.78,6.62,11.92,10.1-.33,0-.66.33-.99.5-.83-.66-1.82-1.32-2.65-2.15-.99-.83-1.99-1.82-2.98-2.65s-1.99-1.82-2.98-2.48-1.99-1.49-2.98-2.32h0l-.17-.33Z"/>
          <path id="Path_7177" data-name="Path 7177" d="M291.46,50.37c-.17,0-.33,0-.66.17l-.17-.17c-.17-.33-.17-.83,0-1.16,1.82-3.31,3.64-6.79,5.3-10.1.17-.33.5-.66.66-.83.17.17.5.33.66.66-1.99,3.81-3.97,7.61-5.96,11.59h0l.17-.17Z"/>
          <path id="Path_7178" data-name="Path 7178" d="M202.25,126.17c0,.33.17.5.33.66-.33,0-.66.33-.66.5-4.14.66-8.11,1.16-12.25,1.82-.17,0-.33-.33-.33-.83.17,0,.5-.33.66-.33.66,0,1.16,0,1.82-.17,1.16,0,2.32-.33,3.64-.5,1.49-.17,2.98-.5,4.3-.66.83,0,1.66-.17,2.48-.5h0Z"/>
          <path id="Path_7179" data-name="Path 7179" d="M305.2,111.11c0,.66-.83.5-1.16.66-.66,0-1.32.17-1.99.33-1.16,0-2.32.33-3.48.66h-.99c-.33,0-.66.17-.83.17-1.32,0-2.48.5-3.64.5,0,0-.17,0-.17.17-.17,0-.5-.17-.66-.33v-.5c.17,0,.5-.33.66-.33.66,0,1.49,0,2.15-.17,1.16-.33,2.32-.17,3.31-.66.5-.17,1.16,0,1.82-.17.66-.17,1.49,0,2.15-.33.66-.33,1.32,0,1.99-.33.33-.17.83,0,.99.33h-.17Z"/>
          <path id="Path_7180" data-name="Path 7180" d="M280.37,160.26c0-.5.5-.66.83-.5,2.65,3.14,5.13,6.45,7.78,9.76,0,.33-.17.83-.66.83h0c-2.65-3.31-5.46-6.62-8.11-10.1h.17Z"/>
          <path id="Path_7181" data-name="Path 7181" d="M298.58,92.07c.17.33.33.5.5.66v.33c-.5.33-.99.66-1.49.99-1.32.83-2.65,1.49-3.97,2.15-1.32.66-2.48,1.49-3.81,2.15-.66.33-1.16.66-1.99.99,0,0,0-.33-.17-.5h0v-.33c.99-.66,1.99-1.16,3.14-1.66,1.32-.66,2.65-1.49,3.97-2.15.99-.33,1.82-.99,2.65-1.49.5-.33.99-.5,1.66-.83h0l-.5-.33Z"/>
          <path id="Path_7182" data-name="Path 7182" d="M285.5,142.39c.5-.33.83-.5.99-.66,1.16.83,2.48,1.66,3.64,2.32,1.16.83,2.48,1.49,3.64,2.15,1.32.66,2.48,1.49,3.64,2.48-.33.17-.5.33-.66.5-.17,0-.5,0-.66-.17-1.82-1.16-3.81-2.15-5.46-3.48-.83-.5-1.66-.99-2.48-1.49-.66-.33-1.32-.83-1.99-1.16-.17,0-.33-.33-.83-.66h0l.17.17Z"/>
          <path id="Path_7183" data-name="Path 7183" d="M291.79,128.82c0-.17-.17-.5-.33-.83,0,0,.17-.17.33,0,.5,0,1.16,0,1.66.17.33.33.99,0,1.49.33.5.33,1.16,0,1.82.33.5.17,1.16.33,1.82.33s1.32.5,1.99.33c.5.5,1.16,0,1.66.5.83,0,1.49.33,2.32.33v.66s0,.17-.33.33h0c-.5,0-1.16-.17-1.66-.33-.5,0-.99,0-1.49-.33-.83-.33-1.66-.5-2.48-.66-1.16,0-2.32-.66-3.64-.66-.33-.5-.99,0-1.32-.33-.5-.17-.99-.33-1.49-.33h0l-.33.17Z"/>
          <path id="Path_7184" data-name="Path 7184" d="M207.55,141.73c0,.33.17.66.33.99-3.81,2.15-7.61,4.14-11.25,6.12l-.66-.66c3.81-2.32,7.61-4.3,11.59-6.45h0Z"/>
          <path id="Path_7185" data-name="Path 7185" d="M190.17,108.46c-.33-.33-.33-.83,0-1.16,4.14.83,8.28,1.66,12.58,2.48v.83h-.33c-.83,0-1.66-.17-2.32-.5-.66-.17-1.32,0-1.82-.33-1.32,0-2.48-.33-3.64-.66-1.16,0-2.32-.33-3.31-.83h-1.16v.17Z"/>
          <path id="Path_7186" data-name="Path 7186" d="M219.63,82.81h-.83c-2.65-3.31-5.3-6.62-7.94-9.93,0-.17.33-.5.33-.66h.33c.83.83,1.66,1.82,2.32,2.98,0,0,.17.33.33.33.83.99,1.66,1.99,2.48,3.14.5.83,1.16,1.49,1.82,2.15.33.33.66.83.99,1.32v.66h.17Z"/>
          <path id="Path_7187" data-name="Path 7187" d="M278.38,87.11h-.5c0-.17-.17-.5-.33-.66,2.81-3.14,5.63-6.29,8.44-9.6.33,0,.5.17.83.33v.33c-.5.66-.83,1.32-1.32,1.82-.66.83-1.49,1.49-2.15,2.32-.99,1.32-2.15,2.32-3.14,3.64-.33.33-.66.66-.83.83-.33.33-.5.66-.83.99h-.17Z"/>
          <path id="Path_7188" data-name="Path 7188" d="M208.71,94.56c-.17.33-.33.66-.5.99-3.81-2.32-7.61-4.47-11.25-6.95.33-.17.5-.33.83-.66,3.48,2.15,7.12,4.3,10.92,6.62Z"/>
          <path id="Path_7189" data-name="Path 7189" d="M284.51,183.93c0,.17-.17.33-.17.5-.83-.17-.83-.83-.83-1.32-.33-1.49-.83-2.81-1.49-4.14-.5-1.32-.99-2.81-1.66-4.14-.33-.83-.83-1.66-1.32-2.48.17-.17.33-.33.5-.5h.33c.5.5.83.99,1.16,1.66.99,1.82,1.82,3.81,2.48,5.79.33.99.83,1.82.99,2.81.17.66.33,1.32.5,1.99h-.17l-.33-.17Z"/>
          <path id="Path_7190" data-name="Path 7190" d="M265.14,79.33c-.17-.17-.33-.5-.5-.66.83-1.99,1.49-4.14,2.32-6.12.66-1.99,1.49-4.14,2.48-6.12.33.17.5.33.66.5,0,.66-.33,1.32-.66,1.99-.83,1.66-1.32,3.48-2.15,5.13-.66,1.49-1.16,2.98-1.66,4.47,0,.33-.33.5-.66.66h0l.17.17Z"/>
          <path id="Path_7191" data-name="Path 7191" d="M229.89,62.12c.83,1.99,1.66,4.14,2.32,6.29.66,1.99,1.32,3.97,2.15,6.12-.66.5-.99.5-1.16-.33-.5-1.49-.99-3.14-1.66-4.63-.5-1.49-.99-2.98-1.49-4.47-.17-.66-.5-1.16-.66-1.82q0-.5.66-1.16h-.17Z"/>
          <path id="Path_7192" data-name="Path 7192" d="M250.41,72.05s-.33.17-.5.33c0,0-.33-.33-.5-.5,0-4.3.17-8.44.33-12.74,0,0,.17-.17.33-.33.17,0,.33.17.66.33l-.33,12.74h0v.17Z"/>
          <path id="Path_7193" data-name="Path 7193" d="M327.54,150.99c.33-.33.33-.5.5-.5.66-.33,1.16,0,1.66.33,1.82.66,3.64,1.32,5.46,1.99.83.33,1.49.66,2.32.99.66,0,1.32.33,1.99.66,0,0,.33.17.5.33,0,.17-.17.5-.33.66-1.32-.33-2.65-.99-4.14-1.32-1.32-.5-2.65-.99-3.97-1.49-1.49-.5-2.81-.99-4.14-1.66h.17Z"/>
          <path id="Path_7194" data-name="Path 7194" d="M304.53,121.7c0-.17-.33-.5-.66-.66.17,0,.5-.33.66-.5,2.98,0,6.12,0,9.27.17,0,.33.33.66.5.83-.17.5-.66.33-.99.33-2.48,0-4.97,0-7.45-.17h-1.49.17Z"/>
          <path id="Path_7195" data-name="Path 7195" d="M208.37,188.23h.66v.83c-1.99,2.81-3.97,5.63-5.96,8.44h-.83c-.17-.5,0-.83.33-1.32,1.66-2.48,3.48-4.97,5.13-7.45.17-.17.33-.33.66-.5h0Z"/>
          <path id="Path_7196" data-name="Path 7196" d="M278.55,94.23c-.17,0-.33-.33-.66-.66,1.32-1.16,2.81-2.15,4.3-3.14,1.49-1.16,2.81-2.15,4.3-3.31.17,0,.33.17.66.33v.5c-2.65,2.15-5.46,4.3-8.44,6.29h-.17Z"/>
          <path id="Path_7197" data-name="Path 7197" d="M302.22,163.57c0,.33-.5.5-.83.5h0c-2.15-2.32-4.3-4.47-6.45-6.79v-.83h.5c2.32,2.48,4.63,4.8,6.95,7.28h0l-.17-.17Z"/>
          <path id="Path_7198" data-name="Path 7198" d="M255.38,80.82c-.5,0-.83,0-1.16-.33,0-.17,0-.33.17-.66v-1.82c0-1.99.33-3.81.33-5.63,0-.66.17-1.16.33-1.66,0,0,.17,0,.33-.33.17,0,.33.33.5.5,0,1.32-.5,2.65-.33,4.14-.66,1.99,0,3.81-.5,5.96h0l.33-.17Z"/>
          <path id="Path_7199" data-name="Path 7199" d="M202.25,155.79v.99c-2.81,1.66-5.13,3.97-6.79,6.62-.33-.17-.66-.33-.99-.5.83-1.16,1.66-2.15,2.48-3.14s1.99-1.66,2.81-2.48c.5-.5,1.16-.99,1.82-1.32h.66v-.17Z"/>
          <path id="Path_7200" data-name="Path 7200" d="M307.68,73.7c-.5-.17-.66-.5-.66-.83,2.32-2.32,4.3-4.8,7.12-6.62.17,0,.5.33.83.5,0,.17,0,.33-.17.33-.83.5-1.66,1.16-2.32,1.82-1.16,1.16-2.32,2.32-3.31,3.64-.5.5-.83.99-1.32,1.32h0l-.17-.17Z"/>
          <path id="Path_7201" data-name="Path 7201" d="M181.56,155.96h.66c0,.66,0,1.32-.5,1.66-.66.66-1.32,1.16-2.15,1.49-1.32.99-2.81,1.82-4.14,2.48-.17,0-.33,0-.66.33l-.5-.5s.17-.33.33-.33c.99-.66,2.15-1.16,3.14-1.82.99-.5,1.99-1.16,2.81-1.99.33-.33.66-.83.99-1.32h0Z"/>
          <path id="Path_7202" data-name="Path 7202" d="M302.22,153.64c0-.33.33-.5.5-.83,2.48,1.49,4.97,2.98,7.45,4.47.17.17.33.33.5.66-.17.17-.33.33-.66.66-1.32-.83-2.65-1.49-3.97-2.32-1.32-.83-2.65-1.49-3.97-2.48h0l.17-.17Z"/>
          <path id="Path_7203" data-name="Path 7203" d="M259.19,58.31h.99c0,3.14-.33,6.45-1.32,9.43-.33-.17-.66-.33-.99-.5.33-1.49.66-2.98.99-4.47.33-1.49,0-2.98.33-4.63h0v.17Z"/>
          <path id="Path_7204" data-name="Path 7204" d="M298.41,181.61c0,.33,0,.66-.66.83-1.82-2.32-3.81-4.8-5.79-7.12,0,0,.17-.33.33-.66h.5c1.82,2.32,3.64,4.63,5.63,6.95h0Z"/>
          <path id="Path_7205" data-name="Path 7205" d="M312.98,85.12c0,.17.17.5.33.83-2.65,1.49-5.3,2.98-7.94,4.3,0,0-.33-.17-.33-.33,0,0-.17-.17-.17-.33,0,0,0-.33.17-.33,1.16-.66,2.32-1.32,3.48-1.99.99-.5,1.82-.99,2.81-1.66.5-.33,1.16-.5,1.82-.83h0l-.17.33Z"/>
          <path id="Path_7206" data-name="Path 7206" d="M175.11,76.18c0-.33.33-.5.33-.83.83.5,1.49.83,2.15,1.16.99.5,1.82.99,2.81,1.66s2.15.99,3.31.99v.99c-.99.17-2.15,0-2.98-.66-1.82-.83-3.64-1.99-5.3-2.98l-.33-.33h0Z"/>
          <path id="Path_7207" data-name="Path 7207" d="M192.98,70.89v-.83h.66c1.32,1.32,2.81,2.48,4.3,3.64.66.5,1.16.99,1.82,1.49.33.33.5.66.83.99l-.33.33h-.5c-1.32-1.32-2.81-2.65-4.3-3.81-.83-.66-1.49-1.32-2.32-2.15h0l-.17.33Z"/>
          <path id="Path_7208" data-name="Path 7208" d="M165.34,104.32c-.5-.17-.66-.33-.83-.33h0c.17-.33.33-.33.66-.5h1.49c.5.33,1.16-.17,1.66.33h0c1.32,0,2.81.5,4.14.33.33,0,.83,0,1.32-.33,0,0,.33.33.66.5-.5.33-.83.5-1.16.83h-2.65c-.5,0-.99,0-1.49-.33-.5,0-.99.17-1.32-.33h0c-.99,0-1.82-.33-2.32-.33h0l-.17.17Z"/>
          <path id="Path_7209" data-name="Path 7209" d="M249.26,34.15c.17-.5.33-.66.5-.83l.5.5h0c-.17,2.15.17,4.47,0,6.62,0,.66.33,1.49.66,1.99,0,0-.33.33-.5.5-.83-.5-.83-1.66-.99-2.48,0-.66.17-1.66,0-2.32,0-.83-.17-1.49,0-2.32v-1.99h0l-.17.33Z"/>
          <path id="Path_7210" data-name="Path 7210" d="M310.49,132.95c.33,0,.5-.17.99-.5,2.65.5,5.63,1.16,8.77,1.82-.17.5-.33.66-.5.99-.17,0-.5-.33-.66-.33-.83,0-1.66-.17-2.48-.33-1.16-.17-2.32-.5-3.31-.83-.66,0-1.32,0-1.99-.33-.17,0-.5-.33-.83-.5h0Z"/>
          <path id="Path_7211" data-name="Path 7211" d="M320.75,109.12s.17.17.33.33c0,.17-.17.33-.33.66l-8.77,1.32c0-.17-.17-.5-.33-.83.33-.17.5-.5.83-.5.66,0,1.32,0,1.99-.17,1.16,0,2.32-.33,3.48-.5.99-.17,1.99-.33,2.81-.33h0Z"/>
          <path id="Path_7212" data-name="Path 7212" d="M292.12,72.87c-.33,0-.66-.33-.83-.33v-.17c0-.17.33-.5.5-.66,1.16-1.32,2.32-2.48,3.31-3.81.66-.66,1.16-1.49,1.82-2.32h.83v.66c-1.99,2.15-3.81,4.47-5.79,6.79h0l.17-.17Z"/>
          <path id="Path_7213" data-name="Path 7213" d="M273.75,60.96h-.83v-.33c0-.83.33-1.49.66-2.15.66-1.66,1.32-3.48,1.99-5.13,0-.33.33-.83.5-1.16h.66v.17c0,.83-.33,1.49-.66,2.32-.66,1.82-1.49,3.64-2.15,5.46,0,.33-.17.5-.33.83h.17Z"/>
          <path id="Path_7214" data-name="Path 7214" d="M173.62,131.63c-1.16.83-2.65,1.32-3.97,1.49-.99,0-1.99.33-2.98.66h-.83c-.33,0-.66,0-.99.17-.33,0-.5-.5-.33-.83.33-.33.83-.33,1.32-.33.33,0,.5,0,.83-.17.83,0,1.66-.33,2.65-.5.83,0,1.66-.33,2.48-.5.5-.17.99-.5,1.49-.99.33.17.5.5.5.83h0l-.17.17Z"/>
          <path id="Path_7215" data-name="Path 7215" d="M302.88,140.07c-.33.17-.5.33-.83.5-2.48-1.82-5.13-3.14-7.78-4.3v-.33s.33-.33.33-.5c2.32.66,6.79,2.81,8.28,4.63h0Z"/>
          <path id="Path_7216" data-name="Path 7216" d="M217.48,199.82c0-.33-.17-.66-.33-.83h-.33c0-.83.33-1.49.66-2.32.66-1.32.99-2.65,1.49-3.97v-2.81c.33,0,.66.17.83.17v.33c0,1.32-.33,2.65-.66,3.81-.5,1.49-.99,2.81-1.49,4.3,0,.33-.33.66-.5.99h0l.33.33Z"/>
          <path id="Path_7217" data-name="Path 7217" d="M296.26,119.55s.17.33.33.5l-.5.5h-8.61c0-.5,0-.83.33-1.16h8.44q0,.17,0,.17Z"/>
          <path id="Path_7218" data-name="Path 7218" d="M194.47,53.01h.66c1.16,1.32,2.32,2.48,3.31,3.81.66.99,1.66,1.66,2.65,2.15,0,0,.33.17.5.33l-.5.66c-.66,0-1.32-.33-1.82-.83-.99-.83-1.82-1.66-2.48-2.65s-1.49-1.66-2.32-2.65v-.83h0Z"/>
          <path id="Path_7219" data-name="Path 7219" d="M200.43,173.01c.17,0,.5,0,.66-.17v.33c0,1.16-.5,2.15-1.16,2.98-.99,1.32-2.15,2.65-3.31,3.97-.17.33-.5.66-.99.83,0-.17-.33-.5-.33-.66,1.16-1.32,2.15-2.65,3.31-3.81.5-.5.83-.99,1.16-1.66.17-.5.5-.99.5-1.49h0l.17-.33Z"/>
          <path id="Path_7220" data-name="Path 7220" d="M219.96,38.95c.33-.17.33-.33.5-.5h.5c.33.99.66,1.99.99,2.98.33,1.32.99,2.65,1.66,3.97.33.5.66.83.99,1.32,0,0-.33.33-.5.5-.99,0-1.32-.99-1.66-1.66-.5-.99-.99-1.99-1.32-3.14-.5-.99-.83-1.99-.99-3.14,0,0-.17-.17-.33-.33h.17Z"/>
          <path id="Path_7221" data-name="Path 7221" d="M314.13,97.37v-.99c1.32,0,2.48-.33,3.81-.5,1.49-.33,2.81-.99,3.81-2.15h.83v.66c-2.32,2.32-5.3,2.81-8.44,2.98h0Z"/>
          <path id="Path_7222" data-name="Path 7222" d="M297.91,76.85c.33.33.5.5.66.66-.33.33-.5.99-.83,1.16-.99.66-1.99,1.32-2.98,2.15-.66.66-1.32,1.32-1.82,2.15-.17.33-.5.5-.83.99-.33-.33-.5-.5-.66-.83,1.82-2.48,4.14-4.14,6.45-6.12h0v-.17Z"/>
          <path id="Path_7223" data-name="Path 7223" d="M219.46,66.25c0,.33-.33.66-.5.83-.83-.66-1.66-1.32-2.32-2.32-1.16-1.32-1.82-2.98-3.14-4.14,0-.5.5-.66.99-.66.66.83,1.32,1.82,1.99,2.81.66.83,1.16,1.66,1.82,2.48.33.33.66.5.99.83h0l.17.17Z"/>
          <path id="Path_7224" data-name="Path 7224" d="M240.48,54.34s-.33.17-.5.33c0,0-.33-.33-.5-.5v-7.61c.33,0,.5-.17.66-.33,0,0,.33.17.5.33v7.78h-.17,0Z"/>
          <path id="Path_7225" data-name="Path 7225" d="M321.91,164.9s-.33.17-.5.33c-.99-.66-1.66-1.99-2.81-2.48-.99-.66-1.99-1.32-3.14-2.15.17-.17.33-.5.5-.66,1.16.33,2.15.99,3.14,1.82.99.83,2.32,1.66,2.81,3.14h0Z"/>
          <path id="Path_7226" data-name="Path 7226" d="M274.91,188.9s0-.17.17-.33c0,0,.17,0,.33-.33h.33c.33.66.66,1.32.99,2.15.33,1.49.5,3.14.83,4.63-.33.33-.5.5-.83.66,0-.17-.33-.5-.66-.83.17-2.15-.17-4.3-1.16-6.29h0v.33Z"/>
          <path id="Path_7227" data-name="Path 7227" d="M168.82,117.4s.33.33.5.5h0c-.33.5-.99.5-1.49.66s-1.16,0-1.82.33c-1.32.5-2.65,0-4.14,0l-.33-.33c0-.17.17-.33.33-.66,2.32.17,4.8,0,6.95-.83h0v.33Z"/>
          <path id="Path_7228" data-name="Path 7228" d="M301.56,60.79h-.83c-.17-.83.33-1.16.83-1.66,1.16-1.32,2.48-2.48,3.81-3.31,0,0,.17-.17.33-.33h.83v.99c-.83.33-1.66.83-2.32,1.49s-1.32,1.32-2.15,1.99c-.17.17-.33.5-.66.66h0l.17.17Z"/>
          <path id="Path_7229" data-name="Path 7229" d="M324.56,78.67c0,.33.17.66.33.99-.83.17-1.66.33-2.48.5h-.33c-.83.83-2.15.83-2.98,1.66-.66.5-.83.5-1.49,0,.33-.83,1.32-.99,1.99-1.32.83-.33,1.49-.66,2.32-.99.83,0,1.82-.33,2.65-.66h0v-.17Z"/>
          <path id="Path_7230" data-name="Path 7230" d="M333,136.93c-.17.33-.33.66-.5.99-1.82-1.16-3.97-1.99-6.12-2.15-.5-.33-.66-.5-1.16-.83.33-.17.5-.33.66-.33,1.16.17,2.48.5,3.64.83,1.16.5,2.15.99,3.31,1.66l.17-.17Z"/>
          <path id="Path_7231" data-name="Path 7231" d="M334.16,107.3c0,.33-.33.66-.33.83-2.32-.5-4.63-.5-6.95,0,0-.17-.17-.5-.33-.83.83-.66,1.66-.33,2.48-.66h2.65c.83,0,1.82,0,2.65.5h0l-.17.17Z"/>
          <path id="Path_7232" data-name="Path 7232" d="M290.96,197.34c-.33-.33-.83-.66-.66-1.16-.5-1.16-1.16-2.32-1.99-3.31-.33-.5-.83-.99-1.16-1.66,0-.33.17-.83.66-.83,1.49,1.99,3.14,3.81,3.81,6.45l-.5.5h-.17Z"/>
          <path id="Path_7233" data-name="Path 7233" d="M278.22,46.56h-.66v-.99c1.32-2.65,1.82-4.47,3.81-5.79,0,0,.33.33.5.5-1.66,1.82-2.81,3.97-3.48,6.29h-.17Z"/>
          <path id="Path_7234" data-name="Path 7234" d="M285.5,59.97h-.66v-.33s0-.17-.17-.33h0c.66-1.16,1.16-2.32,1.66-3.48,0-.66.33-1.32.5-1.99,0-.17.17-.33.33-.5.17,0,.5.17.66.33,0,1.16-.33,2.32-.83,3.31-.33,1.16-1.16,1.99-1.49,3.14h0v-.17Z"/>
          <path id="Path_7235" data-name="Path 7235" d="M183.71,129.15c0,.17.33.33.5.5-.33.66-.99.66-1.49.66s-.99,0-1.49.17c-.33.17-.83,0-1.32,0-.33.33-.99,0-1.32.33h-.99c0-.17-.33-.33-.5-.5.33-.17.5-.5.66-.5.99-.17,2.15-.33,3.14-.5.66-.5,1.49,0,2.15-.5h.66v.33Z"/>
          <path id="Path_7236" data-name="Path 7236" d="M191.16,150.83c0,.33.17.66.33.99-1.99,1.16-3.81,2.15-5.79,3.14,0-.33-.33-.5-.33-.83,1.99-1.16,3.81-2.32,5.96-3.14h0l-.17-.17Z"/>
          <path id="Path_7237" data-name="Path 7237" d="M186.86,82.47v-.83h.83c1.66.99,3.31,1.99,4.8,2.98.17.33,0,.83-.17.99h0c-1.82-.99-3.48-2.15-5.3-3.31h0l-.17.17Z"/>
          <path id="Path_7238" data-name="Path 7238" d="M203.24,63.44c.17-.33.33-.5.5-.83,1.16.66,1.49,1.66,2.32,2.48s1.32,1.66,1.99,2.65c-.17,0-.5.33-.66.5-1.49-1.32-2.48-3.31-4.14-4.8h0Z"/>
          <path id="Path_7239" data-name="Path 7239" d="M209.7,163.74c-1.32,1.49-2.81,3.14-4.14,4.8-.33-.17-.5-.33-.83-.5,1.49-1.66,2.81-3.14,4.3-4.8.33,0,.66,0,.83.66h0l-.17-.17Z"/>
          <path id="Path_7240" data-name="Path 7240" d="M177.76,105.48c.33-.66.83-.83,1.16-.5.5.33.99,0,1.32.33.33.33.83,0,1.16.17.99.17,1.99.5,2.98.66v.83h-.17c-.5,0-.99,0-1.49-.33-.33-.17-.99,0-1.32-.33-.66,0-1.32,0-1.99-.33-.66,0-1.16-.33-1.66-.66h0v.17Z"/>
          <path id="Path_7241" data-name="Path 7241" d="M250.08,46.56c.33,0,.66.17.99.33v6.12c-.33.17-.33.33-.5.5-.17-.17-.33-.33-.5-.5v-6.62.17Z"/>
          <path id="Path_7242" data-name="Path 7242" d="M225.75,50.53c.66.5.66,1.32.99,1.99.5,1.32.99,2.65,1.49,4.14-.17.17-.33.33-.5.66-.17,0-.33-.17-.5-.33-.33-.83-.5-1.66-.83-2.48-.33-1.16-.83-2.15-1.16-3.31.17-.17.33-.33.66-.5h0l-.17-.17Z"/>
          <path id="Path_7243" data-name="Path 7243" d="M210.86,187.24h-.66v-.17c0-.33,0-.66.17-.99.5-1.32,1.32-2.65,2.32-3.64v-.33s.17-.17.33-.33c.5-.17.66,0,.99.5-1.32,1.49-2.32,3.14-3.14,4.97h0Z"/>
          <path id="Path_7244" data-name="Path 7244" d="M290.3,134.61v.5h-.17c-.83,0-1.49-.33-2.15-.83-1.16-.5-2.15-.99-3.14-1.49,0-.5,0-.66.5-.99.33,0,.66.17.99.33,1.16.66,2.48,1.32,3.64,1.82,0,0,.33.17.5.33h0l-.17.33Z"/>
          <path id="Path_7245" data-name="Path 7245" d="M229.89,85.45c-.33,0-.66.33-.99.5l-2.32-4.47v-1.16h.66c.83,1.66,1.66,3.48,2.65,5.13Z"/>
          <path id="Path_7246" data-name="Path 7246" d="M181.56,119.71h-2.15c-.66,0-1.32,0-1.99.33-.5.17-.83.5-1.16.66-.17,0-.5-.33-.83-.66.66-.66,1.49-1.16,2.48-1.32,1.16,0,2.15-.17,3.31,0,0,.33.17.66.33.99h0Z"/>
          <path id="Path_7247" data-name="Path 7247" d="M210.36,51.36c-.17,0-.5.17-.66.33,0-.33-.33-.66-.33-.99-.66-1.99-.5-1.82-2.48-2.98v-.83h.83c.99.66,1.99,1.49,2.48,2.65.33.66.5,1.32.33,1.99l-.17-.17Z"/>
          <path id="Path_7248" data-name="Path 7248" d="M307.68,142.39c.66,0,1.32.17,1.99.5.83.33,1.82.5,2.65.66.33,0,.5.33.83.5-.17.17-.33.33-.5.5-.66,0-1.49,0-2.15-.33-.83-.33-1.82-.5-2.65-.83-.33,0-.5-.33-.83-.5l.66-.66h0v.17Z"/>
          <path id="Path_7249" data-name="Path 7249" d="M202.42,40.1c0-.17-.33-.5-.33-.66-.17-1.32-.83-2.48-1.66-3.48v-.83h.66c.66.83,1.16,1.66,1.66,2.48.17.5.33.99.5,1.66,0,.33,0,.66-.66.83h-.17Z"/>
          <path id="Path_7250" data-name="Path 7250" d="M186.53,94.56c-.83,0-1.32-.83-2.15-.99s-1.49,0-2.32-.17v-.99c1.82,0,3.48,0,4.8,1.49,0,.17-.17.33-.33.66h0Z"/>
          <path id="Path_7251" data-name="Path 7251" d="M154.75,119.05c-.66.17-1.49-.33-2.15.17-.66,0-1.32.17-1.82.66-.5,0-.66-.33-.66-.83,1.32-.99,2.98-1.32,4.47-1.16,0,.17.17.5.33.66l-.33.33h0l.17.17Z"/>
          <path id="Path_7252" data-name="Path 7252" d="M264.15,48.71c-.17,0-.33.33-.5.5,0,0-.33-.33-.5-.33-.17-1.32,0-2.81.83-3.97.17-.33.66-.5.99-.33,0,.33,0,.83-.17,1.16-.5.66-.66,1.66-.66,2.48v.83h0v-.33Z"/>
          <path id="Path_7253" data-name="Path 7253" d="M282.36,137.92c.83.66,1.82,1.32,2.65,1.82v.66h-.99c-.66-.5-1.32-.99-2.15-1.66,0-.33.33-.66.5-.83h0Z"/>
          <path id="Path_7254" data-name="Path 7254" d="M289.8,126.33v.83h-.33c-.5,0-.99,0-1.49-.33-.33-.33-.83,0-1.16-.33v-.5c0-.33,0-.5.33-.5.66,0,1.32.17,1.82.5.33,0,.5,0,.83.33h0Z"/>
          <path id="Path_7255" data-name="Path 7255" d="M285.34,99.36c-.99.5-1.66.83-2.32,1.16-.33-.17-.5-.66-.66-.99.83-.33,1.66-.66,2.48-1.16,0,.33.33.5.5.99h0Z"/>
          <path id="Path_7256" data-name="Path 7256" d="M321.25,147.52c0,.5,0,.83-.5.99-.83,0-1.16-.66-1.66-.99h-.5v-.99c.66,0,1.16,0,1.66.5.17.33.66.5,1.16.5h-.17Z"/>
          <path id="Path_7257" data-name="Path 7257" d="M287.16,113.42c-.17-.5-.33-.66-.33-.99h0c.99-.33,1.99-.33,2.98-.17v.83h0c-.83,0-1.66,0-2.48.33h-.17Z"/>
        </g>
        <path id="Path_7258" data-name="Path 7258" class="cls-2" d="M209.04,455.36l4.47-77.62.99-17.05.83-21.35,3.64-71.33,1.82-44.69v-20.85s-6.79-1.82-5.96-4.14c.33-1.32,1.16-2.65,1.99-3.64,0,0-.66-15.23-1.99-18.87s-5.3-3.97-5.3-3.97c0,0-1.66-4.3-.66-7.45.5-1.82,1.49-3.31,2.98-4.47l-.99-11.59s2.65-5.63,15.06-8.11l.33-1.66,1.32-2.48.99-20.03s-1.66-20.36,18.54-20.85c0,0,15.72-1.16,17.87,16.39l1.16,25.16,1.49,2.65s11.42,2.81,15.06,10.26l.99,14.07.5,3.14-1.16,4.47-9.6,8.11s1.66,10.26,2.32,11.92,2.15,3.48,1.49,3.81-2.81,8.77-2.81,8.77l.83,27.47,1.16,13.74.83,6.45v5.63l.33,4.97v12.08c.33,1.49.5,2.98.33,4.47,0,1.49,0,2.98.17,4.47l.5,2.48v11.42c.17,0,0,2.32,0,2.32l.5,4.63v12.91l.5,2.15-.5,1.66c0,.33.33.66.33.83v6.45c0,.17.33,14.4.33,14.4l.83,15.23v5.96c0,.17.17,16.39.17,16.39l.99,19.03v6.62c.17,0,.33,11.59.33,11.59l.83,1.16-.66,1.82-9.27,27.31-8.61.99-56.11,6.45h0l.83.33Z"/>
        <path id="Path_7259" data-name="Path 7259" class="cls-3" d="M266.8,138.25l-3.48-3.31-4.14-1.32-6.62-1.16-5.63-.33-5.46.33-7.78,1.49-6.29,3.48.99-24.5,36.74.83,1.66,24.5Z"/>
        <g id="Group_65" data-name="Group 65">
          <g id="Group_63" data-name="Group 63">
            <path id="Path_7260" data-name="Path 7260" d="M276.56,192.37c.5.99.83,1.99.83,3.14v3.14c0,1.16-.5,2.15-1.32,2.98,0,1.99-.17,4.14,0,6.12,0,1.49,0,2.98.17,4.3,0,1.66.17,3.31,0,4.97,0,.83.17,1.82.17,2.65v2.65c.17.99.17,1.99.17,2.98v.5c.17.33.17.83,0,1.32s-.33.99,0,1.66c.17.66.33,1.32.17,1.99,0,2.15.5,4.14.17,6.29.33.99.33,2.15.17,3.14,0,1.32,0,2.48.33,3.81,1.16.17.66,1.32,1.32,1.99-.5.33-.66.5-1.16.66,0,2.65,0,5.3-.17,7.94.5,1.49,0,2.98.17,4.47.17,1.32,0,2.65.17,3.81.33,1.49,0,2.98.17,4.3.33,1.99,0,3.81.17,5.79,0,1.99.17,3.81,0,5.79,0,.66.17,1.16.33,1.82s-.17,1.16.33,1.82v1.99c0,3.64.33,7.12,0,10.76.5,1.82,0,3.48.17,5.3,0,.5.33.83.17,1.32,0,.5.33.99.33,1.49s-.33.83-.33,1.32c0,.66.33,1.32.33,1.99s-.33,1.32.17,1.99v5.46c.17,1.49.17,2.98,0,4.47.83.5,1.66.99,1.49,2.32-.5,0-.99.17-1.49.33,0,.33.17.5.17.83,0,2.81,0,5.63.17,8.44v6.12c0,1.49,0,2.81.17,4.14.33,1.49,0,2.98.17,4.47,0,1.82.17,3.48,0,5.3,0,.99.17,2.15.17,3.14v3.14c.17,1.49.17,2.98,0,4.3,0,.66.17,1.49.17,2.15,0,.5.33.99,0,1.66,0,.5-.17,1.16,0,1.66,0,1.16.17,2.15.17,3.31v3.14c.33,1.49,0,2.98.17,4.47.17,2.15.17,4.3,0,6.45,0,.66.33,1.16.33,1.82-.17.5,0,1.16.17,1.66v.5c-.5.99,0,2.15,0,3.14-.17.99-.17,2.15,0,3.14.33,1.99,0,3.81,0,5.79,0,.33,0,.66.17.99.66.5,1.16.99,1.66,1.49-.66.33-1.16.5-1.66.66v3.14c.5,1.82,0,3.64,0,5.46,0,.83.17,1.49.17,2.32v2.32c.17.99.33,1.99.17,2.98,0,2.32.5,4.63,0,6.95.5,1.99,0,3.97.17,5.96.17,1.49,0,2.98.17,4.47.17,1.16.17,2.32,0,3.48,0,2.15.5,4.3.17,6.45.66,1.82,0,3.81.17,5.63.66.5,1.32.99,2.15,1.49,0,0-.33.33-.5.5-.66-.17-1.32-.5-2.15-.66,0,.33-.17.5-.33.66h-.5v-1.49h-.5c0,.33,0,.66-.17,1.32,0-.5-.17-.66-.33-.99,0-.5.17-1.32.33-2.48-.99-1.99-.17-4.3-.33-6.45.33-.33.5-.66.83-.99-.5-.66-.99-1.32-1.32-1.99h-10.26c-.66,0-1.49.33-2.15.66-.17.83,0,1.66.5,2.32,0,.83-.33,1.66.17,2.48-.33.66-.5,1.49,0,2.32-.17.33-.5.66-.83,1.32v1.66c-.33,0-.66-.33-.83-.5-.66.5-1.66.33-2.48.17s-1.66.17-2.48-.33c-.33,0-.83.17-1.16.17h-5.3c0-.33.17-.5.33-.66-.66-.66-1.49.33-2.15,0,.5-.66.17-1.32.33-2.15.17,0,.5-.33.83-.5v1.32h2.15c0,.5-.33.83-.33,1.16,0,0,.33,0,.5.17v-1.49h.66c0-.17.17-.5.33-.66h.66v.66c-.17.17-.5.33-.83.66.33.17.5.33.83.33,0,0-.17.17-.33.33,0,0,.33.33.5.5.17-.5.33-.83.5-1.32.17.33.33.66.66.99h.5c.33-.5.83-.99,1.16-1.32-.66-.33-.66.5-1.32.5,0,0-.33-.33-.5-.33.33-.17.5-.5.83-.66v-.33c.5,0,1.16,0,1.99.33,1.16-.33,2.48-.33,3.48.17,0-.5-.17-.83-.17-1.32,0-.33.5-.66.17-1.16,0,0-.33.17-.5.33-.33,0-.66-.33-.99-.33-2.48,0-4.8-.66-7.28-.5-.83,0-1.82,0-2.65-.33-.66-.33-1.49-.17-1.99.17-.99,0-1.99.17-2.98-.33h-1.49c-.83.33-1.66.17-2.48-.17-.5.33-.99.5-1.49,0-.17,0-.33.33-.5.33,0,0-.33-.17-.5-.33-.17,0-.33.17-.5.33-1.82-.5-3.64-.5-5.3,0,0,0-.17-.33-.33-.5h0c2.32,0,4.8-.33,7.12-.17.5,0,.99,0,1.66-.33.5,0,.99.17,1.49-.17.17-.17.66,0,.99,0,.66,0,1.49.33,2.15.5l.17.17c0-.17,0-.33.33-.66.5,0,.99.17,1.66.33l.33-.17c1.16.66,2.48.17,3.81.5v-1.49c.33.33.66.5.99.66.5,0,.99.17,1.99.33.33,0,.99-.5,1.82-.83.33,0,.66.17,1.16.33.33-.17.5-.5.83-.66l.83.66h1.66c0-.33-.17-.5-.33-.83-.33,0-.66,0-1.16.17v-1.66c-.5.33-.99.5-1.49.99.17-.83.33-1.32.5-1.99.17,0,.5,0,.66.33,0-.17.33-.5.66-.99.17.33.33.5.5.83h.5c-.17-.5-.33-.83-.5-1.32-.66.17-1.32.33-1.99.66,0,0-.17-.33-.33-.5.17-.33.5-.66.83-.99,0,0-.17-.17-.33-.5-.33.33-.5.66-.83,1.16-.33-.33-.66-.66-.99-.83.66-1.16,2.15-.83,2.98-1.66.17,0,.5.17.66.5v-1.16c-.33,0-.5.17-.83.33,0-.17-.17-.5-.33-.66,0,0,.17-.33.33-.5-.66-.5-1.16-.83-1.66-1.32.33-.33.5-.66.83-1.16-.33,0-.66,0-.83-.17l-.99-.99.66-.66c.33,0,.66.17.99.33.33,0,.66-.17.99-.33.33.33.66.66.83.99.5-.33,1.16-.83,1.66-1.16.33.5.83.17,1.32.33l.5.5c.17,0,.33-.17.66-.33v.99c-.17.33-.5.66-.83,1.16,0,.33-.17.66-.17.99.66-.33,1.16-.5,1.66-.66.17,0,.33.66.83.33.33-.33.66.33.83,0,.33.33.66.33.83,0l.33.33.33-.33h.33v-1.16h-.66c-.33-.5,0-.83.33-1.16h.99c0,.17,0,.33.17.66.33,0,.5-.33.83-.5v-2.65l-.5-.5c.17-.33.33-.5.5-.99-.5,0-.66.17-.83.17-.83-.17-1.82-.5-2.81-.83-.33,0-.83-.5-1.32-.66h-.5c-.33.33-.5.83-.83,1.16h-.83v.83h1.16c-.33.17-.5.17-.99.33v1.32c-.17-.5-.33-.99-.66-1.32-.17-.17-.66-.33-1.32-.5-.5.33-.99.66-1.66,1.16v-.66c.5-.66.99-1.32,1.66-1.82h.66c-.5-.33-.83-.5-1.16-.83-.5,0-1.16-.17-2.15-.33-.33.33-.83.17-1.32,0-.66,0-1.16-.17-1.82,0h-1.82c-.66,0-1.16-.17-1.66-.33,0,.17,0,.5-.17.5l-.66-.66.33-.33h3.81c.5,0,.99.33,1.49.33s.99.17,1.49-.17c.33.5.83.33,1.32.33h1.66v-.66c.33-.33.66-.5.83-.83l.66.66c.33,0,.66-.17.99-.33.83.33.5.99.66,1.49h.5v-1.16c.17,0,.5-.33.83-.66,0,0,.33.33.66.5-.17.17-.33.33-.66.5v.17c.66.17,1.32.66,1.99,0,.5,0,.99.17,1.49.33.33-.33.66-.83.99-1.32.33,0,.83.33,1.32.5v.83c-.5,0-.83-.33-1.32-.5.17.5.33.83.5.99h1.32c.17,0,.5-.33.66-.5l.83.83h1.99v-1.99h-.5v1.32h-.5v-1.49c-.33-.17-.66-.5-.99-.66-.66-.17-1.32.17-1.99-.33-.33,0-.66.17-.99.33-.33,0-.66,0-.99.17,0-.5.17-.83.33-1.16-.66,0-.99-.17-1.49-.33,0-.33-.17-.5-.33-.83.5-.33.99-.66,1.32-.99.17-.5.33-.99.5-1.49,0-.5,0-1.16-.33-1.66.5-.33.99-.83,1.49-1.32l.33.33v-1.32h-.83c-.17.33-.5.66-.83,1.16-.33-.66-.66-1.32-.99-2.15h.66c.33-.5.5-.99.83-1.49-.17-.33-.5-.99-.83-1.49-.33.17-.83.33-1.16.5-.33-.17-.5-.5-.83-.66,0-1.16,1.32-.5,1.49-1.32,0-.33-.17-.66-.33-.99l.66-.66h-.83c0-.33,0-.5.17-.83,0-.17-.33-.17-1.16.17-1.32-.5-2.65-.83-4.14-.99-.33.33-.66.5-.83.83l.33.33c-.33.99-1.66.99-2.15,1.99-.33-.17-.5-.33-.66-.66l1.32-.99c-.5-.33-.83-.5-1.16-.83-.33,0-.5.17-.99.5.33-.66.5-.99.66-1.32-.66-.5-1.16-1.32-2.15-.33-.17-.17-.33-.33-.66-.5-.83.83-1.66,0-2.48,0s-1.66.17-2.48-.33c0,0-.33.17-.5.33-.5,0-.99-.66-1.66-.17,0,.17.17.5.33.83-.17.33-.5.66-.83,1.16-.33-.66-.33-1.16,0-1.66-.33-.17-.66-.5-.99-.66.17-.33.5-.5.5-.5.5,0,.99.17,1.49.33h3.14c.66,0,1.32.33,1.99.33,0,0,.33,0,.5-.17.66.33,1.49.5,2.15,0,.5.17.99.33,1.49.5h1.99c-.66-.33-1.16-.66-1.66-.83.17-.33.33-.5.5-.66h1.66c.33.5.66.99.99,1.49.83,0,1.66.33,2.65.5.83,0,1.66.33,2.32.33l.66-.66c0,.33.33.5.5.83l.83-.83c.5,0,.99.17,1.66.33,0,0,.33-.33.5-.66l.66.66.33-.33c0,.66.33,1.32.83,1.82.17-.66.17-1.32.17-1.82v-1.82c-.17-.17-.33-.33-.5-.66v1.99h-.17c0-.33-.17-.66-.33-1.16l.17-.33-.99-.99h-.66s0-.33-.17-.66l-.66.33v-.66c.66-.66,1.49-1.32,1.32-2.65h-.5v.83h-.99v-3.64c.33,0,.5-.33.66-.5v-.83l.66-.66c.17-.83-.5-.99-.66-1.49,0,0-.17.17-.5.33-.5-.33-.83-.5-1.49-.83.5,0,.83,0,1.16-.17v-.5h-1.16v-1.32c.33,0,.66-.33,1.16-.5v1.32h.83c0,.17.17.33.33.66h.17c0-.5,0-.99-.17-1.66,0,0,.17-.33.33-.66h-.5c-.33.33-.83.33-1.16,0,0-.17.17-.5.33-.66h-.83c0,.17-.17.33-.33.66,0,0-.33,0-.66-.17.33-.5.66-.83.99-1.16h1.32v-.5c-.5,0-.99-.17-1.49-.33-.83,0-1.66-.33-2.32-.66h-1.16c-.83,0-1.82-.17-2.65-.5l-.17-.17c-.66.33-1.32.5-1.99.5s-1.49,0-2.15-.33c-.17-.33-.5-.66-.66-.99h-2.32c-.66,0-1.32-.17-2.15-.33,0-.17-.17-.5-.5-.83-.66.83-1.49.33-1.99.83-.66-.66-1.49-.33-2.15-.33s-1.32-.17-1.99-.5v-.5l.33.33c.17-.33.66-.33.99-.17h0c.33.33.83.33.99,0h0c.5,0,.99.17,1.49.33,2.32,0,4.63.66,6.95.5,0,0,.33,0,.5.33,0,0,.17-.17.33-.17l.66.66h.83c0-.17,0-.5-.17-.5-.33-.33-.66-.5-1.32-.83.33,0,.5-.17.66-.33h0c.66-.17,1.32-.17,1.99-.33,0,.17.33.66.66.99h0c-.33.17-.66.5-.99.66.66.17,1.16.33,1.66,0,.33.17.66.33,1.16.66h2.65c.5.66,1.16.33,1.66.33,0,0,.33,0,.5-.17.33.17.66.33.99.66.66-.17,1.32-.5,2.15-.66v.99h0v-.83s.33.17.33.33v-3.14c-.17-.17-.5-.33-.83-.66l.5-.5.33.33v-1.82c-.17,0-.5.33-.99.5.33.17.5.5.83.66h-.83c0-.17-.17-.5-.33-.66-.33,0-.83.17-1.32.33-.33-.83.33-1.32.5-2.15-.17,0-.5-.33-.99-.66.33-.17.5-.5.99-.83-.33,0-.5,0-.66-.17h-.5l.83-.83c-.66-.33-1.16-.66-1.82-.99-.33.33-.5.66-.99,1.16,0-.33,0-.5-.17-.66v-.5c-.5,0-.83.17-1.32.33v-.83s-.33,0-.5-.17v-1.16h-1.16c-.33,0-.99-.17-1.66-.33.33-.66,1.16-.99,1.82-.99v.5c.33-.17.5-.5.83-.66.17,0,.5.33.66.5,0,.17-.17.33-.33.5l1.32,1.32c.17-.33.33-.66.66-.99l-.66-.66c0-.33.33-.83.5-1.32-.5-.33-.99-.66-1.49-.99-.5.33-.83.83-1.49,1.32,0-.5-.17-.83-.33-1.16-.33-.17-.66-.33-.83-.5-.83,0-1.49-.33-2.15-.5-.33.5-.83.83-1.32,1.32.5.66,1.49.5,2.32.99-.17,0-.5.17-.66.33h-1.49c-.83,0-.83.17-1.49,0-.17,0-.33.33-.5.33,0,.66.17.99.33,1.66-.33.17-.5.33-.83.5.66.33,1.32.5.99,1.32-.33.17-.66.33-.83.5-.17.83-.33,1.66-.5,2.32h.99v.17c-.33.17-.66.33-.83.66,0,.33-.33.66-.33.83-.66,0-.33-.5-.66-.83-.66,0-1.16-.33-1.32-.83.33,0,.66-.33.83-.5,0-.66-.17-1.16-.33-1.66.66-.33.66.17.66.5h.17c.33-.33.5-.83.17-1.32-.33-.99-.83-1.99-1.49-2.98.33,0,.5-.17.66-.33v-.5h-.83v-1.16c-.17,0-.33,0-.66-.33.17-.83.5-1.49.66-2.48,0,0-.17-.33-.33-.66,0,0,.33-.17.5-.33,0-.33.33-.66.5-.99.17-.33.5-.66.83-1.16.17,0,.33.17.66.33.17,0,.5-.17.83-.33,0,.33.17.5.33.66.17,0,.33-.33.5-.33,0-.83-.83-.83-1.16-1.16s-1.16-.5-1.16-.83c0-.66-.99-.5-.99-1.32l.33-.33c-.17-.17-.5-.5-.66-.83-.17.17-.5.33-.66.66v-.5c-.33,0-.5,0-.83-.17v-.33c1.16-.66,2.15.66,3.14,0,.33,0,.66.17,1.16.33-.17.17-.5.5-.5.66.83.99,1.82,1.82,2.98,2.32,0,.17-.17.33-.33.66.33.66.83,1.16,1.32,1.49-.33.5-.83.99-1.16,1.66.5.5,1.16.83,1.82.66v-1.82c.5.66.83.99.99,1.32l.17-.17c.5.33.83.5,1.32.83.33-.33.5-.66.66-.99-.5-.5-.99-1.16-1.32-1.66,0-.5.66-.83.17-1.32-.66,0-.83.99-1.66.5v-.83c.17,0,.33.17.5.33.66-.5,1.49-.99,2.15-1.32-.5,0-1.16-.33-1.99-.5,0,0,0,.33-.17.5-.83,0-1.82-.33-2.98-.5-.5-.33-.99-.83-1.66-1.32l.5-.5c.66.17,1.16.5,2.15.83,0-.33-.17-.66-.33-.83-.33-.33-.66-.5-1.16-.83.33,0,.5-.33.66-.5.66,0,1.32.33,2.15.5,0,.33-.17.83-.33,1.32h2.15c.33,0,.66.17,1.16.33.33,0,.66,0,.99.33.33-.5.66.17.99,0,0-.33,0-.66.17-.83.66,0,.83.5.99,1.16.33-.17.5-.33.5-.33.99,0,1.99.17,2.98.33,0,.33.33.66.66,1.32v-3.14h-.99c0,.17,0,.33.17.5,0,0,.33.33.5.33-.33.83-.83-.5-1.16.33-.33-.5-.5-.83-.83-1.32,0,0,.17-.33.33-.5-.5-.99-.66-2.15-.5-3.31l.5-.5c0-.33-.17-.66-.33-1.16,0,0-.33,0-.5-.17v-.33c.17,0,.33,0,.66-.17v-1.49c-.33-.5-.66-.99-.83-1.49.66-.99.33-1.99.33-2.98,0,.17,0,.33-.33.66-.17,0-.5-.33-.66-.5,0-.5.66-.66,1.16-.5.33-.33,0-.99.5-1.32,0-.5,0-.99-.33-1.49-.17-.33,0-.99-1.16-.83.5-.5.66-.83,1.16-1.32-.33-.17-.66-.33-1.16-.66h.17c0-.17-1.49-.17-1.49-.17,0,.33-.33.83-.5,1.16h-.5v-1.49c-.5-.33-.83-.66-1.16-.83-1.32,0-2.65-.17-3.81-.99-.17.33-.5.66-.66,1.16.17.33.66.99-.33,1.32-.33-.66,0-1.82-1.66-1.82-.17-.33-.5-.66-.83-.99h-1.82c.17-.33.33-.66.5-.83.5,0,.99.17,1.49.33.33,0,.83,0,1.16.17v-.33c-.33-.17-.83-.5-1.32-.66,0-.17.33-.5.5-.66.83,0,1.49.17,2.32.33,0,0,.33.17.5.33-.17.33-.33.66-.66,1.16.33-.17.5-.33.66-.33.99.66,2.32.5,3.48.83.5.17.99,0,1.49,0,.66,0,1.49.17,2.15.33.17,0,.33.33.66.66.5,0,1.16.33,1.66-.33,0-.99-.99-1.32-1.82-1.66.33-.33.33-.99.99-.99v-1.16c0-.33-.33-.66-.17-.99.83-.5.5.66,1.16.5v-1.16c-.33-.5-.66-.83-.99-1.32-.17.33-.33.66-.5.83h-1.32c-.5-.33-.5-.83-.33-1.32.5.33.99.66,1.32.83.33-.5.66-.83.83-1.16-.33-.5-.5-.99-.83-1.66.17,0,.5-.33.83-.5-.17-.5-.33-.66-.5-1.16-.5-.17-1.16-.5-1.99-.83.66-.33.99-.5,1.49-.66,0-.33.17-.66.33-.99,0,0,0-.33-.17-.33.5-.33.83-.66,1.32-1.16.17,0,.33.33.33.83v2.65h.66c-.66-2.15,0-4.14-.33-5.96-.83-.66-1.49-1.32-2.15-1.82h-1.32s0,.33-.17.5c0,0-.17,0-.33-.33-.33.33-.66.66-.99,1.16v-1.82c-.17-.17-.5-.5-.66-.5-.66,0-1.16-.17-1.66-.33,0-.17,0-.33-.17-.5h-2.81c-.17.17-.5.5-.66.83-.33-.5-.33-.99-.99-.99-.17,0-.5-.17-.66-.33l-1.16-1.16h-1.32c0-.33-.33-.5-.5-.83h.5c.99.5,1.99.66,2.98.66-.33-.33-.66-.5-.83-.66,0-.17.33-.5.33-.66.99.33,1.99.5,2.81.66,0,.5,0,1.32.99,1.32.33,0,.5.33.83.66.17-.17.5-.33.66-.66h1.32v.5c.33.17.66.33.99.33s.66,0,.99-.33c.5.5,1.16.83,1.82,1.16.66.17.99.83,1.66,1.32.66-.99,0-1.99,0-2.81-.17-.99-.83-1.82-1.82-2.15.17,0,.33,0,.66-.17l.83.83v-3.48l-.5-.5s.33-.17.33-.33v-5.46c0,.17,0,.33-.17.5h0c0,.33.33.83,0,.99-.66.5,0,.99,0,1.66-.33,0-.66.33-1.16.5v.66h-.5c0-.17,0-.33-.17-.66h-.99c0-.33-.33-.83-.5-1.16-.5-.33-.83-.66-1.32-.99.17-.83-.66-.99-.99-1.66.5-.5.99-1.16,1.66-1.82h.66c0-.33,0-.66.17-.99.17.66.33,1.16.5,1.66.5-.5,1.32-.33,1.16-1.32-.17,0-.5-.33-.83-.66v-.99c-.5,0-.83-.33-1.32-.5,0,.17,0,.33-.33.66-.33,0-.66-.17-.99-.33,0-.66.17-.99.33-1.66q-.33.17-.5.33c-.5-.33-1.32-.33-.99-1.49-1.32.17-2.15-.99-3.48-.66,0,.33.33.66.5,1.16-.33,0-.5-.33-.66-.33-.33,0-.66.17-.83.33.17-.5.33-.83.5-.99l-.33-.33h-1.32v-.17c-.83-.33-1.66-.5-2.48-.83,0,0-.33.17-.33.33-.5-.5-.83-.99-1.32-1.32l-.99.99h-.83c0-.17,0-.33-.17-.5-.5,0-.99-.17-1.66-.33-.17,0-.66.33-1.16.5l-.5-.5v1.32l-.17.33c-.83-.5-1.49-1.32-1.99-2.15,0,.17-.17.5-.5.83-.33-.33-.5-.66-.66-.83,1.82-1.16,3.48,0,5.3,0,.33-.33.83-.83,1.32-1.16.83.5-.33.99,0,1.66h.66c.66.17,1.32,0,2.15,0,0,0,.33.33.5.66.17,0,.33-.33.5-.33.66.17,1.32.5,2.15.66l.33-.5s-.33,0-.5-.17v-.83c.83,0,1.82,0,2.65.5.33.33.5.83.83,1.16.33,0,.66-.17.99-.33.33.5.83.83.99,1.16.66,0,1.16,0,1.66-.17.33.83,1.16.66,1.66.99h1.16v.66h1.16c-.33-.5-.5-.83-.83-1.32.33-.5.66-1.16.83-1.66.33.5.5,1.16.5,1.99.33,0,.5.33.83.5h0c0-1.32-.5-2.65-.17-3.97,0-.5-.66-1.32-1.49-1.82v-1.66l.83.83c.5-.5,0-.99,0-1.32,0-.17.33-.33.33-.66v-3.81c-.5-.5,0-1.66-.99-1.66-.17-.5-.33-.99-.66-1.49l-.33.33c0-.33-.33-.66-.5-1.16.5-.17.99-.33,1.49-.5-1.16-.99-2.81-1.16-3.81-2.32-.17,0-.33.17-.5.33,0-.17-.33-.5-.33-.66h-1.16l-.66-.66c-1.66,0-3.14-.66-4.97-.33-.66-.99-1.82-1.49-2.98-1.32-.33,0-.66-.17-1.16-.33h-1.16c-.17,0-.33.33-.5.5.17,0,.5.17.66.33-.33.5-.99.83-1.66.66,0-.5.33-.83.5-1.32-.33-.17-.66-.33-1.16-.66l-.5.66s0,.17.33.33h-.83c0-.33-.33-.66-.5-.99-.83.5-1.99.5-2.81,0-.17,0-.5.17-.83.33.33.17.66.5.99.66h-.33c-.83,0-1.32-.66-1.99-1.32-1.32,0-2.48-.5-3.81-.5h-3.81l-.5-.5h3.48c1.16,0,1.32.17,1.99-.17h.66c1.16.66,2.48.17,3.81.33.99,0,1.82.33,2.81.33h2.81c.5,0,1.16.17,1.66.33.5,0,.99.33,1.49.33h2.32v-.5c-.33,0-.66,0-.99-.17,0-.33.33-.66.5-1.16.33.17.5.5.83.66,0,0,.33-.17.5-.33,0,0,.17.33.33.5h1.49c0,.5.33.83.5,1.32.66,0,1.32,0,2.32-.17,0,0,.17.17.33.5,0,0-.17.33-.33.5.66.33.99,0,1.32-.5.33.5.66.83.99,1.32.17-.17.33-.33.5-.33.33.17.83.5,1.32.66,0-.17,0-.33.33-.66h.99v.99c.33-.66.83-.99,1.49-.99v-1.16c-.5-.83-.83-1.49-1.32-2.48-.17.66-.33,1.16-.5,1.66h-.5c.17-1.49-.99-2.32-1.82-3.31v-.99h-.66l.33.33c-.5.33-.83.83-1.32,1.16-.33-.5-.5-.83-.83-1.16-.5.5-.83.99-1.16,1.32-.66,0-.99,0-1.16-.66,0,0,.17,0,.33-.17h.5c0-.17,0-.33-.17-.5-.5-.33-1.16-.83-1.66-1.16-.33-1.16,1.32-.99,1.49-1.99h-1.99c-.5-.83.33-1.49.17-2.32.66.17,1.16.5,1.66.66q.17-.99-.99-1.32c0-.5.33-.66.5-.5.33.5.5-.17.83,0,.17.17.66,0,.99.17.17-.5.33-.99.5-1.49,0,0-.33,0-.5-.17-.17-.5-.33-.83-.66-1.32-.33.17-.5.33-.66.33-.33-.33-.66-.83-.83-1.16-.33,0-.66,0-.99.17.5-.83.83-1.49,1.66-1.16v-.83c-.5-.17-.83-.5-1.49-.66,0,0-.17.33-.33.66-.5-.17-.99-.33-1.32-.5l-.33.33c-.66-.66-1.16-.33-1.82,0-.33,0-.66-.33-1.16-.5.17-.33.5-.5.66-.83,0-.17-.33-.33-.5-.66-.83,0-1.66-.17-2.48.17,0,0-.33-.17-.66-.33v.66s0,.33-.17.66c-.17-.66-.33-.99-.5-1.49-.17,0-.5-.33-.83-.5-.33.33-.66.66-.83.99l-.66-.66c-.66,0-1.32-.17-2.32-.33,0,0-.5.17-.99.5h-1.49c-.66-.83-1.66-1.32-2.65-1.32.33-.17.33-.33.5-.5,1.49-.33,2.81.99,4.3,0,.5.17.99.33,1.49.5h1.66c.5,0,1.16,0,1.49.33.5-.5.99,0,1.66,0,.5,0,.99,0,1.49.33.5,0,.99.33,1.49.33h1.66c0-.33,0-.66-.17-1.16h2.48c.66.66.5,1.16,0,1.99.66,0,1.16,0,1.82-.33h.66s.33.5.5.66h.99c.17.17.33.33.5.66,0,0,.33-.17.5-.33.33.17.5.5.99.83.17-.5.33-.83.5-1.16l.33.33c0-.66-.17-1.32-.33-2.15.83.66,1.49,1.49,1.99,2.32,0,.99.5,1.99,1.16,2.65.5-.66-.33-1.32,0-2.15v-4.63c-.17-.17-.5-.5-.99-.83h.66v-2.15s-.33.17-.5.33c-.5-.5-.83-.99-1.32-1.49h-.66v1.16c-.17,0-.5.33-.83.5,0-.5,0-.83.17-1.16,0-.33,0-.66.17-.99h-.66c-.5-.66-.99-1.32-1.82-1.32-.5,0-.66-.33-.83-.83.66-.33.66.33,1.16.5.33-.5.66-.99.99-1.66.33.17.5.5.83.66.33-.33.5-.83.83-1.16-.5-.5-.83-.83-1.16-1.32h-.5c0-.33-.17-.66-.33-1.16-1.32.33-2.15-.33-3.31-.5.17-.33.33-.66.5-.99-.33-.17-.66-.5-.99-.83-.33,0-.83,0-1.49-.17,0,.17-.33.66-.5,1.16l-.66-.66s-.33.17-.66.33c-.17-.33-.33-.66-.66-.83-.33-.33-.66-.5-.99-.66-.33,0-.66,0-.99-.33-.17,0-.66,0-1.16.17,0-.17-.33-.5-.5-.83.17,0,.66-.17.99-.33.99.17,1.99.33,3.14.5.66-.66-.66-.5-.5-.99,0,0,.17-.17.33-.5h1.32c.83.66,1.49,1.32,1.99,2.15h.99c0,.17.33.5.5.83,0-.33.17-.5.33-.66h.5c0,.17,0,.33.17.5.33.17.83,0,.99.5,0,.17.5.33.99,0-.33-.33-.83-.66-1.16-.99,0-.5.5-.33.66-.33.33.17.66.5.99.66,0-.83-.33-1.49-.5-2.32-.33,0-.66-.33-1.16-.5,0-.33.33-.83.33-1.32h-.66v-1.82c.17-.33.33-.66.66-1.16,0,0-.17-.33-.33-.5,0,0,.33-.33.5-.33.5,0,.99-.17,1.16-.83-.17,0-.33,0-.66-.33,0-.5.17-.83.33-1.49-.17,0-.33.17-.33.33-.33,0-.83-.17-1.16-.33v-.83h-1.16s-.17-.33-.33-.5c-.33,0-.66.33-.83.5-.17-.33-.5-.66-.66-.99-.17,0-.33.17-.66.33l-.5-.5s.17-.33.33-.5c0,0-.17-.17-.33-.5h-1.49c.17-.5.5-.83.66-1.32-.17-.17-.5-.33-.83-.5.66-.33,1.16-.66,1.82-.99v1.16c.83.66,1.16-.66,1.82-.5v-.66c.99-.5,2.32-.33,3.14-1.32l-.5-.5c-.66,0-1.16,0-1.82.17,0,0-.17.33-.33.5h0c0-.33,0-.66.17-1.16h1.32l-1.32-.17c-.5-.5-.83-.83-1.16-1.32-.83,0-1.66,0-2.32-.66-.5.17-.83.5-1.16.66-.5,0-.99-.33-1.66-.5,0-.33-.33-.99-.83-1.82.66.17.83.33,1.32.5,0,0,.17-.33.33-.66h-.66c-.17,0-.33-.33-.66-.66.33,0,.66-.17.99-.33h.5c.66,0,1.16.5,1.82.99,0,.33-.33.5-.33.83,0,0,0,.17.17.33.83.66,1.99.5,2.81.99.33,0,.66.17,1.16.33.17,0,.5.17.66.33h.66c-.33-.66-.66-1.32-.99-1.99-.33.17-.5.33-.66.5v-1.16c-.33-.33-.66-.66-1.16-1.16.33,0,.66-.33.99-.33v-1.49c.33.33.5.5.66.5.33,0,.5-.17.99-.33-.83-.66-1.32-1.32-2.15-1.49,0-.83.33-1.49.5-2.32.66,0,1.32.33,1.99.5v.33c.5.33.83,0,1.16-.33-.33-.17-.5-.33-.83-.5,0-.83.17-1.49.33-2.15-.33-.33-.66-.66-1.16-.99-.17.83-.33,1.49-.5,2.15-.66,0-1.32.33-1.99.33-.5-.66-.99-1.16-1.49-1.82.5-.5.99-.83,1.66-1.32v-1.32c.5.33.66.33.99.5-.83.99.33,1.82-.17,2.81.33-.33.5-.33.66-.5,0,0,.17.17.33.33.33-.99,0-1.99-.5-2.65,0,0,.17-.17.33-.33-.83-1.16-1.32-2.32-.33-3.81-1.16.5-1.32,1.32-1.99,1.99-.17,0-.5-.33-.66-.33-.17.17-.5.5-.83.83v-1.16c.33-.17.83-.5,1.16-.66,0-.33-.17-.66-.33-.99.33-.17.5-.33.66-.5,0-.33-.17-.66-.33-1.16.33.33.5.33.5.5l.33-.17c.17.33.5.66.66.99,0-.5,0-.66.17-1.16.33,0,.5.17.66.33,0-.17.33-.5.5-.83h1.66l-.83-.83s0-.5.17-.99l-.33-.33c-.17,0-.5.17-.66.33l-.99-.99c-.99.5-1.49-.5-2.15-.66,0-.66-.66-.99-.99-1.66-.33-.66-1.16-1.16-1.82-1.82-.5,0-.99-.17-1.32.33,0-.17-.17-.5-.17-.5-.5,0-.99-.17-1.49-.5-.33-.33-.66-.5-1.16-.33,0,0,0,.33-.17.66h-.66c.17-.33.33-.66.5-.83-.33-.33-.66-.66-.83-.99-.17,0-.33.17-.5.33-.33-.17-.83-.33-1.16-.66-.17.33-.5.66-.66.99-.5-.5-.66-1.32-1.49-1.32-.5,0-.99.17-1.49.33-.33-.33-.66-.5-.83-.83-.17,0-.33.33-.5.33-1.32-.83-2.98,0-4.3-.66h-1.66c-.5-.33-1.16-.33-1.66,0h-.99c-.83,0-1.49,0-2.32.33-.17,0-.33-.17-.66-.33-.17,0-.33.17-.66.33,0,0-.33-.17-.5-.33-.66,0-1.32.33-1.99.5-.99-.5-2.15-.5-2.98.33h-1.49c-1.66-.17-3.14.33-4.63.5-.33.5-.66.17-1.16.33-.33,0-.66.17-1.16.33-1.16,0-2.15.33-3.14.83-1.49.66-2.98,1.16-4.3,1.82-.99.33-1.66.99-2.15,1.82-.33.33-.66.83-.99,1.16,0,.99-.33,1.99-.5,2.98-.83-.33-.99-1.32-.99-2.15s.33-1.82.83-2.48c.99-1.32,2.15-2.15,3.64-2.81.83-.5,1.66-.83,2.65-1.32.83,0,1.82-.5,2.48-.99,1.49,0,2.81-.66,4.47-.99,1.16,0,2.32-.33,3.31-.66.66-.17,1.49,0,2.15-.33,1.16,0,2.48,0,3.64-.33,1.49-.17,2.98,0,4.3-.17,1.82-.17,3.81-.33,5.63,0h5.63c1.49.17,2.98,0,4.3.33,1.99.33,3.81.66,5.79.99.66.66,1.49.17,2.15.66.66.33,1.66,0,2.32.5,1.16.5,2.15.83,3.31,1.32.33,0,.66.33,1.16.5.83.66,1.82,1.32,2.65,1.99l1.32,1.32v-1.82c-.17-.5,0-1.16,0-1.66h.17l4.8-1.82ZM278.38,367.31c-.17-.5-.33-.83-.66-1.16.33-.33.99-.33.99-.99-.33,0-.66-.33-.99-.5-.33-.33-.5-.66-.83-.99-.33,0-.66.33-.99.5v.99h.5v1.32l1.16,1.16.5-.5h0l.33.17ZM279.71,438.98c-.66,0-1.66.33-2.65.33h-5.13c-.66,0-.17,0-.33,0v.5c2.15,0,4.47.33,6.62,0h2.48c-.17,0-.5-.33-.99-.5h0v-.33Z"/>
            <path id="Path_7261" data-name="Path 7261" d="M276.56,192.37c-.99,0-.83-.83-1.16-1.32,0-.5-.17-1.16-.17-1.66-.33,0-.66.17-.99.33,0-.17,0-.33-.17-.66-1.32-.5-2.65-1.32-3.81-2.32-.17,0-.5.17-.66.33,0-.33,0-.5-.17-.66h-.83c0-.33.17-.5.33-1.16-.66.5-1.16.66-1.49.99,0-.5.17-.83.5-1.16-.33-.33-.83-.5-1.32-.83.17-.33.5-.5.66-.83,0-.17-.33-.33-.33-.5,0-.5.66-.83,0-1.32,0,0-.33,0-.5.17h-.5c0-.5-.17-.83-.33-1.16h.66c-.17-.33-.5-.5-.66-.66v-.83s-.17-.17-.33-.33h-.33c-.83,0-1.82-.33-2.48-.66-.17,0-.33-.33-.33-.66h-.66c0-.17,0-.5-.33-.83-.5.5-.83.83-1.16.99-1.16,0-1.99-.17-3.31-.33.33-.5.66-.83.99-1.16h1.32c.33-.83-.17-1.49-.5-2.15,0-.17.17-.33.5-.83l-.66-.33s-.33.5-.83.99c0-.5-.17-.66-.33-.99h-.17v-.83c0-.17-.33-.33-.33-.5h-1.32c-.17-.33-.33-.66-.66-.99v-.66c-.33-.33-.5-.5-.66-.66-.33.33-.66.66-.83.83h-1.66v-1.16c-.33,0-.83-.33-1.32-.5-.17.33-.5.66-.99,1.16,0-.5-.17-.83-.33-1.32-.17.33-.33.5-.5.66-.66,0-1.32.17-2.15.33-.17-.17-.5-.66-.83-.83-.83,0-.99.17-1.16.83-.5,0-.99,0-1.49.33,0-.33-.17-.66-.33-.99-.5.17-.83.5-1.49.66,0,.66.5.66,1.16.83,0,.5-.17.99-.5,1.32-.99-.66-1.99,0-2.81,0-.83-.66-2.15-.83-2.32-2.15h-1.32s-.33.33-.66.66c-.83-.99-2.15-.66-2.98-1.66,0,.5,0,.83-.33,1.16-.5,0-1.16-.17-1.66-.33,0,.17,0,.33-.33.66-.66,0-1.32-.17-2.15-.33,0,0-.33.33-.66.5-1.16-.83-2.15,0-3.31,0-.99,0-2.15.33-2.98,1.16,0,0-.17-.17-.33-.33-.66.33-1.16.83-1.82,1.32h-.83c-1.16.17-.83,1.49-1.66,1.66-.17.83-.66,1.49-1.32,1.82,0,.33.33.5.5.83l-.83.83c.17.5.33.99.66,1.66,0,.83,0,1.66.5,2.48-.99-.33-1.82-.83-2.81-1.32-1.16-.83-2.15-1.82-2.98-2.98-.5-.83-.83-1.82-.83-2.81,0-1.49.5-2.81,1.49-3.81.83-.83,1.66-1.66,2.65-2.32,1.16-.83,2.32-1.49,3.64-1.99.99-.33,1.82-.99,2.81-.99.66-.66,1.49-.5,2.32-.66.66-.33,1.49-.66,2.32-.66,1.82-.83,3.97-.66,5.96-1.32.99-.17,1.99-.33,2.98-.33.66,0,1.16,0,1.66-.33.66,0,1.16.33,1.82-.33h3.48c.99-.17,1.99-.17,2.98-.17h2.98c.66,0,1.32.33,1.99-.17h.66c1.16.66,2.32.17,3.48.33,0,0,.17,0,.33-.33.5.5,1.16.5,1.82.33.5-.33.99-.17,1.32,0,.33,0,.66.17.99,0,.33-.5,0-.83-.33-1.32h-1.32c-.17-.5-.33-.83-.5-1.32h-.66c0-.5-.33-.83-.5-1.32,0,0,.17-.17.33-.33,0-.17-.17-.33-.33-.83h-.66c-.17-.33-.5-.66-.66-.83-1.16-.17-1.99-.33-2.81-.5-.17.17-.5.5-.66.66-.17,0-.5-.17-.83-.33-.33,0-.83.17-1.16.33-.33-.99.83-.5.83-1.16h-2.48c-.33.17-.83.5-1.16.66v1.16h-.5c-.66,0-1.16-.66-1.82-.17-.17-.33-.5-.66-.66-.99h-2.32c-.83.17-1.49.17-2.32.17h-2.65c-.83.33-1.49.33-2.32.5s-1.49.33-2.32.5c0,0,.17.17.33.33-.5.33-.99.5-1.32.66l-.5-.5c-.33.66-.66,1.49-.83,2.15h-.5c0-.5.17-.83.33-1.32-.33,0-.5-.33-.99-.5-.66.66-1.99.5-2.48,1.49v.66h0c-.17-.17-.5-.5-.66-.66-1.16.33-.83,1.82-1.82,2.15-.66-.99.83-1.32.5-2.32h-.99c-.66.5-.99,1.32-.99,2.15v-.99c-1.16.5-2.15.83-3.31,1.32-1.32.66-2.65,1.49-3.81,2.48-1.49,1.16-2.48,2.81-2.65,4.8v1.82c-.83-1.32-.33-2.98-.5-4.3.83-.83,1.32-1.99,2.15-2.81,1.32-1.32,2.98-2.32,4.63-3.14,2.32-.99,4.8-1.99,7.28-2.81.66-.17,1.49,0,2.15-.5.5-.17,1.16-.33,1.66-.33.66-.17,1.49-.33,2.32-.5,1.66,0,3.31-.33,4.97-.66.66-.17,1.49.17,2.15-.33,1.16,0,2.32-.5,3.64-.17,1.16.17,2.32-.33,3.48-.17h3.48c.66,0,1.16-.66,1.66-.17.33.17.83.33,1.16.33,2.15,0,4.3,0,6.29.17.5,0,.83-.33,1.49,0,.33.17.99,0,1.66,0v-1.49h.5v1.82h1.49s.17-.33.33-.66v.83s.17.17.33.17c.66,0,1.16,0,1.66.33.5.17.99,0,1.66.33.66.17,1.32.33,1.99.5.83,0,1.66.33,2.32.66.83.33,1.82.5,2.65.66,2.15.66,4.14,1.32,6.12,2.32,1.82.83,3.48,1.82,4.97,2.98,1.16.83,2.32,1.99,3.14,3.31v1.82c0,1.16-.17,2.32-.83,3.31-.33.66-.99,1.49-.33,2.48,0,2.15-.5,4.3-2.32,5.79-1.32.99-2.65,2.32-4.3,2.65-.66,1.16-.99,2.65-.99,3.97-.83,2.32-.17,4.8-.5,7.12.17,0,.33,0,.66.17v.5h0l-.17-1.82ZM257.7,159.93s.17.33.33.33c.5.17,1.16.33,1.82.5.66,0,1.32.17,1.99.5.83.33,1.66.5,2.48.66,1.16.17,2.48.33,3.81.5h.33c.99.33,1.82.99,2.98.99,0,0,0,.17.17.17.83.33,1.82.66,2.65.99.66,0,1.32.33,1.99.66.66.33,1.32.5,2.15.5,0,.17,0,.33.17.66h.83c-.33-.33-.5-.66-.66-.83.17-.33.33-.5.33-.5,0-.5-.17-.83-.33-1.32.17,0,.33,0,.33.17,0,0,.17,0,.33.17,0,0,.17,0,.33-.17,0,0,.17-.17.33-.33,0-.66-.5-1.16-.99-1.32-.66.5-.83,1.49-1.82,1.49,0,0-.17-.33-.33-.33,0-.33,0-.66.33-1.16-.83-.33-1.49-.5-2.32-.83-.5-.5-.66-1.32-.5-1.99l-1.99-.83c0,.17,0,.33-.17.5-.99,0-1.82.17-2.48.33l-.5-.5c0-.33.33-.83.33-1.16l-.5-.5h-.99c-.5.33-.83.66-1.16.83-.33-.17-.66-.5-.99-.5-.66,0-.66-.66-.83-.99h-2.48c-.83,0-1.49-.17-2.32-.33,0,.33.33.5.33.83-.33.17-.5.33-.66.5-.66-.5-1.16-.99-1.82-1.49-.17.33-.33.5-.5.83-.33-.5-.5-.66-.66-.99-.17.5-.33.99-.5,1.49-.83,0-1.32-.66-2.15,0,.83.17,1.16.83,1.49,1.32h.66c.17-.33.5-.66.66-.99.83,0,1.49.66,1.99,1.32-.5.66-.99,1.16-1.32,1.66h0l-.17-.83ZM217.15,169.03c-.66.5-1.49.99-2.32,1.49,0,.5-.66.66-.99,1.16-.33.5-.66.83-.99,1.32v1.49c.33-.17.17-.5.33-.66.17-.33.5-.99.83-.99.83,0,.33-.83.66-.99,0,0,0-.17.17-.17.66,0,.99-.83,1.49-1.16.5-.5,1.16-.83,1.82-.99.66,0,1.32-.5,1.82-.99.5-.5,1.16-.66,1.82-.83.83,0,1.49-.66,2.32-.83,0,0,.33-.33.5-.66-.99,0-2.15.33-3.14.83l-.99-.5v-.99c-.33.33-.66.5-.83.66,0,.33.33.5.33.66-.17.33-.33.66-.5.83-.66-.17-1.49-.5-2.32-.66v1.82h0v.17ZM264.15,170.52s-.17.17-.33.33v1.32c.5.5.33,1.49,1.32,1.82v-1.16c1.49-.83,1.99-1.32,1.99-2.15-.66.17-1.32.33-2.15.5-.33,0-.66-.33-.99-.5h0l.17-.17ZM283.35,164.9c-.83-.33-1.66-.66-2.48-.83h-.33s0,.33,0,.17c.66.33,1.16.66,1.49.99v.83l.5.5v1.32s-.33.17-.83.33h.66c0,.83.5,1.49.99,1.99,0-.83-.17-1.32-.33-1.82,0,0,.17-.33.33-.5,0-.17-.33-.33-.33-.5.5-.5.5-1.16,0-1.82,0,0,0-.17.17-.17,0-.17-.17-.5-.33-.66h0l.5.17ZM259.02,170.69c.66-.33,1.32-.99,1.66-1.82v-.33h-.99c.17.33.33.5.33.83l-.33.33c-.17,0-.33-.17-.5-.33,0-.33.17-.5.33-.83h-1.82v.83h-1.16v1.16c.66-.5,1.16-.17,1.49,0,.17,0,.33-.33.5-.33s.5.17.66.33h0l-.17.17Z"/>
            <path id="Path_7262" data-name="Path 7262" d="M263.82,125.67v-1.82h.17c.33.99.5,1.99.66,2.98,0,.66,0,1.16-.33,1.66s-.17,1.16-.33,1.66c0,0-.33.33-.66.5,0-.83-.17-1.49.5-2.15-.5-.83-.17-1.82-.99-2.48l-.33.17c-.17-.33-.5-.66-.66-.99-.33-.17-.66-.5-.99-.66-.83,0-.5.83-.99,1.32-.17-.17-.33-.33-.66-.83-.5-.17-.99,0-1.32.33v1.32h-.5c-.33-.5.17-1.32-.5-1.49-.66,0-1.32.17-1.99.33v.66c-.17,0-.33,0-.66.17,0-.66-.33-1.32-.83-1.66,0,0-.17.17-.33.33v-.83h-1.16c-.17.33-.33.5-.5.83.33,0,.66,0,.99.17,0,.83-.33,1.49-.5,2.32,0,0-.33-.17-.33-.33h-.66v-1.16c.5-.66,0-1.16-.17-1.66-.66,0-.33-.66-.66-.83s-.5-.5-.83-.83h-1.16l-.83-.83c-.33,0-.66.17-1.16.5l-.5-.5v-.33c.33-.17.66-.33,1.16-.66,0,0,.17.33.33.5h1.82s.17-.17.33-.33c-.33-.33-.66-.5-.99-.83,0,0-.33,0-.66.33,0-.17-.33-.5-.5-.66.5-1.82,1.49-3.31,1.66-5.13v-.66c-.33.17-.5.5-.83.83-.17.33-.33.83-.5,1.16-.33,1.32-.99,2.32-1.32,3.81-.17-.33-.5-.5-.5-.66-.5-1.49-.99-3.14-1.49-4.63,0-.33-.33-.66-.5-.99,0-.33-.33-.66-.5-1.16-.33,0-.66-.17-1.16-.33-.17,0-.33.17-.66.33-.17,0-.33-.17-.5-.33-.5.17-.83.33-1.32.66-.17,0-.5-.33-.83-.33s-.5.17-.83.33c-1.16,0-2.32.17-3.64.33-.17.99-1.32,1.16-1.99,1.32-.66.33-1.32.66-2.15.99,0,.66,0,1.32-.5,1.82-.5.33-1.16.66-1.82.99.17.83-.17,1.66.17,2.65.17.83,0,1.82-.17,2.48v-1.66c-.33-.83-.99-1.49-1.66-1.82-.66-.5-1.16-.99-1.82-1.49-.5-1.32-.5-2.81-.33-4.3.83-.99,1.82-1.99,2.81-3.14,1.16-.33,2.15-.83,3.14-1.32.99-.66,2.48-.33,3.14-1.49.83,0,1.49-.33,2.32-.33s1.49,0,2.32-.33c.66-.33,1.49,0,2.15-.33.66-.33,1.32-.33,1.99-.83h4.97c1.99.17,3.97.33,6.12.33.5,0,.99.17,1.49.33.5,0,.99,0,1.49.33.5,0,.99.17,1.32,0,.33,0,.66.33,1.16,0,.5-.17,1.16,0,1.82,0,0,0,.33.33.5.66h1.16v-.33c-.17-1.16-.66-2.15-1.16-3.14,0-.17-.17-.5-.33-.83-.66-.66-1.16-1.16-1.66-1.82v-.66c.99.66,1.49,1.82,2.65,2.48.17.33,0,1.16.99,1.32,0,1.66,0,3.14,1.49,4.3.5-.33.33-.66.33-.99v-.66c.33.5.5.99.83,1.49h0c.33.33.83.66,1.32,1.16.33,0,.5.17.83.5.99.99,2.15,2.15,3.14,3.14v3.97c-.5.5-.83.83-1.32,1.32-.5.33-.99.83-1.32,1.16s-.66.99-1.32,1.16c0-1.32-.66-2.65-.33-3.81-.66-.33-1.16-.83-1.82-1.16-.33,0-.99.33-1.49.5,0,1.99-.66,3.81-1.16,5.79,0,0,0,.17.33.5.17,0,.5.33.99.5,0-.33.17-.66.33-.99l.17.17v1.16q0,.66,1.32.83h0l-.83.66ZM255.38,118.89c.5,0,.66-.83,1.32-.83.33,0,.66.5.66.83v.33c.33-.33.83-.5,1.16-.66v-1.32c-.33-.66-.66-1.32-.99-1.99-.5.33-.99.66-1.32.83,0,.66.17,1.16.33,1.66-.83,0-1.16.5-.99,1.32h0l-.17-.17Z"/>
            <path id="Path_7263" data-name="Path 7263" d="M262.83,138.58c.66.83,1.82.83,2.65,0h0l.17.17c.33-.5.66-.99.66-1.66l.5-.5c.5.5,1.16.99,1.66,1.32v3.48c-.83.66-1.49,1.32-2.32,1.99,0,.99-.83,1.82-.66,2.81,1.49.17,2.81.83,3.97,1.49.17-.17.5-.5.66-.66h.99v-.5c-.66-.17-1.49,0-2.15-.66,0,0,0-.33.33-.66.33.33.66.5.83.83.33,0,.83.17,1.16-.17.33,0,.66.17,1.16.33,0-.83.17-1.66-.33-2.32.33-.17.5-.33.99-.66v1.82c.5.66.66,1.49.66,2.32v-3.31c0-.66,0-1.32-.5-1.99.66-.5,1.32.33,2.15.17,0-.66.33-1.32.99-1.49,0,0,.33.33.66.5v2.65c.5.33.83.66,1.49,1.16.33.33-.17.99.33,1.32.5.33.17.83.33,1.32.66-.33,1.32-.83,1.32-1.66v.83h.5v9.27c.17,0,.5-.17.83-.33,0,0,.17.17.33.33.17-.99.33-1.99.5-3.14.17-.99-.33-1.99-.17-3.14.33.5.5.83.83,1.32,0,2.98,0,6.12-.17,9.27h0s0-.33-.17-.5l-.17.17v-.99c-.5-.5-.99-.99-1.32-1.32,0-.5.17-.83.33-1.16h-.17c-.17.33-.5.5-.66.99-.17,0-.5-.33-.99-.5v1.66h-.66c0-.66.33-1.32.5-2.15h-.83c-.5-.5-.99-.99-1.66-1.16-.99-.5-1.82-.99-2.81-1.32-1.16-.33-2.15-.66-3.14-1.16,0-.5-.33-1.16-.5-1.82h-.5v-.83c-1.32-.5-2.48-1.66-3.81-2.32-.5-.33-.99-.17-1.32.17h0c0,.99.17,2.15.33,3.31-.5,0-1.16,0-1.66-.33v-3.48c0-.66.33-1.49-.17-2.15v-.33c.83-1.49-.33-2.65-.33-4.14,0,.33-.17.66-.33,1.16.33.83.5,1.82.5,2.81s.17,2.15-.33,3.14c.66.83,0,1.82.33,2.65-.66,0-1.32.33-1.99.5,0-.17-.33-.33-.5-.66h1.49c0-1.32-.5-2.81-.83-4.14,0,0-.33.33-.5.33h-.33c0-.17,0-.33-.17-.66,0,0-.17,0-.33.33-.5,0-.83-.17-1.32-.33s-.83-.5-1.32-.66v1.66c0,.5-.33.83,0,1.32.17.66,0,1.32-.5,1.82h-1.16v-2.15c-.17-.5-.33-.66-.5-.99l-.5.5c0,.83.17,1.66.33,2.65-.5-.17-.66-.33-.83-.5,0-.99-.33-1.99-.33-2.98h-1.82c-.33.17.33.99-.5,1.16-.17-.66-.33-1.32-.5-1.99v-5.13s.33,0,.5-.17v-.83s-.33,0-.5-.17c0-.66-.33-1.32-.33-1.99,1.49-.83,1.99-2.48,3.14-3.64-.33-.17-.5-.5-.83-.83-.33,0-.66.17-.99.33v1.66c-.33-.17-.5-.33-.66-.33-.17-.5-.33-.99-.5-1.49h-1.49c-.17.33-.5.83-.66,1.32-.5-.33-.99-.83-1.49-1.32-.33.33-.66.83-.83,1.16h0c0-.33,0-.5.17-.66,0-.17,0-.5.17-.66,0,0-.33-.33-.66-.5-.66,0-1.66.17-2.48.33-.66.33-.33.83-.5,1.49-.17-.33-.33-.66-.5-.83-.5,0-.99-.33-1.66-.33-.17,0-.66.33-.99.66v.83h-.66c-.17.33-.5.66-.83,1.16v-1.82c0-.17-.33-.33-.5-.5h-1.32c-.17.17-.5.5-.66.83v.83c-.33.17-.83.33-.99.66,0,.5-.5.66-.99.83,0-.66-.33-1.32-.83-1.66-.83,0-1.66.5-2.32.99v1.49c-.83.5-1.16-.33-1.66-.66-.17.17-.5.5-.66.83.33,0,.5.17.66.33,0,.83-.17,1.49-.33,2.32-.5.17-.99.5-1.66.66.33,0,.5.17.83.33,0,.5-.33,1.16-.5,1.66h-.66c0-.66-.83-.66-.99-.99v-1.32c-.33-.83-.66-1.32-.83-1.99.66-1.66,2.48-2.32,3.31-3.97l.33.33c1.66-.66,3.31-1.32,5.13-2.32,1.32-.17,2.98-.33,4.47-.66.17-.17.33-.33.66-.5,0,0,.17.17.33.33.17,0,.33-.33.66-.33.83,0,1.66-.17,2.48-.33h7.28c.99-.66,1.99.17,2.98,0,.33,0,.66.17.99.33.33-.33.5-.66.83-.99v.83c.33.17.66.33,1.16.66,0-.5,0-.99.17-1.49.17.66.33,1.16.5,1.66h.99s.17-.33.33-.66v.99c1.66,0,3.31.5,4.8,1.32.17,0,.33-.33.66-.5h0c0,.33-.17.5-.33.66.33.33.66.5.99.83-.33.66-.66,1.16-1.16,1.82,0,.33.33.66.66,1.16v.99h-.66v-.83c-.33-.17-.66-.5-.99-.66v-.83l-.17.17c-.17-.33-.33-.66-.66-1.16-.33.33-.66.5-.83.66-.33-.33-.66-.5-.99-.66,0-.33-.33-.83-.33-.99h-1.16v.99c0,.17.33.5.5.66,0,.33-.33.83-.33,1.16-.17-.33-.5-.66-.66-.99-.33-.5,0-.83,0-1.16-.17,0-.5-.33-.66-.5-.33.17-.5.33-.5.5v3.31c.33.83.66,1.49.99,2.15v.66c-.33-.5-.33-1.16-1.16-1.16v1.49l.5.5c.33-.33.5-.5.83-.66.33.33.5.83.83,1.32-.5,0-.83-.17-1.16-.17v.99c.5,0,.99.33,1.32.5,0-.83.17-1.66.33-2.65-.5-.66,0-1.66-.83-2.48v-1.32h.17v1.16c.33.17.66.5.99.83v2.32h.66c.99-1.16,1.66-2.48,1.66-3.97v.99h1.16l.17-.66Z"/>
            <path id="Path_7264" data-name="Path 7264" d="M245.45,294.32c-.17.66-.17,1.49,0,2.15-.66,0-1.32-.33-1.99-.33-.33.33-.5.66-.99,1.16,0-.5-.17-.66-.33-1.16-.33-.33-.83-.83-1.32-1.49.5,0,.83-.17,1.32-.33-.33,0-.66-.17-.83-.33-.66.17-1.32,0-1.99-.17-.5-.33-1.16,0-1.82,0v-.5c2.15-.33,4.3-.5,6.45-.33v-.99c0-.33.17-.5.33-.66-.17,0-.5-.33-.66-.5h-2.98c-.33,0-.66.33-1.16.33h-1.32c0-3.31,0-6.45.17-9.76.17-.33.5-.66.66-.99.33-.33.66-.5,1.16-.66.5.17,1.32-.17,1.99.33.83.33,1.32,1.16,1.32,2.15v6.79l.5.5c.17-.33.33-.66.5-.99,0-.66-.17-1.16-.33-1.82h.66v1.82c.33.66.66.99.83,1.32,0,.99-.17,1.99-.33,2.98-.33.33-.66.99-1.16,1.49l.33.33c.33,0,.83,0,1.16-.17h0l-.17-.17Z"/>
            <path id="Path_7265" data-name="Path 7265" d="M236.68,364.17c.66-1.32,1.32-2.48,2.81-2.65l.5.5h.83c.33.5.66.83,1.16,1.49v6.12c0,.33,0,.83.17,1.49-.17.5-.66,1.16-.99,1.82-1.49.33-2.98.5-4.63.5v-.83s.17-.33.33-.5c0-.17-.33-.33-.33-.5.5-.83.5-1.66.33-2.48-.33-.66-.17-1.32,0-1.99,0-.33.17-.5,0-.83s-.33-.66-.33-1.16v-.99h.17Z"/>
            <path id="Path_7266" data-name="Path 7266" d="M246.61,139.24c.33-.17.66-.33.83-.5.33-.5,0-1.16.33-1.66s.5-.99.5-1.49c.17.5.5.99.83,1.66v1.66c.33.33.66.5,1.16.83.5,3.31.5,6.45-.17,9.76h-1.32v-2.65h-.66c.33.83-.5,1.32-.33,2.15l.17.17c-.5.33-.99.33-1.49,0,.5-.83.17-1.82.33-2.81-.5-.5-.17-1.32-.33-1.82,0-1.16.33-2.32-.17-3.48.5-.5.17-1.32.33-1.82h0Z"/>
            <path id="Path_7267" data-name="Path 7267" d="M245.28,94.06c-.17-.33-.33-.33-.5-.5.5-.33.99-.5,1.82-.99h-1.49s-.33.33-.66.5c0-.5-.33-.83-.5-1.32.83-.99,2.32-1.32,2.32-2.98.17,0,.33,0,.66-.17,0-.33-.33-.66-.5-.99h.99v-.5c-.5,0-.83,0-1.49-.17,1.32-.5,2.81,0,3.81.83,1.32,1.16,1.16,2.65.99,4.3-.66.66-.83,1.82-1.82,2.48-.17.66-.66,1.32,0,2.15v.5h-1.16c-.17-.33-.33-.66-.66-1.16.17-.83,0-1.66-.66-2.15-.5.17-.83.5-1.32.66h0l.17-.5Z"/>
            <path id="Path_7268" data-name="Path 7268" d="M253.23,176.81c-.33,0-.5-.17-.66-.33v-.5h.99c-.17-.33-.33-.66-.66-.99-.33.33-.66.5-.83.66,0-.17-.17-.5-.33-.83.5-.66,1.16-.99,1.99-.99,0,.17.33.5.5.66.66,0,1.49,0,1.99.5-.17.5-.33.99-.66,1.66.83.33,1.66.66,2.48.83v.83c-.5,0-.99-.17-1.82-.33-.33.17-.5.66-.5.99-.66.33-1.49.66-2.48.99.5.5.83.66,1.16.99s.5.99.99,1.16.5.66.99,1.16h-2.32c-.33-.66-.66-1.32-1.16-2.15-.5.66-1.99.33-1.99,1.66h-1.49c.33-.66.5-1.16.83-1.99-.66.17-.83.33-1.32.5v-.83c.33-.33.66-.66,1.16-.99h1.32c.5-.83,1.16-1.66,1.82-2.65h0Z"/>
            <path id="Path_7269" data-name="Path 7269" d="M264.81,353.91c-.5,0-.99.83-1.66,0,.5-.33.99-.83,1.66-1.16-.83-1.16,0-1.82.66-2.81-.66-.17-1.16-.5-1.82-.66l1.16-1.82c-.33-.17-.66-.5-.99-.66,0-.33-.33-.83-.66-1.32.83,0,.66.66.99.83.33.33.66.5.99.66v.83s.17,0,.5.17c0-.33,0-.66.17-1.16-.5-.33-.66-.99-1.49-1.16-.33-.66-.33-1.49,0-2.32-.17,0-.33-.17-.66-.33l.99-.99.33.33c-.33.5-.5.83,0,1.32,0,.17-.17.33-.33.5l.5.5c.5,0,.83-.33,1.32-.33.33-.5,0-.83-.66-1.32.5-.17,1.16-.66,1.49-.66.66.17,1.49-.33,1.99.66,0,.17-.33.33-.5.66-.66,0-.83-1.16-1.66-.5v1.82c0,.33.17.5.33.99.33-.33.66-.5,1.16-.83v-.99h.5v1.82c-.66,0-1.49,0-1.16,1.16-.66.33-1.16.66-1.82.99-.5.66,0,.99.5,1.49-.5.5-1.16,1.16-1.66,1.82,0,.33,0,.5.17.83-.17.5-.5,1.16-.66,1.99h0l.33-.33Z"/>
            <path id="Path_7270" data-name="Path 7270" d="M244.79,376.91h.99c0,.17-.17.33-.33.66h2.15c-.66.5-.83.66-1.32.83,0,.33,0,.66.17.99h-.33c-.17-.5-.5-.83-.83-1.66-.17.66-.33.83-.33,1.16-.33-.33-.83-.5-1.32-.83-.66.66-1.16-.33-1.66,0v-.66h-1.82l-.33-.33.5-.5c.83,0,1.66.17,2.48-.33l.33.33.5-.5s-.33-.33-.5-.33c-.99,0-1.99.33-2.98.33-.5,0-.99-.17-1.49-.17h-1.49c0-.17-.33-.33-.5-.5h1.49c1.32,0,2.48,0,3.81-.17,0,0,.33-.17.5-.33v-1.82c.17.17.5.5.83.66l.17-.17v.5c.5.5.99.99,1.66,1.49-.33.17-.66.5-.99.66v1.32c.33,0,.5-.33.5-.83h0l.17.17Z"/>
            <path id="Path_7271" data-name="Path 7271" d="M255.54,216.7c-.99-.33-1.99-.5-2.98-.83,0-.5-.33-1.16.33-1.66-.33,0-.66,0-.99-.17.17-.33.5-.5.66-.83-.5-.66-.99-1.32-1.66-1.82,0-.17.33-.5.5-.66.5,0,.83.33,1.32.5v1.16c.33.33.5.66.99.99.99,0,2.15-.17,3.48-.33-.17.33-.33.66-.5.99h-1.16c-.33.83.17,1.16.83,1.32v.66c-.33.17-.5.5-.99.83h0l.17-.17Z"/>
            <path id="Path_7272" data-name="Path 7272" d="M259.02,239.21l-.83.83c0,.33-.17.66-.17.83-.66-.33-1.49-.5-2.32-.5-.5-.17-.66-.33-.99-.33-.66.5-1.16.83-1.82,1.32,0-.5-.33-.83-.5-1.32h-.66c-.33,0-.5.66-.99.5-.17-.66.5-.66.66-.99,0-.5-.17-.83-.33-1.16h.33c.5-.17.83.5,1.49,0,.33-.33.99.17,1.32.33h3.14c.5,0,1.16.33,1.66.5h0Z"/>
            <path id="Path_7273" data-name="Path 7273" d="M251.08,175.99c-1.16,0-2.32.17-3.64.33,0,.17.17.5.33.66.33.33.5.66.17,1.16-.5-.17-.99-.5-1.49-.66.17-.5.33-.83.5-1.16,0,0-.17-.33-.33-.33,0-.5.33-.99.5-1.66,0,0,.33-.33.66-.5.83-.17,1.66,0,2.32.5.5.5.99.99,1.32,1.66.33.5.17,1.16,1.16,1.32-.66.5-1.16.66-1.66.99-.83-.66-.33-1.32,0-2.15h0l.17-.17Z"/>
            <path id="Path_7274" data-name="Path 7274" d="M254.05,202.63c0-.33.17-.66.33-1.16.5-.33.99-.83,1.49-1.16.66,0,1.32.17,1.82.33v.5h-.83v.83c.33.33.66.66.99,1.16-.66.33-1.16.5-1.66.83l-1.16-1.16c.17.66.33,1.16.5,1.49-.33.33-.66.66-1.16.99.33,0,.66,0,1.16.17-.17.33-.5.66-.66.99-.33,0-.66-.33-.99-.33v-1.49c.17,0,.5-.33.66-.5-.17-.5-.33-.99-.5-1.49h0Z"/>
            <path id="Path_7275" data-name="Path 7275" d="M260.18,360.69c-.17-.66-.33-1.16-.66-1.82-.33.33-.5.66-.66.83,0-.17-.17-.5-.33-.5-.33-.33-.66-.5-1.16-.5-.99,0-2.15-.33-3.14.17h-1.16c-.33-.33-.66,0-.99-.17-.66,0-1.32-.33-1.99-.5.99-.33,1.99,0,2.65-.33.66-.5,1.49.83,2.32,0,.83,0,1.66,0,2.48.17.83,0,1.66.17,2.48.33.5.5.83.99,1.32,1.49-.33.33-.66.83-1.32.99h0l.17-.17Z"/>
            <path id="Path_7276" data-name="Path 7276" d="M274.08,334.87c-.5.33-1.16.33-1.49,0,.33-.33.66-.5,1.16-.83-1.16-.33-2.15-.66-3.14-.83v-.99c-.33,0-.5.17-.66.33,0-.5-.33-.83-.33-1.32h1.49s0-.33-.17-.33v-.33c.33-.17.83-.17,1.16,0,.17.17.66,0,.99,0,.33.66-.33.99-.33,1.49h-.66v.66c.66,0,1.32.17,1.82-.33,0,0,.66,0,.99.17v2.15h0l-.83.17Z"/>
            <path id="Path_7277" data-name="Path 7277" d="M261.67,318.32c-.17.17-.5.5-.66.83s-.5.66-.83.99c0-.17-.33-.33-.5-.5.17,0,.5-.33.66-.5.17-.5,0-.99-.5-1.32h0c-.33.33-.66.83-1.16,1.16-.66-.33-.33-.99-.33-1.66.99-.33,1.82-.66,2.65,0,.5-.17.83-.99,1.49-.5v.83l.33-.33c.33,0,.5.33.83.5-.17.33-.33.66-.66.66-.5,0-1.16,0-1.66-.17h.33Z"/>
            <path id="Path_7278" data-name="Path 7278" d="M257.7,364.83l.83.83h-1.16c-.17.5.17,1.16-.66,1.49v-.66c-.33,0-.66-.33-1.16-.5-.17.33-.5.66-.83,1.16,0,0,.17.33.33.5h-.99c.17-.66-.17-1.32.5-1.82l-.66-.66s.17-.33.33-.5c0-.17-.17-.5-.33-.83.5,0,.83-.17,1.16-.33,0,0,.33.17.5.33,0,.33-.33.5-.33.83,0,.83.99.5,1.32.83.66-.5.5-.99,0-1.66l.66-.33c0,.33.33.83.33,1.16h0l.17.17Z"/>
            <path id="Path_7279" data-name="Path 7279" d="M265.97,416.63c0-.33.33-.66.5-1.16,0-.33.33-.66.83-.66v-.66c-.33-.17-.66-.5-.99-.66.33-.5.33-1.16,1.16-1.49,0,1.49,1.49,2.48,1.32,3.97.17.17.5.5.5.66s-.33.33-.5.5c-.83-.5-.99-1.32-1.32-1.99l-.5.5v.66c.33,0,.5,0,.83.17v1.16h-.5c0-.66-.83-.66-1.16-.99h-.17Z"/>
            <path id="Path_7280" data-name="Path 7280" d="M240.48,125.67c-.33-.66-.33-.99-.5-1.32,0,0,.17-.17.33-.33-.83-.33-1.66-.5-1.49-1.66.33-.17.33,0,.5.17.5-.5,1.16-.33,1.99-.33.66,0,1.32,0,1.99-.17h2.32c-.5.5-.83.83-1.16.99-.66,0-1.32,0-1.82-.17-.5.33-.99.66-1.32.83-.17.66-.33,1.16-.5,1.82h0l-.33.17Z"/>
            <path id="Path_7281" data-name="Path 7281" d="M243.3,335.7c.17-.5.66-.66,1.16-.5h0c.66.33,1.32.5,1.99,0h6.45c.33,0,.66.33.99.5-.83.33-1.66.33-2.48.5h-2.98c-.83-.17-1.82-.33-2.65-.33-.5,0-1.16,0-1.66.17-.33,0-.83-.17-1.32-.33h.5Z"/>
            <path id="Path_7282" data-name="Path 7282" d="M245.45,381.88c-.17.33-.5.66-.66.99-.33-.33-.66-.83-.99-1.16h1.16c1.66,0,3.14-.5,4.8-.17.5,0,.83,0,1.32.33.33.17.83.17,1.16,0,.83-.5,1.82,0,2.65-.17v.66h-1.49c-.5,0-1.16.33-1.49,0-.5-.17-.99,0-1.49-.17-.17.17-.33.33-.66.5-.66-.5-1.49-.17-2.32-.33-.66,0-1.49-.33-2.15-.5h.17Z"/>
            <path id="Path_7283" data-name="Path 7283" d="M231.21,145.2c1.16.33,2.48-.66,3.97-.33-1.49.5-3.14.83-4.63,1.32-1.49.33-2.98.99-4.47,1.82v3.48c-.17-.17-.33-.33-.33-.33v-3.97c1.82-.5,3.48-1.16,5.46-1.82h0v-.17Z"/>
            <path id="Path_7284" data-name="Path 7284" d="M242.8,175.32h.99c0,.5-.33.83-.33,1.32l.17.33c-.17,1.16-.33,2.15-.5,3.31.17,0,.33-.17.5-.33v.83c-.83,0-1.49.33-2.32.33v-.5h.99c0-.66-.5-1.32-.99-1.82.66,0,1.16.66,1.66,0,0-.66-.83-.99-1.16-1.66,0,0,.33-.17.5-.33.33,0,.66.33,1.16.5,0-.66-.33-1.32-.33-1.99h-.33Z"/>
            <path id="Path_7285" data-name="Path 7285" d="M271.43,343.48c.17.5.99.83.5,1.66h-.33c-.17-.66-1.32-.66-1.16-1.82.66-.5.99-1.16,1.16-1.82,0-.17-.33-.5-.5-.66.33-.5.66-.83.83-1.16.5.5.99.99,1.49,1.66-.33.99-1.16,1.66-1.99,2.15h0Z"/>
            <path id="Path_7286" data-name="Path 7286" d="M249.09,390.98c.66,0,1.49.17,1.99.66.33-.5.5-1.16,1.32-.83,0,0,.33.33.66.5-.5.5-.99.99-1.32,1.49l.33.33c-.17.99-.99.66-1.66.66.17-.5.33-.83.5-1.16-.66-.17-1.16.66-1.66,0,.17-.33.5-.66.66-.83l-.66-.66h0l-.17-.17Z"/>
            <path id="Path_7287" data-name="Path 7287" d="M223.44,146.69c.33-.17.66-.33,1.16-.5v5.3h-.83c-.66-1.49-.33-3.14-.33-4.8Z"/>
            <path id="Path_7288" data-name="Path 7288" d="M254.05,217.36v.66c-.66.5-1.16.83-1.66,1.32-.5,0-.83.17-1.32.33-.5-.5.33-.83,0-1.49h-.66c-.17-.33-.5-.66-.66-.99.66,0,1.32,0,1.99.33h.99c.33-.17.83-.17,1.32,0h0v-.17Z"/>
            <path id="Path_7289" data-name="Path 7289" d="M217.81,299.12c0,1.16-.33,2.48-.5,3.64,0,1.32,0,2.65-.33,3.97,0-.33-.17-.66-.33-1.16.99-2.32,0-4.63,0-7.12.66-.17,1.32-.5,1.82-.66,0,.33,0,.5-.17.83l-.66.66h0l.17-.17Z"/>
            <path id="Path_7290" data-name="Path 7290" d="M272.59,313.19c0-.33.33-.83.33-.83.99,0,.83-1.66,1.99-1.66,0,.66-.33.99-.5,1.32-.17.5-1.16,0-.99.99.83,0,1.49.17,2.15-.33l.5.5c-.83.5-1.66.99-2.65,1.49v-1.16c-.33-.17-.66-.33-.83-.5h0v.17Z"/>
            <path id="Path_7291" data-name="Path 7291" d="M255.71,391.15c-.17.5-.33.99-.5,1.49.66-.33.99-.5,1.32-.66v1.32c.17.17.33.33.5.66-.33.17-.66.5-.99.66,0-.33-.33-.66-.5-.83,0-.17.17-.33.33-.5-.66-.17-1.32-.5-1.99-.66-.17,0-.33,0-.66.33v-.66h.99c.17-.33.5-.66.66-.83.33-.17.66,0,.99,0h0l-.17-.33Z"/>
            <path id="Path_7292" data-name="Path 7292" d="M217.64,260.56l.66-.66c0-.33-.17-.66-.33-1.16.17,0,.5-.33.83-.5v.83c0,.33-.17.5,0,.83.33,0,.66-.33.99-.33l.5.5c-.33.33-.5.66-.99,1.16v1.66h-.5v-1.49c-.33-.33-.66-.66-.99-.83h-.17Z"/>
            <path id="Path_7293" data-name="Path 7293" d="M270.11,335.37v-.99c-.66.17-1.16.33-1.82.66l-.33-.33v-.83h.5c.33,0,.5.33.83.33.33-.5.5-.66.66-1.16.66.33,1.32.66,1.99,1.16-.33.99-1.16.83-1.99,1.16h.17Z"/>
            <path id="Path_7294" data-name="Path 7294" d="M219.79,219.68c.33-.33.66-.66,1.16-.99,0,.33.17.5.33.66-.17,0-.5,0-.66.17v1.32c.5,0,.99-.17,1.49-.17-.5.66-.83.99-1.16,1.32-.17.66-.33,1.32-.5,2.15-.17-.99-.5-1.66-.66-2.48l.5-.5c0-.33-.17-.83-.33-1.49h-.17Z"/>
          </g>
          <g id="Group_64" data-name="Group 64">
            <path id="Path_7296" data-name="Path 7296" class="cls-1" d="M234.52,363.34c0-.17-.17-.33-.33-.66,0-.17-.17-.33-.33-.5,0,0,.17.33.17.5s.17.5.33.66h.17Z"/>
            <path id="Path_7297" data-name="Path 7297" class="cls-1" d="M235.19,169.53c-.33,0-.5,0-.83-.17.33,0,.5,0,.83.17v.66-.66Z"/>
            <path id="Path_7298" data-name="Path 7298" class="cls-1" d="M235.35,367.98c0,.33.17.66.33,1.16,0-.5-.33-.83-.33-1.16v-.17.17Z"/>
            <path id="Path_7299" data-name="Path 7299" d="M239.16,335.37l-.17.17v.5c.66,0,1.32.33,1.99-.33.33.33.99.5,1.32.17.17,0,.5-.17.83-.17v-.5c-1.32.17-2.65.33-3.97.17h0Z"/>
            <path id="Path_7300" data-name="Path 7300" d="M245.61,173.67v.83c-.5.17-.99.33-1.66.33-.5,0-.83,0-1.32-.33-.33.17-.66.33-.83.5.33.5.66.66.99,1.16l-.83.5c-.33.17-.66.33-.83.5-.5,0-.83,0-1.32-.17.66.83.99,1.66,1.49,2.32-.33,0-.5.17-.83.33,0,.5.17.99.33,1.49-.5.33-.99.66-1.49,1.16h-1.16v.5h2.98l.33-.33c0-.17-.17-.5-.33-.83,1.32,0,2.32-.99,3.31-.66.83.5.33.99.66,1.49h1.82v-1.66s-.17.17-.5.5c-.17,0-.33-.33-.66-.5,0-.17.33-.33.33-.66-.33-.33-.83-.5-1.32-.83.33-.17.66-.33,1.16-.5,0,.33.33.5.5.66h.5v-6.45c-.33,0-.66,0-.99.5h0l-.33.17Z"/>
            <path id="Path_7302" data-name="Path 7302" d="M244.46,131.3c-.83-.99-1.66,0-2.48,0-.99,0-1.82.17-2.81.33v-1.82h-.17v1.66c-.33,0-.66.33-.99.33-.66,0-1.49,0-2.15.33-1.16,0-2.32.5-3.48.99h-.83s0,.17-.17.33h0s-.17.33-.33.33c-.5,0-.83.33-1.16.66h-1.16c-1.32,1.16-2.48,2.48-3.48,3.97.33.66.66,1.16.99,1.82v1.16c.5.66.99,1.16,1.49,1.49.33-.5.66-1.16.99-1.82,0,0,0-.5-.17-.83h.83c.17-.66,0-1.16.33-1.66.17-.5.17-1.16,0-1.66.33.17.66.5.99.66h.66v-2.15c.83-.5,1.82-.66,2.81-.5,0,.33.33.83.5,1.16.83,0,.83-.83,1.32-1.16.66-.33.33-1.16.66-1.32.83-.33,1.66-.83,2.15,0v3.81c-.17,0-.5.33-.66.33v3.81h0c.17-.66.33-1.32.5-1.99.33-.17.66-.33.99-.66-.5,0-.83-.17-1.16-.33,0-.5.5-.83.99-.83h0v-.17c-.17,0-.33,0-.5-.17v-.99c-.17-.33-.33-.66,0-.99,0-.33,0-.5.33-.83.17-.17.5-.33.66-.5.33-.5.5-.83.66-1.16.83,0,1.66,0,2.48.5.5.33.33.99.66,1.49l.33.5v-2.98h1.99c.17,0,.33-.17.66-.33.17.17.5.5.66.66-.66.5-.33,1.32-.99,1.66,0,0,0,.33-.17.99.5-.66.66-.99.99-1.16.17-.33.5-.5.83-.83v-2.48h0c-.99.33-2.15-.33-3.14.33h-.5Z"/>
            <path id="Path_7303" data-name="Path 7303" d="M247.93,121.04v-2.81c-.17.66-.5,1.32-.66,2.15.17.17.5.33.66.66Z"/>
            <path id="Path_7304" data-name="Path 7304" d="M243.46,315.34v-.66h-.33c0,.17.33.5.33.66Z"/>
            <path id="Path_7305" data-name="Path 7305" d="M247.93,125.51v-.5s0,.33-.17.5h.17Z"/>
            <path id="Path_7307" data-name="Path 7307" d="M245.61,152.32c-.99,0-1.99.66-2.98,0h-.33c-.33.5-.83.17-1.32.17-1.32,0-2.65.5-3.97.17-.66.5-1.49.17-2.32.33h-.66c-1.32.5-2.48.66-3.81.66-.99,0-1.99.83-2.81,0-.17.17-.5.5-.66.66-.99-.33-1.82.83-2.81.66-.5.5-.99,0-1.66.33-2.15.66-4.14,1.49-6.29,2.48-.83.33-1.66.99-2.48,1.32-1.16.66-2.15,1.49-3.14,2.48-.66.83-1.32,1.49-1.99,2.32v3.81c0,.33.33.5.5.83.17-1.32.33-2.65.5-3.81.83-1.16,1.66-2.32,2.81-3.31.5.5,1.16-.66,1.99,0,.66-.66,1.49-1.49,2.15-2.15.83.66,1.99.83,2.81.33.17-.83.33-1.49.5-2.32.33-.33.99-.33,1.32,0v.17c-.33.5-.66.99-.99,1.32.17.17.33.33.66.5.33-.33.5-.66.66-.99.66,0,1.16,0,1.82.33.33-.5.83-.83,1.16-1.32.99.5,2.15.66,3.14,0,0,0-.17-.33-.33-.5.17-.5.33-.83.5-1.32.17,0,.33.17.5.33.33,0,.66-.33.99-.5.33-.33.5-.66.66-.99.5,0,.99.17,1.49,0,1.49-.66,3.14-.5,4.8-.66h3.31c.66,0,1.16.17,1.66.66.66.5,1.66.83,2.48.66.17,0,.33-.33.5-.33,0-.17-.17-.33-.33-.66.5-.33.83-.5,1.49-.83,0,.66-.17.99-.33,1.32.83,0,1.66-.17,2.48-.33v-2.15h-1.66v.33ZM225.42,157.45c-.66-.17-.66-.66-.5-1.16h1.16c.17.5,0,.99-.33,1.16h-.33Z"/>
            <path id="Path_7308" data-name="Path 7308" d="M243.79,286.38c0-.66-.17-1.49.33-1.99-.33-1.16,0-2.15-.17-3.64l-.66-.66s0-.33.17-.83c-.5.17-.66.33-.99.5-.5-.5-1.32-.33-1.82-.33-.66.66-1.32,1.16-1.82,1.66h0c-.33,1.32-.5,2.65,0,3.81.33.83,0,1.82-.33,2.65.83,1.16-.66,2.48,0,3.64,1.99,0,3.97-.17,5.79-.33v-4.47s0,.33-.33,0h-.17Z"/>
            <path id="Path_7309" data-name="Path 7309" d="M237.34,444.11c-.33,0-.5-.17-1.16-.5.33.66.5.83.66,1.16.83,0,1.66-.17,2.48-.33.17.17.33.33.5.66,0,0,.17-.33.33-.33h.33v-.99h-2.15c-.33,0-.66,0-.99.17h0v.17Z"/>
            <path id="Path_7310" data-name="Path 7310" d="M239.99,274.46c0,.33-.33.5-.5.99.99,0,1.66-.33,2.48-.33h2.48v-.99c-.5,0-.99,0-1.32.17h-2.98l-.17.17Z"/>
            <path id="Path_7311" data-name="Path 7311" d="M244.46,188.23c-1.99,0-3.81.5-5.79.17h-.33c-.5.5-1.16.17-1.82.33-.66,0-1.32.17-1.82.33-.83,0-1.82,0-2.65.33-1.16.33-2.32.5-3.31.66-.5,0-1.16.33-1.66.33s-1.16.33-1.66.5c-1.16.33-2.15.5-3.31.99-.66.17-1.32.33-1.82.83-.33.33-.66.5-.99.5-.83.33-1.66.99-2.48,1.66-.66.5-.99.99-1.32,1.66-.66,1.32-.5,2.81.33,3.97h.33v-.17c0-1.99.66-3.81,2.32-4.97,0,0,.17-.17.33-.33.33-.17.66-.66.99-.66.66,0,1.49-.5,1.99-.99h1.16c.99-.5,1.82-.99,2.65-1.49h1.66c.5-.17.83-.5,1.16-.5,1.16,0,2.48-.33,3.64-.5h2.98c.99,0,1.82-.17,2.81-.17h3.97c0-.33,0-.5.17-.66.33.33.66.66.83.99h0c.5,0,.83.33,1.32.66.33,0,.83-.33,1.49-.66-.17.5-.33.66-.33.99.33,0,.66,0,.99.17v-4.3c-.5.33-1.16.33-1.82.17h0v.17Z"/>
            <path id="Path_7312" data-name="Path 7312" d="M243.13,313.69c-.17,0-.5,0-.66.17h.99v-.66h-.66l.17.17h0l.17.33Z"/>
            <path id="Path_7313" data-name="Path 7313" d="M237.5,160.26c-.66,0-1.49,0-2.15.17-.33.17-1.16,0-1.49,0-.5.33-1.16,0-1.66,0s-.99.17-1.49.33c-1.16,0-2.15.33-3.31.66-.99.33-2.15.5-3.14.83-.83.33-1.82.33-2.65.66-.83.17-1.66.5-2.48.99-.33,0-.66.33-.99.5-.99.5-1.99.83-2.98,1.32-.83.33-1.49.99-2.15,1.32-.5.17-.99.66-1.49.99-.5.66-.99,1.16-1.32,1.99-.17.33-.33.66-.66.99,0,1.32-.33,2.81.33,4.14.33.5.83,1.16,1.16,1.66,1.16,1.16,2.48,2.32,3.97,2.98.33.17.66.5,1.16,0-.5-1.49-.33-3.14.5-4.47.99,0,.66-.99.99-1.32,0-.33,0-.5-.17-.66h.99c0-.5,0-.83.17-1.32.66.5.99.83,1.32.99.33,0,.66-.17.99-.33-.66,0-.83-.17-1.16-.17,0-.5,0-.99.5-1.16.17.17.33.33.5.66l.5-.83h1.32c0-.5-.17-.83-.33-1.16.5,0,.83.33,1.16.5h.66v-1.32c1.16.33,1.99,1.32,3.14,1.49,0-.5,0-.83.17-1.49.33.33.66.5.83.83h.5c0-.33,0-.66.17-.99.66.17,1.16.5,1.66.66.17-.17.5-.5.83-.66.83,0,1.49.99,2.32.33.33,0,.5,0,.83.17.33,0,.5,0,.83.17v.66c0,.17-.33.33-.5.33-.5,0,0-.99-.83-.5v1.16h1.16v.99c-.5,0-.66-.17-1.16-.33,0,0-.33.33-.5.66.66.66,1.32-.17,1.82.17.17-.17.33-.33.5-.5h1.66c0,.33,0,.5.17.66.33-.33.66-.5.99-.83-.33-.17-.5-.33-.66-.5,0,0-.17,0-.17.17-.33-.17-.5-.5-.83-.66v-.17h1.66c0,.33,0,.5.17.66h.5c0-.33,0-.66.17-.83h.99c0,.17,0,.33.17.5.83.33,1.82.66,2.32.83h1.49v.66h1.32s.5-.33.83-.66v.17l.33-12.41c-1.16,0-2.48,0-3.64.33-1.99,0-3.97,0-6.12.17h0l.33-.17Z"/>
            <path id="Path_7314" data-name="Path 7314" d="M243.13,217.03c-.83.17-1.49.33-2.32.17,0,0,.17.33.33.33h-.66c.99.33,1.99.33,3.14,0,.83,0,1.66,0,2.32.17v-.83s-.33,0-.5-.17c-.66.66-1.49,0-2.15.33h-.17Z"/>
            <path id="Path_7315" data-name="Path 7315" d="M236.51,375.75c1.32.5,2.32.83,3.31,1.16v.33c0,.17.33.33.5.5.66,0,1.32,0,1.82.66v-3.14c-1.66,0-3.64-.33-5.63.5h0Z"/>
            <path id="Path_7316" data-name="Path 7316" d="M240.65,362.02l-.5-.5c-.17,0-.33-.17-.66-.33.17-.17.33-.33.5-.66-.33,0-.66-.33-.66-.33-.5.17-.66.33-1.16.5.66,0,.83,0,1.32.17-.33.99-1.32.99-1.99,1.66v.66c-.33.33-.66.5-.83.66v1.32h-.66c0,.66.17,1.32.33,1.99l-.17.17c.33.33.66.66.83.99,0,.5-.33.99-.33,1.16.5.83,0,1.82.17,2.65-.33,0-.5,0-.66.17.17.17.33.5.66.66-.33,0-.66,0-.99.17v.83c.66-.33,1.32-.66,1.99-.66h1.16c.99-.33,2.15-.33,3.14-.17v-10.26c0-.33-.17-.66-.33-.99h-1.16v.17Z"/>
            <path id="Path_7317" data-name="Path 7317" d="M247.77,86.28c-.33,0-.66,0-.99.33-.33,0-.5.33-.66.5.33,0,.5.17.66.33.17,1.32-.83,2.15-.99,3.14-.33.17-.5.33-.83.5-.17,0-.5.33-.66.33.33,1.16.83,2.15,1.66,2.98l.83-.66c.83.83.5,1.82.5,2.81,0,0,.33.33.5.5h.83v-10.26h-.33c-.17,0-.33-.17-.5-.33h0v-.17Z"/>
            <path id="Path_7318" data-name="Path 7318" d="M243.96,105.31v-1.82c.17-.5.33-.99.33-1.49s.33-.99.33-1.49c0-.66,0-1.32.33-1.82,0,0,0-.33-.17-.66-.66.66-.99,1.32-.99,2.15,0,1.66-.66,3.14-.5,4.63-.5.83-1.16,1.66-1.99,2.32-.99,0-1.82.17-2.65.33-.83,0-1.82.33-2.65.66,0-.33-.17-.5-.33-.66h-.33v.33c-2.48.99-4.8,2.15-7.28,3.14-.5.17-.99.5-1.49.99-.66.99-1.49,1.49-1.99,2.65,0,1.32-.33,2.98.33,4.14,1.32,1.16,2.48,2.15,3.64,3.14v4.14c0,1.32-.33,2.65-.83,3.81.17.33.33.66.66,1.16.33-.5.5-.66.5-.83s-.17-.5-.17-.66v-5.3c0-.33.33-.66.33-.99,0-.5-.17-.99-.17-1.66v-1.32c0-.5-.17-.83-.33-1.32.83-.66,1.49-1.16,2.32-1.82v-1.32c1.49-.5,2.98-1.16,4.3-1.99h1.49c.99,2.15,1.66,4.3,2.15,6.62.5,0,0,.99.83.83.17-.66.33-1.32.66-2.15,0-.17.17-.5.17-.66.17-1.49.66-2.98,1.49-4.14,0-.17.5-.33.83-.5v1.49c-.5,1.32-.99,2.48-1.49,3.81-.5.99-.66,1.99-.83,3.14h-.66s0,.33-.17.66h-.66c-1.32.66-2.81.99-4.3,1.16h0c0,.17.33.33.33.5.83-.17,1.66-.33,2.32-.66.66-.33,1.49-.5,2.32-.5.33.66-.66,1.16,0,1.82h.33c0-.66,0-1.32.17-1.99.33.83.66,1.66,1.16,2.48.5-.66.99-1.16,1.49-1.66.5-.5.66-1.16,1.49-1.16,0,0,.5.33.5.5,0,.5-.17.99-.33,1.66l.5.5c.33-.83.5-1.66.83-2.48,0,0,.5-.33.99-.83,0,.5,0,.83.17,1.16h.33c0-.17.17-.33.33-.66h.66c0,.17.17.33.33.5v-1.49c-.33,0-.5-.83-1.32-.5,0,0,0,.33-.17.5-2.15.17-3.97.33-5.96.66v-.33c.17,0,.5,0,.66-.17,1.49,0,2.81-.5,3.81-1.49-.17-.66-.17-1.49-.83-1.99,0-.5,0-.99.17-1.32q-.33,0-.66-.17c0-.83,0-1.82-.5-2.65,0,0,.17-.17.33-.33,0,.33.33.5.5.83,0,0,.17-.17.33-.33.66,1.99,1.32,3.97,1.99,6.12.33-.33.5-.66.66-.99.33-.99.66-2.15.99-3.14v-9.93c.17,0-4.97,0-4.97,0,.33-.5.5-.66.83-1.16h-.5Z"/>
            <path id="Path_7319" data-name="Path 7319" d="M246.77,139.24v.99c-.33,0-.66.33-.99.5.17.17.33.5.66.66v1.16l-.83.83c-.83,0-1.49,0-2.15.17h-3.31c-.66.5-1.32,0-1.99.17v-.83h-.17v1.16c-1.49.17-2.81.33-3.97.66s-2.65.17-3.81.99c-1.32,0-2.32,1.16-3.81.83v4.97c.17-1.16.33-2.48.66-3.64,3.48-1.49,6.95-2.48,10.76-3.14,0,.33,0,.83.17,1.32.17-.5.33-.99.5-1.32h1.16c.83-.5,1.82,0,2.65-.33.99-.17,1.82-.33,2.81-.17h1.16l.5.5c0,.83,0,1.66.17,2.32,0,.83,0,1.66-.33,2.32.33.17.33.33.5.5h.33l.33-11.92c0,.33-.33.83-.5,1.16,0,0-.33,0-.33.17h-.17Z"/>
            <path id="Path_7320" data-name="Path 7320" d="M227.9,220.18v.33c.5,0,.83-.17,1.32-.33.33.66.99,0,1.49.5,0,.17-.17.33-.33.66,0,0,.33.17.5.33v.33c-.17.5-.99-.17-.83.66h.5c.17,0,.5.17.66.33v-.66c0-.17.17-.33.33-.5,0-.17-.17-.33-.33-.5h0c.33.17.66.5.99.66.17-.33.33-.66.5-.99h.66c0-.5.5-.99.99-1.32l-1.16-1.16c-.5-.17-1.16-.33-1.82-.17-.5,0-.99.17-1.49.33-.33,0-.5.33-.83.5.5.17.83.33,1.66.66-1.32,0-2.32,0-3.14.5h0l.33-.17Z"/>
            <path id="Path_7321" data-name="Path 7321" d="M220.46,224.98c0,1.32,0,2.48-.33,3.81-.17.99-.17,2.15,0,3.14v5.46s0-.17.33-.33v.66h.17v-1.16c0-3.97.17-7.78.33-11.75,0-1.32.33-2.48,1.32-3.48v-.33h-1.16c-.33-.99.5-.99.99-1.32-.33-.33-.5-.66-.66-.66,0-.5,0-.99.17-1.32,0,0-.17,0-.33.17-.33-.33-.5-.5-.66-.66,0,.66,0,1.49.17,2.32-.33.33-.5.5-.83.66,0,.5.17.99.33,1.66-.17,0-.5.33-.66.5.5.99.66,1.99.66,3.14h0l.17-.5Z"/>
            <path id="Path_7322" data-name="Path 7322" d="M217.81,260.73c.33,0,.5.17.83.33,0,.66,0,1.49.66,1.82.17-.5.5-.83.66-1.16,0-.17-.33-.33-.5-.66.66-.5.99-1.16,1.16-1.82-.5,0-.83,0-1.32.17v-.99l.83-.83c0-.17-.33-.33-.33-.5v-4.3c0-.33,0-.66.17-.99v-1.32c.5-.5,0-.99.33-1.66,0,0-.33,0-.5.33v-.66c-.17.33-.33.83-.17,1.16,0,2.65-.5,5.3-.5,8.11-.33,0-.66.33-.83.5,0,.33.66.5.5,1.32,0,0-.33.5-.66.83h0l-.33.33Z"/>
            <path id="Path_7323" data-name="Path 7323" d="M215.49,339.34c.33.66,0,.99-.17,1.32,0,.33.33.66.5.83l.5-.5v-1.82c.5-.5.99-.83,1.49-1.49h-1.82v-.83c.33-.17.66-.33.99-.5-.66-.83-.66-.99-.66-2.15v-4.63l-.5.5c0,2.15,0,4.14-.17,6.45h-.99c.33.33.66.5.66.5v2.15h0l.17.17Z"/>
            <path id="Path_7324" data-name="Path 7324" d="M217.48,297.47c.17.83-.33.83-.5,1.16,0,.33,0,.66.17.99v4.47c0,.99,0,1.99.33,2.81.17,0,.33-.33.5-.33,0-.5-.33-.99-.17-1.16.33-.5.33-1.16.33-1.82v-3.97c.5-.66.83-1.16,1.32-1.82-.66,0-1.16-.17-1.49.33l-.5-.5h0v-.17Z"/>
            <path id="Path_7325" data-name="Path 7325" d="M214.99,355.56c.17.33.33.66.5.83l.5-.5c-.5-.33-.5-.99-.17-1.32.17-.66.33-1.32.33-1.99v-1.16c0-1.66.33-3.48-.17-5.13v-.5c.5-.33.17-.83.33-1.16,0-.99,0-1.99-.5-2.98v5.3c0,.33,0,.83-.17,1.16,0,.66-.17,1.32,0,1.99.17,1.49.17,3.14,0,4.63,0,0,0,.17-.17.33h0l-.5.5Z"/>
            <path id="Path_7326" data-name="Path 7326" d="M240.81,393.13h0c0,.33.17.5.33.5h.66v-1.16c-.5,0-.33.99-.83.66h-.17Z"/>
            <path id="Path_7327" data-name="Path 7327" d="M216.32,324.61c.33-.5.5-.66.66-.83v-4.14c.5-.66.99-1.16,1.32-1.66l-.5-.5c-.33,0-.66.17-.99.33-.17-.83,0-1.16.66-1.32l.17-.33-.66-.66v-1.66h-.17v1.99c-.33.17-.66.33-.99.5.5.83.66,1.82.66,2.98v5.3h-.17Z"/>
            <path id="Path_7328" data-name="Path 7328" d="M219.13,242.85c.33.5.66,1.32.5,1.99v3.48h.5v-4.63c.5-.66.83-1.32.99-1.82v-.33c-.33,0-.66.17-1.16.33v-1.16c.17,0,.5-.5.83-.66l-.5-.5v-.66h-.66c0,.5.17.99.33,1.49-.33.17-.66.33-.99.66.33.5.5.99.66,1.32l-.66.66.17-.17Z"/>
            <path id="Path_7329" data-name="Path 7329" d="M215.16,360.2v-1.16c0-.5,1.16,0,.83-1.16-.66,0-1.16.33-1.82.33.33.66.5,1.49.33,2.32,0,.5.17.83.17,1.32,0,1.82.17,3.64-.33,5.46,0,0,.33.33.5.66.17-1.16.33-2.15.5-3.31v-3.31c0-.66.99-.66,1.16-1.16-.5-.66-.99-.5-1.49-.17h0l.17.17Z"/>
            <path id="Path_7330" data-name="Path 7330" d="M224.76,151.49v-5.46c-.33,0-.66.17-.99.33v5.13l.5.5c.17-.17.33-.33.5-.5h0Z"/>
            <path id="Path_7331" data-name="Path 7331" d="M234.36,122.36c.17-1.32.66-2.48.99-3.81.17-1.32.83-2.48.83-4.14-.17.33-.5.66-.66.83,0,.5-.17.99-.33,1.49,0,.5-.33.99-.66,1.66-.5,1.49-.99,2.98-1.49,4.47.66,0,.99-.5,1.16-.66h0l.17.17Z"/>
            <path id="Path_7332" data-name="Path 7332" d="M218.8,282.08c.17-1.16.33-1.99.5-2.98.17-.33.33-.66.66-1.16h-1.32v-.83c.33-.33.66-.66,1.16-.83-1.16,0-1.99.17-1.99.83,0,0,.33,0,.66.17,0,2.32,0,3.97.5,4.63h0l-.17.17Z"/>
            <path id="Path_7333" data-name="Path 7333" d="M212.35,384.36l.66.66v1.49h.5c0-.99.5-1.82,1.32-2.81-.66,0-.99,0-1.49.17v-.99c.33-.17.66-.33.99-.66l-.83-.83c0-.5.33-.99.33-1.49h-.17s0-.33-.17-.5h-.17v2.48c-.5.33-.66.5-.99.66l.5.66v.99c-.33,0-.5,0-.66.17h.17Z"/>
            <path id="Path_7334" data-name="Path 7334" d="M231.21,133.78c.33-.5.5-.66.5-.83,0-1.16.5-2.15.5-2.98.33-.5.5-.99.66-1.49,0-1.32.17-2.81.83-3.97h-1.49c.5.5.66,1.32.5,1.99,0,.33-.33.5-.33.83,0,.83,0,1.66-.33,2.48,0,.83-.33,1.66-.66,2.48-.17.33,0,.83,0,1.66h0l-.17-.17Z"/>
            <path id="Path_7335" data-name="Path 7335" d="M217.48,297.63h0c0-.66.83-.66,1.32-1.32-.17-.17-.33-.5-.66-.66v-1.32c0-.5,0-.83.33-1.32.17-.33.17-.66,0-.99-.5-.5-.17-.99-.17-1.66v-3.31h-.17c0,2.98,0,5.96-.17,8.94-.33,0-.66,0-.99.17l-.33.33c.33.33.66.5.99.66h0l-.17.5Z"/>
            <path id="Path_7336" data-name="Path 7336" d="M221.28,151.66c.5-.5.99-.99,1.49-1.32,0-.83.17-1.66.33-2.48-.17,0-.5-.17-.66-.33v1.66c-.83,1.32-1.99,1.99-2.32,3.48l.5.5c.17-.5.5-.99.83-1.49h-.17Z"/>
            <path id="Path_7337" data-name="Path 7337" d="M244.62,248.15h.33v-.83h-.5v.83h.17Z"/>
            <path id="Path_7338" data-name="Path 7338" d="M245.12,246.33v-1.49c-.33.17-.83.33-1.16.66.5.33.83.66,1.16.83h0Z"/>
            <path id="Path_7339" data-name="Path 7339" d="M210.36,449.07h.33c.33-1.32.66-2.65.83-3.97-.99,0-1.82.33-1.82.83.17.17.33.5.66.83v2.15h0v.17Z"/>
            <path id="Path_7340" data-name="Path 7340" d="M241.81,327.43c.33.33.83.66,1.16.99,0,0,.17.17.17.33v-1.49h-1.32v.17h0Z"/>
            <path id="Path_7341" data-name="Path 7341" d="M211.52,426.73c0,.5.33.83.33,1.32v-.83h0v-.83c.33-.33.66-.5.83-.83v-.83c-.83-.17-1.66,0-2.15.5.5.33.83.5,1.16.83,0,.33-.33.5-.33.66h.17Z"/>
            <path id="Path_7342" data-name="Path 7342" d="M212.02,407.53h.5v-1.16l1.49-1.49c-.99,0-1.99-.17-2.81.66l.5.5v1.49h.33Z"/>
            <path id="Path_7343" data-name="Path 7343" d="M211.52,152.65c0-.33-.17-.66-.33-1.16-.33,1.16,0,2.15-.5,2.98v.5c.17.5.33.99.66,1.49,0,.17-.17.33-.33.5,0,.33.33.66.5.99h0c.5-1.66-.66-3.14,0-4.8v-.33h0v-.17Z"/>
            <path id="Path_7344" data-name="Path 7344" d="M235.52,367.81h0c0-.83,0-1.66-.17-2.48h-.83v1.49c.17.17.33.33.66.5v2.48c.17-.33.33-.5.66-.66,0-.5-.33-.83-.33-1.16v-.17h0Z"/>
            <path id="Path_7345" data-name="Path 7345" d="M240.48,383.37c.17.66.83,1.16,1.32,1.32v-.5h-.17c-.33-.33-.33-1.16-1.16-.83h0Z"/>
            <path id="Path_7346" data-name="Path 7346" d="M235.52,374.76c-.33-.33-.5-.66-.66-.99v-1.16h-.66c.33,1.16.5,2.15.83,3.14,0,0,.33.17.33.33,0-.33,0-.66.17-.99l.33.33c.5-.66.66-.99.17-1.32,0,.33-.33.5-.33.66h-.17Z"/>
            <path id="Path_7347" data-name="Path 7347" d="M211.52,149.5v-1.66h-.33l-1.16,3.64h.33c.33-.66.83-1.32,1.16-1.99h0Z"/>
            <path id="Path_7348" data-name="Path 7348" d="M238.99,175.16c.33.17.66.5.99.66,0,0,.17-.17.33-.33-.5-.5-.99-.99-1.49-1.66-.5.5-.99.83-1.49,1.32l.5.5c.33-.17.5-.83,1.16-.5h0Z"/>
            <path id="Path_7349" data-name="Path 7349" d="M213.51,377.74h.5c.33-1.49,0-2.98.5-4.3-.17-.17-.33-.5-.5-.66-.17.5-.33.99-.5,1.32.66,1.16,0,2.48,0,3.64h0Z"/>
            <path id="Path_7350" data-name="Path 7350" d="M238.66,434.68c.17,0,.5,0,.66.17v-1.66h-.99c0,.33.17.5.33.66-.66.33-1.32.66-1.16,1.82.5-.5.83-.83.99-1.16h0l.17.17Z"/>
            <path id="Path_7351" data-name="Path 7351" d="M232.21,142.06c0-1.49-.66-2.98-.83-4.3h-.33c0,.83,0,1.49.33,2.32.33.66,0,1.49.83,1.99Z"/>
            <path id="Path_7352" data-name="Path 7352" d="M216.48,325.27c0,1.32-.99,2.65-.5,3.97h.5c.33-1.16,0-2.32.33-3.31,0-.17-.17-.5-.33-.66h0Z"/>
            <path id="Path_7353" data-name="Path 7353" d="M243.13,272.64c.17-.5.33-.83.5-1.16h.5c-.33-.66-.83-.66-1.66-.5v1.16c-.33,0-.5,0-.83.33h.83c.17,0,.5.17.66.33h0v-.17Z"/>
            <path id="Path_7354" data-name="Path 7354" d="M233.86,380.72h1.32c-.17-.33-.33-.5-.33-.83.5-.33,1.32.17,1.49-.66h-1.49c-.17.5-.99.66-.99,1.49h0Z"/>
            <path id="Path_7355" data-name="Path 7355" d="M232.87,301.61s.33.17.66.33c.5-.5,1.32-.99,1.82-1.99h-.99v.83c-.5,0-1.16,0-1.16.83h-.33Z"/>
            <path id="Path_7356" data-name="Path 7356" d="M239.99,245.33c0-.33,0-.5.17-.83s.5-.66.66-.83h-1.82c0,.66.33,1.16.33,1.82h.5l.17-.17Z"/>
            <path id="Path_7357" data-name="Path 7357" d="M242.47,317.5c0,1.32-1.49,1.16-1.32,2.48.99,0,1.16-1.16,1.99-.99-.17-.5-.33-.83-.66-1.49Z"/>
            <path id="Path_7358" data-name="Path 7358" d="M231.55,321.8h-.83c.17.83.66,1.32,1.32,1.49v.66h0c0-.33.17-.66.33-1.16-.33-.33-.66-.66-.99-1.16h0l.17.17Z"/>
            <path id="Path_7359" data-name="Path 7359" d="M238,396.77l1.16,1.16c0-.33.17-.5.17-.5-.33-.5-.66-.83-.99-1.16h-1.32c.33.33.5.66.66.83l.33-.33h0Z"/>
            <path id="Path_7360" data-name="Path 7360" d="M240.48,450.56v-1.66c0-.17-.33-.33-.66-.33-.33.83.5,1.16.66,1.99h0Z"/>
            <path id="Path_7361" data-name="Path 7361" d="M244.29,200.32h0c0,.17.33.33.33.5h1.66v-.5c-.33,0-.5-.17-.83-.33s-.83,0-.99.17h0l-.17.17Z"/>
            <path id="Path_7362" data-name="Path 7362" d="M218.97,271.48v-4.8h0v2.48c0,.83,0,1.66.17,2.48l-.17-.17Z"/>
            <path id="Path_7363" data-name="Path 7363" d="M211.85,424.08c.33-.33.83-.66.83-1.32-.66,0-1.32.33-1.99.5,0,.66.66.66.99.83h.17Z"/>
            <path id="Path_7364" data-name="Path 7364" d="M241.15,207.6c0-.33,0-.66.17-.99h1.16v-.66c-.66,0-1.16.17-1.66.33-.33.5,0,.99.33,1.32h0Z"/>
            <path id="Path_7365" data-name="Path 7365" d="M211.68,443.78c0-.17-.33-.5-.5-.66-.5.33-.99.5-1.16.66,0,.33.17.5.33.83.66-.33.99-.66,1.32-.83h0Z"/>
            <path id="Path_7366" data-name="Path 7366" d="M239.82,429.21l.5.5c.99-.66.33-1.49,0-1.99-.17,0-.5.17-.66.33.17.33.33.66.5.83l-.33.33h0Z"/>
            <path id="Path_7367" data-name="Path 7367" d="M239.82,431.37l.5.5c.17-.33.33-.66.5-.99v-.66c-.83,0-.99,0-.99.99h0v.17Z"/>
            <path id="Path_7368" data-name="Path 7368" d="M235.02,433.52c-.33-.5-.5-.83-.66-1.16-.17.33-.5.66-.66,1.16.5.33.99.33,1.49,0h-.17Z"/>
            <path id="Path_7369" data-name="Path 7369" d="M232.21,239.54c.99,0,1.82.33,2.65-.33-.99-.33-1.82,0-2.65.33Z"/>
            <path id="Path_7370" data-name="Path 7370" d="M232.37,359.04c.5-.33.99-.5,1.66-.99h-2.32c.33.33.5.66.66.99Z"/>
            <path id="Path_7371" data-name="Path 7371" d="M240.81,381.55c0,.33.33.5.5.83.17,0,.5-.17.66-.17v-.66c-.33-.17-.83-.17-1.16,0Z"/>
            <path id="Path_7372" data-name="Path 7372" d="M233.37,363.84c.5.33.99,0,1.16-.5,0-.17-.17-.5-.33-.66-.5,0-.83.66-.83,1.16Z"/>
            <path id="Path_7373" data-name="Path 7373" d="M246.28,96.38c-.5.33-1.16.83-1.66,1.16v.33q1.82-.83,1.49-1.66h0l.17.17Z"/>
            <path id="Path_7374" data-name="Path 7374" d="M232.7,318.82c-.17-.5-.5-.99-.66-1.49-.33.17-.5.5-.66.5.17.33.5.66.66.99h.66Z"/>
            <path id="Path_7375" data-name="Path 7375" d="M236.35,414.98h.66c0-.5.17-.99.33-1.49,0,0-.33-.33-.66-.5,0,0,0,.17.17.33h-.83c.5,0,.66.17.83.33,0,.33-.33.66-.5.99h0v.33Z"/>
            <path id="Path_7376" data-name="Path 7376" d="M238,335.87c-.66-.99-1.32-.33-1.82,0,.66.66,1.16,0,1.82,0Z"/>
            <path id="Path_7377" data-name="Path 7377" d="M234.69,370.95c.17.33.33.66.66,1.16.33-.17.5-.33.66-.5-.33-.33-.5-.83-.66-1.16l-.5.5h-.17Z"/>
            <path id="Path_7378" data-name="Path 7378" d="M235.52,361.02h-.83c-.17.5-.5.99-.66,1.32,0,.17.17.33.33.5.33-.66.83-1.16,1.16-1.82Z"/>
            <path id="Path_7379" data-name="Path 7379" d="M235.85,444.11h-2.48c1.16.83,1.66.83,2.48,0Z"/>
          </g>
        </g>
      </g>
    </g>
  </g>
</svg>