<?xml version="1.0" encoding="UTF-8"?>
<svg id="Layer_1" data-name="Layer 1" xmlns="http://www.w3.org/2000/svg" viewBox="0 0 371.1 371.06">
  <defs>
    <style>
      .cls-1 {
        fill: #48b590;
      }
    </style>
  </defs>
  <path class="cls-1" d="M173.76.39c102.75-6.57,190.52,71.84,196.96,173.29,6.49,102.21-71.27,190.53-173.36,197.01C95.46,377.15,7.33,299.84.43,197.96S70.81,6.97,173.76.39ZM168.7,22.4C77.88,31.81,12.79,113.34,22.47,203.03c9.68,89.71,90.14,154.9,179.95,145.64,89.98-9.28,155.57-89.92,146.29-180.04-9.19-89.34-89.37-155.62-180-146.23Z"/>
  <path class="cls-1" d="M298.24,295.13c-60.14,61.78-158.12,63.46-220.32,4.94-65.95-62.05-66.11-166.42-.5-228.61,65.41-62.01,169.31-56.57,227.95,12.28,52.31,61.42,49.6,153.12-7.13,211.4ZM158.25,250.28l-.02-129.69-22.28.08.02,129.82,22.28-.2ZM235.18,250.3l-.03-129.73-22.27.12.02,129.78,22.28-.17Z"/>
</svg>