<?xml version="1.0" encoding="UTF-8"?>
<svg id="Layer_1" data-name="Layer 1" xmlns="http://www.w3.org/2000/svg" viewBox="0 0 371.1 371.06">
  <defs>
    <style>
      .cls-1 {
        fill: #fff;
      }
    </style>
  </defs>
  <path class="cls-1" d="M173.76.39c102.75-6.57,190.52,71.84,196.96,173.29,6.49,102.21-71.27,190.53-173.36,197.01C95.46,377.15,7.33,299.84.43,197.96-6.47,96.19,70.81,6.97,173.76.39ZM168.7,22.4C77.88,31.81,12.79,113.34,22.47,203.03c9.68,89.71,90.14,154.9,179.95,145.64,89.98-9.28,155.57-89.92,146.29-180.04-9.19-89.34-89.37-155.62-180-146.23Z"/>
  <path class="cls-1" d="M298.66,294.7c-60.07,62.18-158.37,64.06-220.74,5.37-65.95-62.05-66.11-166.41-.5-228.61,65.41-62.01,169.31-56.57,227.95,12.28,52.16,61.25,49.63,152.64-6.71,210.96ZM240.72,185.53l-110.28-70.87v141.76s110.28-70.89,110.28-70.89Z"/>
</svg>