<?xml version="1.0" encoding="UTF-8"?>
<svg id="Layer_1" data-name="Layer 1" xmlns="http://www.w3.org/2000/svg" viewBox="0 0 371.1 371.79">
  <defs>
    <style>
      .cls-1 {
        fill: #48b590;
      }
    </style>
  </defs>
  <path class="cls-1" d="M172.86.45c102.76-7.09,191.13,71.35,197.84,173.18,6.72,102.18-70.81,190.9-172.74,197.74C96.33,378.19,7.8,301,.48,199.14-6.84,97.33,70.13,7.54,172.86.45ZM242.94,304.49c32.81-.02,61.01-27.89,61.01-60.34l.03-116.27c0-32.98-28.61-60.67-61.51-60.67h-113.83c-32.54,0-61.43,27.33-61.42,60.08l.03,117.45c0,32.64,29.05,59.82,61.42,59.81l114.28-.06Z"/>
  <path class="cls-1" d="M285.13,235.36c.02,27.6-23.92,50.7-50.97,50.72l-96.55.07c-26.9.02-51.49-22.5-51.5-49.78l-.05-100.59c-.01-27.06,23.95-50.06,50.81-50.08l96.64-.08c27.17-.02,51.55,22.75,51.57,50.18l.06,99.56ZM248.42,106.33c-10.38,2.99-15.29,13.66-12.51,22.99,2.93,9.8,13.1,15.18,22.61,12.5,9.76-2.75,15.35-12.82,12.92-22.2-2.59-10.01-12.61-16.29-23.03-13.29ZM233.54,230.08c25.61-27.02,22.99-69.36-5.07-93.24-25.17-21.41-62.52-20.93-87.12,1.14-26.82,24.06-28.78,65.09-4.33,91.51,25.77,27.86,70.14,28.42,96.52.58Z"/>
  <path class="cls-1" d="M231.75,193.86c-2.9,16.85-15.05,29.75-29.02,35.06-17.45,6.63-35.54,2.87-48.66-8.83-19.58-17.46-20.62-47.12-2.61-65.93,18.58-19.41,49.64-19.46,68.23.04,10.08,10.57,14.63,24.71,12.06,39.66Z"/>
</svg>