<?xml version="1.0" encoding="UTF-8"?>
<svg id="Layer_1" data-name="Layer 1" xmlns="http://www.w3.org/2000/svg" viewBox="0 0 500 500">
  <defs>
    <style>
      .cls-1 {
        fill: #cdcdc4;
      }

      .cls-2 {
        fill: #3c5c5a;
      }

      .cls-3 {
        fill: #000100;
      }
    </style>
  </defs>
  <g id="lighthouse">
    <g id="Layer_5" data-name="Layer 5">
      <g id="Group_69" data-name="Group 69">
        <path id="Path_7380" data-name="Path 7380" class="cls-2" d="M64.22,460.33s-.83,26.81,81.26,26.32c27.81-.5,104.27-11.42,104.27-11.42l-44.52-36.74-69.18.66-28.96.83s-18.87,2.65-19.53,2.81-20.03,2.48-20.19,3.14-3.31,14.56-3.31,14.56h0l.17-.17Z"/>
        <path id="Path_7381" data-name="Path 7381" class="cls-1" d="M40.55,422.76l6.62,2.65,6.95,1.49,14.9-.83,11.92-2.32,10.43-3.81,11.59-5.13,8.28-1.66,12.25-5.13,6.95-6.29,10.1-2.98,10.59-5.13,8.77-9.6,9.93-8.28,11.25-11.75,5.46-8.94,3.81-5.63,4.14-2.48,8.94,1.66,8.28,1.99,5.46,2.15,4.63,10.1,8.44,10.76,13.24,8.44,8.94,4.63,6.79,2.48,3.81,4.14v2.48l11.92,11.25,9.43,6.95,10.26,5.46,13.41,5.46,13.9,4.3,27.64,2.98h14.9l12.74-1.99,9.76-.99,22.34-3.64,10.92-.83,12.58-1.66,14.56-3.48s2.48-.17,0,3.14-12.58,23.67-37.24,31.78c-24.66,8.11-28.96,10.59-28.96,10.59l-6.29.66-6.95,2.32-7.61,2.65-13.41,3.64h-10.1l-1.99,1.16-20.19,2.15-17.54,1.16-10.59-2.32-13.9-.83s-22.34.66-30.62-1.16c-8.28-1.82-8.44-3.81-8.44-3.81v2.98c-.17,0-1.66.33-1.66.33,0,0-4.47-7.78-5.46-11.09s-6.45-4.97-6.45-4.97v1.66l1.99,4.3v4.8c-.17,0,1.66,4.3,1.66,4.3l-10.43-.99-4.97-6.29-1.66,5.13.99,3.97c-.5.99-1.16,2.15-1.82,3.14h-2.65l1.16-4.3-3.64-5.13c-1.16,0-2.48-.17-3.64-.17-.17,0-1.99,1.99-1.99,1.99,0,0,0,3.48.17,3.64s1.32,1.82,1.32,1.82l-3.81,3.48-3.64-2.48,1.66-2.98-1.82-4.47-2.65-.83s-1.32,3.48-1.16,3.81.5,5.46.5,5.46l-2.48,4.47-6.45-1.66,1.99-3.97-.83-3.14-4.47-4.8-4.8-.83-1.16,1.16,2.15,2.81.33,3.64-3.48,3.64-1.82-3.31-1.66-4.3-2.98-1.82-2.98.66-1.66,3.64.5,1.66,1.66,3.97-2.48,3.64-1.66,2.32h-4.3l1.82-2.48.5-3.14-2.32-1.49-5.3,1.66-2.81-1.66-.33-3.14,3.14-3.97-.5-3.14-4.3-.83v-2.98s-1.99-3.14-2.15-3.31-5.13-1.32-5.13-1.32l-8.61,3.14s-.99,4.8-.99,4.97-3.81,2.98-3.81,2.98l-2.98-.83.83-4.14-2.15-4.14-.83-1.49,1.66-1.32,2.15-4.97,1.16-3.64-1.32-2.48c-.66-1.16-2.15-1.49-3.31-.83-1.99.99-.17.83-.17.83l-1.99,3.81-2.65,1.16v-3.31c.17,0-.99-2.48-.99-2.48l-3.14-.33-3.31,2.81-.33,3.48-2.81,3.48h-2.48l.83-2.65.83-2.48-2.15-3.14h-5.96l-1.32,1.32-.99,5.96c-.66.5-1.32.83-1.99,1.16l-1.99-1.66,2.15-2.32-5.63-2.32-.33,5.3-2.81.83-.99-.99.99-2.81-2.65-1.49-5.63,2.65-2.65,6.12s-14.23-21.02-23.67-37.57h0l-.99.33Z"/>
        <g id="Group_67" data-name="Group 67">
          <path id="Path_7382" data-name="Path 7382" class="cls-2" d="M200.26,455.2v-1.66c-.17,0-1.66-4.14-1.66-4.14l-2.81-2.81v3.31l-1.32,3.97v3.48l-2.98.33-1.66-.99,1.32-3.81.33-2.98-3.48-2.48-2.32.66-2.98,1.82.33,3.48,3.31,4.47,5.46,3.31h3.81l4.14.66s5.3.99,5.46,1.16l-2.81-9.43-2.32,1.82h0l.17-.17Z"/>
          <path id="Path_7383" data-name="Path 7383" class="cls-2" d="M239.66,457.68l-5.3-6.62-4.97-8.61-3.97-8.77-3.31-2.81h-2.65l-1.16,3.81,5.3,8.77,10.76,14.4s9.93,8.77,10.1,8.77,12.91,4.63,13.08,4.63l.66-1.82-11.09-5.13-7.61-6.29h0l.17-.33Z"/>
          <path id="Path_7384" data-name="Path 7384" class="cls-2" d="M272.26,427.06l-4.14-7.12-5.96-5.63-4.47-.99-2.81,1.49,7.94,8.28s12.74,10.1,13.41,10.26l1.49.33-.99-1.99-4.63-4.8h0l.17.17Z"/>
          <path id="Path_7385" data-name="Path 7385" class="cls-2" d="M314.3,453.38l-8.28-8.44-6.62-5.96-5.79-5.63-2.98-2.81-2.32-1.82.99,2.48,4.14,6.12,1.66,2.81.66,2.48-2.32-.5-5.46-2.65-4.97-1.99,6.79,5.63,4.8,1.99,3.97,3.64,7.78,3.64,11.42,5.13-3.31-4.3h0l-.17.17Z"/>
        </g>
        <g id="Group_68" data-name="Group 68">
          <path id="Path_7386" data-name="Path 7386" class="cls-3" d="M74.98,425.9c3.97-.66,7.94-1.49,11.59-3.14,2.32-1.16,4.8-1.49,7.12-2.48,4.14-1.66,8.11-4.3,12.58-4.97,3.64-.33,7.28-1.32,10.59-2.81,2.48-.99,4.8-2.32,6.95-3.64,2.15-1.32,3.64-3.48,5.63-4.97,3.14-2.32,7.12-2.81,10.59-3.97,4.3-1.16,8.44-2.98,12.08-5.63,4.97-4.14,8.61-9.6,13.57-13.57,4.14-2.98,7.94-6.29,11.25-9.93,1.99-2.65,3.97-4.97,6.12-7.61,2.32-2.98,3.64-6.45,5.3-9.76,2.32-3.81,6.95-5.46,11.25-3.97,2.98,1.16,6.12,1.66,9.1,2.65,2.98,0,6.45.83,7.94,3.48,1.99,3.31,3.31,7.12,5.46,10.26.99,1.49,1.82,3.14,2.98,4.47,2.32,2.15,4.47,4.63,6.95,6.62,6.12,4.14,11.92,9.1,19.2,11.09,1.82.33,3.31,1.49,5.13,1.66,1.16.33,2.32,0,3.31.83,1.16,1.49,1.99,2.98,3.14,4.3,0,.83-.5,1.82.17,2.32.99.83,2.15,1.32,2.98,2.48,2.32,3.14,5.3,5.46,7.94,8.28,2.48,2.81,5.96,4.47,8.94,6.79,4.14,3.14,9.1,4.8,13.74,6.95,4.97,1.82,9.43,4.63,14.4,6.29,11.42,3.14,23.34,4.3,35.09,5.63,7.45.66,14.9.33,22.34-.83,7.45-.99,14.73-1.49,22.18-2.32,7.45-.99,14.73-2.65,22.18-3.31,5.3-.33,10.43-.99,15.72-2.15,6.45-1.32,12.91-1.66,19.03-3.97,0-.33-.17-.66-.33-.99-7.61,1.66-15.23,2.65-22.84,3.97-6.12,1.16-12.41,1.16-18.54,2.32-5.96.83-11.75,1.99-17.71,2.65-6.79.66-13.57,1.32-20.19,2.15-9.1,1.32-18.21,1.32-27.31,0-8.28-.83-16.39-1.99-24.5-3.64-4.63-.99-9.1-2.81-13.41-4.97-5.79-2.98-12.41-4.63-17.71-8.61h0c-.83-.66-1.66-1.32-2.48-1.99-.66-.5-1.49-1.16-2.15-1.66-.17,0-.5-.33-.66-.5h0c-2.98-1.82-5.63-4.14-8.11-6.62-2.65-2.15-4.47-5.13-7.12-7.28.33-1.49-.83-2.32-1.49-3.31-.83-.99-1.49-2.32-2.15-3.31-.5-.66-1.32-.99-1.99-1.32-.33,0-.66,0-.83-.17-.5,0-.99-.33-1.66-.5-.5,0-.99-.33-1.49-.5h-.33c-.33,0-.5-.17-.83-.33-.33,0-.66,0-.99-.17-.33,0-.66-.17-.99-.33-.17,0-.5,0-.66-.17h0c-2.48-1.16-4.8-2.65-6.95-4.3h0l-1.16-.66c-.66-.33-1.16-.66-1.82-1.16-.5-.33-1.16-.66-1.66-.99,0,0-.33,0-.33-.17h0c-.83-.5-1.49-.99-2.32-1.49-.5-.33-1.16-.83-1.66-1.16-.99-.66-1.82-1.32-2.65-1.99-.5-.33-.83-.66-1.32-.99-.33-.17-.66-.5-.83-.66v.17c-2.32-1.66-3.81-4.14-5.63-6.45-2.32-2.98-3.81-6.79-5.63-10.1-.5-.83-.83-1.66-1.32-2.48-.17-.17-.33-.33-.5-.66-.33-.5-.66-.99-1.16-1.32,0,0-.33-.17-.5-.33-.5-.33-.99-.5-1.66-.83h0c-1.99-.5-4.14-.99-6.29-1.32-.83,0-1.82-.17-2.65-.5h0c-1.99-.5-4.14-1.16-6.12-1.82-.33,0-.5,0-.83-.17h-5.13c-.5.33-.99.66-1.49.99-.33.17-.66.33-.99.5,0,0-.17,0-.33.17l-.17.17h0c-1.32,1.16-2.48,2.48-3.48,3.97-.17.5-.33.83-.66,1.32,0,.17-.17.33-.33.66h0c-.5.83-.99,1.66-1.49,2.48h0c0,.33-.33.66-.5.99,0,.17,0,.5-.33.66-1.49,2.32-2.98,4.47-4.8,6.45h0s-.17.17-.33.33c0,0-.33.33-.33.5,0,0-.17.33-.33.5-.5.66-.99,1.49-1.66,2.15h0c0,.33-.33.66-.5.83,0,.17-.33.5-.5.66-1.32,1.49-2.81,2.81-4.3,3.97h0c-.5.33-.99.66-1.32,1.16-.33.33-.66.5-.99.66h-.17c-.83.83-1.66,1.49-2.48,1.99h0l-.17.17h0c-.33.17-.66.5-.83.66,0,0-.17.17-.33.33-.66.66-1.32,1.16-1.99,1.82h0c-.17.33-.5.5-.83.66l-.5.5h-.17c-.83.99-1.66,1.82-2.48,2.81h0c-.33.33-.66.66-.99.99,0,.17-.33.5-.5.66h0c-1.49,1.49-2.81,3.14-4.14,4.63-1.66,1.82-4.14,2.98-6.29,4.14h0c-.33.33-.83.5-1.32.66-2.98,1.16-6.12,1.99-9.1,2.81h0c-.33,0-.66,0-.99.17,0,0-.33,0-.5.17h-.17c-.33,0-.5.33-.83.33h-.17c-.66.17-1.32.5-1.99.83h0c-.5.33-.99.66-1.66.99-1.32.99-2.65,2.15-3.81,3.48-.17.33-.5.66-.83.83s-.66.5-.99.66h0c-.83.5-1.66.99-2.48,1.32-.33.17-.66.33-.99.5-.5.17-.83.5-1.32.66h0c-1.49.83-2.98,1.49-4.3,2.15h0c-.33,0-.83.33-1.32.33s-.83,0-1.32.33h0c-.5,0-1.16.33-1.66.5h0c-.99.33-2.15.33-3.14.5-2.81.5-5.63,1.49-8.28,2.81h0c-.66.33-1.32.66-1.99.99h0c-1.66.83-3.31,1.49-4.97,2.15-.33.17-.5.33-.83.33-.5.17-.99.33-1.66.5h0c-1.99.66-3.81,1.99-5.96,2.32h0c-.5,0-.83.17-1.32.5-.33,0-.66.33-.99.33-.5.33-.99.33-1.49.33h0c-.66,0-1.16.17-1.82.33-.5,0-.83.33-1.32.33-.66.17-1.49.33-2.15.33h-.66c-.33,0-.66.17-.83.33-.5.17-.99.33-1.66.5h0c-3.64.66-7.28.99-10.92.66-6.29.33-12.74-.83-18.54-3.14.83,1.99,2.98,2.48,4.8,2.98,3.64.99,7.45,1.49,11.25,1.66h7.12c3.81.33,7.45-1.16,11.25-1.66h0l-1.49,1.32Z"/>
          <path id="Path_7387" data-name="Path 7387" class="cls-3" d="M410.29,453.87c-4.3.99-8.61.83-12.91,0-4.3-.99-8.77-1.66-13.08-2.98-5.13-1.49-10.59-2.48-15.39-4.8-1.66-.99-3.31-1.82-5.13-2.48.33.66.83,1.32,1.32,1.66,3.31,2.81,7.45,4.3,11.59,5.3,3.97.99,8.11,2.32,12.08,3.31,5.63,1.16,11.42,2.81,17.21,2.48-1.99.99-4.14,1.66-6.29,2.32-1.82.83-3.81,1.32-5.96,1.49-3.97,0-7.78-.17-11.75-.83-3.64-.66-7.12-1.99-10.59-3.14-4.14-1.32-8.44-2.48-12.58-3.48-2.98-.83-5.96-2.32-8.61-3.97-1.16-.83-2.48-1.49-3.97-1.82,1.49,1.99,3.81,3.14,5.79,4.47,2.81,1.66,5.96,2.98,9.1,3.64,5.46,1.49,10.76,3.14,16.05,4.97,3.81,1.16,7.61,1.82,11.42,2.15-3.97,1.66-8.44,3.64-12.74,2.15-6.79-2.15-13.74-3.81-20.19-7.28-5.46-2.81-10.76-5.96-16.39-8.44-.99-.5-2.15-.66-3.31-.33-1.32,1.16,0,2.98.83,3.81,3.64,3.31,8.11,5.63,12.41,7.78,6.12,3.14,12.41,5.79,19.03,7.61-4.14.17-8.28,0-12.25-.5-3.31-.33-6.29-1.82-9.43-3.14-2.81-1.32-5.96-1.66-8.61-3.48-3.97-2.65-7.94-5.63-12.08-8.28-4.3-2.81-7.94-6.29-11.75-9.43-3.64-3.14-7.12-6.79-11.25-9.43-3.31-1.99-5.96-4.97-9.6-6.62-1.99-.83-4.47-2.32-6.45-.83-1.49,1.16-.5,3.31-.5,4.8-3.81-1.49-5.13-5.96-8.44-7.94-1.32-.99-2.65.66-2.32,1.99.5,2.81,1.99,5.3,4.14,7.12,1.66,1.32,3.31,2.48,5.13,3.48,1.49,1.16,2.81,2.48,4.14,3.81-2.48-1.49-4.97-2.98-7.45-4.63-5.63-3.64-8.94-9.43-13.41-14.4-2.65-3.14-5.63-6.62-9.93-7.61-1.32-.33-2.48.33-3.48.83-1.49-1.99-2.65-4.3-3.97-6.45-1.16-1.99-2.81-3.64-3.97-5.46-2.81-3.97-5.3-8.28-8.77-11.59-2.48-2.15-4.3-4.8-5.63-7.78,2.48,2.48,4.47,5.63,7.61,7.28-1.32-2.48-3.48-4.47-5.13-6.45-2.15-2.32-3.97-5.13-6.12-7.61-1.49-1.82-2.65-4.14-4.3-5.79-1.66,0-.83,1.66-.33,2.48h0c1.49,2.98,3.64,5.46,5.13,8.11,1.49,2.32,2.15,4.97,3.81,7.12,1.99,2.65,4.8,4.63,6.79,7.28,2.48,3.31,4.47,6.95,7.12,10.1,3.14,3.81,5.13,8.61,8.44,12.25,1.99,2.15,4.14,4.3,6.45,6.29,2.65,2.32,4.97,4.97,7.94,6.79,4.63,2.65,8.61,6.62,13.08,9.76,2.98,2.15,6.29,3.81,9.27,5.79,2.48,1.49,4.8,3.48,7.45,4.8s5.13,2.81,7.78,3.81c4.47,1.82,8.77,4.14,13.08,6.12,2.48.83,4.97,1.49,7.61,1.99,4.47.99,8.77,2.48,13.08,3.64,3.48.66,6.79,1.32,10.26,1.99,3.31.33,6.62.83,9.93.83-3.31,1.16-6.79,2.32-10.1,3.48-3.97,1.32-8.44.66-12.58,1.16-5.79.33-11.75-.17-17.38-1.82-2.81-.5-5.79-1.16-8.61,0-.99.33-.99,1.49-.99,2.48-2.98-.83-5.96-1.49-8.94-2.15-2.65-.66-5.46,0-7.94-.83-1.82-.5-3.81-.99-5.63-1.49-4.14-.83-7.94-2.98-12.08-3.64-4.97-1.66-10.26-2.98-14.73-5.63-3.48-1.99-6.29-4.97-9.1-7.61-2.15-1.99-4.3-4.14-6.29-6.29-5.63-5.96-11.59-11.59-16.88-18.04-3.31-3.48-5.63-7.61-8.61-11.25-.5-.66-1.16-1.32-1.99-1.66-1.49-.33-.5,1.32,0,1.66,4.3,5.13,7.94,10.59,10.76,16.55,3.48,6.79,7.45,13.57,13.08,18.87,7.12,6.79,15.72,11.92,25.16,14.73,5.96,2.15,11.42,5.63,16.88,8.61-2.98-.33-5.79-1.16-8.77-1.16-1.99,0-4.14-.17-6.12-.99-3.14-1.32-6.45-2.32-9.43-3.81-4.8-1.99-8.94-5.3-13.57-7.61-3.31-1.66-5.63-4.97-8.44-7.28-2.48-2.32-4.47-4.97-6.12-7.94-3.14-5.13-4.97-10.92-8.61-15.72-1.16-1.82-3.31-2.48-5.3-1.66-.66.66-.99,1.66-.99,2.48-1.99-3.14-3.14-6.79-3.31-10.59,0-.83.33-1.66,1.16-1.99,1.49.33,1.66,1.99,2.32,3.31.33.99,1.49,1.49,2.15,2.32.33.83.66,1.82.99,2.65,1.16.17.33-1.99.83-2.48.99,1.49,1.16,3.48,1.82,5.13,1.49-2.48-.33-5.3-2.32-6.95-.66-.17-1.66.33-1.99-.5-.66-1.32-.83-2.98-1.99-4.3-.99-1.16-2.65-1.16-3.81-.33-.17.17-.33.33-.5.66-.83,1.49-.5,3.31-.17,4.97.66,4.3,2.81,8.11,4.47,11.92,1.49,2.81,3.31,5.3,5.46,7.61,2.32,3.14,4.14,6.45,6.95,9.27,4.63,5.3,9.27,11.09,15.56,14.4,4.63,2.32,9.6,3.81,14.56,5.63,3.31,1.49,6.79,1.82,9.93,2.98,3.31,1.16,6.95.66,10.43,1.16,1.99.33,3.97.66,6.12.83,4.63.33,8.94,1.82,13.57,1.82s9.43.17,14.23-.5c4.47-.83,9.1-.66,13.57-1.49,3.14-.5,6.29-.5,9.27-1.16v-1.49c3.64-.17,7.28,0,10.92-.5,3.31-.33,6.29-1.99,9.27-2.81,5.79-1.82,11.59-3.31,17.54-4.47,2.48-.5,4.97-1.49,7.61-1.49,2.65-1.49,5.79-2.32,8.77-3.48,1.66-.83,3.64-.5,5.46-.5.5-.66.83-1.49,1.66-1.82,3.48-1.32,6.95-2.15,10.1-4.14,1.66-.99,3.64-1.16,5.46-1.99.66-.33.83-.99.66-1.66,0,0,0-.17-.17-.33-1.66-.33-3.14.66-4.63.99h0l.33,1.32ZM267.79,426.4c-3.97-3.81-8.28-7.45-11.75-11.75.5-.33,1.16-.5,1.66-.83,2.48.33,4.8,1.49,6.45,3.48,3.14,3.14,5.3,7.12,8.28,10.43,1.49,1.82,3.14,3.31,4.47,5.13-2.81-2.48-6.29-4.14-9.1-6.45h0ZM285,439.14c2.48,1.49,5.13,2.81,7.45,4.47-2.65-1.32-5.13-2.81-7.45-4.47h0ZM290.47,438.48c-2.32-2.65-4.97-4.8-7.94-6.45-2.81-1.82-4.8-4.8-5.13-8.11,3.48,1.99,4.47,6.45,8.28,7.94.99.66,1.99-.33,2.65-.99,1.16,2.32,2.48,4.63,4.3,6.62.99,1.16,1.82,2.48,2.15,3.81-1.66-.66-3.14-1.66-4.3-2.98h0v.17ZM293.45,443.45h0c1.16.66,2.48,1.49,3.48,2.32,2.65,1.82,5.46,3.31,7.78,5.46-4.14-1.99-8.28-4.3-11.42-7.61h0l.17-.17ZM302.38,447.42c-2.15-1.32-4.3-2.81-6.45-4.3l.66-.83c-.83-1.82-1.32-3.81-2.65-5.13-1.99-2.15-3.64-4.47-4.97-7.12h0c1.66,1.49,2.81,3.31,4.47,4.97,1.99,1.99,4.14,3.64,6.12,5.46,5.13,4.8,9.43,10.26,14.4,15.06-4.63-1.66-7.78-5.63-11.75-8.11h.17ZM334.33,462.48c-3.81-1.16-7.94-1.66-11.42-3.64-5.46-2.65-9.93-6.95-13.9-11.42-3.97-4.47-8.28-8.61-13.08-12.25-1.66-1.49-3.31-3.14-4.8-4.8-.99-.99-2.48-1.32-3.64-1.82,0-.99.99-1.66,1.82-1.66h.17c3.97.99,7.45,2.98,10.43,5.79,4.3,2.98,8.44,6.29,12.08,10.1,4.63,4.14,9.43,8.28,14.4,11.92-5.13-2.15-9.43-5.79-13.57-9.27.83,1.66,1.99,2.98,3.31,4.14,2.65,2.48,5.79,4.47,9.1,6.12,5.3,2.32,9.93,5.79,15.23,8.11,1.32.66,2.98.5,4.3,1.32-3.64-.66-7.12-1.82-10.59-2.65h.17ZM243.63,464.63c-4.63-3.31-8.28-7.78-11.92-12.08-2.15-2.15-3.97-4.63-5.63-7.28-2.15-3.64-5.96-6.62-7.12-10.92h0c-.5-1.49.99-3.48,2.65-2.81,2.48.83,3.48,3.81,4.8,5.79,3.48,6.95,6.45,14.56,12.41,19.86,2.48,2.32,4.47,5.13,7.45,6.79,3.64,1.99,7.28,3.81,10.59,6.29-4.47-1.49-9.1-2.98-13.08-5.79h0l-.17.17ZM287.82,476.71c-1.32-1.66-3.48-2.65-5.3-3.81-5.63-3.31-11.59-5.96-17.71-8.11-8.61-3.48-16.39-8.77-22.67-15.72-4.63-5.13-7.78-11.09-10.92-17.05,3.48,3.97,7.28,7.94,11.09,11.75,2.98,3.31,5.96,6.45,9.1,9.6,3.64,3.48,6.95,7.28,11.42,9.76,5.63,3.31,12.25,4.3,18.21,6.79,4.63,1.49,8.77,4.3,13.24,6.45,1.66.83,3.48,1.32,5.13,2.15-3.81-.33-7.61-.99-11.42-1.82h-.17ZM304.2,478.37c-1.82-.33-3.31-1.49-5.13-1.99-3.31-.99-6.29-2.48-9.1-4.47h0c1.82.5,3.64,1.16,5.46,1.66,2.48.66,4.97,0,7.45.66,4.8,1.32,9.6,2.65,14.56,3.48-4.3.66-8.77.99-13.24.66h0ZM322.91,477.38c-1.49.33-2.65-.66-3.97-.99-1.99-.33-3.97-.83-5.96-1.49h0c.99-2.32,3.97-1.32,5.96-1.32,4.63.99,9.27,2.32,14.07,2.65-3.31.33-6.79.83-10.1.99h0v.17ZM365.94,464.8c-5.46-1.66-10.76-3.81-15.89-6.45-4.14-1.82-7.94-4.14-11.59-6.62-.66-.5-1.32-1.16-1.49-1.99h0c2.48.5,4.63,1.82,6.79,2.81,6.62,3.14,12.58,7.28,19.53,9.76,3.97,1.32,8.11,2.65,12.25,3.97-3.31.99-6.45-.5-9.6-1.49h0Z"/>
          <path id="Path_7388" data-name="Path 7388" class="cls-3" d="M195.63,375.59c-1.16,0-1.99.66-2.32,1.82h0c.83-.33,1.82-.66,2.81-.83,1.66.17,2.81,1.66,3.81,2.81-.99-.5-1.99-1.49-3.31-1.32-.83.33-.83,1.16-1.16,1.82.66-.17,1.16-.83,1.99-.83,2.65,1.16,4.47,4.8,2.32,7.28-.83-2.65-3.81-3.31-6.29-3.31.33,1.49,1.99,1.32,3.14,1.82,1.32.33,1.82,1.99,2.98,2.48,1.16,0,1.99-.99,2.32-2.15.33-1.99.5-3.97-.66-5.79-1.16-1.99-3.14-4.47-5.79-4.14h0l.17.33Z"/>
          <path id="Path_7389" data-name="Path 7389" class="cls-3" d="M189.34,389c0,.17,0,.66.17.83,1.49-.5,2.81-1.66,4.47-1.99,1.49,0,2.81.99,2.98,2.65h0c-.66.17-1.16.33-1.82.66-.83.5-.33,1.82.5,1.99.99.5,2.15,1.32,1.99,2.65-.66-.5-1.49-1.16-2.15-1.66.5.99,1.32,1.99,1.66,3.14,0,1.99-.66,3.97-2.15,5.3,0-1.82.5-4.14-.99-5.63-1.16-1.32-3.31-1.49-4.3.17,1.16,0,2.65-.17,3.48.99,1.32,1.32.66,3.14.66,4.8.17,1.49,1.82.33,2.48-.17,1.66-2.32,2.48-5.13,2.15-7.94,0-1.32-1.49-1.82-2.32-2.48,2.65-.66,1.99-4.3,0-5.3-2.32-1.32-4.97.33-6.79,1.82h0v.17Z"/>
          <path id="Path_7390" data-name="Path 7390" class="cls-3" d="M188.02,394.95c-1.66-1.16-3.64-2.48-5.79-1.66-.99.33-1.82,1.32-1.82,2.48.99-.66,1.82-1.66,3.14-1.49,1.49.33,2.98.99,4.14,1.82.99-.33,2.65-.83,2.65-2.15,0-1.66-1.32-2.81-2.48-3.81h0c-.33,1.49.99,2.15,1.49,3.31,0,.66-.66,1.32-1.32,1.49h0Z"/>
          <path id="Path_7391" data-name="Path 7391" class="cls-3" d="M242.3,392.8h0c0,.33,0,.83.17,1.16,3.48,1.66,6.62,4.14,9.27,7.12.17,0,.5-.17.66-.17-2.32-3.81-5.79-7.12-10.26-8.11h.17Z"/>
          <path id="Path_7392" data-name="Path 7392" class="cls-3" d="M204.9,400.75c-.83-1.66-2.32-2.98-3.97-3.64h0c0,1.99,2.32,2.15,2.81,3.81.66,1.16-.17,2.32-.5,3.48,1.32,1.16,2.48,2.32,3.48,3.81,1.16-.99,1.49-3.31,0-4.14,0,.5-.17,1.49-.17,1.99l-1.99-1.99c.33-.99.99-2.15.33-3.31h0Z"/>
          <path id="Path_7393" data-name="Path 7393" class="cls-3" d="M210.2,398.93c1.49,0,2.15,1.66,3.31,2.65,0-1.32-.33-2.98-1.66-3.31-1.99-.83-5.13.83-4.47,3.14h0c.99-.83,1.66-2.15,3.14-2.32h0l-.33-.17Z"/>
          <path id="Path_7394" data-name="Path 7394" class="cls-3" d="M172.46,403.89c-.83-2.48-3.81-2.32-5.79-1.66-.99.33-1.82,1.16-2.15,2.15-.33.17-.66.33-.99.66.99.99,1.82,2.15,2.81,3.14.33-1.49-.83-2.65-1.99-3.48,1.66-.83,3.48-1.99,5.46-1.66,1.16,0,.99.99,1.16,1.82l-1.49.83c.17.83.5,1.99,1.49,2.32s2.15-.33,2.48-1.32v-.33c.33-1.66,1.99-2.32,2.15-3.97,0-1.82-1.66-3.31-3.48-3.31h-.83c.99.83,2.65,1.16,2.98,2.48.33,1.32-.66,2.15-1.49,2.81.17,1.32-.83,3.64-2.32,1.99.66-.83,1.32-1.66,2.15-2.48h-.17Z"/>
          <path id="Path_7395" data-name="Path 7395" class="cls-3" d="M189.84,408.19c1.99-.33,4.14-1.99,3.97-4.3-.33-1.49-.5-2.98-1.66-3.97,0,1.49.5,2.98.5,4.47,0,1.16-1.16,1.82-1.99,2.48,0-1.16.5-2.48,0-3.48-.83-1.99-2.98-2.98-5.13-2.65h0c-1.16.33-1.32,1.49-1.49,2.65.83-.5,1.66-1.82,2.81-1.49,1.49.17,2.65,1.16,2.98,2.65v3.81h0v-.17Z"/>
          <path id="Path_7396" data-name="Path 7396" class="cls-3" d="M210.03,403.56c.5-.66,1.32-1.16,1.32-1.99.33-.83-.99-1.49-1.32-.66h0c-.83.83-.33,1.82,0,2.65h0Z"/>
          <path id="Path_7397" data-name="Path 7397" class="cls-3" d="M226.08,402.24c-1.32-.66-3.97-1.16-4.3.83h0c.99,1.16,2.32-.5,3.48.17,2.32.99,4.14,2.98,6.62,3.64-1.66-1.99-3.64-3.48-5.79-4.63h0Z"/>
          <path id="Path_7398" data-name="Path 7398" class="cls-3" d="M212.84,402.57h0c1.99,1.16,3.97,2.32,5.96,3.14-.66-1.32-1.66-2.32-2.98-2.98-.83-.5-2.15-1.32-2.98-.33h0v.17Z"/>
          <path id="Path_7399" data-name="Path 7399" class="cls-3" d="M265.81,414.32c-1.66-3.64-4.97-6.12-8.28-8.11-1.66-1.16-3.48-2.15-5.46-2.98-.17.17-.66.5-.99.66.66,1.16,1.49,2.15,2.48,3.14.83,1.16,1.99,2.32,3.14,3.14-.83-2.32-2.48-3.97-4.14-5.79,3.48,2.15,7.12,4.14,10.1,7.12.99.83,1.82,2.15,2.98,2.65h0l.17.17Z"/>
          <path id="Path_7401" data-name="Path 7401" class="cls-3" d="M182.56,408.36c.5,1.16.83,2.32.83,3.64,1.16-.83,2.32-1.82,3.31-2.98.99-1.66,0-3.48-.83-4.97-.17.33-.66.83-.83,1.16h0c.5.99,1.66,1.82.99,2.98-.5.66-1.16,1.16-1.82,1.82v-2.15c-.66-.66-1.32-1.16-2.15-1.66-.83,0-1.66.33-2.15.99.99.33,2.32.33,2.98,1.16h-.33Z"/>
          <path id="Path_7402" data-name="Path 7402" class="cls-3" d="M218.8,410.35c4.8,3.64,7.28,9.43,11.75,13.41.66.66,2.15.83,2.15-.33,0-1.99-1.16-3.97-1.16-6.12-.33,0-.83-.33-.99-.5,0,1.49.5,3.14.66,4.63-2.98-2.98-5.13-6.62-7.94-9.76.33-1.49.5-3.14.33-4.8.99.83,1.82,1.66,2.65,2.65l1.16-1.16c-1.32-1.32-2.65-2.98-4.8-2.98h0c0,1.82,0,3.64.17,5.63-1.49-1.66-3.14-3.31-5.46-3.97-1.99-.83-4.3,0-5.63,1.66-.99,1.16-1.16,2.81-1.32,4.47-.5-.83-.5-2.48-1.82-1.99-.83,2.15,1.32,4.14,3.31,4.63.5-1.66-.83-3.64.5-5.13,1.66-1.99,4.47-2.15,6.45-.5h0v.17Z"/>
          <path id="Path_7404" data-name="Path 7404" class="cls-3" d="M231.88,409.19c-1.32-.66-2.65-1.66-4.3-1.66,1.49,2.98,5.63,2.81,7.78,5.46,1.82,1.99,3.81,3.81,6.12,5.3-1.49-2.65-3.81-4.8-5.96-6.95-.99-.83-2.32-1.66-3.48-1.99h0l-.17-.17Z"/>
          <path id="Path_7405" data-name="Path 7405" class="cls-3" d="M175.44,412c.33,1.66,1.49,3.14,1.49,4.97,0,1.66-.99,3.14-2.32,4.14.33-1.66,1.16-3.31.33-4.97-.99-1.99-3.31-3.81-5.63-2.98-.83.33-1.16,1.16-1.49,1.66,1.16-.33,2.32-.99,3.64-.66,1.49.5,2.65,1.99,2.81,3.48-.33,1.16-.66,2.48-.99,3.64.83,1.49,2.98.5,3.64-.83,1.66-2.32,1.66-5.3.17-7.61.99.33,2.15,1.99,3.31.83,2.15-1.66,0-5.63-2.48-5.46h0c1.16,1.66,3.31,3.64,1.49,5.46-1.16-.66-2.15-1.82-3.64-1.99h0l-.33.33Z"/>
          <path id="Path_7406" data-name="Path 7406" class="cls-3" d="M158.39,423.59c1.66.5,3.81.33,4.47-1.49,1.32-2.15,0-4.63-.5-6.95,1.32,0,2.81,0,3.64-.99,1.99-2.15-1.49-6.12-3.81-4.3h0c.99.83,2.48.99,3.14,2.15.5.83,0,1.49-.33,2.15h-2.98c-.5,1.82,0,3.48.33,5.3.17,1.66-1.32,3.81-3.14,3.14.17-.66.5-1.16.83-1.66,1.16-1.49,0-3.81-1.49-4.8-1.16-.83-2.65-.5-3.97,0,.99.66,2.15.33,3.31.83.83.5,1.32,1.49,1.49,2.48-.5,1.32-1.49,2.65-.99,4.14h0Z"/>
          <path id="Path_7407" data-name="Path 7407" class="cls-3" d="M206.88,418.62h-.83c0,1.16,0,3.14,1.49,3.31,1.16-.99.66-2.65.66-3.97,0-2.15-1.82-3.97-3.64-4.8-1.49,1.66.33,5.3-2.65,6.12.5-.99.99-1.99,1.32-2.98-.33-1.99-1.99-2.98-3.64-3.64-2.98-1.49-7.45.83-7.78,4.14h0c0,1.99,2.32,1.49,3.64,1.99,0,.83-.33,1.66-.33,2.48,1.82,1.66,4.3,2.32,6.45,3.14,1.32.5,1.16,2.48,2.48,2.98.83-1.32-.33-2.65-1.16-3.64-1.99-1.49-4.47-1.49-6.45-2.98,0-.83.33-1.82,0-2.65-.99-.5-2.15-.83-3.14-1.16,1.32-3.64,6.79-4.14,8.94-.99.83,1.82-1.99,2.65-1.66,4.47,1.49,0,3.14,0,4.14,1.32,1.32,1.49,1.32,3.48.83,5.3.66-.5,1.16-1.16,1.32-1.99.17-2.32-.99-4.47-2.98-5.63,1.49-1.16,1.49-2.98,1.32-4.8,1.49,1.66,2.32,3.64,2.65,5.79-.5-.5-.66-1.16-.66-1.82h-.33Z"/>
          <path id="Path_7408" data-name="Path 7408" class="cls-3" d="M238.33,416.97c-1.32-1.32-2.81-2.15-4.47-2.81-.17,1.66,0,3.31.33,4.97-.99-1.99-2.15-3.81-3.48-5.46-.5-.33-.99-1.32-1.82-.83-.83.17-.83,1.32-.99,1.99h0c.66-.33,1.16-.5,1.82-.83.33.83.66,1.66.83,2.48,2.48,1.16,2.65,4.97,5.63,5.3-.66-1.82-.99-3.81-.99-5.79,3.81,3.14,7.61,6.95,8.44,12.08.33.83,1.32,1.16,2.15.66,0,0,.17,0,.33-.17.33-.66.66-1.32.83-2.15,1.32.5,2.81.99,4.14,1.16,1.99,1.16,3.31,3.31,5.13,4.8-.33-1.16-.66-2.32-.99-3.48,1.82,1.32,2.48,3.64,3.97,5.13.33-3.97-3.31-6.45-5.79-9.1h-1.16c-2.32-2.15-4.14-4.97-6.95-6.62-.83-.5-1.99-.33-2.48.5,0,.17-.17.5-.33.66.5,2.32,1.99,4.47,2.32,6.95,0,.5,0,1.16-.33,1.66-.99-4.14-3.31-7.94-6.45-10.92h0l.33-.17ZM243.96,418.95c2.32.5,3.48,2.48,4.97,3.97,1.32,1.66,2.98,2.98,4.63,4.14-2.32-1.49-5.13-1.82-7.61-2.65-.99-1.66-1.66-3.64-1.99-5.46h0Z"/>
          <path id="Path_7410" data-name="Path 7410" class="cls-3" d="M167.33,415.15c.83,1.66,1.32,3.97-.66,5.13-.33-1.16,0-2.98-1.66-2.81,0,1.32,0,3.48,1.82,3.81,2.65-.33,3.48-5.3.5-6.12h0Z"/>
          <path id="Path_7411" data-name="Path 7411" class="cls-3" d="M153.09,420.61h0c-.66-.66-.83-1.66-1.66-2.15,0,.99-.33,2.32.5,2.98,1.16.99,2.98-.17,3.31-1.49.17-1.16-.83-1.82-1.32-2.65,0,1.16.66,2.81-.66,3.31h-.17Z"/>
          <path id="Path_7413" data-name="Path 7413" class="cls-3" d="M134.23,428.39c.33-2.15-.66-4.47-2.48-5.63-2.15-.99-4.63-1.49-7.12-1.66-1.16,0-2.15.66-2.15,1.82v.66c.83-.5,1.49-1.16,2.48-.99,2.15,0,4.3.66,6.29,1.49,1.66,1.16,2.15,3.31,1.32,5.13-.83-.83-1.16-2.48-2.48-2.48-1.82-.17-4.63-.33-5.13,1.99,1.66-.17,3.31-.99,5.13-.83.83.66.83,1.82,1.32,2.81,1.32-.17,2.48-1.16,2.81-2.32h0Z"/>
          <path id="Path_7414" data-name="Path 7414" class="cls-3" d="M177.42,434.51c1.99-.33,2.48-2.81,1.99-4.63-.66-1.49-2.48-1.82-3.97-2.15-.5-.66-.99-1.32-1.49-1.82,0,.99,0,1.82.66,2.65.83,1.16,2.65.33,3.64,1.32.66.99.33,2.32-.5,3.31-.66-.83-.66-2.81-2.15-2.65-1.66.5-2.48,2.32-1.99,3.97,0,.33.17.5.33.66.83,1.66,2.81,2.48,3.14,4.47-.83-.33-1.66-.83-2.48-1.32-1.32,2.15,4.14,3.31,3.64.66-.66-1.99-2.98-2.98-3.48-5.13-.33-.99.5-1.66.99-2.32.5.83.66,2.32,1.66,2.81h0v.17Z"/>
          <path id="Path_7416" data-name="Path 7416" class="cls-3" d="M94.67,453.87c-.33.99-.5,1.99-.66,3.14,1.66.99,3.81.83,4.97-.66.83-1.16,1.49-2.32,1.99-3.81.33-1.16-.33-2.81.83-3.48,1.16-.83,2.81-2.15,4.3-1.32.83.33,1.49,1.32,1.49,2.15,0,.99-.83,1.82-1.32,2.65,0,1.16,1.49,1.49,2.32,1.16,3.64-.99,5.79-5.63,3.81-8.94,2.48,0,2.48-3.48,4.63-3.97.99-.5,2.15,0,2.65.99h0c.66,1.49-.99,2.32-1.82,3.31.99.99,2.48,1.32,3.81.83,1.99-.99,1.49-3.64,2.48-5.46.99,0,2.65.33,2.81-.99.66-2.15-1.32-3.97-2.81-5.13h-2.32c0-1.99,1.99-3.31,3.81-3.14,1.32.5.99,2.65,2.32,2.81,1.49.33,1.99-1.49,1.99-2.65,0-1.32-.5-3.14-2.32-2.65h0c.33.5.83.99,1.32,1.49,0,.99-.33,1.82-.83,2.65-.5-1.16-.66-2.81-2.15-2.98-2.32-.33-5.46,1.32-5.3,3.97,0,1.16,1.32,1.49,2.15,1.82,1.66.5,2.81,1.82,2.98,3.48-.99,0-2.32-.5-2.98.66-1.16,1.16-.83,2.98-1.16,4.47-.33.5-.99.83-1.66,1.16.66-1.49,1.49-3.31.17-4.8-1.49-1.82-4.14-1.16-5.79,0-.66-1.49-1.49-2.98-2.65-4.14-.83-.5-1.66-.5-2.48,0,1.32.5,2.48,1.49,3.14,2.65.66,1.32,1.49,3.48-.33,4.3,0-.99-.33-2.15-.66-3.14-.99-1.82-4.14-1.82-4.97.17,1.16,0,2.65-.83,3.64,0,.83,1.32.33,2.98.83,4.47,0,1.32,1.16,2.65.33,3.97-.66,1.32-1.66,2.48-2.81,3.31.5-1.49.99-3.14,0-4.47-.83-1.16-2.15-2.48-3.81-2.32-1.82.5-3.48,1.49-4.63,2.81-1.16,1.32,0,3.31-.83,4.63-.83,1.49-1.82,3.14-3.64,3.31.5-1.99,1.66-3.97.66-5.96-.83-2.81-4.3-3.31-6.79-2.81-1.32.17-3.48.66-3.48,2.48,0,2.15-.5,4.14-1.66,5.96-.33,0-.83-.33-1.16-.5.33-.83.83-1.66,1.16-2.48-1.32-1.99-3.64-3.14-6.12-3.14-.66-.33-2.65-1.49-2.65,0,1.82,1.32,2.48,3.81,1.49,5.79-.33.66-1.16.83-1.66.5,0,0-.33-.17-.33-.33.5-1.16,1.66-2.48.5-3.64-.99-1.99-3.64-1.32-5.3-.83-2.48.99-4.63,2.81-5.96,5.3-.66,1.49-1.32,3.81.33,5.13.33-1.99.33-4.14,1.82-5.63,1.99-1.82,4.3-3.64,7.12-3.64,1.49.33.5,1.82-.33,2.32-1.99,1.32-3.97,2.98-4.3,5.3-.33,2.15-.17,5.13,1.82,6.62,0-2.32-.99-4.8-.17-7.12.66-1.49,2.15-3.48,3.97-2.65-1.66,1.32-3.14,2.98-3.31,5.13-.33,2.32.33,5.3,2.65,6.45,0,1.32.33,2.81.83,4.14.5-1.16.83-2.32.66-3.48,0-2.32.66-4.47,1.82-6.45,1.16-1.32,2.48-2.32,3.97-2.98,4.3-2.32,8.61-4.8,13.24-5.96h0l.33.17ZM88.05,449.9h0c1.66-.83,3.64-.99,5.46-.5,1.32.5,2.15,1.99,1.99,3.48-3.14,0-6.29.99-9.1,2.32.83-1.66.83-3.64,1.66-5.3h0ZM76.46,461.65c-1.66,1.99-2.15,4.47-2.48,6.95-.83-2.32-1.66-5.13-.66-7.61.66-1.66,2.48-2.15,3.81-2.98s2.65-1.32,3.97-1.82c-.66-.66-1.66-.83-2.65-.5.33-1.32.33-2.65.5-3.97h0c1.49,0,2.81.66,3.81,1.66-.5.83-.83,1.99-2.15,1.99.83.5,1.66,1.16,2.48,1.66-2.32,1.49-4.97,2.48-6.79,4.47h0l.17.17Z"/>
          <path id="Path_7417" data-name="Path 7417" class="cls-3" d="M197.78,438.81c1.16-.99,1.16-2.81,1.32-4.3,0-1.66.33-3.81-1.16-5.13-.17,1.66.83,3.81-.66,5.3.33-2.48-.5-5.63-3.31-6.12-2.15-.33-3.31,1.82-4.14,3.48,1.99.66,2.15-2.65,4.14-1.99,1.66.5,2.15,2.32,2.48,3.81-.5.66-.66,1.49-.66,2.32.5.33.99.66,1.49.83,0,.5-.5,1.99.5,1.82h0Z"/>
          <path id="Path_7418" data-name="Path 7418" class="cls-3" d="M187.36,441.3c2.32.5,3.81-1.66,3.97-3.64.33-2.15-1.32-4.14-1.99-6.12-1.49.83,0,2.15.33,3.31,1.16,1.82.66,4.3-1.16,5.46h0c-.33-2.98.5-6.29-.83-8.94-.99-1.99-3.48-2.15-5.3-1.49h0c-.33,0-.66.33-.66.83,0,.17,0,.33.17.5,1.32,0,3.14-.83,4.3.33,1.32,1.49,1.32,3.48,1.32,5.3-1.32-.5-2.81-.66-4.3-.83,0,.33.33.99.33,1.32,1.16.33,2.32.5,3.48.66,0,1.16.33,2.32.5,3.48h0l-.17-.17Z"/>
          <path id="Path_7419" data-name="Path 7419" class="cls-3" d="M259.19,430.37c.83.66,1.82,1.66,2.98,1.49,0-.83-.83-1.16-1.32-1.66-.5-.33-1.49-.99-1.66,0h0v.17Z"/>
          <path id="Path_7420" data-name="Path 7420" class="cls-3" d="M228.07,477.87c-.83-2.32-3.14-3.48-3.81-5.79-.5-1.49-2.15-2.81-1.49-4.63.83-2.98-1.49-5.46-2.65-7.94,1.66.66,3.14,1.49,4.47,2.65,1.16,1.32,1.82,3.14,3.14,4.3-.17-3.97-3.14-7.12-6.62-8.77-.99-.33-2.15.33-2.48,1.32v.99c.66,1.82,1.99,3.31,2.65,5.13.5,1.32-.33,2.65-.33,3.97.5,1.32,1.16,2.65,1.99,3.81-.99,0-1.99,0-2.98-.5-1.16-.99-1.32-2.65-1.66-3.97-.5-1.99-1.66-3.64-2.65-5.46-1.49-2.65-1.66-5.79-3.31-8.28-.5-.83-.99-1.99-2.15-2.15-1.16.17-.66,1.32-.33,1.99,1.99,4.47,3.48,9.27,6.45,13.24-1.82-1.66-3.31-3.48-4.63-5.46-.66-1.32-1.82-2.48-3.14-3.31-.83-.33-1.32.66-1.82.99,1.49,2.48,2.98,5.13,3.97,7.78-1.49-1.66-2.81-3.31-4.14-4.97-1.99-2.48-1.82-5.79-2.98-8.61-.83-1.49.5-3.31,0-4.8-.17-2.48-2.15-4.47-2.48-6.95,2.81-.83,2.32,3.97,5.13,3.64,2.32,0,1.66-3.14,1.82-4.63,1.49,1.32,2.81,2.98,3.81,4.8.83-3.31-2.15-5.79-4.97-6.79,1.49-1.49,1.49-3.81.83-5.63-.33-1.16-1.66-1.49-2.48-1.99-.5-.83-.83-1.99-1.66-2.48h0c.17.83.5,1.66.83,2.48-1.16.66-3.64.99-2.98,2.81,1.16-.66,2.32-1.66,3.81-1.16,1.82.33,1.66,2.65,1.66,3.97-.66-.83-1.66-1.32-2.65-1.49.66,1.99,1.99,3.48,2.65,5.3.33,1.32.5,2.98-.83,3.81-.83-1.16-1.32-2.32-2.15-3.48-.99-1.32-3.81-1.32-4.14.66,0,2.48,1.99,4.3,2.32,6.62.17,1.99,0,4.3-1.82,5.46.83-3.31-1.49-6.45-3.81-8.77-1.16-.83-3.48-1.82-4.47-.33.83.99,2.32.99,3.31,1.66-.66,0-1.32-.17-1.82-.33.5,1.32,1.82,2.65.83,4.14-.83,1.49-.5,3.48-.99,5.13-.5,1.16-2.15,1.16-2.98.5.66-1.49,2.32-2.81,1.82-4.63-.5-2.48-1.49-5.63-4.14-6.29-3.64-1.16-7.94,2.48-7.12,6.29.5,2.32,1.82,4.3,3.64,5.63,2.32,1.66,4.8,3.14,7.28,4.47-1.49,1.49-3.48,4.3-1.49,6.29.99-1.16.83-2.81,1.82-3.97,1.49-1.49,3.64-1.66,5.63-1.82,1.32,0,1.99.99,3.14,1.49,1.16,0,2.32-.17,3.48,0,1.66,1.16,2.32,3.31,1.82,5.3-.5.83-.99,1.66-1.49,2.32.83,1.32,2.32,2.32,1.66,3.97,0,1.16-1.32,1.82-2.32,1.99.33-1.49,1.49-3.14.66-4.63-1.16-2.15-2.98-3.81-5.13-5.13-1.66-.5-3.97-.83-5.3.33-1.66,2.15,0,4.8.83,6.95-.83.66-1.99.99-2.48,2.15-.33.5-.33,1.49-1.16,1.32-.83,0-1.32-.83-1.82-1.32,2.15-3.14.33-7.78-2.98-9.27-.83-.33-2.15-.66-2.48.33,0,2.65-.5,5.3,0,8.11.5,2.48-.99,4.8-3.48,5.3h-.83c1.49-1.49,3.64-3.31,2.65-5.63-.17-.99-1.99-.66-1.49.33.5,1.99-1.66,3.31-3.31,3.31.5-.99.99-1.82,1.32-2.81,0-2.32-.83-4.63-2.65-6.12-1.66-1.66-3.64-3.48-6.12-3.81-1.82-.17-3.97.5-4.63,2.48.66,1.82,2.98,2.48,3.31,4.47,0,1.82-1.66,3.14-2.81,4.47-.5-2.98-1.16-6.29-3.48-8.44-1.99-1.99-5.3-1.99-7.28,0-.33.33-.66.66-.83,1.16-.66,1.66-.66,3.31,0,4.97.33,1.16,1.49,1.99,1.66,3.31-.66.66-1.32,1.16-1.99,1.82-.33.99-.33,1.99-.66,2.98-.99.5-1.82.66-2.81.83,1.32-1.49,1.66-3.48.99-5.13-.66-2.48-3.81-3.31-5.96-1.99-1.16.66-2.65,1.49-3.97.5-1.66-1.49-.66-4.47,1.16-5.3,1.66-.83,2.32-2.65,1.66-4.3-.83-1.99-2.98-2.65-4.8-3.31,0-3.48-2.81-6.29-6.12-6.79-1.32-.5-2.65.5-3.97.5-2.32,0-4.63.99-6.62,2.32-1.82,1.66-1.49,4.47-2.15,6.45-.99,1.49-3.31,1.66-4.97,1.16.5-1.66,1.66-3.31,1.16-5.13-.33-1.82-1.99-2.65-3.31-3.81.99-.99,1.82-1.99,2.65-2.98.99-1.49,1.32-3.48,2.65-4.8,2.32-1.49,5.13-1.99,7.61-1.16,1.82.66,3.64.83,5.46.5.99,0,1.66-.83,1.66-1.82-1.32.5-2.81.66-4.3.5-1.66-.17-3.31-1.16-4.97-1.16-1.99,0-3.97.5-5.79,1.49-.33-1.49-.83-3.64-2.65-3.64.33,1.16,1.66,2.48.83,3.64-2.81,4.97-8.28,7.45-12.91,10.1-2.48,1.32-5.46.99-8.11,1.66-2.98.83-6.12,1.82-8.11,4.3-1.99,2.65-3.64,6.29-1.99,9.6.99,2.32,2.48,5.46,5.46,5.63-1.66-2.15-3.81-4.3-4.3-7.12-.83-2.98.99-5.79,2.98-7.94,2.81-2.65,6.95-2.98,10.59-3.64-2.48,1.99-4.3,4.63-5.46,7.61-.99,2.65,0,5.46,1.32,7.78.83,1.49,1.49,3.31,3.31,3.81-.99-2.98-2.98-5.46-3.48-8.61-.33-2.81,1.32-5.3,3.14-7.45,3.31-3.81,7.94-5.63,12.08-8.11,1.66-.99,2.98-2.32,4.47-3.31-.83,1.82-2.98,2.65-3.64,4.63,0,2.48,3.64,2.98,3.31,5.46-.5,1.32-1.49,2.32-1.32,3.81-1.82,1.82-4.14,3.97-3.81,6.79.5,2.81,2.32,5.3,4.3,7.28,1.32,1.16,2.81,2.65,4.8,2.15-2.98-2.48-6.29-5.13-7.45-8.94-.66-2.48,1.49-4.47,3.14-6.12.66.17,1.49.33,2.15.5-.83,3.48-1.32,7.45.66,10.59,1.32,2.32,3.48,4.47,6.45,4.47-1.32-1.66-3.48-2.48-4.63-4.3-2.32-2.98-2.15-7.12-.99-10.43,1.16-.66,2.81-.99,3.48-2.15,1.16-1.66.66-3.97,1.82-5.79,1.16-1.32,2.98-1.32,4.63-1.49,1.66-.33,3.31-.66,4.97-1.16,1.66,0,2.98,1.49,4.14,2.65-3.14.83-6.12,2.15-8.94,3.81-2.15,1.32-3.81,3.64-4.14,6.29-.66,2.81.17,5.63,1.32,8.28,1.16,2.48,3.48,4.8,6.45,4.47-.99-.99-2.48-1.66-3.48-2.65-1.32-1.66-2.32-3.64-2.65-5.63-.99-3.48.5-7.12,3.48-8.94,2.48-1.66,5.3-2.81,8.11-3.81,0,.83.66,2.48-.66,2.81-1.66.83-3.64,1.66-4.47,3.48-1.66,3.81-1.49,8.77,1.49,11.75,1.82,1.99,4.47,3.64,7.45,3.31-.83-1.16-2.15-1.66-3.31-2.32-2.32-1.16-3.97-3.31-4.47-5.79-.5-2.15-.33-4.8,1.16-6.62,1.32-1.49,3.31-2.15,5.13-3.14,1.32-.83,3.31.66,3.14,2.15-.99.99-2.32,1.49-3.14,2.81-1.32,2.15-.83,4.97.99,6.62,1.16.66,2.48.83,3.81.66,1.32,0,2.15-1.32,3.48-1.49,1.16.33,1.99,1.49,1.82,2.65.17,1.32-1.49,1.66-2.15,2.32,0,1.16.83,2.15,1.82,2.48,1.66.33,3.31,0,4.63-1.16.99-.83.99-2.15,1.16-3.31.83-.83,2.15-1.66,2.15-2.98,0-1.49-1.49-2.65-1.82-4.14-.33-1.32,0-2.65.66-3.64,1.16-1.32,3.14-1.49,4.63-.33h0c1.99,1.99,2.48,4.8,3.31,7.45.66,1.49,2.81,1.32,3.81,0,1.16-1.49,2.65-3.31,2.32-5.46-.33-1.82-1.82-2.98-2.98-3.97,1.32-.5,2.81-.99,4.14-.33,2.32,1.32,4.3,3.48,5.46,5.96.83,1.99-.83,3.81-2.48,4.47,0,1.32.99,2.32,2.15,2.48,1.49.17,2.65,1.66,4.14,1.32,1.82-.17,3.31-1.32,4.14-2.81,1.66-3.31,0-7.12.83-10.59,1.82.66,2.98,2.32,3.14,4.14-.17,1.32-2.32,1.16-2.48,2.48.66,1.16,2.15,1.66,2.98,2.98.83,1.16,2.32,1.49,3.64.66.5-.33.83-.66.99-1.16.33-1.32,1.66-1.99,2.65-2.98.5-2.15-1.49-3.97-1.16-6.29,2.81-.83,5.79.99,7.28,3.48.99,1.66-.99,3.48,0,5.13.17.83.99,1.32,1.82,1.16h0c1.99-.33,3.81-1.99,3.81-3.97,0-1.32-.33-2.81-1.32-3.81.66-1.16.99-2.32,1.16-3.48,2.15,3.48,5.13,6.79,9.1,8.11,1.49.33,3.31.83,4.47-.33-2.15-.5-4.47-.83-6.12-2.32,1.99.5,4.14.66,6.12.83,2.48,0,3.97,2.15,6.29,2.81h0l-.83,1.16ZM188.84,455.2c0,.83.17,1.82.33,2.65-1.99-1.32-4.3-2.65-5.46-5.13h0c-1.32-2.65,2.32-5.46,4.63-4.14,1.32,1.16,1.99,2.81,2.15,4.63-.5.66-1.16,1.32-1.82,1.99h.17ZM200.76,461.32c-.83-1.49-1.32-3.14-2.65-4.3v2.81c-1.66,0-3.14.33-4.8.66-1.16-.33-2.15-.83-3.14-1.49,1.49,0,3.14.33,4.14-.83,1.49-1.82.83-4.47,1.82-6.62.5-1.16,0-2.48,0-3.64h0c1.16,1.32,2.48,2.81,2.65,4.63-.33.99-1.32,2.48,0,3.31.99,1.16,2.48,0,3.48-.66.17,1.99.83,4.14,1.49,5.96h-3.14l.17.17ZM211.85,468.11c-.66-1.99-1.49-3.97-2.48-5.96h0c.99,1.16,1.99,2.32,2.81,3.64,1.82,2.48,4.8,3.97,6.12,6.95-2.65-.5-5.13-2.15-6.45-4.47h0v-.17Z"/>
          <path id="Path_7421" data-name="Path 7421" class="cls-3" d="M293.61,450.9c1.82.99,3.64,2.48,5.79,2.65-2.65-2.65-6.12-3.97-9.1-6.12-2.65-1.99-6.12-3.14-8.77-5.46-1.66-1.66-4.3-1.49-6.29-2.81-4.14-2.48-7.12-6.45-11.25-8.94-.83-.5-1.82-.66-2.81-.5.66.66,1.49,1.32,2.15,1.99,4.47,2.15,7.28,6.79,11.92,8.94,1.82.99,3.97.99,5.63,2.32,1.32,1.16,2.65,2.15,4.3,2.81,2.98,1.32,5.63,3.48,8.61,4.97h0l-.17.17Z"/>
          <path id="Path_7422" data-name="Path 7422" class="cls-3" d="M141.51,433.19c.33,1.32,1.66,3.97,3.31,2.65,1.16-1.66.66-3.81-.83-4.97,0,0-.33-.17-.5-.33-1.99-1.16-4.63-.33-5.79,1.66v.33c1.16-.33,2.15-.99,3.14-1.32,1.66,0,3.81,1.16,3.14,3.14-.66-.83-1.49-1.32-2.48-1.32h0v.17Z"/>
          <path id="Path_7424" data-name="Path 7424" class="cls-3" d="M94.51,442.95c3.14,0,3.48-3.64,5.13-5.46.99-2.81-3.31-5.46-4.97-2.65h0c.99,0,2.32-.33,3.31.5.66.5.33,1.49.5,2.32-.99-.66-1.99-1.82-3.31-1.82.5,1.16,2.15,2.15,1.66,3.64,0,.99-.99,1.49-1.66,2.15,0-2.48-1.82-4.47-4.3-4.63-2.15.5-4.14,1.82-5.3,3.81,0,.33.5,1.16.66,1.66-.33.33-.83.5-1.16.83-.33-.83-.5-1.99-1.32-2.65-.83-.83-2.15-.33-3.14-.33.66,1.16.83,2.65.33,3.97-.5-1.32-1.16-2.98-2.48-3.64-2.32-1.16-4.97-.17-6.12,1.99,0,0,0,.33-.17.5-.5,1.16.83,1.82,1.66,1.66,0-.33-.33-1.32-.5-1.66,1.32-.99,3.31-2.65,4.8-1.16,1.82.99,1.32,3.31.99,4.97,2.81,0,3.64-3.64,2.98-5.96,1.49.83,1.66,2.48,1.82,3.97.99,0,1.99-.33,2.81-.99.99-.83.5-2.15.66-3.14.99-1.32,2.48-2.15,4.14-2.15,1.16.33,2.65,1.16,2.32,2.65,0,.66-.5,2.32.66,1.99h0v-.33Z"/>
          <path id="Path_7425" data-name="Path 7425" class="cls-3" d="M252.57,445.6c-1.16,1.82.66,3.97,2.32,4.97.66.5,1.82.5,2.32-.33,0,0,.17-.33.33-.5-.17-1.32-.5-2.48-.99-3.81-2.65-4.63-6.79-9.1-12.08-10.26-.33-.66-.83-1.16-1.32-1.66-1.32,0-.83,1.66-.33,2.32h0c1.49,1.99,3.48,3.97,2.98,6.62-.99-.83-1.82-1.82-2.81-2.81.33,1.66,1.16,3.14,2.65,3.97.66.5,1.49-.33,1.49-.99.33-2.32-.83-4.3-1.99-6.29,4.14,1.99,7.78,5.13,10.26,8.94.66,1.32.99,2.81.99,4.3-1.32-.5-2.32-1.49-2.81-2.81l1.49-.33c0-1.32-1.32-1.82-2.32-1.66h0l-.17.33Z"/>
          <path id="Path_7426" data-name="Path 7426" class="cls-3" d="M162.53,439.97c.66,1.16,1.49,1.99,2.65,2.48,1.66-.5,1.99-2.48,1.66-3.97-.33-1.82-.99-4.14-3.14-4.3-2.15.33-3.81,1.66-4.47,3.81,1.49-.83,2.65-2.32,4.47-2.65,1.99.83,2.15,3.81,1.66,5.79-.83-.5-1.82-.99-2.98-1.16h.17Z"/>
          <path id="Path_7427" data-name="Path 7427" class="cls-3" d="M439.75,434.68c-1.99.33-3.97.66-5.96,1.16h0c-3.14.83-6.45.5-9.6.5-6.12,0-12.25-.99-18.37-.66,1.66.99,3.81.99,5.79,1.32,3.97.5,7.94.83,11.75.99,5.96.66,11.92,0,17.54-2.15-.33-.5-.66-.83-1.16-1.32h0v.17Z"/>
          <path id="Path_7428" data-name="Path 7428" class="cls-3" d="M135.72,436.5h0c.99.66,2.65,1.16,2.65,2.48,0,1.16-2.15,1.82-.83,2.81,2.32.5,4.63-.83,5.13-3.14v-.66c0-1.16-.99-1.99-1.99-2.48.33.99.66,1.99.83,2.98-.17,1.16-1.49,1.66-2.48,2.15,0-.99.83-1.99,0-2.98-.83-1.16-2.32-2.65-3.64-1.16h.33Z"/>
          <path id="Path_7429" data-name="Path 7429" class="cls-3" d="M177.26,443.61c1.66-.5,2.98.99,4.3,1.66,2.32-.83,3.48-3.31,2.65-5.46,0-.33-.33-.66-.5-.99-.66-1.16-1.99-.5-2.98,0h0c.33.83,1.49.83,2.15,1.49.83,1.49-.33,2.81-1.32,3.97-1.66-3.14-6.79-2.48-7.94.66-.17,1.49.33,2.98,0,4.3-.5.99-1.16,1.99-1.99,2.81,0-1.49.33-3.31-.99-4.47-1.16-.99-2.81-.66-4.3-.33-.33-1.32-.83-2.48-1.49-3.48-.83-.66-1.99-1.16-3.14-1.49.99,1.49,2.81,2.15,3.31,3.97.5,2.15-.99,3.97-2.15,5.79-.66.83-1.99-.33-1.66-1.16-.33-1.82,2.81-1.66,2.65-3.48-.33-1.82-1.82-2.98-3.64-2.98-.99,0-1.16,1.32-1.49,1.99.33-.33,1.16-.83,1.66-1.16.83.5,2.15.83,2.15,1.99-1.16.99-2.65,1.82-2.65,3.64,0,1.32.83,2.48,2.15,2.65h.99c1.32-1.49,2.48-3.31,3.31-5.3,1.32-.17,3.14-.33,3.81,1.16,0,1.16-.33,2.48,0,3.64,1.32.66,2.65-.5,3.48-1.32,1.16-1.49,1.66-3.48,1.32-5.3-.33-1.32,1.16-2.15,2.32-2.48h0v-.33Z"/>
          <path id="Path_7430" data-name="Path 7430" class="cls-3" d="M279.54,451.56c.5.66,1.16,1.32,1.82,1.82-.66-2.15-1.99-3.81-3.64-5.13-1.16-.83-2.65-1.16-3.81-1.99-1.49-1.32-3.48-2.15-5.46-2.32-1.49-.17-3.31.66-4.47-.83-1.49-1.32-3.64-3.97-5.46-1.99,2.98,0,4.63,2.81,6.79,4.63,2.65-.83,5.46.17,7.78,1.66-.33.5-.83.99-1.16,1.49-1.16-.66-2.15-1.49-3.14-2.48-.66.5-1.32,1.16-1.99,1.66,0,1.49.66,2.81.66,4.3-.33.66-1.16.99-1.66.66h-.17c.33-.99,1.16-1.82.83-2.98-.5-2.15-2.65-2.98-3.81-4.47-1.32-1.49-3.14-2.48-5.13-3.14-1.82-.66-2.98-2.32-4.47-3.48h0c.5,1.82,1.49,3.31,2.98,4.3,1.49.99,3.31.99,4.63,2.15.66.66.99,1.49,1.32,2.48,2.48-.5,4.8,2.98,2.65,4.63.33,1.16,1.49,2.48,2.81,1.82,1.99-1.49.83-3.97.99-5.96,1.99,0,2.65,2.81,4.47,3.14.66-.5.5-1.49.83-2.15,1.66,1.16,2.98,3.14,5.13,3.64-.83-1.32-1.82-2.65-3.14-3.64v-.66c1.49.99,2.81,2.15,3.97,3.31h0l-.17-.5Z"/>
          <path id="Path_7431" data-name="Path 7431" class="cls-3" d="M426.35,440.8c-5.79.17-11.42,0-17.21-.83-2.32-.33-4.63-.99-7.12-.83.33.5.83.99,1.49,1.16,5.96,2.15,12.25,2.15,18.54,2.48,4.97.33,9.93-.66,14.23-2.65v-1.49c-3.31.83-6.45,2.15-9.93,2.32h0v-.17Z"/>
          <path id="Path_7432" data-name="Path 7432" class="cls-3" d="M135.05,439.14c-1.32-.66-2.32.33-2.65,1.49h0c.83,0,1.82-.33,2.65-.5v-.99Z"/>
          <path id="Path_7433" data-name="Path 7433" class="cls-3" d="M129.59,446.59c0-1.99-1.66-4.47-3.97-3.81h0c.66.5,1.32.99,1.99,1.49.99.99.5,2.65.5,3.81.66-.5,1.16-.99,1.49-1.66h0v.17Z"/>
          <path id="Path_7434" data-name="Path 7434" class="cls-3" d="M131.58,448.25c.83-1.66.99-4.63-1.32-5.13h0c.33,1.16.99,2.48.66,3.81-.33.99-1.16,1.66-2.15,1.49-.83-.33-1.66-.99-2.48-1.49-.66,2.98,4.3,3.81,5.3,1.32h0Z"/>
          <path id="Path_7435" data-name="Path 7435" class="cls-3" d="M134.56,445.6c3.14-.83,6.29-1.16,9.6-.66.83,1.32.99,2.98,0,4.3-.33-.83-.83-1.66-1.16-2.48-.83.83-.83,2.15,0,2.98.33.33.83.5,1.32.5,1.49-.5,1.49-2.32,1.49-3.64s-.5-3.31-2.15-3.31c-2.81-.33-5.46,0-8.28.5h0c-.83,0-.83.99-1.16,1.66h0l.33.17Z"/>
          <path id="Path_7437" data-name="Path 7437" class="cls-3" d="M422.05,448.58c-2.98.83-5.96,1.16-9.1.99-5.13-.33-10.1-.5-15.06-1.66-4.14-.83-8.28-1.99-12.41-2.81.66,1.16,2.32,1.49,3.48,1.99,4.97,1.66,10.1,2.81,15.23,3.48,6.45.33,13.24,1.66,19.36-1.16.66-.99-.83-1.49-1.66-.99l.17.17Z"/>
          <path id="Path_7438" data-name="Path 7438" class="cls-3" d="M257.7,446.1c-.33,1.32,1.16,2.98,2.32,1.82,1.16-1.32-1.49-1.66-2.32-1.82Z"/>
          <path id="Path_7439" data-name="Path 7439" class="cls-3" d="M150.78,463.47c3.31.5,5.63-2.81,5.79-5.79.66-3.81-2.48-7.12-5.96-7.61-1.16-.17-1.99.83-2.32,1.66h0c.83-.33,1.49-.5,2.32-.66,2.81.83,4.8,3.31,4.97,6.29-.83-1.16-.99-2.65-2.48-3.31-1.49-.83-3.97-.33-4.3,1.66,0,1.16,1.16,2.48,0,3.31-.83.99-2.15.66-3.14.33.66-1.16,1.99-2.15,1.32-3.64-.83-1.49-2.65-2.15-4.3-2.98-2.81-1.49-6.12-1.16-8.77.66-1.49,1.49-1.82,3.81-2.32,5.79,1.49-.17,2.48-1.49,2.48-2.98s1.66-2.32,2.98-2.65c3.31-.66,6.45.99,8.94,2.98-.66.99-2.32,1.99-1.66,3.48,1.49,1.66,4.63,1.66,5.79-.33.83-1.16,0-2.65,0-3.97.99-.5,2.32-.99,3.31,0,1.49,1.32.99,3.48.66,5.13-.5,1.16-1.99,1.82-3.14,1.32-.33,0-.66-.33-.99-.66,0,.83-.33,2.32.83,2.32h0v-.33Z"/>
          <path id="Path_7440" data-name="Path 7440" class="cls-3" d="M82.26,472.41c.33-2.81,1.82-5.3,4.14-6.95,3.48-2.65,7.78-3.81,12.08-4.8,4.14-.83,7.78-2.65,11.59-4.47,2.15-.83,3.64-2.65,4.3-4.8-1.66.99-2.81,2.65-4.47,3.31h0c-3.81,1.66-7.61,3.48-11.75,4.3-4.97.99-10.1,2.48-13.74,6.12-2.65,2.32-3.81,5.96-3.14,9.43.5,1.32.66,2.98,1.99,3.81,0-1.99-.99-3.97-.83-5.96h-.17Z"/>
          <path id="Path_7441" data-name="Path 7441" class="cls-3" d="M130.42,457.18c-.33-1.99-2.15-3.48-4.14-3.48.33,1.49,1.99,1.82,2.65,2.98,0,.83-.33,1.66-.33,2.48.83-.33,2.15-.83,1.82-1.99h0Z"/>
          <path id="Path_7443" data-name="Path 7443" class="cls-3" d="M104.27,470.92c1.82-1.66,4.47-2.32,6.62-3.48.99-.5,2.32-.83,2.65-1.99-1.66-.66-3.14.66-4.63,1.16h0c-2.48,1.16-5.79,1.82-6.79,4.8-1.16,3.31-1.66,7.45.5,10.26,1.16,1.49,2.65,2.98,4.47,3.14-1.49-2.32-4.14-3.97-4.3-6.95,0-2.32,0-4.97,1.49-6.95h0Z"/>
          <path id="Path_7444" data-name="Path 7444" class="cls-3" d="M236.01,471.75c-2.48-.99-3.64-3.48-5.13-5.46-.5-.66-2.32-.83-1.99.33h0c1.32,2.48,4.47,4.47,3.48,7.78-.5-.83-.99-1.49-1.49-2.32.33,1.49.5,2.81.66,4.3,1.32-.83,2.15-2.32,2.32-3.81,1.82.99,3.64,1.82,5.63,2.32,1.49.66,3.14,1.32,4.47,2.32-.99-3.64-5.3-3.81-8.11-5.3h0l.17-.17Z"/>
        </g>
      </g>
    </g>
  </g>
</svg>