<?xml version="1.0" encoding="UTF-8"?>
<svg id="Layer_1" data-name="Layer 1" xmlns="http://www.w3.org/2000/svg" viewBox="0 0 211.43 48">
  <defs>
    <style>
      .cls-1 {
        fill: #48b590;
      }
    </style>
  </defs>
  <g id="havbryg_logo_negativt" data-name="havbryg logo negativt">
    <path id="Path_1" data-name="Path 1" class="cls-1" d="M47.97,24.38c.03-.44.03-.88,0-1.33,0-.31-.04-.62-.06-.93v-.56c.02-.44,0-.88-.04-1.31-.36-2.11-.93-4.18-1.71-6.18-.5-1.19-1.13-2.32-1.87-3.38-.37-.61-.77-1.19-1.2-1.76-.98-1.17-2.08-2.25-3.27-3.2-.37-.31-.69-.67-.98-1.06-.35-.49-.85-.86-1.43-1.04-.68-.23-1.35-.49-2-.78-1.11-.67-2.29-1.22-3.51-1.66-1.59-.45-3.21-.8-4.84-1.02-.51-.05-1.02-.07-1.54-.1-1.79-.14-3.59-.08-5.37.17-2.92.45-5.73,1.42-8.31,2.86-1.32.73-2.56,1.58-3.72,2.54-.97.91-1.86,1.9-2.68,2.95-.03.04-.06.07-.1.1-1.7,1.87-3.01,4.06-3.85,6.44-.17.45-.41.88-.55,1.34-.22.72-.35,1.47-.56,2.19C.1,19.68-.03,20.74.01,21.8c0,.6,0,1.2,0,1.79-.03.44-.03.88,0,1.33,0,.31.04.62.06.93,0,.19,0,.38,0,.56-.02.44,0,.88.04,1.31.36,2.11.93,4.18,1.71,6.18.5,1.19,1.12,2.33,1.86,3.39.37.61.77,1.19,1.2,1.76.98,1.17,2.08,2.25,3.27,3.2.37.31.69.67.97,1.06.35.49.85.86,1.43,1.04.68.23,1.35.49,2,.78,1.11.67,2.29,1.22,3.51,1.66,1.59.45,3.21.8,4.84,1.03.51.04,1.02.07,1.54.1,1.79.14,3.59.08,5.37-.17,2.92-.45,5.73-1.42,8.31-2.86,1.32-.73,2.56-1.58,3.72-2.54.97-.91,1.86-1.9,2.68-2.95.03-.03.06-.07.09-.1,1.7-1.87,3.01-4.06,3.85-6.44.17-.45.41-.88.56-1.34.22-.72.35-1.47.56-2.19.27-1.02.4-2.08.37-3.14v-1.79h0s0-.02,0-.02ZM.7,28.7c-.03-.32-.05-.63-.09-.94,0-.15-.03-.29-.05-.44.06-.17.05-.37-.02-.53,0-.02-.02-.05-.03-.07-.11-1.83-.02-3.66.27-5.46,0-.08.03-.17.05-.26,0,.14-.03.27-.04.4-.04.92-.15,1.83-.14,2.75,0,.87.07,1.73.14,2.59h0s0,.02,0,.04c0,.16.02.31.04.47.04.44.14.88.21,1.3-.1.13-.18.23-.25.33-.03-.06-.05-.11-.08-.17h-.02ZM1.05,29.5c-.08-.2-.17-.41-.25-.61.19,0,.35.05.38.28.05.33.09.66.15,1.09-.36-.26-.21-.54-.29-.76h0ZM39.85,6.9c.27.3.51.62.73.96-1-.72-1.92-1.55-2.75-2.47l.27.18c.6.42,1.16.87,1.74,1.33h0ZM37.54,4.33c.17.14.34.27.51.41-.05.01-.11.02-.16,0-.05-.03-.09-.06-.14-.1-.1-.07-.21-.14-.31-.2.03-.04.06-.08.09-.12h.01ZM33.5,2.24c-.17-.02-.34-.02-.51,0-.56-.24-1.1-.52-1.61-.85.74.19,1.45.48,2.12.84h0ZM27.97.99v.2l-1.74-.11c.55-.23,1.17-.26,1.74-.09h0ZM23.31.22l1.5.09v.05h-1.51s.01-.09.02-.14h-.01ZM15.62,1.75s.02.08.04.12c-.27.08-.53.16-.8.23l-.02-.13.79-.23h-.01,0ZM12.66,3.19c-.25.14-.5.28-.76.42-.08.03-.14.06-.22.09.11-.31.19-.35.98-.5h0ZM11.69,4.66s.04.07.06.11c-.24.14-.47.26-.71.4-.01-.04-.03-.08-.05-.13.24-.13.46-.25.7-.38h0ZM8.29,5.81s.02.02.04.03c-.23.2-.46.4-.68.6h-.03c.25-.23.46-.42.67-.62h0ZM8.02,6.43l-.07.11s-.03-.01-.05-.01c.04-.04.08-.07.13-.1,0,0-.01,0,0,0ZM6.32,8c.27-.29.54-.56.83-.83.02.01.05.04.07.05-.4.47-.79.96-1.19,1.43h-.01c.05-.23.15-.45.3-.65h0ZM5.63,12.22c.8-1.36,1.83-2.56,3.05-3.55,1.6-1.25,3.53-2.02,5.55-2.21.9-.14,1.8-.16,2.71-.21.35-.07.7.03.97.26-.46.11-.94.16-1.42.14-.51-.03-1.01,0-1.51.06-1.53.07-3.04.45-4.42,1.12-.59.32-1.15.7-1.66,1.14-1.19.88-2.21,1.98-3,3.23-.12.15-.25.29-.38.43.02-.14.06-.28.1-.42h.01ZM11.36,6.86c.56-.41,1.25-.62,1.94-.59,0,0-1.94.59-1.94.59ZM22.54,8.56c.54-.14,1.12-.11,1.64.11.96.4,1.88.88,2.76,1.45.31.21.64.39.98.53.74.38,1.35.98,1.74,1.71-1-.63-1.96-1.32-3.01-1.86-.99-.63-2.06-1.12-3.18-1.46-.18.18-.15.32.05.39.4.13.79.3,1.16.5-.1.01-.2.02-.41.04.6.42,1.13.79,1.71,1.2-.27.23-.46.03-.66-.01-.24-.06-.48-.13-.72-.2l-.69-.19c-.04.05-.08.12-.15.2-.15-.11-.3-.23-.47-.36-.22.28-.08.42.12.53.38.21.76.44,1.15.64,1.17.61,2.35,1.22,3.53,1.81.4.18.81.34,1.23.48.4.1.76.34,1.01.66-.73.08-1.2-.35-1.75-.55-.57-.2-1.13-.4-1.7-.61s-1.1-.44-1.68-.61c.78.57,1.62,1.03,2.52,1.37.51.17.98.42,1.42.73.49.39,1.04.71,1.56,1.06.13.09.24.22.31.36-1.85-.99-3.76-1.85-5.73-2.58-.03.04-.05.08-.08.12.08.08.17.15.26.21,1.29.66,2.59,1.27,3.85,1.96.53.33,1.03.71,1.47,1.15.56.52,1.07,1.09,1.58,1.66.58.66.96,1.46,1.1,2.32.02.11,0,.25.08.32.43.47.26.99.12,1.49-.11.32-.24.64-.39.95-.24.14-.46.28-.68.42-.11-.02-.21-.04-.31-.06.21-.48.39-.97.54-1.48.22-1.07.02-2.19-.54-3.13-.5-.99-1.22-1.86-2.1-2.54-.6-.45-1.27-.83-1.91-1.23-1.02-.65-2.12-1.16-3.27-1.51-.49-.08-.94-.33-1.25-.72.38-.36.75,0,1.16-.05-.07-.11-.1-.24-.18-.27-.2-.06-.4-.11-.61-.14-.46-.13-.93-.27-1.39-.39-.94-.24-1.89-.49-2.84-.69-.22,0-.43.04-.63.12h0c-.32-.07-.64-.1-.97-.11-.25.04-.5.1-.73.2-.51-.15-1.05-.15-1.55.02-.11.03-.22.07-.33.12-.87.36-1.86.33-2.71-.07.15-.03.3-.04.46-.04.56.05,1.12-.01,1.65-.18.22-.04.38-.22.39-.44-.18-.04-.34-.09-.62-.17.18-.14.27-.21.43-.33-.06-.04-.12-.07-.18-.1-.35-.16-.78-.02-.96.32-.5.69-.75.69-1.39,0,.07-.35.35-.61.71-.64.11-.01.22-.09.33-.11.55-.05,1.01-.41,1.2-.92.04-.08.09-.16.14-.24.74.04,1.51-.19,2.14.42.53-.18,1.1-.18,1.63,0,.2.09.49-.01.71-.03.18-.41.14-.71-.14-.92-.01.1-.03.17-.05.28-.17,0-.34.02-.62.04.08-.12.12-.17.16-.23-.4-.73-1.12-.69-1.81-.61-.55.03-1.1-.05-1.63-.22-.1-.02-.18-.13-.27-.19.05-.26.14-.41.4-.42.11,0,.23-.05.34-.04,1.13.06,2.28.1,3.41.2,1.12.16,2.21.49,3.24.96.11.04.22.07.33.09.01,0,.04-.02.11-.06-.17-.14-.33-.27-.5-.42h-.04,0ZM27.98,8.66c.31.1.58.29.78.55-.34-.04-.63-.25-.78-.56h0ZM28.77,9.21c.33.04.38.3.44.56-.14-.19-.29-.38-.44-.57h0ZM32.38,21.85c.06,0,.12-.01.18-.02.04.36.08.72.12,1.08-.06,0-.12.01-.18.02-.03-.37-.08-.72-.12-1.08h0ZM28.82,25.34c.64-.11,1.28-.23,1.91-.35.44,0,.87-.16,1.22-.43.07-.07.2-.07.3-.1-.02.08-.03.19-.08.23-1.09.77-2.46,1.02-3.75.67.14,0,.28,0,.41-.03h0ZM28.62,24.84c.4-.25.89-.32,1.35-.2.39.03.78.01,1.16-.06-.79.32-1.66.41-2.5.26h-.01ZM31.92,23.72c.06.47-.26.6-.54.9-.11-.59.31-.62.54-.9h0ZM29.44,20.45c-.07-.13-.11-.27-.11-.42.24-.11.42-.2.61-.29.11.58.06.64-.5.7h0ZM20.23,12.67c-.38-.03-.73.05-.98-.26.35-.07.71.02.98.25h0ZM12.06,15.54c.36-.31.84-.43,1.3-.32.01,0,.03.04.05.08l-1.1.41c-.06-.04-.15-.11-.25-.17h0ZM12.12,15.78c-.07.26-.28.31-.64.17.29-.08.45-.12.64-.18h0ZM12.66,14.79c.17-.18.27-.29.41-.45.19.06.43.13.77.23-.43.28-.79.14-1.18.21h0ZM14.27,15.44s.01.06.02.1c-.25.06-.5.13-.75.19l-.03-.12c.25-.05.5-.11.75-.17,0,0,.01,0,0,0ZM13.51,14.07c-.44,0-.88-.07-1.32-.06-.42.03-.83-.14-1.1-.47-.12-.15-.3-.25-.43-.45.35.07.7.14,1.08.21.35-.29.57-.26.88.12.03-.05.06-.11.14-.25.08.15.12.26.19.39.34.1.71.08,1.04-.04.17-.05.35-.08.53-.08.7-.1,1.37.31,1.61.97.68.16,1.27.29,1.87.44v.14c-.37.1-.74.16-1.12.2-.52-.03-.99-.31-1.27-.75-.27-.39-.76-.57-1.21-.43-.3.06-.6.08-.9.08h0v-.02h.01ZM11.54,9.93c.29-.13.62-.15.93-.07.36.05.73.06,1.09.02-.19.45-.44.67-1.22.8-.66.11-1.36.47-2.19-.1.56-.26.97-.47,1.39-.65h0ZM10.35,9.38c.24-.12.48-.24.85-.42-.14.55-.56.36-.71.64-.05-.08-.09-.14-.14-.22ZM13.16,8.49c-.55.02-1.03.38-1.69.34.36-.42.92-.6,1.45-.47.07-.11.13-.2.24-.35v.47h0ZM13.7,8.92c.3,0,.59.04.89.04.27,0,.55-.04.94-.08.15.06.42.17.69.27-.02.05-.03.1-.04.15-.52-.17-1.08-.19-1.61-.06-.55.03-1.1.08-1.72.14.03-.21.05-.33.05-.4.28-.02.54-.05.8-.05h0ZM11.05,12.84c-.35-.1-.7-.19-1.05-.29.44-.26.74.06,1.05.28h0ZM16.78,13.68c.35-.06.7.04.97.27-.05.1-.09.21-.15.35-.27-.22-.5-.39-.82-.63h0ZM15.79,7.08v-.04h.98v.04h-.98ZM6.45,17.82c-.13.16-.38.19-.54.06-.03-.02-.05-.04-.07-.07-.19-.6.2-1,.48-1.45.11-.21.37-.29.59-.19-.08.17-.14.31-.23.5.19.39.09.86-.24,1.15h0ZM7.75,18.97c.08.83-.36,1.62-1.1,2,.36-.65.71-1.3,1.1-2h0ZM7.66,13.14c-.19,0-.38,0-.56-.05.82-.49,1.88-.31,2.5.42.06.13.1.26.11.4-.49-.6-1.27-.89-2.04-.76h-.01ZM7.04,13.1c-.68.39-1.37.78-2.03,1.15.26-.72.91-1.09,2.03-1.15h0ZM5.12,17.78h.22v.71c-.19.17-.4.35-.7.61.04-.48.2-.93.49-1.32h-.01ZM4.24,11.95h.01l-.1.2c.03-.07.06-.14.09-.21h0ZM4.09,11.2c-.14.2-.3.4-.45.59.1-.23.26-.43.45-.59h0ZM3.56,14.47h0c-.11.28-.24.55-.35.83.11-.28.22-.56.33-.84h0ZM3.19,13.23c-.1.26-.25.49-.45.69.15-.24.3-.46.45-.7h0ZM1.98,22.23c.18-.75.26-1.53.27-2.3.06-1.27.45-2.5,1.14-3.56.23-.53.56-1.02.97-1.44-.23.66-.46,1.24-.64,1.82-.21.72-.41,1.46-.56,2.2-.11.54-.15,1.09-.11,1.64,0,1.04-.28,2.06-.83,2.94-.02.04-.11.06-.23.12-.15-.46-.16-.96,0-1.43h0ZM4.48,16.37c-.18,1.29-.47,2.56-.88,3.8-.18-1.33.14-2.68.88-3.8h0ZM3.69,34.61c-.3-.58-.56-1.19-.78-1.82-.45-1.57-.82-3.16-1.1-4.77-.06-.94-.03-1.88.11-2.81,0-.12.1-.23.15-.35.12,1.67.1,3.33.32,4.98.36,1.6.83,3.18,1.42,4.72l-.13.04h.01ZM8.14,41.11c-.27-.3-.51-.62-.73-.96,1,.72,1.92,1.55,2.75,2.46l-.27-.18c-.6-.42-1.17-.87-1.74-1.33h0ZM10.45,43.68c-.17-.14-.34-.27-.51-.41.05,0,.11-.02.16,0,.05.03.09.06.14.1.1.07.21.14.31.2-.03.04-.06.08-.09.12h-.01ZM14.49,45.76c.17.02.34.02.51,0,.56.24,1.1.52,1.61.85-.74-.19-1.45-.48-2.12-.84h0ZM20.02,47.02v-.2l1.74.11c-.55.22-1.17.25-1.74.08h0ZM24.68,47.78l-1.5-.09v-.04h1.51s0,.09-.02.14h.01ZM32.37,46.26s-.02-.08-.04-.12c.27-.07.53-.16.8-.23,0,.04,0,.09.02.13l-.79.23h.01ZM35.32,44.8c.25-.14.5-.28.76-.42.08-.03.15-.06.22-.09-.11.31-.19.35-.98.5h0ZM36.29,43.34s-.04-.07-.06-.11c.24-.14.47-.26.71-.4,0,.04.03.08.05.13-.24.13-.46.25-.7.38h0ZM39.69,42.19s-.02-.02-.04-.03c.23-.2.46-.4.68-.6h.03c-.25.23-.46.42-.67.62h0ZM39.96,41.56l.07-.11h.05s-.07.07-.11.1h0ZM41.65,39.99c-.27.29-.54.57-.83.83-.02,0-.05-.04-.07-.05.4-.47.79-.96,1.19-1.43h0c-.05.23-.15.45-.3.65h.01ZM42.34,35.78c-.8,1.36-1.83,2.56-3.05,3.55-1.6,1.25-3.53,2.02-5.55,2.21-.9.14-1.8.16-2.71.21-.35.07-.7-.03-.97-.26.46-.11.94-.16,1.42-.14.51.03,1.01,0,1.51-.06,1.53-.07,3.04-.45,4.42-1.12.59-.32,1.15-.7,1.66-1.14,1.19-.88,2.21-1.98,3.01-3.23.12-.15.25-.29.38-.43-.02.14-.06.28-.1.42h-.02ZM36.61,41.14c-.56.41-1.25.62-1.94.59l1.94-.59ZM25.43,39.44c-.54.14-1.12.11-1.64-.11-.96-.4-1.88-.88-2.76-1.45-.31-.21-.64-.39-.97-.54-.74-.38-1.35-.98-1.74-1.71,1,.63,1.96,1.32,3.01,1.86.99.63,2.06,1.12,3.18,1.46.18-.18.15-.32-.05-.39-.4-.13-.79-.3-1.16-.5.1,0,.2-.02.41-.04-.6-.42-1.13-.79-1.71-1.2.27-.23.46-.03.66,0,.24.06.48.13.72.2l.69.19s.08-.12.15-.2c.15.11.3.23.47.36.22-.28.08-.42-.12-.53-.38-.21-.76-.44-1.15-.64-1.17-.61-2.35-1.22-3.53-1.81-.4-.18-.81-.34-1.23-.48-.4-.1-.76-.34-1.01-.66.73-.08,1.2.35,1.75.55.57.2,1.13.4,1.7.61s1.1.44,1.68.61c-.78-.57-1.62-1.03-2.52-1.37-.51-.17-.98-.42-1.42-.73-.49-.39-1.04-.71-1.56-1.06-.13-.09-.24-.22-.31-.36,1.85.99,3.76,1.85,5.73,2.58.03-.04.05-.08.08-.12-.08-.08-.17-.15-.26-.21-1.29-.66-2.59-1.27-3.85-1.96-.53-.33-1.03-.71-1.47-1.15-.56-.52-1.07-1.09-1.58-1.66-.58-.66-.96-1.46-1.1-2.32-.02-.11-.01-.25-.08-.32-.43-.47-.26-.99-.12-1.49.11-.32.24-.64.39-.95.24-.14.46-.28.68-.42.11.02.21.04.31.06-.21.48-.39.97-.54,1.48-.22,1.07-.02,2.19.54,3.13.5.99,1.22,1.86,2.1,2.54.6.45,1.27.83,1.91,1.23,1.02.65,2.12,1.16,3.27,1.51.49.07.94.32,1.26.71-.38.36-.75,0-1.16.05.07.11.1.24.18.27.2.06.4.11.61.14.46.13.93.27,1.39.39.94.24,1.89.49,2.84.69.22,0,.43-.04.63-.12h0c.32.07.64.1.97.11.25-.04.5-.1.73-.2.51.15,1.05.15,1.55-.02.11-.03.22-.07.33-.12.87-.36,1.86-.33,2.71.07-.15.03-.3.04-.46.04-.56-.05-1.12,0-1.65.18-.22.04-.38.22-.39.44.18.04.34.09.62.17-.18.14-.27.21-.43.33.06.04.12.07.18.1.35.16.78.02.96-.32.5-.69.75-.69,1.39,0-.06.35-.35.61-.71.64-.11,0-.22.09-.34.11-.55.05-1.01.41-1.2.92-.04.08-.09.16-.14.24-.74-.04-1.51.19-2.14-.42-.53.18-1.1.18-1.63,0-.2-.09-.49,0-.71.03-.18.41-.14.71.14.92,0-.1.03-.17.05-.28.17,0,.34-.02.62-.04-.08.12-.12.17-.16.23.4.73,1.12.69,1.81.61.55-.03,1.1.05,1.63.22.1.02.18.13.27.19-.05.26-.15.41-.4.42-.11,0-.23.05-.34.04-1.13-.06-2.28-.1-3.41-.2-1.12-.16-2.21-.49-3.24-.96-.11-.04-.22-.07-.33-.09,0,0-.04.02-.11.06.17.14.33.27.5.42v.02h.03ZM19.99,39.34c-.31-.1-.58-.29-.78-.55.34.03.64.24.79.55h-.01ZM19.21,38.78c-.33-.04-.38-.3-.44-.57.16.19.31.38.45.57h-.01ZM15.59,26.16c-.06,0-.12.01-.18.02-.04-.36-.08-.72-.12-1.08.06,0,.12-.01.18-.02.05.36.09.72.13,1.08h-.01ZM19.15,22.66c-.64.11-1.28.23-1.91.35-.44,0-.87.16-1.22.43-.07.07-.2.07-.3.1.02-.08.03-.19.08-.23,1.09-.77,2.46-1.02,3.75-.67-.14,0-.28,0-.41.03h.01ZM19.36,23.16c-.4.25-.89.32-1.35.2-.39-.03-.78-.01-1.16.06.79-.32,1.66-.42,2.5-.26h.01ZM16.06,24.27c-.06-.47.26-.59.54-.9.13.59-.29.62-.53.9h-.01ZM18.53,27.54c.07.13.11.27.11.42-.24.11-.42.2-.61.29-.1-.58-.05-.65.51-.71,0,0-.01,0-.01,0ZM27.74,35.32c.38.03.73-.05.98.26-.35.07-.7-.02-.97-.25h-.01ZM35.91,32.46c-.36.31-.84.43-1.3.32,0,0-.03-.04-.05-.08l1.1-.41c.06.04.15.11.25.17h0ZM35.85,32.22c.07-.26.28-.31.64-.17-.28.08-.44.12-.63.18h0ZM35.31,33.2c-.17.18-.27.29-.41.45-.19-.06-.43-.13-.77-.23.43-.28.79-.14,1.18-.21h0ZM33.7,32.56s0-.06-.02-.1c.25-.06.5-.13.75-.19,0,.04.02.08.03.12-.25.05-.5.11-.75.17h0ZM34.46,33.92c.44,0,.88.07,1.32.06.42-.03.83.14,1.1.47.12.15.3.25.43.45-.35-.07-.7-.14-1.08-.21-.35.29-.57.26-.88-.12-.03.05-.06.11-.14.25-.08-.15-.12-.26-.19-.39-.34-.1-.71-.08-1.04.04-.17.05-.35.08-.53.08-.7.1-1.37-.31-1.61-.97-.68-.16-1.27-.29-1.87-.44v-.14c.37-.1.74-.16,1.12-.2.52.03.99.31,1.27.75.27.39.76.57,1.21.43.3-.06.6-.08.9-.08h0v.02h0ZM36.44,38.06c-.29.13-.62.15-.93.07-.36-.05-.73-.06-1.09-.02.19-.45.44-.67,1.22-.8.66-.11,1.35-.47,2.19.1-.56.26-.97.47-1.39.65h0ZM37.62,38.61c-.24.12-.48.24-.85.42.15-.55.56-.36.71-.64.05.07.09.14.14.22h0ZM34.81,39.5c.55-.02,1.03-.38,1.69-.34-.36.42-.92.6-1.45.47-.07.11-.13.2-.24.35v-.47h0ZM34.28,39.08c-.3,0-.59-.04-.89-.04-.27,0-.55.04-.94.08-.15-.06-.42-.17-.69-.27.02-.05.03-.1.04-.15.52.17,1.08.19,1.61.06.55-.03,1.1-.08,1.72-.14-.03.21-.05.33-.05.4-.28.02-.54.05-.8.05h0ZM36.93,35.15c.35.1.7.19,1.05.29-.43.26-.73-.06-1.04-.28h0ZM31.2,34.32c-.35.06-.7-.04-.97-.27.05-.1.09-.21.15-.35.29.21.51.39.83.63h-.01ZM32.18,40.92v.04h-.98v-.04h.98ZM41.52,30.17c.13-.16.38-.19.54-.06.03.02.05.04.07.07.19.6-.2,1-.48,1.45-.11.21-.37.29-.59.19.08-.17.15-.31.23-.5-.19-.39-.09-.86.24-1.15,0,0,0,0-.01,0ZM40.22,29.02c-.08-.83.36-1.62,1.1-2-.34.65-.7,1.31-1.09,2.01h0ZM40.31,34.85c.19,0,.38,0,.56.05-.82.49-1.88.31-2.5-.42-.06-.13-.1-.26-.11-.4.49.6,1.27.89,2.04.76h0ZM40.93,34.89c.68-.39,1.37-.78,2.02-1.15-.25.72-.9,1.09-2.01,1.16h-.01ZM42.86,30.21h-.22v-.71c.19-.17.4-.35.7-.61-.04.48-.2.93-.49,1.32h.01ZM42.69,28.63c-.21.17-.53.14-.7-.07-.07-.09-.11-.2-.11-.32-.06-.32-.04-.65.05-.96.23-.65.52-1.27.82-1.9.13-.29.31-.56.44-.86.14-.24.06-.54-.18-.68-.03-.02-.07-.04-.1-.05-.1.2-.18.38-.27.56-.27.58-.58,1.14-.91,1.69-.34.49-.75.93-1.21,1.31-.4.32-.62.82-.59,1.33.03.6.05,1.2.02,1.8,0,.53-.07,1.05-.16,1.58-.06.5-.41.91-.89,1.06-.42.1-.69.5-.63.93-.41-.47-.62-1.08-.59-1.7,0-.67-.51-1.22-1.18-1.23-.32,0-.63.11-.86.33-.92.8-2.26.93-3.31.31-.74-.35-1.55-.52-2.37-.47-.76.02-1.53-.04-2.29-.07-.37-.01-.7,0-.86.47.87,1.01,1.9.5,2.97.25-.1.13-.14.18-.18.23.08.02.18.04.3.07-.11.29-.36.32-.65.44.1-.2.16-.32.21-.43-.24.08-.48.17-.72.24-.61.23-1.29.22-1.9-.02-.42-.19-.88-.3-1.29-.5-.55-.18-1.03-.52-1.38-.98-.23-.43-.75-.59-1.18-.36-.03.01-.05.03-.08.05-.3.13-.59.27-.88.4-.05.02-.12-.02-.19-.04.03-.11.06-.2.09-.31-.08-.01-.15-.03-.3-.06.01.24.03.44.05.75.27-.02.53-.06.79-.14.37-.17.81-.08,1.07.23.38.33.79.63,1.16.91.23-.05.38-.09.54-.13.02.08.03.2.08.23.87.45,1.59,1.23,2.72,1.07.36,0,.72.04,1.07.14.09.26.16.44.25.72-.25.12-.52.21-.79.26-1.07.1-2.15-.1-3.11-.59-.26-.14-.5-.33-.7-.55-.58-.79-1.43-1.33-2.38-1.54-1.14-.32-2.21-.88-3.12-1.64-.32-.26-.56-.61-.7-.99-.2-.49-.06-.67.56-.95.11.11.24.22.35.32-.35.96-.34.99.27,1.39-.09-.23-.17-.42-.23-.58.39-.54.33-1.29-.14-1.76.23-.11.44-.2.65-.29-.18-.79-.5-1.07-1.34-1.01-.47.05-.93-.18-1.17-.59-.07-.09-.09-.25-.18-.29-.54-.23-.48-.64-.36-1.08-.61.21-.28.76-.39,1.18-.39-.41-.38-1.05.02-1.44l.02-.02c.26-.18.54-.33.84-.45.11-.06.22-.14.33-.21.28.12.56.24.89.38l-.29.26c-.11-.23-.39-.32-.62-.21-.01,0-.03.02-.04.02-.24.13-.47.27-.68.44.43-.14.85-.41,1.33-.24.5.35.56.35,1.23-.11v-.65c.53-.32.94-.09,1.34.26-.1.11-.19.2-.3.31.08.07.14.12.22.2.23-.15.35-.45.7-.35.11.03.29-.13.4-.24.21-.2.4-.44.58-.64-.04-.53-.4-.68-.8-.81-.06.08-.12.16-.2.26-.19-.06-.38-.11-.63-.2.17-.08.26-.12.42-.2-1.32-.13-2.65-.13-3.97,0-1.98.06-3.54,1.72-3.47,3.7v.15c.02,1.25.37,2.47,1.01,3.55.21.33.35.7.44,1.08.11.59.13,1.2.2,1.88.01.02.08.14.21.32-.21-.04-.31-.06-.42-.08,0,.03-.02.06-.03.08.19.13.38.25.62.41-.16-.57-.19-1.17-.11-1.76.36.44.66.93.88,1.46.16.64.67,1.13,1.32,1.26.57.07,1.07.43,1.32.95-.75,0-1.18-.63-1.9-.66-.07.03-.18.1-.31.17-.16-.13-.31-.25-.51-.42.08.31.14.55.22.79.08.22.18.43.27.65h0c.1.25.19.5.3.76-.24.14-.68.03-.63.44.73.36,1.23,1.07,1.3,1.88-.25-.12-.41-.36-.43-.63-.04-.27-.23-.49-.5-.56-.28-.12-.6-.02-.77.23-.12.31,0,.67.28.85.05-.06.11-.12.12-.14.37.3.75.61,1.12.9.14-.15.21-.24.28-.31.56.35,1.07.67,1.59.99-.14-.17-.3-.35-.56-.66.35.09.55.14.65.17.37-.06.67-.11.95-.15.14.17.26.3.37.44.01-.02.03-.05.05-.07.58.29,1.17.57,1.74.85.01-.04.04-.07.05-.11-1.08-.81-2.17-1.63-3.25-2.44.01-.03.04-.06.05-.09.5.26,1,.5,1.49.78s.91.69,1.42.96c.41.2.85.35,1.3.45,1.04.29,2.09.54,3.13.81.13.02.26,0,.37-.07l-1.84-.63v-.13c.26-.05.53-.06.79-.04.86.23,1.71.51,2.56.77,0,.05,0,.1-.02.15-.33,0-.66-.04-1.07-.06.43.34.95.23,1.45.47-.37.21-.82.23-1.21.07-.34-.16-.73-.19-1.08-.07-.27.59-.2.74.39.85.23.04.46.04.84.08-.45-.15-.75-.26-1.07-.37.07-.09.11-.16.12-.15.72.25,1.51.15,2.23.43.32.07.65.07.97,0,1.1-.12,2.21-.09,3.3.07-.14.07-.29.12-.45.15-.84.07-1.67.12-2.5.17-.61,0-1.22.12-1.8.32.23.17.4.29.65.46,2.27-.18,4.65-.07,6.9-.99-.42.39-.92.67-1.48.81-.94.32-1.91.57-2.82.96-.38.2-.74.43-1.07.7.19,0,.37-.03.56-.07,1.08-.27,2.12-.67,3.11-1.2.28-.12.58-.21.88-.26-.6.6-1.34,1.04-2.15,1.28.1-.07.19-.17.26-.28-.79.29-1.51.55-2.24.82-.94.2-1.91.25-2.87.14.68-.14,1.37-.29,2.15-.44-.17-.21-.46-.27-.71-.16-.89.27-1.84.29-2.74.07-.4-.03-.78-.09-1.17-.16-.1,0-.18-.11-.39-.23.17-.07.35-.12.53-.14.6.06,1.2.14,1.8.22.62.1,1.26,0,1.83-.27-.06-.4-.44-.67-.84-.6-.05,0-.1.02-.14.04l-1.14.27c.3.44.85-.11,1.24.33-1.54.11-2.94-.49-4.41-.45.04-.08.08-.17.13-.29.34,0,.72.04,1.1.06-.83-.27-1.65-.54-2.48-.82-.37-.11-.72-.27-1.06-.47.6-.07,1.08.31,1.71.4v-.43c.99.41,2.07.58,3.14.5-.05-.04-.09-.1-.15-.11-1.11-.2-2.21-.48-3.29-.83-.03,0-.08.02-.14.04.05.08.09.16.14.23-.33-.14-.73-.12-.94-.5-.08-.08-.19-.13-.3-.14-.77-.17-1.49-.5-2.12-.96-.18-.09-.36-.17-.56-.23.21.23.42.45.63.68-.59-.24-1.1-.62-1.68-.82-.55-.3-1.15-.52-1.77-.64.2.19.44.34.69.44.84.33,1.62.82,2.27,1.45.55.6,1.12,1.17,1.73,1.71,1.26,1.11,2.8,1.87,4.45,2.19,1.03.29,2.1.45,3.17.46l.52-.04h-.03c.49.17.96.12,1.01-.08.2,0,.4-.04.59-.06.11.02.23,0,.33-.04.39-.06.78-.15,1.15-.27.27-.09.56-.17.83-.24-.65.35-1.32.66-2,.95-.38.02-.76.06-1.14.13s-.75.2-1.14.29c.08.05.13.08.21.13-.36.07-.68.35-.94.04-.25.08-.5.15-.76.2-.76.1-1.52.17-2.28.26-.13.03-.25.06-.37.11.62.04,1.23,0,1.83-.03s1.2,0,1.8,0c-1.79.44-3.66.46-5.46.07.49-.03.91-.05,1.34-.07-1.48-.22-2.96-.37-4.44-.53-.37,0-.73-.17-.96-.46.43.03.7.02.97.07.68.11,1.37.23,2.06.35.38.06.77.13,1.16.17.08,0,.18-.09.37-.2-.69-.18-1.4-.3-2.11-.37-.5-.11-1.04-.1-1.55-.26-.7-.26-1.46-.31-2.19-.14-.05,0-.1.02-.15.03-.09-.13-.12-.34-.27-.39.15.05.31.11.46.17-.12-.48-.49-.57-.91-.55s-.65.22-.81.69c-.13-.04-.26-.08-.38-.14-.18-.07-.35-.16-.53-.24.04-.08.08-.17.12-.26.09,0,.18.03.28.04-.08-.07-.15-.14-.21-.19,0-.02.02-.03.02-.05-.11-.4-.48-.68-.9-.68-.32-.03-.65-.09-.97-.11-.22-.02-.44-.05-.66-.09-.07-.07-.12-.16-.14-.25-.12-.49-.5-.72-.81-1-.37-.39-.86-.64-1.39-.72.22.14.45.29.67.43-.43.09-.87-.11-1.07-.5l.11-.07c-.63-.4-1.32-.67-1.93-1.14-1.06-.88-1.99-1.9-2.78-3.02-.09-.16-.16-.32-.2-.5-.3-.63-.6-1.26-.95-2,.3.14.52.41.59.73.12.41.29.81.43,1.21.17.35.43.65.74.87-.06-.17-.14-.33-.24-.49-.28-.52-.5-1.07-.65-1.64-.03-.84-.53-1.59-1.3-1.93.3.03.5-.06.55-.45-.12-.1-.27-.22-.4-.31-.42.16-.33.41-.26.66-.11-.14-.27-.26-.31-.41-.09-.29-.14-.58-.16-.88-.03-.71.02-1.43-.04-2.14-.12-1.31.02-2.64.41-3.9.08-.26.12-.5-.16-.69-.41.02-.46.32-.48.63-.04.62-.07,1.24-.11,1.86-.02.29-.1.56-.48.56-.25-.13-.4-.41-.37-.69,0-.35,0-.69,0-1.04-.05-1.26.94-2.28.85-3.55,0-.02,0-.05,0-.07.31-.56.49-1.19.52-1.83.09-.57.25-1.12.47-1.65.16-.31.4-.56.7-.74.21-.17.53-.14.7.07.07.09.11.2.11.32.06.32.04.65-.05.96-.23.65-.53,1.27-.82,1.9-.13.29-.31.56-.44.86-.14.24-.06.54.18.68.03.02.07.04.1.05.1-.2.18-.38.27-.56.27-.58.58-1.14.91-1.69.34-.49.75-.93,1.21-1.31.4-.32.62-.82.59-1.33-.03-.6-.05-1.2-.02-1.8,0-.53.07-1.05.16-1.58.06-.5.41-.91.89-1.06.42-.1.69-.5.63-.93.41.47.62,1.08.59,1.7-.01.67.51,1.22,1.18,1.23.32,0,.63-.11.86-.33.92-.81,2.26-.93,3.31-.31.74.35,1.55.52,2.37.47.76-.02,1.53.04,2.29.07.36.01.7,0,.86-.47-.87-1.01-1.9-.5-2.97-.25.1-.13.14-.18.18-.23-.08-.02-.18-.04-.3-.07.11-.29.36-.32.65-.44-.1.2-.16.32-.21.43.24-.08.48-.17.72-.24.61-.23,1.29-.22,1.9.02.42.19.88.3,1.29.5.55.18,1.03.52,1.38.98.23.43.75.59,1.18.36.03-.01.05-.03.08-.05.3-.13.59-.27.88-.4.05-.02.12.02.19.04-.03.11-.06.2-.09.31.08.01.15.03.3.06,0-.24-.03-.44-.05-.75-.27.02-.53.06-.79.14-.37.17-.8.08-1.07-.23-.38-.33-.79-.63-1.16-.91-.23.05-.38.09-.54.13-.02-.08-.03-.2-.08-.23-.87-.45-1.59-1.23-2.72-1.07-.36,0-.72-.04-1.07-.14-.09-.26-.16-.44-.25-.72.25-.12.52-.21.79-.26,1.07-.1,2.15.1,3.11.59.26.14.5.33.7.55.58.79,1.43,1.33,2.38,1.54,1.15.32,2.22.88,3.14,1.64.32.26.56.61.7.99.2.49.06.67-.56.95-.11-.11-.24-.22-.35-.32.35-.96.34-.99-.27-1.39.09.23.17.42.23.58-.39.54-.33,1.29.14,1.76-.23.11-.44.2-.65.29.18.79.5,1.07,1.34,1.01.47-.05.93.18,1.17.59.07.09.09.25.18.29.54.23.48.64.36,1.08.61-.21.28-.76.39-1.18.39.41.38,1.05-.03,1.44,0,0,0,.01-.02.02-.26.18-.54.33-.84.45-.11.06-.22.14-.33.21-.28-.12-.56-.24-.89-.38l.29-.26c.11.23.39.32.62.21,0,0,.03-.02.04-.02.24-.13.47-.27.68-.44-.43.14-.85.41-1.33.24-.49-.35-.56-.35-1.23.11v.66c-.53.32-.94.09-1.34-.26.1-.11.19-.2.3-.31-.08-.07-.14-.12-.22-.2-.23.15-.35.45-.7.35-.11-.03-.29.13-.4.24-.21.2-.4.44-.58.64.04.53.4.68.8.81.06-.08.12-.16.2-.26.19.06.38.11.63.2-.17.08-.26.12-.43.2,1.32.13,2.65.13,3.97,0,1.98-.07,3.54-1.73,3.47-3.71v-.15c-.02-1.25-.37-2.47-1.01-3.55-.21-.33-.35-.7-.44-1.08-.11-.59-.13-1.2-.2-1.88,0-.02-.08-.14-.21-.32.21.04.31.06.42.08,0-.03.02-.06.03-.08-.19-.13-.38-.25-.62-.41.16.57.19,1.17.11,1.76-.36-.44-.66-.93-.88-1.46-.16-.64-.67-1.13-1.32-1.26-.57-.07-1.07-.43-1.32-.95.75,0,1.18.63,1.9.66.07-.03.18-.1.31-.17.16.13.31.25.51.42-.08-.31-.14-.55-.22-.79-.08-.22-.18-.43-.27-.65h0c-.1-.25-.19-.5-.3-.76.24-.14.68-.03.63-.44-.73-.36-1.23-1.07-1.3-1.88.25.12.41.36.43.63.04.27.23.49.49.56.28.12.6.02.77-.23.12-.31,0-.67-.28-.85-.05.06-.11.12-.12.14-.37-.3-.75-.61-1.12-.9-.14.15-.21.24-.28.31-.56-.35-1.07-.67-1.59-.99.15.17.3.35.56.66-.35-.09-.55-.14-.65-.17-.37.06-.67.11-.95.15-.14-.17-.26-.3-.37-.44,0,.02-.03.05-.05.08-.58-.29-1.16-.56-1.74-.85,0,.04-.04.07-.05.11,1.08.81,2.17,1.63,3.25,2.44,0,.03-.04.06-.05.09-.49-.26-1.01-.5-1.49-.78s-.91-.69-1.42-.96c-.41-.2-.85-.35-1.3-.45-1.04-.29-2.09-.54-3.13-.81-.13-.02-.26,0-.36.08l1.84.63s0,.09-.01.13c-.26.05-.53.06-.79.04-.86-.23-1.71-.51-2.56-.77,0-.05.01-.1.02-.15.33.01.66.04,1.07.06-.43-.34-.95-.23-1.45-.47.37-.21.82-.23,1.21-.08.34.16.73.19,1.08.07.27-.59.2-.74-.39-.85-.23-.04-.46-.04-.84-.08.45.15.75.26,1.07.37-.07.09-.11.16-.12.15-.72-.25-1.51-.15-2.23-.43-.32-.07-.65-.07-.97,0-1.1.12-2.21.09-3.3-.08.14-.07.29-.12.45-.15.84-.07,1.67-.12,2.5-.17.61-.01,1.22-.12,1.8-.32-.23-.17-.4-.29-.65-.46-2.27.18-4.65.07-6.9.99.42-.39.92-.67,1.48-.81.94-.32,1.91-.56,2.82-.97.38-.2.74-.43,1.07-.7-.19,0-.37.03-.56.07-1.08.27-2.12.67-3.11,1.2-.28.12-.58.21-.88.26.6-.6,1.33-1.05,2.15-1.29-.1.07-.19.17-.26.28.79-.29,1.51-.55,2.24-.82.94-.2,1.91-.25,2.87-.14-.68.14-1.37.29-2.15.44.17.21.46.27.71.16.89-.27,1.84-.29,2.74-.07.4.03.78.09,1.17.16.1,0,.18.11.39.23-.17.07-.35.12-.53.14-.6-.06-1.2-.14-1.8-.22-.62-.1-1.26,0-1.83.27.06.4.44.67.84.6.05,0,.1-.02.14-.04l1.14-.27c-.3-.44-.85.11-1.24-.33,1.54-.11,2.94.49,4.41.45-.04.08-.08.17-.13.29-.34-.02-.72-.04-1.1-.06.83.27,1.65.54,2.48.82.37.11.72.27,1.06.47-.6.08-1.08-.31-1.71-.4v.43c-.99-.41-2.07-.58-3.14-.5.05.04.09.1.15.11,1.11.2,2.21.48,3.29.83.03.01.08-.02.14-.04-.05-.08-.09-.16-.14-.23.33.14.73.12.94.5.08.08.19.13.3.14.77.17,1.49.5,2.12.97.18.09.36.17.56.23-.21-.23-.42-.45-.63-.68.59.24,1.1.62,1.68.82.55.3,1.15.52,1.77.64-.2-.19-.44-.34-.69-.44-.84-.33-1.62-.82-2.27-1.45-.55-.6-1.12-1.17-1.73-1.71-1.26-1.11-2.8-1.87-4.45-2.19-1.03-.29-2.1-.45-3.17-.46l-.53.05h.03c-.49-.17-.96-.12-1.01.08-.2,0-.4.04-.59.06-.11-.02-.23,0-.33.05-.39.06-.78.15-1.15.27-.27.09-.56.17-.83.24.65-.35,1.32-.66,2-.95.38-.02.76-.06,1.14-.13.38-.08.75-.2,1.14-.29-.08-.05-.13-.08-.21-.13.36-.08.68-.35.94-.05.25-.08.5-.15.76-.2.76-.1,1.52-.17,2.28-.26.13-.03.25-.06.37-.11-.62-.04-1.23,0-1.83.03s-1.2,0-1.8,0c1.79-.44,3.66-.46,5.46-.08-.49.03-.91.05-1.34.08,1.48.22,2.96.37,4.44.53.37,0,.73.17.96.46-.43-.03-.7-.02-.97-.07-.68-.11-1.37-.23-2.06-.35-.38-.06-.77-.13-1.16-.17-.08,0-.18.09-.37.2.69.18,1.4.3,2.11.37.49.11,1.04.1,1.55.26.7.26,1.46.31,2.19.14.05,0,.1-.02.15-.03.09.13.12.34.27.39l-.46-.17c.12.48.49.57.91.55s.65-.22.81-.69c.13.04.26.08.38.14.18.08.35.16.52.24-.04.08-.08.17-.12.26-.09,0-.18-.03-.28-.04.08.08.15.14.21.19,0,.02-.02.03-.02.05.11.4.48.68.9.68.32.03.65.09.97.11.22.02.44.05.66.09.07.07.12.15.15.24.12.49.5.72.81.99.37.39.86.64,1.39.72l-.67-.43c.43-.09.87.11,1.07.5l-.11.07c.63.4,1.32.67,1.93,1.15,1.06.88,1.99,1.9,2.78,3.02.09.16.16.32.2.5.3.63.6,1.26.95,2-.3-.14-.52-.41-.59-.73-.12-.41-.29-.81-.43-1.21-.17-.35-.43-.65-.74-.87.06.17.14.33.24.49.28.52.5,1.07.65,1.64.03.84.53,1.59,1.3,1.93-.3-.03-.5.06-.55.45.12.1.27.22.4.31.42-.16.34-.41.26-.66.11.14.27.26.31.41.09.29.14.58.16.88.03.71-.02,1.43.04,2.14.12,1.31-.02,2.64-.41,3.9-.08.26-.12.5.16.69.41-.02.46-.32.48-.63.04-.62.07-1.24.11-1.86.02-.29.1-.56.48-.56.25.13.4.41.37.69v1.04c.05,1.26-.94,2.28-.85,3.55v.07c-.31.56-.49,1.19-.52,1.83-.09.57-.25,1.12-.47,1.65-.16.31-.4.56-.7.74h0ZM28.51,31.88c-.48.38-.62.35-1-.14.34.05.66.1,1,.14ZM27.61,32.94c-.21.2-.54.21-.76.02-.02,0-.05-.03-.05-.04s.02-.03.05-.07c.21.02.42.05.76.09ZM26.24,32.48c-.35.11-.73.03-1-.21.36-.23.6.06,1,.21h0ZM18.08,37.27s-.09.05-.14.08c-.25-.19-.51-.38-.86-.64.4-.03.6-.05.88-.07.03.2.07.42.11.63,0,0,.01,0,.01,0ZM17.33,35.54c-.08.02-.14.04-.21.06,0-.22-.02-.44-.03-.65h.06c.06.2.11.4.18.6h0ZM19.47,16.11c.48-.38.62-.35,1,.14-.33-.04-.65-.1-1-.14h0ZM20.37,15.06c.21-.2.54-.21.76-.02.02,0,.05.03.05.04s-.02.03-.05.07c-.2-.02-.42-.05-.76-.09h0ZM21.74,15.52c.35-.11.73-.03,1,.21-.36.23-.6-.06-1-.21h0ZM29.9,10.72s.09-.05.14-.08c.25.19.51.38.86.64-.4.03-.6.05-.88.08-.03-.2-.07-.42-.11-.63h-.01ZM30.65,12.46c.08-.02.15-.04.21-.06,0,.22.02.44.03.66h-.06c-.06-.2-.11-.4-.18-.6h0ZM44.39,27.82c.17,1.33-.14,2.68-.88,3.8.18-1.29.47-2.56.88-3.8h0ZM43.74,36.05h-.02c.04-.07.07-.14.1-.2-.02.07-.05.14-.08.2h0ZM43.89,36.79c.15-.2.3-.4.45-.59-.1.23-.26.43-.45.59h0ZM44.43,33.53h0c.11-.28.24-.55.35-.83-.11.28-.22.56-.34.84h0ZM44.79,34.77c.1-.26.25-.49.45-.69-.14.23-.3.46-.45.69h0ZM46,25.77c-.18.75-.26,1.53-.27,2.3-.06,1.27-.45,2.5-1.14,3.56-.23.53-.56,1.02-.97,1.44.23-.66.46-1.24.64-1.82.21-.72.41-1.46.56-2.2.11-.54.15-1.09.11-1.64,0-1.04.28-2.06.83-2.94.02-.04.11-.06.23-.12.15.46.16.96,0,1.43h0ZM46.05,22.79c0,.12-.1.23-.15.35-.12-1.67-.1-3.33-.32-4.98-.36-1.6-.83-3.18-1.42-4.72l.13-.04c.3.58.56,1.19.78,1.82.45,1.57.82,3.16,1.1,4.77.06.94.03,1.88-.11,2.81h0ZM46.81,18.83c-.05-.33-.09-.66-.15-1.09.37.26.21.54.29.76.08.2.17.41.25.61-.19,0-.35-.05-.38-.28h0ZM47.21,26.74c0,.08-.03.17-.05.26,0-.14.03-.27.04-.4.04-.92.15-1.83.15-2.75,0-.87-.07-1.73-.14-2.59h0v-.04c0-.16-.02-.31-.04-.47-.04-.44-.14-.88-.21-1.3.1-.13.18-.23.25-.33.03.06.05.11.08.17.03.32.05.63.09.94,0,.15.03.29.05.44-.06.17-.06.37.02.53,0,.02.02.05.03.07.11,1.83.02,3.66-.27,5.46h0Z"/>
    <path id="Path_2" data-name="Path 2" class="cls-1" d="M26.03,18.79c.52.03,1.03-.15,1.43-.49.25-.2.48-.42.73-.63-.33.03-.65.15-.93.34-.35.32-.87.34-1.25.06-.2-.09-.42-.16-.64-.2-.08.69.21.9.67.92h-.01Z"/>
    <path id="Path_3" data-name="Path 3" class="cls-1" d="M32.89,15.97c.13,1.14.52,1.47,1.39,1.05-.32-.17-.6-.33-.92-.5-.05-.28-.11-.36-.47-.55Z"/>
    <path id="Path_4" data-name="Path 4" class="cls-1" d="M25.75,23.95c-.26-.05-.51-.09-.81-.15-.24.43-.12.66.25.72s.65-.04.56-.57Z"/>
    <path id="Path_5" data-name="Path 5" class="cls-1" d="M27.02,46.24c-.3-.02-.6-.05-.9-.07s-.6-.03-.91-.04c-.26,0-.54-.24-.91.16h2.71v-.06h.01,0Z"/>
    <path id="Path_6" data-name="Path 6" class="cls-1" d="M27.71,27.27c-.2-.1-.37-.2-.72-.38.21.48.42.66.76.59.24-.02.43-.23.41-.47v-.03s-.05-.08-.08-.13c-.12.13-.24.26-.38.42,0,0,.01,0,0,0Z"/>
    <path id="Path_7" data-name="Path 7" class="cls-1" d="M30.94,23.52l.09-.03v-.03h-.03s-.05.03-.07.05h.01Z"/>
    <path id="Path_8" data-name="Path 8" class="cls-1" d="M10.63,17.05c.18.16.33.29.55.48-.23.18-.36.28-.58.45.33.07.66-.14.73-.47v-.05c-.04-.28-.31-.48-.6-.43-.04,0-.08.02-.11.03h.01Z"/>
    <path id="Path_9" data-name="Path 9" class="cls-1" d="M5.56,25.51c.3-.22.52-.37.25-.69-.48.03-.54.24-.25.69Z"/>
    <path id="Path_10" data-name="Path 10" class="cls-1" d="M19.3,6.88c.02.06.04.12.06.17l1.31-.19c-.36-.07-.72-.16-1.09-.21-.09,0-.19.14-.29.22h.01Z"/>
    <path id="Path_11" data-name="Path 11" class="cls-1" d="M20.47,6.87h.09l-.02-.02h-.07v.02Z"/>
    <path id="Path_12" data-name="Path 12" class="cls-1" d="M20.21,5.61c.59.05,1.18.1,1.77.14-.55-.24-1.15-.36-1.75-.34,0,.07-.02.13-.02.19h0Z"/>
    <path id="Path_13" data-name="Path 13" class="cls-1" d="M21.72,5.75s.03.02.05.03h.1s-.05-.02-.08-.03h-.07Z"/>
    <path id="Path_14" data-name="Path 14" class="cls-1" d="M21.81,6.51c.56.07.99.13,1.43.19-.42-.3-.95-.37-1.43-.19Z"/>
    <path id="Path_15" data-name="Path 15" class="cls-1" d="M17.46,5.48h-1.11c.32.05.64.35,1.11,0Z"/>
    <path id="Path_16" data-name="Path 16" class="cls-1" d="M20.24,9.96c.3.86.51.95,1.27.51-.25-.32-.45-.58-.68-.89-.23.15-.41.27-.58.38h-.01Z"/>
    <path id="Path_17" data-name="Path 17" class="cls-1" d="M24.48,12.75c-.49-.16-.88-.28-1.27-.41.35.31.81.46,1.27.41Z"/>
    <path id="Path_18" data-name="Path 18" class="cls-1" d="M21.99,11.58c-.07.03-.14.06-.21.08-.04.34-.1.69.49.61.04,0,.07-.08.1-.12-.09-.04-.18-.09-.27-.14-.05-.2-.08-.31-.11-.43Z"/>
    <path id="Path_19" data-name="Path 19" class="cls-1" d="M21.96,29.21c-.52-.03-1.03.15-1.43.49-.25.2-.48.42-.73.63.33-.03.65-.15.93-.34.35-.32.87-.34,1.25-.06.2.09.42.16.64.2.08-.69-.21-.9-.67-.92h.01Z"/>
    <path id="Path_20" data-name="Path 20" class="cls-1" d="M14.63,31.48c.05.28.11.36.47.55-.13-1.14-.52-1.47-1.39-1.05.32.17.6.33.92.5Z"/>
    <path id="Path_21" data-name="Path 21" class="cls-1" d="M22.8,23.47c-.37-.06-.65.04-.56.57.26.05.51.09.81.15.24-.43.12-.66-.25-.72Z"/>
    <path id="Path_22" data-name="Path 22" class="cls-1" d="M20.97,1.76c.3.02.6.05.9.07s.6.03.91.04c.26,0,.54.24.91-.16h-2.71v.06h-.01Z"/>
    <path id="Path_23" data-name="Path 23" class="cls-1" d="M20.23,20.51c-.24.02-.43.23-.41.47v.03s.05.08.08.13c.12-.13.24-.26.38-.42.2.1.37.2.72.38-.21-.48-.42-.66-.76-.59,0,0-.01,0,0,0h0Z"/>
    <path id="Path_24" data-name="Path 24" class="cls-1" d="M17.05,24.47l-.09.03v.03h.03s.05-.03.07-.05h-.01Z"/>
    <path id="Path_25" data-name="Path 25" class="cls-1" d="M36.65,30.54c.04.28.31.48.6.43.04,0,.08-.02.11-.03-.18-.16-.33-.29-.55-.48.23-.18.36-.28.58-.45-.33-.07-.66.14-.73.47v.05h-.01Z"/>
    <path id="Path_26" data-name="Path 26" class="cls-1" d="M42.42,22.49c-.3.22-.52.37-.25.69.48-.03.54-.24.25-.69Z"/>
    <path id="Path_27" data-name="Path 27" class="cls-1" d="M27.52,41.14h-.09l.02.02h.07v-.02Z"/>
    <path id="Path_28" data-name="Path 28" class="cls-1" d="M28.69,41.12c-.02-.06-.04-.12-.06-.17-.44.06-.87.13-1.31.19.36.07.72.16,1.09.21.09,0,.19-.14.29-.22h-.01Z"/>
    <path id="Path_29" data-name="Path 29" class="cls-1" d="M27.78,42.39c-.59-.05-1.18-.1-1.77-.14.55.24,1.15.36,1.75.34,0-.06.02-.13.02-.19h0Z"/>
    <path id="Path_30" data-name="Path 30" class="cls-1" d="M26.26,42.25s-.03-.02-.05-.03h-.1s.05.02.08.03h.07Z"/>
    <path id="Path_31" data-name="Path 31" class="cls-1" d="M26.17,41.49c-.56-.07-.99-.13-1.43-.19.42.3.95.37,1.43.19Z"/>
    <path id="Path_32" data-name="Path 32" class="cls-1" d="M30.53,42.52h1.11c-.32-.05-.64-.35-1.11,0Z"/>
    <path id="Path_33" data-name="Path 33" class="cls-1" d="M27.74,38.03c-.3-.86-.51-.95-1.27-.51.25.32.45.58.68.89.23-.15.41-.27.58-.38h.01Z"/>
    <path id="Path_34" data-name="Path 34" class="cls-1" d="M23.5,35.25c.49.16.88.28,1.27.41-.35-.31-.81-.46-1.27-.41Z"/>
    <path id="Path_35" data-name="Path 35" class="cls-1" d="M25.99,36.41c.07-.03.14-.06.21-.08.04-.34.1-.69-.49-.61-.04,0-.07.08-.1.12.09.04.18.09.27.14.05.2.08.31.11.43Z"/>
  </g>
  <g id="Component_16_1" data-name="Component 16 1">
    <g id="Group_72" data-name="Group 72">
      <path id="Path_7446" data-name="Path 7446" class="cls-1" d="M77.86,33.28c-.13,0-.26-.04-.38-.1-.12-.05-.19-.17-.18-.29,0-.3.2-.5.59-.59.49-.07.95-.27,1.34-.58.27-.36.4-.81.35-1.25v-12.79c.05-.46-.07-.92-.32-1.3-.37-.32-.83-.54-1.31-.62-.41-.09-.62-.29-.62-.59,0-.13.07-.25.18-.31.11-.07.25-.11.38-.11.43,0,.87,0,1.32.03.45.02.89.04,1.33.07s.83.04,1.21.04.8,0,1.28-.03l1.47-.06c.5-.02.95-.03,1.36-.03.34,0,.51.14.51.42.01.14-.05.28-.16.37-.13.09-.28.16-.44.2-.55.1-1.06.34-1.49.7-.27.35-.4.8-.36,1.24v5.07c-.01.12.03.23.13.31.1.06.21.09.32.09h7.44c.24,0,.37-.13.37-.39v-5.07c.04-.44-.09-.88-.35-1.24-.42-.36-.93-.6-1.48-.7-.17-.04-.32-.11-.47-.2-.11-.09-.17-.23-.15-.37,0-.28.18-.42.53-.42.41,0,.87,0,1.38.03l1.49.05c.49.02.92.03,1.3.03.36,0,.75-.01,1.17-.04s.85-.05,1.3-.07.87-.03,1.3-.03c.14,0,.28.04.4.11.11.07.17.18.17.31,0,.3-.2.5-.59.59-.5.08-.96.3-1.34.63-.25.38-.36.83-.32,1.28v12.76c-.05.46.08.92.35,1.28.38.3.83.5,1.31.58.39.09.59.29.59.59,0,.12-.06.24-.17.3-.11.07-.24.1-.37.1-.39,0-.82,0-1.27-.04s-.9-.05-1.35-.07-.86-.03-1.24-.03-.8,0-1.28.03-.97.04-1.48.07-.97.04-1.38.04c-.13,0-.26-.03-.37-.11-.09-.08-.15-.19-.14-.31-.02-.14.04-.29.15-.38.14-.08.28-.14.44-.18.53-.1,1.03-.33,1.46-.66.29-.33.44-.76.4-1.2v-5.27c0-.12-.02-.24-.07-.35-.06-.09-.16-.14-.27-.13h-7.53c-.26,0-.39.15-.39.45v5.27c-.03.44.12.88.42,1.2.43.35.95.59,1.49.69.15.04.3.1.44.18.12.09.17.23.16.38,0,.12-.04.23-.13.31-.11.08-.24.12-.38.11-.41,0-.87,0-1.38-.04s-1-.05-1.49-.07-.92-.03-1.3-.03-.79,0-1.25.03-.92.04-1.38.07-.88.04-1.25.04"/>
      <path id="Path_7447" data-name="Path 7447" class="cls-1" d="M100.89,33.33c-.18,0-.36-.03-.52-.1-.14-.06-.22-.2-.21-.35-.01-.16.06-.31.18-.41.15-.1.32-.17.49-.21.52-.13,1-.37,1.42-.7.4-.31.71-.72.92-1.18.47-1.05.91-2.09,1.33-3.11s.82-2.04,1.21-3.04.79-2.03,1.18-3.07c.4-1.04.79-2.1,1.18-3.17.21-.55.39-1.11.54-1.67.03-.21.09-.41.17-.61.34-.09.66-.18.96-.25.33-.08.65-.19.96-.31.31-.12.61-.29.86-.51.24-.21.41-.37.52-.48.06-.05.14-.09.23-.1.07,0,.15.05.22.18.06.11.11.23.16.35.05.13.09.27.13.41.39,1.26.8,2.54,1.21,3.85.41,1.3.83,2.6,1.25,3.9s.84,2.58,1.25,3.85.82,2.5,1.21,3.7c.1.35.28.68.52.96.23.26.5.47.8.62.33.16.67.29,1.01.39.17.04.34.12.49.21.12.09.19.23.18.38,0,.13-.06.24-.17.31-.12.08-.25.12-.39.11-.38,0-.84,0-1.39-.04s-1.11-.05-1.68-.07-1.06-.03-1.49-.03c-.36,0-.79,0-1.31.03s-1.04.04-1.56.06-.98.03-1.35.03c-.15,0-.3-.03-.44-.1-.11-.06-.19-.17-.18-.3,0-.16.07-.31.2-.39.14-.1.31-.17.48-.2.54-.09,1.06-.29,1.52-.59.33-.26.45-.7.31-1.1-.08-.36-.17-.73-.28-1.13s-.22-.79-.32-1.19-.21-.79-.32-1.17c-.03-.12-.07-.24-.14-.34-.09-.09-.21-.13-.34-.11h-4.98c-.11,0-.23.03-.31.11-.09.1-.15.23-.17.37-.08.26-.16.52-.25.79s-.18.52-.27.79-.17.53-.24.79-.15.52-.22.76c-.15.44-.09.92.17,1.3.44.4.99.65,1.58.73.45.09.68.29.68.59,0,.12-.05.24-.16.3-.15.08-.32.11-.49.1-.55,0-1.05,0-1.52-.04s-.99-.05-1.55-.05c-.53,0-1.07.03-1.6.09-.54.06-1.09.09-1.64.08M107.68,25.11h3.66c.28,0,.42-.07.42-.2,0-.05,0-.09-.01-.14-.01-.04-.03-.09-.04-.14l-1.89-6.36c-.06-.21-.11-.31-.17-.31-.04,0-.1.1-.2.31l-2.22,6.37c-.04.07-.06.15-.06.23,0,.1.06.18.16.2.11.04.23.06.35.06"/>
      <path id="Path_7448" data-name="Path 7448" class="cls-1" d="M126.4,33.67c-.26-.02-.49-.2-.56-.45-.13-.28-.29-.66-.49-1.13s-.36-.91-.49-1.32l-5.55-13.07c-.18-.44-.43-.84-.74-1.19-.34-.37-.79-.62-1.28-.72-.16-.06-.33-.14-.48-.23-.14-.08-.21-.23-.2-.39,0-.13.07-.25.18-.3.13-.07.27-.1.41-.1.38,0,.81,0,1.31.03s1,.04,1.51.06.94.03,1.3.03.83-.01,1.38-.04c.54-.02,1.08-.04,1.63-.05s1-.01,1.38-.01c.17,0,.35.04.51.1.17.07.25.17.25.3,0,.16-.11.31-.25.38-.17.1-.36.17-.56.21-.42.09-.83.23-1.21.42-.26.14-.41.41-.39.71,0,.14.02.28.06.41.04.14.07.27.08.38l3.63,10.2c.04.11.08.18.13.2.05.02.1-.06.15-.23l3.3-8.65c.36-.73.44-1.56.22-2.34-.27-.64-.89-1.05-1.58-1.07-.21-.04-.41-.11-.59-.21-.17-.07-.28-.23-.28-.41,0-.13.09-.23.26-.28.18-.06.36-.09.55-.1.39,0,.72,0,.98.01l.78.03c.25,0,.57.01.94.01.55,0,1.06-.02,1.55-.07s1.01-.07,1.55-.07c.2,0,.39.03.58.08.17.04.28.2.26.37,0,.16-.09.3-.24.35-.16.07-.33.14-.52.21-.56.13-1.07.43-1.45.86-.45.56-.81,1.2-1.06,1.87l-4.28,10.26c-.3.69-.57,1.31-.8,1.83s-.45,1.01-.64,1.44-.38.84-.59,1.24c-.04.14-.12.26-.23.35-.13.08-.28.11-.42.1"/>
      <path id="Path_7449" data-name="Path 7449" class="cls-1" d="M138.67,33.33c-.15,0-.29-.04-.41-.13-.1-.07-.15-.18-.16-.3,0-.28.21-.48.62-.59.49-.1.96-.3,1.37-.59.31-.33.46-.79.41-1.24v-12.81c.04-.47-.09-.93-.37-1.31-.38-.33-.85-.54-1.35-.6-.19-.03-.37-.11-.51-.24-.09-.09-.14-.22-.14-.35,0-.12.07-.24.17-.3.12-.09.27-.13.42-.13.6,0,1.1.02,1.49.06.4.04.77.07,1.11.1.35.03.76.04,1.22.04.4,0,.79-.02,1.19-.07.36-.05.76-.09,1.19-.13s.98-.06,1.62-.06c1.75-.1,3.49.22,5.08.94,1.17.65,1.85,1.92,1.73,3.25,0,.57-.13,1.14-.39,1.65-.24.49-.59.93-1.01,1.28-.29.25-.6.47-.94.65-.36.18-.73.32-1.12.42-.08.02-.13.09-.11.17,0,.06.06.1.11.11.49.11,1,.26,1.52.44.53.18,1.03.44,1.48.77.46.34.84.79,1.1,1.31.29.64.43,1.34.41,2.04.04.86-.13,1.71-.49,2.49-.28.55-.68,1.03-1.19,1.4-.41.29-.84.55-1.28.79-.67.32-1.38.54-2.11.68-.93.16-1.87.23-2.82.22-.62,0-1.24-.02-1.87-.06-.63-.04-1.29-.06-1.99-.06-.39,0-.83,0-1.3.03-.47.02-.94.04-1.39.07-.46.03-.9.04-1.31.04M145.97,22.8c.42,0,.84-.05,1.24-.16.42-.12.81-.33,1.15-.6.21-.24.4-.51.55-.8.27-.55.39-1.15.35-1.76.02-.67-.09-1.35-.31-1.98-.18-.49-.51-.9-.94-1.18-.51-.29-1.09-.42-1.68-.39-.4-.03-.8.07-1.14.29-.25.23-.38.55-.35.89v4.7c-.03.31.12.62.39.77.22.13.48.2.73.21M146.56,31.75c.57,0,1.13-.18,1.59-.51.5-.35.91-.82,1.18-1.37.3-.61.45-1.28.44-1.96,0-.54-.07-1.08-.24-1.6-.13-.38-.32-.73-.56-1.04-.18-.22-.38-.42-.61-.59-.24-.18-.51-.32-.8-.41-.46-.15-.94-.22-1.42-.21-.31,0-.62.08-.89.24-.26.13-.42.4-.41.69v4.96c-.04.5.12.99.45,1.36.35.31.8.47,1.27.44"/>
      <path id="Path_7450" data-name="Path 7450" class="cls-1" d="M173.43,33.78c-.82.02-1.64-.1-2.42-.35-.61-.21-1.18-.52-1.68-.93-.46-.38-.87-.82-1.22-1.31-.41-.55-.81-1.09-1.2-1.63s-.77-1.14-1.14-1.78c-.38-.64-.77-1.37-1.18-2.2-.15-.37-.42-.68-.76-.87-.15-.11-.33-.18-.51-.23-.15-.03-.3-.05-.45-.06-.1,0-.19.06-.22.16-.06.13-.09.27-.08.41v5.38c-.04.47.13.94.48,1.27.5.34,1.07.56,1.66.65.17.02.33.08.47.18.11.1.17.24.16.38,0,.12-.05.23-.14.31-.12.08-.26.12-.4.11-.41,0-.89,0-1.42-.04s-1.07-.05-1.59-.07-.98-.03-1.35-.03c-.4,0-.83,0-1.3.03s-.95.05-1.45.07-.95.04-1.37.04c-.14,0-.27-.03-.39-.1-.11-.06-.17-.17-.17-.3,0-.3.2-.5.59-.59.53-.08,1.04-.27,1.48-.58.31-.35.46-.82.41-1.28v-12.64c0-.36-.03-.72-.13-1.07-.08-.26-.26-.47-.49-.6-.34-.17-.7-.29-1.07-.35-.19-.03-.36-.11-.51-.24-.09-.09-.14-.22-.14-.35,0-.12.07-.23.17-.3.14-.09.3-.14.46-.13.6,0,1.09.02,1.48.06s.75.07,1.1.1.76.04,1.22.04c.38,0,.76-.02,1.14-.07.33-.04.7-.09,1.12-.13s.96-.06,1.62-.06c1.76-.1,3.52.29,5.07,1.13,1.17.73,1.85,2.03,1.78,3.41.03.75-.16,1.49-.55,2.13-.36.56-.83,1.04-1.38,1.41-.52.35-1.08.63-1.68.83-.08.02-.11.06-.1.13s.04.14.07.21c.56.83,1.11,1.63,1.65,2.41.51.75,1.07,1.48,1.65,2.17.55.65,1.13,1.26,1.74,1.85.53.54,1.21.91,1.96,1.05.66.1,1.32.15,1.99.16.28,0,.42.17.42.5,0,.38-.15.75-.44,1-.35.28-.76.47-1.2.55-.57.12-1.16.18-1.75.17M163.63,23.53c.63.02,1.25-.14,1.77-.48.47-.33.85-.78,1.07-1.31.25-.6.38-1.25.37-1.9.02-.74-.09-1.47-.34-2.17-.19-.54-.54-1-1.01-1.31-.53-.31-1.13-.46-1.75-.44-.37-.03-.71.17-.89.49-.23.67-.32,1.39-.27,2.1-.02.43-.03.98-.03,1.63v2.34c-.03.3.08.59.29.8.22.17.5.25.78.24"/>
      <path id="Path_7451" data-name="Path 7451" class="cls-1" d="M179.85,33.36c-.2,0-.41-.03-.59-.13-.13-.06-.22-.18-.22-.32,0-.17.1-.33.25-.4.18-.1.38-.17.59-.2.57-.07,1.1-.35,1.49-.77.3-.42.45-.93.42-1.45v-3.88c.02-.56-.07-1.11-.27-1.64-.17-.42-.38-.82-.61-1.21l-3.64-5.61c-.16-.28-.34-.54-.53-.79-.21-.27-.45-.51-.72-.72-.28-.22-.6-.38-.94-.46-.16-.06-.32-.14-.48-.23-.14-.08-.21-.23-.2-.39,0-.13.07-.25.18-.3.13-.07.27-.1.41-.1.79,0,1.54.03,2.27.09s1.49.08,2.3.08c.59,0,1.18-.02,1.76-.08.58-.06,1.17-.09,1.76-.09.17,0,.35.04.51.1.17.07.25.16.25.3,0,.16-.11.31-.25.38-.17.11-.36.18-.56.21-.38.08-.75.22-1.1.41-.23.14-.36.4-.34.66.02.35.13.69.31.99l2.9,4.99c.17.34.34.51.51.51.09,0,.18-.06.24-.13.11-.11.2-.24.27-.38.45-.77.88-1.54,1.28-2.3s.8-1.57,1.2-2.43c.09-.19.17-.39.24-.59.06-.18.1-.37.1-.56,0-.34-.19-.66-.49-.82-.31-.18-.66-.29-1.03-.31-.2-.04-.4-.12-.58-.21-.17-.06-.29-.22-.3-.41,0-.13.09-.23.27-.28.18-.06.36-.09.55-.09.54,0,1.03.02,1.46.06s.9.06,1.41.06c.47,0,.94-.03,1.41-.1.48-.07.97-.1,1.46-.1.2,0,.39.03.58.09.17.04.28.2.27.37,0,.17-.12.32-.28.37-.19.08-.38.15-.59.23-.53.11-1.02.35-1.44.7-.4.35-.74.75-1.01,1.21-.3.49-.6.96-.89,1.42s-.57.91-.85,1.37c-.27.45-.55.9-.83,1.35s-.56.92-.84,1.41c-.15.26-.29.54-.41.82-.12.28-.22.57-.28.87-.07.34-.1.69-.1,1.04v4.15c-.05.53.1,1.06.42,1.48.44.37.96.63,1.52.75.2.05.39.12.58.2.15.06.25.21.24.37,0,.14-.09.26-.21.33-.16.09-.34.13-.52.13-.41,0-.88-.02-1.38-.06s-1.01-.07-1.51-.1-.93-.04-1.31-.04-.83,0-1.29.04-.95.07-1.44.11-.95.07-1.38.07"/>
      <path id="Path_7452" data-name="Path 7452" class="cls-1" d="M202.61,33.59c-1.3,0-2.59-.22-3.82-.66-1.16-.42-2.24-1.07-3.15-1.9-.91-.82-1.63-1.81-2.13-2.93-.52-1.18-.78-2.46-.76-3.75,0-1.28.25-2.54.75-3.72s1.23-2.26,2.14-3.16c.97-.94,2.11-1.68,3.36-2.18,1.39-.55,2.87-.82,4.37-.8.46,0,.91.03,1.36.08.52.06,1.05.13,1.59.22.54.1,1.06.2,1.54.32.4.1.79.22,1.17.38.15.04.28.13.39.24.1.12.16.28.17.44.09.66.17,1.28.24,1.86.06.49.09.98.1,1.47,0,.15-.03.3-.13.42-.09.1-.22.15-.35.14-.18.02-.36-.05-.49-.17-.11-.13-.2-.27-.27-.42-.17-.36-.36-.73-.58-1.11-.21-.38-.47-.74-.78-1.06-.24-.24-.51-.46-.8-.65-.35-.23-.74-.4-1.14-.5-.53-.14-1.08-.21-1.64-.2-1.85-.05-3.61.82-4.7,2.33-.54.74-.95,1.57-1.21,2.45-.28.94-.41,1.91-.41,2.89,0,1.16.11,2.32.36,3.45.21.95.57,1.86,1.07,2.69.43.71,1.03,1.31,1.75,1.73.74.42,1.57.62,2.42.61.42.02.83-.07,1.2-.25.26-.14.51-.29.75-.45.22-.19.38-.44.47-.72.13-.36.19-.73.18-1.11.02-.23.03-.47.03-.7v-1.6c0-.2-.04-.4-.13-.58-.11-.19-.28-.34-.49-.41-.18-.12-.37-.21-.58-.28s-.43-.13-.65-.18l-.58-.13c-.16-.03-.32-.1-.45-.2-.14-.1-.22-.25-.22-.42,0-.13.08-.26.2-.31.12-.07.26-.11.39-.11.43,0,.91.01,1.42.03s1.03.04,1.54.07.96.04,1.35.04c.54,0,1.12-.02,1.73-.06s1.2-.06,1.76-.06c.12,0,.24.03.34.1.1.08.15.2.14.32,0,.15-.04.3-.15.41-.12.09-.26.15-.41.18-.4.07-.77.24-1.07.51-.21.25-.34.55-.39.88-.08.41-.13.77-.16,1.08s-.04.65-.04,1.03v.9c0,.1.04.2.11.28.08.1.16.19.25.28.07.09.14.18.2.28.06.09.08.2.08.31,0,.13-.04.25-.11.35-.1.14-.25.22-.42.24-.28.06-.54.16-.79.3-.38.18-.85.39-1.41.62-.65.26-1.32.46-2,.61-.84.18-1.7.26-2.56.25"/>
    </g>
  </g>
</svg>