<?xml version="1.0" encoding="UTF-8"?>
<svg id="Layer_1" data-name="Layer 1" xmlns="http://www.w3.org/2000/svg" viewBox="0 0 371.1 371.79">
  <defs>
    <style>
      .cls-1 {
        fill: #fff;
      }
    </style>
  </defs>
  <path class="cls-1" d="M175.96.26c102.79-5.36,189.76,74.43,194.9,176.2,5.16,102.25-73.69,189.73-175.6,195.08C93.5,376.87,6.14,298.35.31,196.43-5.54,94.33,73.01,5.63,175.96.26ZM282.56,275.46c11.78-1.2,21.4-7.9,26.5-18.65,8.41-17.75,8.21-47.78,8.21-67.94,0-19.46-.23-38.31-3.04-57.48-1.11-7.57-3.37-14.79-7.57-21.09-4.12-6.18-11.2-11.11-18.55-12.59-11.31-2.27-21.97-2.92-33.67-3.35-49.01-1.8-97.45-1.37-146.44.61-16.39.66-35.18.95-44.55,16.24-4.03,6.58-5.26,14.01-7.41,21.47-1.64,18.41-2.38,36.16-2.1,54.7.24,16.02.37,31.36,2.22,47.24.96,8.21,3.51,15.78,5.73,23.62,5.03,8.13,12.69,13.92,21.94,16.18,14.05,2.06,27.1,2.84,41.34,3.17,44.67,1.03,114.35,2.25,157.4-2.13Z"/>
  <polygon class="cls-1" points="220.85 186 150.01 222.85 150.02 148.86 220.85 186"/>
</svg>